<svg xmlns="http://www.w3.org/2000/svg" viewBox="0 0 43.12 43.13"><defs><style>.cls-1{fill:#ababad;}.cls-2{fill:#fefefe;}.cls-3{fill:#dbdbdb;}.cls-4{fill:#a9a9a9;}.cls-5{fill:#cbcbfe;}.cls-6{fill:#e8e8f0;}.cls-7{fill:#cbcbcb;}.cls-8{fill:#767676;}.cls-9{fill:#2e4e3e;}.cls-10{fill:#242424;}.cls-11{fill:#1d1d1d;}.cls-12{fill:#305141;}.cls-13{fill:#97b7fe;}.cls-14{fill:#97cbfe;}.cls-15{fill:#97fecb;}.cls-16{fill:#cbfefe;}.cls-17{fill:#66fe97;}.cls-18{fill:#97a8fe;}.cls-19{fill:#8c8ce7;}.cls-20{fill:#fefecb;}</style></defs><g id="Calque_2" data-name="Calque 2"><g id="Calque_1-2" data-name="Calque 1"><path d="M13.74,2c.14-.7-.47-1.9.76-1.92q7.07-.13,14.12,0c1.23,0,.62,1.22.76,1.92l-.59.57c-3.43,1.37-7,.5-10.52.75a8.56,8.56,0,0,1-4-.75Z"/><path d="M41.12,11.77c.7.14,1.88-.47,1.92.76.11,3.4.11,6.81,0,10.21,0,1.23-1.22.62-1.92.76l-.58-.59a17.43,17.43,0,0,1,0-10.55Z"/><path d="M2,23.5c-.7-.14-1.88.47-1.92-.76C0,19.34,0,15.93.08,12.53c0-1.23,1.22-.62,1.92-.76.19.2.38.4.58.59a17.43,17.43,0,0,1,0,10.55C2.39,23.11,2.2,23.31,2,23.5Z"/><path d="M25.47,41.11c-.14.69.47,1.84-.76,1.92a50.93,50.93,0,0,1-6.3,0c-1.23-.08-.62-1.23-.76-1.92l.44-.48A4.81,4.81,0,0,1,20,40.09a24.71,24.71,0,0,1,3.22,0,4.39,4.39,0,0,1,1.87.54Z"/><path d="M5.91,5.9c-.06-1.13-.14-2.23,1.59-2a16.32,16.32,0,0,0,2.32,0l.39.63c-.31,2.54-2,2.35-3.77,1.84Z"/><path d="M29.38,39.15c.07,1.14.14,2.23-1.58,2a16.45,16.45,0,0,0-2.33,0c-1-1.54-.07-2.21,1.21-2.73a3.39,3.39,0,0,1,2.17.26Z"/><path d="M29.38,2a16.45,16.45,0,0,0,2.33,0c1.73-.25,1.65.84,1.59,2l-.63.54C30.73,4.77,28.51,5.42,29.38,2Z"/><path d="M17.65,41.11a16.29,16.29,0,0,0-2.32,0c-1.73.25-1.66-.84-1.59-2l.48-.48a3.6,3.6,0,0,1,2-.38,2.5,2.5,0,0,1,1.78.94A1.6,1.6,0,0,1,17.65,41.11Z"/><path d="M2,11.77A16.29,16.29,0,0,0,2,9.45c-.25-1.73.84-1.66,2-1.59l.54.62C4.78,10.42,5.43,12.65,2,11.77Z"/><path d="M33.3,3.94a16.32,16.32,0,0,0,2.32,0c1.73-.26,1.65.84,1.59,2l-.63.54C34.66,6.7,32.41,7.38,33.3,3.94Z"/><path d="M39.16,27.42a16.32,16.32,0,0,0,0,2.32c.26,1.73-.84,1.65-2,1.59-.16-.16-.32-.31-.47-.47a3.31,3.31,0,0,1-.35-1.93c.25-1.22.79-2.1,2.23-1.9Z"/><path d="M4,27.42c-1.14.06-2.23.14-2-1.59A16.45,16.45,0,0,0,2,23.5a1.52,1.52,0,0,1,2-.09,3,3,0,0,1,.47,3.47Z"/><path d="M5.91,31.33c-1.13.06-2.23.14-2-1.59a16.32,16.32,0,0,0,0-2.32,1.6,1.6,0,0,1,1.87-.35,2.55,2.55,0,0,1,1,1.78,3.47,3.47,0,0,1-.37,2Z"/><path d="M39.16,7.86c1.14-.07,2.23-.14,2,1.59a16.29,16.29,0,0,0,0,2.32c-3.44.88-2.75-1.37-2.5-3.29Z"/><path d="M9.82,3.94c-.06-1.13-.14-2.22,1.59-2a16.45,16.45,0,0,0,2.33,0A1.72,1.72,0,0,1,14,4.07a3,3,0,0,1-2.09.79A3.31,3.31,0,0,1,9.82,3.94Z"/><path d="M41.12,23.5a16.45,16.45,0,0,0,0,2.33c.25,1.73-.84,1.65-2,1.59a2.89,2.89,0,0,1-.24-3.78A1.53,1.53,0,0,1,41.12,23.5Z"/><path d="M4,7.86c-.3-1.6.35-2.26,2-2a1.45,1.45,0,0,1,0,2A1.44,1.44,0,0,1,4,7.86Z"/><path d="M37.21,5.9c1.6-.3,2.25.36,1.95,2C37.12,8.6,36.46,8,37.21,5.9Z"/><path d="M7.87,33.29c-1.6.29-2.25-.36-2-2a1.39,1.39,0,0,1,1.75-.28,1.64,1.64,0,0,1,.6,1.72Z"/><path d="M37.21,31.33c.29,1.6-.36,2.25-2,2l-.4-.45a2.25,2.25,0,0,1-.07-1.18,1.6,1.6,0,0,1,.82-.82A1.52,1.52,0,0,1,37.21,31.33Z"/><path d="M9.82,35.24q-2.4.45-1.95-2A1.38,1.38,0,0,1,9.61,33a1.66,1.66,0,0,1,.61,1.72C10.09,34.9,10,35.07,9.82,35.24Z"/><path d="M35.25,33.29q.45,2.4-2,2l-.41-.44a2.25,2.25,0,0,1-.07-1.18,1.66,1.66,0,0,1,.82-.83A1.5,1.5,0,0,1,35.25,33.29Z"/><path d="M11.78,37.2c-1.6.29-2.25-.36-2-2A1.39,1.39,0,0,1,11.57,35a1.65,1.65,0,0,1,.6,1.72Z"/><path d="M33.3,35.24c.29,1.6-.36,2.25-2,2l-.4-.44a2.25,2.25,0,0,1-.07-1.18,1.58,1.58,0,0,1,.82-.83A1.52,1.52,0,0,1,33.3,35.24Z"/><path d="M13.74,39.15c-1.6.3-2.26-.35-2-1.95a1.38,1.38,0,1,1,2,1.95Z"/><path d="M31.34,37.2c.3,1.6-.36,2.25-2,1.95a1.51,1.51,0,0,1-.48-1.61,1.66,1.66,0,0,1,.82-.83A1.5,1.5,0,0,1,31.34,37.2Z"/><path class="cls-1" d="M37.21,5.9c-.3,1.6.35,2.25,1.95,2a16.32,16.32,0,0,1,0,2.32c-.26,1.73.84,1.65,2,1.59V23.5h-2L38.65,23c-1.54-2.69.23-6.05-1.74-8.65A17.53,17.53,0,0,0,34.61,12c-.68-.68-1.31-1.4-2-2.07-6.36-6.11-10.12-6.11-16.22,0a12.69,12.69,0,0,1-2.87,2.55A3.85,3.85,0,0,1,10,12.22c-1.87-3.53,1.86-4.34,3.08-6.38A56,56,0,0,1,17.65,2H29.38c-.06,1.13-.14,2.23,1.59,2a16.45,16.45,0,0,1,2.33,0c-.07,1.14-.14,2.23,1.59,2A16.29,16.29,0,0,1,37.21,5.9Z"/><path class="cls-2" d="M17.65,2c0,.46.14,1.26,0,1.34a4.61,4.61,0,0,0-2.54,2.55c-.08.17-.88,0-1.34,0l-.4-.42a1.26,1.26,0,0,1,.4-1.54V2Z"/><path class="cls-3" d="M4,7.86h2c.17.17.35.34.52.52A6,6,0,0,1,6.93,12a6.57,6.57,0,0,1-.66,2.08c-2,2.7-.26,6.16-1.79,9L4,23.5H2V11.77c1.13.06,2.23.14,2-1.59A16.32,16.32,0,0,1,4,7.86Z"/><path class="cls-4" d="M39.16,23.5v3.92q-2.4-.45-1.95,1.95c-.67.64-1.31,1.31-2,2s-1.31,1.3-2,2-1.31,1.29-2,2-1.31,1.3-2,2-1.31,1.29-1.95,1.95c-1.6-.29-2.25.36-2,2H23.52a2.49,2.49,0,0,0-3.92,0h-2v-2a1.6,1.6,0,0,1-.34-1.89,2.8,2.8,0,0,1,1.05-.82c2.18-.83,4.83.26,6.73-1.69a62.3,62.3,0,0,0,5.58-5.44c.74-.71,1.54-1.35,2.27-2.08s1.45-1.38,2.14-2.1a10.7,10.7,0,0,1,2.36-2A1.49,1.49,0,0,1,39.16,23.5Z"/><path class="cls-5" d="M19.6,41.11c-.5-2,.75-1.94,2.2-2,1.65-.08,1.9.69,1.72,2Z"/><path class="cls-6" d="M13.74,5.9c0,.32.13.81,0,.93-1.14.91-1.8,2.37-3.17,2.95-1.09.47-.58,1.3-.72,2a1.72,1.72,0,0,1-1.93.31c-1.45-1-.53-3.19-2-4.22v-2a16.45,16.45,0,0,1,2.33,0c1.72.25,1.65-.84,1.58-2h2C12.42,4.61,13.08,5.26,13.74,5.9Z"/><path class="cls-5" d="M27.43,39.15q-.45-2.4,1.95-1.95v1.95Z"/><path class="cls-3" d="M13.74,39.15V37.2l.44-.41a2.25,2.25,0,0,1,1.18-.07,1.72,1.72,0,0,1,.83.83,1.51,1.51,0,0,1-.5,1.6Z"/><path class="cls-5" d="M15.69,39.15V37.2a1.45,1.45,0,0,1,2,0v1.95Z"/><path class="cls-5" d="M35.25,31.33c-.29-1.6.36-2.25,2-2v2Z"/><path class="cls-7" d="M5.91,27.42H4V23.5a1.58,1.58,0,0,1,1.88-.29,6.45,6.45,0,0,1,2.4,2.49,1.91,1.91,0,0,1-.37,2A1.61,1.61,0,0,1,5.91,27.42Z"/><path class="cls-5" d="M5.91,27.42h2a1.38,1.38,0,0,1,1.75-.29,1.84,1.84,0,0,1,.71,1.73,1.86,1.86,0,0,1-.77,1,3.92,3.92,0,0,1-1.94.37,2.73,2.73,0,0,1-1.71-.89Z"/><path class="cls-3" d="M5.91,29.37h2a1.3,1.3,0,0,1,.4,1.54l-.4.42h-2Z"/><path class="cls-2" d="M13.74,5.9c-1.6.3-2.26-.36-2-2h2Z"/><path class="cls-3" d="M9.82,33.29H7.87v-2a1.5,1.5,0,0,1,1.6-.49,1.58,1.58,0,0,1,.83.82,2.25,2.25,0,0,1-.07,1.18Z"/><path class="cls-5" d="M33.3,33.29c-.3-1.61.35-2.26,2-2v2Z"/><path class="cls-3" d="M11.78,35.24h-2v-2a1.52,1.52,0,0,1,1.61-.5,1.68,1.68,0,0,1,.82.82,2.19,2.19,0,0,1-.06,1.19Z"/><path class="cls-5" d="M31.34,35.24c-.3-1.6.36-2.25,2-2v2Z"/><path class="cls-3" d="M13.74,37.2h-2v-2a1.52,1.52,0,0,1,1.61-.49,1.7,1.7,0,0,1,.84.83A1.54,1.54,0,0,1,13.74,37.2Z"/><path class="cls-5" d="M29.38,37.2c-.29-1.6.36-2.26,2-2v2Z"/><path class="cls-8" d="M17.65,37.2h-2c-.64-.67-1.3-1.31-1.95-2s-1.3-1.31-2-2l-2-2a1.34,1.34,0,0,1,0-2c1.93-2.1,5.09-.44,7.08-2.32,2.28-2.23,1.74-4.64.46-7.1-.72-1.26-.93-2.79-2-3.88a19.17,19.17,0,0,1-2-2.51,1.51,1.51,0,0,1,.35-1.79c-.26-2.16,2.11-2.42,2.82-3.9.09-.18.81-.17.81-.26,0-1.9,2.75-1.77,2.74-3.67,1.95,0,3.9,0,5.85,0,.95,0,1.52.13,1.5,1.27,0,.48.47.64,1,.73,1.63.29,3,1.33,4.84,3.3.76.79,2.67.63,1.94,2.54-1.36,1.66-3.78.78-5.24,2.2a11.58,11.58,0,0,0-2.27,2.1c-1.06,1.07-1.27,2.59-2,3.84-1.3,2.44-1.71,4.82.32,7.09,1.36,1.66,3.93.66,5.26,2.37.71,2.09-2.42,1.87-2.2,3.67-1.8-.22-1.58,2.91-3.67,2.2C23.23,37.34,19.89,35.07,17.65,37.2Z"/><path d="M39.16,23.5H37.21L36.68,23a5.46,5.46,0,0,1-.62-2.13c0-2.22-.42-4.48.61-6.61l.54-.52c.84.09,2-.43,2,1.2C39.13,17.78,39.16,20.64,39.16,23.5Z"/><path d="M13.74,11.77v2l-.49.51c-1.54.81-3.2.63-4.84.59a4.66,4.66,0,0,1-2-.58l-.48-.52v-2a1.32,1.32,0,0,1,2,0h5.87Z"/><path class="cls-9" d="M29.38,13.72c.1-.82-.44-2,1.16-2s3.14,0,4.71,0c1.6-.3,2.25.35,2,2a3.61,3.61,0,0,1-1.82,1,11.3,11.3,0,0,1-2.1.16,7.2,7.2,0,0,1-3.42-.64Z"/><path d="M5.91,23.5H4c0-2.86,0-5.72,0-8.58,0-1.63,1.13-1.11,2-1.2,1.43,1.54,1.28,3.45,1.29,5.33a8.16,8.16,0,0,1-.72,3.89Z"/><path class="cls-2" d="M7.87,11.77h-2V7.86c1.14-.07,2.23-.14,2,1.59A16.29,16.29,0,0,0,7.87,11.77Z"/><path class="cls-10" d="M17.65,37.2c.09-.84-.44-2,1.18-2,2.21,0,4.43,0,6.64,0-.09.83.44,2-1.18,2C22.08,37.17,19.86,37.2,17.65,37.2Z"/><path d="M31.34,29.37c-1.57,0-3.14,0-4.71,0s-1.06-1.14-1.16-2l.49-.51a5.11,5.11,0,0,1,2-.58c1.63,0,3.29-.23,4.83.57.16.17.33.34.49.52C33.59,29,32.94,29.67,31.34,29.37Z"/><path d="M37.21,23.5c.29,1.61-.36,2.26-2,2-.12-.21-.25-.41-.38-.62C35,23.23,35.64,22.57,37.21,23.5Z"/><path d="M35.25,25.46c.3,1.6-.35,2.25-2,2Q32.17,24.35,35.25,25.46Z"/><path class="cls-5" d="M13.74,35.24c1.6-.3,2.25.36,1.95,2H13.74Z"/><path d="M9.82,27.42H7.87v-2l.61-.38c1.21-.06,1.78.52,1.72,1.72C10.08,27,10,27.21,9.82,27.42Z"/><path d="M7.87,25.46c-1.6.3-2.25-.35-2-2Q9,22.39,7.87,25.46Z"/><path class="cls-11" d="M17.65,27.42c-.09.83.44,2-1.18,2-2.21,0-4.43,0-6.65,0V27.42c1.47-1.38,3.28-1.26,5.09-1.19a5,5,0,0,1,2.2.63Z"/><circle class="cls-5" cx="8.85" cy="30.35" r="1.38"/><path class="cls-5" d="M9.82,31.33c1.6-.3,2.26.35,2,2h-2Z"/><path class="cls-5" d="M11.78,33.29c1.6-.3,2.25.35,2,2h-2Z"/><path d="M25.47,27.42c-.69-.14-1.84.46-1.92-.76a51.1,51.1,0,0,1,0-6.31c.08-1.22,1.23-.62,1.92-.76l.59.61C27,22.7,27.2,25.14,25.47,27.42Z"/><path d="M17.65,19.59c.69.14,1.84-.46,1.92.76a51.1,51.1,0,0,1,0,6.31c-.08,1.22-1.23.62-1.92.76-1.73-2.28-1.56-4.72-.59-7.22Z"/><path d="M15.69,15.68c1.14-.06,2.23-.14,2,1.59a16.32,16.32,0,0,0,0,2.32,1.71,1.71,0,0,1-2.08.22,3.15,3.15,0,0,1-.41-3.58C15.34,16.05,15.52,15.87,15.69,15.68Z"/><path class="cls-12" d="M25.47,19.59a16.32,16.32,0,0,0,0-2.32c-.25-1.73.84-1.65,2-1.59.16.16.32.33.49.49a3.54,3.54,0,0,1,.23,2.69A2.49,2.49,0,0,1,27.34,20,1.59,1.59,0,0,1,25.47,19.59Z"/><path d="M13.74,13.72c1.6-.29,2.25.36,1.95,2a1.63,1.63,0,0,1-2.09.14A1.65,1.65,0,0,1,13.74,13.72Z"/><path d="M27.43,15.68c-.3-1.6.35-2.25,1.95-2a1.38,1.38,0,1,1-1.95,2Z"/><path class="cls-13" d="M35.25,25.46c-1.6-.3-2.25.36-2,2H27.43a1.72,1.72,0,0,1-.25-2.05c2.89-1.2,4.81-4.06,8-4.7a3.14,3.14,0,0,1,2,.88V23.5C35.61,23.21,35,23.86,35.25,25.46Z"/><path class="cls-14" d="M37.21,21.55h-2c-1.42-1.66-1.41-3.6-1.16-5.61a4.76,4.76,0,0,1,1.16-2.22h2Z"/><path class="cls-15" d="M5.91,19.59V13.72h2a3.82,3.82,0,0,1,1,1.91,7.51,7.51,0,0,1,0,2.22,3.46,3.46,0,0,1-.94,2A1.71,1.71,0,0,1,5.91,19.59Z"/><path class="cls-16" d="M7.87,15.68v-2h5.87v2a2.89,2.89,0,0,1-1.86,1,6.74,6.74,0,0,1-2.15,0A3.63,3.63,0,0,1,7.87,15.68Z"/><path class="cls-17" d="M35.25,15.68v5.87c-.69.13-1.35-.23-2,.7-2.26,3.22-2.35,3.16-5.81,3.21-1.45-2-1.24-3.91,0-5.87a6.1,6.1,0,0,0,1.31-1.94,4.29,4.29,0,0,0,.68-1.45c0-.17,0-.35,0-.52v-2H33.3C33.94,14.39,34.59,15,35.25,15.68Z"/><path class="cls-16" d="M35.25,15.68c-1.6.3-2.25-.36-2-2h2Z"/><path class="cls-18" d="M5.91,19.59h2C10.69,21.41,12.92,24,16,25.47a1.69,1.69,0,0,1-.32,2H9.82c.3-1.6-.35-2.26-1.95-2,.29-1.6-.36-2.25-2-2Z"/><path class="cls-19" d="M27.43,19.59v7.83h-2V19.59Z"/><path class="cls-19" d="M15.69,27.42v-2a4.6,4.6,0,0,1-1.1-3.76,3.11,3.11,0,0,1,1.1-2.11h2v7.83Z"/><path class="cls-14" d="M15.69,20.39v2.35c-4.06-.14-4.31-3.34-3.91-7.06h3.91Z"/><path class="cls-16" d="M29.38,17.64q.45,2.4-1.95,1.95V15.68h1.95A1.33,1.33,0,0,1,29.38,17.64Z"/><path class="cls-17" d="M11.78,15.68c-.66,1.83,1.2,1.65,1.83,2.45s-.47,2.47.7,3.38c.29.23.91,0,1.38,0v3.91c-3.36-.05-3.54.07-5.76-3.08-.66-.94-3.25-.58-2.06-2.79V17.64c.66-.65,1.31-1.3,2-2Z"/><path class="cls-20" d="M9.82,15.68c.3,1.6-.35,2.25-1.95,2v-2Z"/><path class="cls-20" d="M29.38,17.64v-2c.86.08,2.16-.41,1.93,1.22C31.15,18.09,30.08,17.5,29.38,17.64Z"/></g></g></svg>