<svg id="Calque_1" data-name="Calque 1" xmlns="http://www.w3.org/2000/svg" viewBox="0 0 467 451"><defs><style>.cls-1{fill:#fefefe;}.cls-2{fill:#010101;}.cls-3{fill:#7f7f7f;}</style></defs><path class="cls-1" d="M364,450.88q-179.58,0-359.16.12C.57,451,0,449.93,0,446.05Q.22,225.5,0,5C0,.39,1.36,0,5.26,0Q137.13.17,269,.09c.13,8,.13,8-7.89,8a19.75,19.75,0,0,1-3,0c-3.84-.6-6,.38-5.2,4.85.3,1.62.35,3.65-2.31,3.1-6.21-1.3-6.15,2.49-5.77,6.77a59.85,59.85,0,0,1,.17,7c0,1.68.45,2.35,2.24,2.33,6.47-.06,12.95,0,19.42.06,1.64,0,2.69-.39,2.3-2.19-1.26-5.93,2.08-6.35,6.63-5.93a93.29,93.29,0,0,0,9.46,0,26.34,26.34,0,0,0,0,4c.38,3.06-.44,4.73-3.91,4.12-3-.53-4.27.32-4.28,3.83s1.08,4.75,4.46,4.17c2.54-.42,4.29.18,3.67,3.29-.71,3.62,1.3,4.26,4.19,3.78,3.11-.51,4.21.73,3.74,3.78a29.28,29.28,0,0,0-.09,4l-7.91.26-7.66-.37a40.73,40.73,0,0,1-.2-4.93c.14-2.06-.4-2.92-2.68-2.87-6.29.15-12.58.08-18.87.05-1.47,0-2.62.07-2.49,2,.32,4.77-.63,9.57.36,14.31-1.79-.14-3.57-.38-5.35-.38-1,0-2.7-.65-2.86.93-.23,2.23-.65,5,.41,6.64s4,.84,6,.47c3-.55.87-3.23,1.41-4.87a12.17,12.17,0,0,0,.25-2.92,7.29,7.29,0,0,1,1.95-.19c4.53.8,6.85-.58,5.86-5.6-.51-2.55,1.27-2.39,3-2.45,4.44-.15,8.9.58,13.31-.34l-.54,8.17c-2.48.85-5.79-1.15-7.46,1.08-1,1.39-1,4.68,0,6.2,1.31,2,4.34,1,6.47.68,2.35-.33,1-2.71,1.15-4.15a20.15,20.15,0,0,0-.27-3.93l8.31.4-.1-.07q.09,8,.16,16h-32c-8.34-1.11-8.34-1.11-8.09,7a8.29,8.29,0,0,0,.15,1c0,1.16-.12,2.33-.09,3.49.06,2.5.58,4.7-3.57,4.61-3.81-.07-5.1-1.1-4.44-4.72.52-2.87-.75-3.78-3.54-3.53-1.36.12-3.94.93-3.39-2,1.23-6.45-2.68-6.32-7.08-6-2.15.15-4.33-.15-6.48-.1-1.63,0-2.72-.4-2.31-2.2,1.34-5.85-2.18-6-6.37-5.68-2,.16-4-.19-6,.07-3.33.44-4.52-.89-4-4.08.51-3-.5-3.95-3.7-3.91q-20,.24-39.93-.13c-3.35-.06-5.07.57-4.35,4.23.63,3.19-.83,3.9-3.82,3.77-5-.21-10,.22-15,0-3.15-.14-4.68.63-4.08,4,.56,3.1-.5,4.64-3.91,4.1a22.22,22.22,0,0,0-4,.06c-8.09-.44-8.09-.44-8.17,7.27,0,.17,0,.33,0,.5-7.6.39-7.6.39-8,8-8.29,0-8.29,0-7.76,8.19a10.15,10.15,0,0,0-.07,2c.7,4.36-.31,7-5.51,6-2.46-.5-2.55,1.09-2.53,3,0,4.3-.08,8.6-.12,12.9-8.23.1-8.23.1-7.75,8.21,0,14.28.15,28.56,0,42.84-.05,3.42,1.1,4.43,4.18,3.9s4.11.61,3.83,3.74c-.3,3.29,0,6.64-.08,10,0,1.47.11,2.84,2,2.43,6.44-1.36,6.32,2.67,6,7-.13,1.65.18,3.35,0,5-.45,3.28.82,4.56,4,4s4.57.74,4,4,.67,4.61,4,4,4.64.6,4,3.94c-.41,2.3.42,3.37,2.92,3.09a37.61,37.61,0,0,1,5,0c7.79.1,7.79.11,8.19,7.94l-8.22.17-31.72,0-8.34.07L43.13,237c-1.42,0-3.4-.4-2.91,2,1.32,6.49-2.78,6.16-7.07,5.95-3-.15-6,0-8.94.06-8.12-.47-8.12-.47-8.19,7.25,0,.17,0,.33,0,.5-3.16.05-6.42.64-9.44,0-4.36-.9-5.3,2.38-5.56,4.74C.66,260.71,3.51,261,6.26,261c17.61-.09,35.22-.12,52.83,0,3.09,0,4.72-.56,4.08-4-.59-3.19.65-4.57,4-4.06a25.18,25.18,0,0,0,4,0c7.92-.13,7.92-.13,8-8l8.11-.23,31.7,0c7.76,0,7.76,0,8.09-7.46a4.53,4.53,0,0,1,.08-.49c3.65,0,7.32.35,10.95.07,3.33-.26,4.41.9,4,4.1-.27,2.13-.54,4.06,3,4,16.78-.2,33.56-.1,50.33-.08,1.59,0,3.26,0,2.75-2.22-1.34-5.9,2.25-5.93,6.39-5.67,2.48.15,5-.1,7.46-.1,1.32,0,2.47-.24,2.13-1.85-1.36-6.35,2.51-6.37,7-6.08,3,.19,6-.09,9-.16-.12,4.24,1.51,9.76-6.31,8.13-2.11-.44-1.74,1.41-1.74,2.65,0,4.44,0,8.89,0,13.34-4,0-8,.16-12-.11-3.15-.22-4.69.62-4.07,4,.56,3.14-.56,4.67-3.94,4.06-3.13-.56-4.67.57-4.06,3.94.57,3.14-.56,4.67-3.93,4.06-3.14-.57-4.67.56-4.07,3.93.57,3.13-.53,4.64-3.92,4.1a22.19,22.19,0,0,0-4,0c-8.32-.54-8.32-.54-8.11,7.87h0l-8.06.17c-7.89-.31-7.89-.31-7.89,7.4,0,2.82,0,5.64,0,8.47-7.85.43-7.85.43-7.88,8.12-.05,4-.11,8-.15,12,0,1.48.29,3.35-2.12,2.86-5.93-1.22-6.45,2.08-5.93,6.65.26,2.3,0,4.66,0,7,0,1.41,0,2.91-2,2.47-5.26-1.17-5.08,2.12-4.92,5.66.12,2.65-.14,5.33-.06,8,.05,1.72-.53,2.64-2.26,2.25-5.62-1.25-6.27,1.86-5.79,6.28.21,2-.24,4,0,6,.44,3.24-.94,4.23-3.87,3.68-3.68-.69-4.77,1-4.14,4.37s-.93,3.94-3.86,3.72c-3.14-.24-6.32,0-9.48-.06-1.79-.05-3.09.31-2.61,2.4,1.37,5.93-2.27,5.94-6.4,5.66-2.32-.16-4.66.05-7-.06-1.79-.08-3.08.32-2.6,2.4,1.37,5.94-2.29,5.93-6.4,5.65-2.33-.15-4.67.06-7,0-1.8-.09-3.06.35-2.58,2.41,1.39,6-2.36,5.89-6.43,5.62-2-.13-4,.13-6-.06-2.67-.26-3.8.43-3.72,3.43.08,2.67.51,3.7,3.5,3.68,19-.14,38-.17,57,0,3.29,0,4-1.07,3.66-4-.21-1.66-.33-3.69,2.33-3.09,5.92,1.32,6-2.26,5.66-6.41-.16-2.32,0-4.66,0-7-.06-1.7.17-3.16,2.33-2.66,5.93,1.36,6-2.28,5.66-6.41-.15-2.15.16-4.34,0-6.49-.17-2.3.46-3.5,3-3.07,3.12.53,4.69-.52,4.08-3.92-.56-3.11.51-4.7,3.91-4.08,3.11.56,4.7-.51,4.08-3.92-.56-3.1.51-4.69,3.92-4.08,3.1.56,4.69-.51,4.08-3.91-.56-3.11.51-4.7,3.91-4.09,3.09.56,4.67-.47,4.11-3.9a22.24,22.24,0,0,1,.08-4c7.81-.36,7.81-.36,7.84-8.13,9.33.14,8.31,1.85,8-8,.08-2.6.17-5.2.25-7.8,8.24,0,8.24,0,7.75-7.2a9.41,9.41,0,0,0,.06-2c-.73-4.42.36-6.92,5.56-6,3.56.63,2.54-2.35,2.38-4-.34-3.31.86-4.14,4.09-4.07,9.3.2,18.61,0,27.92,0,7.21.53,7.21.53,7.2-6.29,0-.49,0-1,0-1.46l31.71-.35,8.27.21c0,1.83-.05,3.65-.14,5.48-.06,1.47.08,2.85,2,2.44,6.42-1.36,6.35,2.63,6,7-.15,2,.12,4-.06,6-.22,2.36.58,3.53,3,3,4.87-1.05,5.51,1.59,5.07,5.48-.21,1.8.14,3.67-.08,5.47-.37,3.13.57,4.68,4,4.08,3.06-.55,4.66.44,4.11,3.89a20.38,20.38,0,0,0,.11,4c0,7.85,0,7.85,7.91,8.05h0c.24,7.52.24,7.52,7.83,8.13.22,7.9.22,7.9,8.11,7.93,1.5,0,3,.11,4.49,0,3.6-.3,2.38,2.37,2.41,4s1,4.54-2.48,3.9c-4.54-.82-4.42,1.8-4.53,5.07-.16,4.68,3.12,2.71,5.1,2.92a62.19,62.19,0,0,0,7.48,0c1.42,0,2.89,0,2.47,2-1.33,6.36,2.53,6.45,7,6,1.64-.15,3.34.16,5-.06,3.19-.41,4.64.66,4.05,4-.56,3.12.54,4.61,3.92,4.07a23.07,23.07,0,0,1,4,.06c.5,7.85.5,7.85,8.2,7.75a26.94,26.94,0,0,0,4.48.11c3-.41,3.89,1,3.38,3.63-.77,3.95,1.06,4.9,4.61,4.47,1.38-.16,3.91-.87,3.34,2-1,5.18,2,5.27,5.64,4.93s2.3,2.43,2.36,4.07,1,4.55-2.49,3.89c-5.42-1-6,1.92-5.47,6.12.2,1.64-.13,3.34.06,5,.4,3.55-.35,5.79-4.62,4.94-2.93-.59-3.92.87-3.4,3.56.76,3.9-1,5-4.59,4.45a22.57,22.57,0,0,0-3.49,0C363.8,442.88,363.8,442.88,364,450.88Z"/><path class="cls-1" d="M317,.09Q390.2.09,463.41,0c3,0,3.58.6,3.58,3.58Q466.81,88.8,466.9,174c-2.66,0-5.31,0-8,0-8.2,0-8.2,0-8,8.08l-8.12,0-15.81,0c-3.07.32-7.6-2.33-7.2,4.37.37,6.29,4.73,2.46,7.2,3.37l15.81,0c10,.33,8.07,1.3,8-7.94l16,0q0,132.44.1,264.88c0,3.42-.67,4.12-4.09,4.1-25-.19-50-.1-75-.1a12.14,12.14,0,0,0,0-2c-.69-4.33.22-7,5.51-6,3.54.64,2.56-2.29,2.42-3.94-.29-3.18.68-4.66,4-4s4.62-.69,4-4,.78-4.55,4-4,4.64-.64,4-4,.65-4.63,4-4,4.18-.67,4.14-4-.73-4.44-4.09-4.14c-1.35.12-4.42,1.41-3.92-1.83.83-5.47-2.25-5.42-6-5.09-2,.17-4-.16-6,.07-3.14.35-4.7-.58-4.08-4,.56-3.11-.54-4.67-3.93-4.07-3.09.56-4.69-.5-4.08-3.91.56-3.08-.48-4.74-3.9-4.07-3.72.73-4.58-1.13-4.12-4.4a17.7,17.7,0,0,0-.12-3.48c0-7.79,0-7.79-7.86-8.1h0c.16-7.95.16-7.95-7.84-8.13a8.84,8.84,0,0,1-.11-2c.78-4.52-.52-6.95-5.61-5.92-2.05.42-2.74-.74-2.39-2.56.9-4.71-1.27-6.13-5.6-5.43-1.52.24-2.79-.17-2.39-2.06,1.39-6.55-2.84-6.2-7.11-5.94-1.66.1-3.36-.19-5,.06-3.44.52-4-1-4-4.13.12-19.64,0-39.29,0-58.94l7.95-.07c8.1.33,8.1.33,8.09-7.87a15.07,15.07,0,0,1,2.93,0c4.48.89,5.47-1.13,5.19-5.25-.17-2.59-1.09-3-3.22-2.8-1.62.12-3.26,0-4.89-.06l.09.08c0-2.61-.09-5.22-.09-7.83,0-8,0-8-8-8.24l.1.1c0-6.46-.24-12.92,0-19.36.11-3.1-.78-4.3-3.82-3.72-3.56.68-4.78-.88-4.19-4.28.45-2.58-.25-4.24-3.31-3.63-3.66.72-4.17-1.36-3.74-4.2s-.44-4.15-3.67-3.88c-4.11.33-8.27.11-12.4.13.06-4,.37-8,.12-11.94-.2-3.25.79-4.59,4.07-4,2.9.51,4.48-.43,3.83-3.65-.78-3.83.91-5.06,4.54-4.47a19.32,19.32,0,0,0,3.48-.06,44.37,44.37,0,0,1,0,4.47c-.3,2.73.59,3.78,3.53,3.75s3.44-.9,3.68-3.66c.57-6.75-4.26-3.95-7.24-4.48.06-12.13.19-24.26.09-36.39,0-2.79.7-4,3.55-3.51s3.91-.78,3.45-3.53.57-4.05,3.45-3.54c3.53.63,5.35-.49,4.59-4.4-.53-2.71.48-3.7,3.41-3.63,9.47.22,18.94.15,28.41.19.1,8.23.1,8.23,8.21,7.74,7.93.23,7.93.23,7.86,8.13a17.54,17.54,0,0,0,0,3c.58,3.38-1,4.49-4.09,3.92-3.47-.64-4,1.07-3.95,4.12.22,6.64.09,13.29.1,19.95a13.31,13.31,0,0,1-2,0c-4.29-.68-7.08.21-6.06,5.47.26,1.36.09,2.93-1.91,2.51-6.34-1.34-6.53,2.45-6.08,7,.16,1.65,0,3.32,0,5,0,12.34,0,12.25,12.42,12.12,2.72,0,3.8-.57,3.64-3.51-.24-4.14,0-8.32,0-12.47h8a19.79,19.79,0,0,1-.11,3c-.81,4.24,1,5.34,5.06,5a121.12,121.12,0,0,1,15.94-.13c3.35.18,2.94-1.72,2.87-3.72s.89-4.33-2.89-4.18c-7,.28-13.95.08-20.93.08-.47-7.66-.47-7.66-7.93-8.21l-.21-8c4.44.32,9.53,1.74,8.2-6-.49-2.85,2.26-1.9,3.5-1.73,3.76.51,5.05-.92,4.44-4.56a17.94,17.94,0,0,1,.08-3.43c7.95-.38,7.95-.38,7.75-8.21A94,94,0,0,0,404,140c-.3-3.73.65-5.54,4.74-4.9,1.19.19,3.24.89,3.19-1.7-.08-4.61,1.13-9.88-.74-13.6-1.19-2.36-7-.49-10.78-.74a17.24,17.24,0,0,0-2.49,0c-1.5.11-2.26-.58-2-2,1.37-6.35-2.54-6.35-7-6-3,.22-6,.1-9,.13l-8.13,0a8.91,8.91,0,0,0-2-.13c-4.37.69-7-.3-6-5.54.53-2.72-1.59-2.27-3.19-2.28-8.3,0-16.6-.2-24.9,0-2.93.06-4.1-.47-3.92-3.74.3-5.63-.09-11.3.15-16.94.13-2.93-.91-3.49-3.63-3.53-2.92-.05-3.53.94-3.5,3.66.14,9.47,0,18.94,0,28.41l-8.06.24-7.93-.11c0-2.71,0-5.43,0-8.15a14.77,14.77,0,0,1,2.49,0c4.51.8,5.87-1,5.63-5.51-.39-7.31.13-14.65-.08-22-.09-3.27.45-5.15,4.18-4.4,3.55.71,4-1.17,3.91-4.15-.16-11.65-.1-23.31-.12-35,7.06.18,7.06.18,7.06,7.48,0,9.32.17,18.64-.09,28-.09,3.25,1,3.79,3.93,3.76s4.34-.37,4.26-3.94c-.3-13.14-.27-26.29-.19-39.43,0-2.7-.55-4.16-3.48-3.58-3.91.78-5-1-4.43-4.58.46-2.7-.48-4.14-3.41-3.56-3.39.66-4.06-1.16-3.57-3.92.67-3.73-1.13-4.59-4.41-4.12a19.28,19.28,0,0,1-3.47-.12Zm34.43,205.83c2.8.33,5.14.51,4.63-3.53-.31-2.51.42-5-3.69-4.48-2.5.33-5.07-.41-4.46,3.69C348.24,204,347.27,207.05,351.41,205.92Z"/><path class="cls-2" d="M331.92,276.9c0,19.65.1,39.3,0,58.94,0,3.1.56,4.65,4,4.13,1.62-.25,3.32,0,5-.06,4.27-.26,8.5-.61,7.11,5.94-.4,1.89.87,2.3,2.39,2.06,4.33-.7,6.5.72,5.6,5.43-.35,1.82.34,3,2.39,2.56,5.09-1,6.39,1.4,5.61,5.92a8.84,8.84,0,0,0,.11,2c-.21,8-.21,8,7.84,8.13h0c-.19,8-.19,8,7.86,8.1a17.7,17.7,0,0,1,.12,3.48c-.46,3.27.4,5.13,4.12,4.4,3.42-.67,4.46,1,3.9,4.07-.61,3.41,1,4.47,4.08,3.91,3.39-.6,4.49,1,3.93,4.07-.62,3.4.94,4.33,4.08,4,2-.23,4,.1,6-.07,3.79-.33,6.87-.38,6,5.09-.5,3.24,2.57,2,3.92,1.83,3.36-.3,4.06,1,4.09,4.14s-.93,4.55-4.14,4-4.54.84-4,4-.86,4.52-4,4-4.6.71-4,4-.8,4.57-4,4-4.31.87-4,4c.14,1.65,1.12,4.58-2.42,3.94-5.29-.95-6.2,1.71-5.51,6a12.14,12.14,0,0,1,0,2H364c-.16-8-.16-8,7.92-8a22.57,22.57,0,0,1,3.49,0c3.57.56,5.35-.55,4.59-4.45-.52-2.69.47-4.15,3.4-3.56,4.27.85,5-1.39,4.62-4.94-.19-1.64.14-3.34-.06-5-.51-4.2.05-7.14,5.47-6.12,3.5.66,2.55-2.17,2.49-3.89s1.28-4.42-2.36-4.07-6.66.25-5.64-4.93c.57-2.88-2-2.17-3.34-2-3.55.43-5.38-.52-4.61-4.47.51-2.64-.38-4-3.38-3.63a26.94,26.94,0,0,1-4.48-.11c-.1-8.21-.1-8.21-8.2-7.75a23.07,23.07,0,0,0-4-.06c-3.38.54-4.48-.95-3.92-4.07.59-3.34-.86-4.41-4.05-4-1.63.22-3.33-.09-5,.06-4.48.41-8.34.32-7-6,.42-2-1.05-2-2.47-2a62.19,62.19,0,0,1-7.48,0c-2-.21-5.26,1.76-5.1-2.92.11-3.27,0-5.89,4.53-5.07,3.52.64,2.51-2.2,2.48-3.9s1.19-4.34-2.41-4c-1.49.12-3,0-4.49,0-7.89,0-7.89,0-8.11-7.93.54-8.26.54-8.26-7.83-8.13h0c.09-8,.09-8-7.91-8.05a20.38,20.38,0,0,1-.11-4c.55-3.45-1-4.44-4.11-3.89-3.4.6-4.34-.95-4-4.08.22-1.8-.13-3.67.08-5.47.44-3.89-.2-6.53-5.07-5.48-2.42.53-3.22-.64-3-3,.18-2-.09-4,.06-6,.35-4.4.42-8.39-6-7-1.94.41-2.08-1-2-2.44.09-1.83.1-3.65.14-5.48L277,285c8.05-.22,8.05-.22,7.89-8.16l16,0c8.94.92,9,.85,8.07-7.88l15.82.21c-.33,7.65-.33,7.65,7.21,7.8Z"/><path class="cls-2" d="M317.11,7.93a19.28,19.28,0,0,0,3.47.12c3.28-.47,5.08.39,4.41,4.12-.49,2.76.18,4.58,3.57,3.92,2.93-.58,3.87.86,3.41,3.56-.61,3.56.52,5.36,4.43,4.58,2.93-.58,3.5.88,3.48,3.58-.08,13.14-.11,26.29.19,39.43.08,3.57-1.31,3.9-4.26,3.94s-4-.51-3.93-3.76c.26-9.31.09-18.63.09-27.95,0-7.3,0-7.3-7.06-7.48l.14.15c-.19-8-.19-8-8.14-8.13l.14.13a18.22,18.22,0,0,1,0-3.46c.77-4.15-1.25-4.83-4.87-4.68-6.27.27-12.57.08-18.85.08-8.23,0-8.23,0-8.36,8.07l.14-.15a93.29,93.29,0,0,1-9.46,0c-4.55-.42-7.89,0-6.63,5.93.39,1.8-.66,2.22-2.3,2.19-6.47-.08-13-.12-19.42-.06-1.79,0-2.28-.65-2.24-2.33a59.85,59.85,0,0,0-.17-7c-.38-4.28-.44-8.07,5.77-6.77,2.66.55,2.61-1.48,2.31-3.1-.82-4.47,1.36-5.45,5.2-4.85a19.75,19.75,0,0,0,3,0c8,0,8,0,7.89-8h40C309.36,7.94,309.36,7.94,317.11,7.93Z"/><path class="cls-3" d="M451,182.05c-.23-8.1-.23-8.1,8-8.08,2.66,0,5.31,0,8,0v8l-16,0Z"/><path class="cls-3" d="M317.11,7.93c-7.75,0-7.75,0-8.13-7.84h8Z"/><path class="cls-2" d="M325,181.91a19.32,19.32,0,0,1-3.48.06c-3.63-.59-5.32.64-4.54,4.47.65,3.22-.93,4.16-3.83,3.65-3.28-.57-4.27.77-4.07,4,.25,4-.06,8-.12,11.94L309,206l-8.09.11c-12.13,0-24.25-.12-36.37,0-2.74,0-3.77-.61-3.61-3.51.22-4.14,0-8.29-.08-12.44,0-1,0-2,0-2.94-.06-2.47.89-5.08-3.57-5.15s-4.2,2.27-4.06,5.16c.05,1,0,2,0,2.94-.06,4-.31,8-.13,12,.14,2.87-.38,4.52-3.69,3.88s-5,.51-4.33,4.15c.68,3.49-1.1,4.34-4.12,3.87-2.83-.44-4.52.28-3.89,3.61s-.37,5.1-4.09,4.39c-2.52-.48-3.18.79-2.93,3.07a33.22,33.22,0,0,1,0,4l.14-.15c-3,.07-6,.35-9,.16-4.49-.29-8.36-.27-7,6.08.34,1.61-.81,1.85-2.13,1.85-2.48,0-5,.25-7.46.1-4.14-.26-7.73-.23-6.39,5.67.51,2.26-1.16,2.23-2.75,2.22-16.77,0-33.55-.12-50.33.08-3.55,0-3.28-1.89-3-4,.41-3.2-.67-4.36-4-4.1-3.63.28-7.3,0-10.95-.07l.06.08c-.4-7.83-.4-7.84-8.19-7.94a37.61,37.61,0,0,0-5,0c-2.5.28-3.33-.79-2.92-3.09.6-3.34-.88-4.51-4-3.94s-4.53-.82-4-4-.75-4.57-4-4-4.5-.7-4-4c.23-1.63-.08-3.33,0-5,.34-4.37.46-8.4-6-7-1.93.41-2.06-1-2-2.43,0-3.32-.22-6.67.08-10,.28-3.13-.79-4.27-3.83-3.74s-4.23-.48-4.18-3.9c.2-14.28.06-28.56,0-42.84,7.81-.52,7.81-.52,7.75-8.21,0-4.3.15-8.6.12-12.9,0-1.86.07-3.45,2.53-3,5.2,1.07,6.21-1.6,5.51-6a10.15,10.15,0,0,1,.07-2c7.69-.62,7.69-.62,7.76-8.19.43-7.61.43-7.61,8-8,7.8.1,7.8.1,8.12-7.28,0-.16,0-.33.07-.49a22.22,22.22,0,0,1,4-.06c3.41.54,4.47-1,3.91-4.1-.6-3.38.93-4.15,4.08-4,5,.22,10-.21,15,0,3,.13,4.45-.58,3.82-3.77-.72-3.66,1-4.29,4.35-4.23q19.95.36,39.93.13c3.2,0,4.21.94,3.7,3.91-.56,3.19.63,4.52,4,4.08,2-.26,4,.09,6-.07,4.19-.35,7.71-.17,6.37,5.68-.41,1.8.68,2.25,2.31,2.2,2.15,0,4.33.25,6.48.1,4.4-.3,8.31-.43,7.08,6-.55,2.88,2,2.07,3.39,2,2.79-.25,4.06.66,3.54,3.53-.66,3.62.63,4.65,4.44,4.72,4.15.09,3.63-2.11,3.57-4.61,0-1.16.05-2.33.09-3.49,7.57-.45,7.57-.45,7.94-8h32l-.11-.12c0,2.65-.05,5.3-.08,8-4.16,0-9.41-1.63-8.08,6.07.53,3-2.35,2.2-3.87,2.07-3.1-.27-4.2.89-3.83,3.92a22.72,22.72,0,0,1-.16,3.94c-6.64,0-13.29.26-19.93,0-3.29-.12-4.55.86-4,4.08s-.74,4.13-4,4.12-4.6-.81-4-4.1c.55-3.11-.53-4.69-3.91-4-3.55.66-3.28-1.79-3-3.93.39-3.15-.61-4.6-4-4.08a21.16,21.16,0,0,1-4-.1c-.16-8.16-.16-8.16-8.2-7.75a9.53,9.53,0,0,0-2-.08c-4.42.73-7-.38-6-5.56.52-2.57-1.28-2.45-3-2.45-19.29,0-38.58,0-57.87-.06-2.36,0-3.52.62-3,3,1.07,4.91-1.64,5.48-5.49,5.06-1.81-.2-3.68.15-5.48-.07-3.18-.4-4.66.64-4.05,4,.56,3.14-.58,4.65-3.94,4-3.1-.55-4.68.52-4.07,3.92.56,3.1-.52,4.68-3.92,4.07-3.1-.56-4.68.51-4.07,3.91.55,3.08-.48,4.75-3.9,4.08-3.72-.73-4.59,1.12-4.12,4.39a19.4,19.4,0,0,1-.13,3.48c-8.32,0-8.32,0-7.75,8.19l0,54.82c-.43,8.07-.43,8.07,7.25,8.18l.5,0,.24,7.8c-.44,8.08-.44,8.08,7.25,8.18l.5,0a8.33,8.33,0,0,1,.12,2c-.79,4.53.53,6.95,5.62,5.91,2-.41,2.75.77,2.38,2.57-1.13,5.46,2,5.9,6.12,5.45,2-.22,4,.12,6-.07,2.81-.28,4.58.26,3.91,3.63-.59,3,.92,3.55,3.59,3.46,5-.18,10,.19,15-.09,3.35-.19,5.07.54,4.37,4.22-.56,3,.49,4,3.69,3.89,8-.27,16-.3,24,0,3.43.11,5-.7,4.31-4.29-.6-3.09.66-4.1,3.76-3.81s6.33-.12,9.48.12c2.58.19,3.22-.85,2.93-3.14-.17-1.32-.14-2.66-.2-4,4,0,7.93-.21,11.86.14,3.53.31,4.83-.88,4.2-4.31-.55-3,.52-4.36,3.67-3.77s5-.45,4.34-4.1c-.48-2.7.13-4.55,3.52-3.9,2.78.54,3.86-.64,3.5-3.46a30.11,30.11,0,0,1,.05-4.45c7.8-.54,7.8-.54,7.76-8.2l.19-15.82c1.82,0,3.66-.13,5.48,0,2,.16,2.52-.63,2.51-2.54q-.12-16.93,0-33.88c0-1.79-.32-3.08-2.4-2.6-5.88,1.36-6-2.23-5.65-6.37a31.33,31.33,0,0,0,0-6c-.34-3,.5-4.18,3.73-3.92,2.64.22,5.14-.15,4.33,3.76s.82,5.13,4.51,4.49a22.38,22.38,0,0,1,3.48-.1l.06,8.14c0,11.93.08,23.86-.16,35.79-.06,3.25,1.4,3.42,3.84,3.26,2.22-.14,4.44.64,4.34-3.26-.29-11.92-.14-23.86-.17-35.79.43-10.08,1.27-8.13-8-8.05,0-4.43.17-8.87,0-13.3-.07-2.2.66-2.81,2.79-2.74,4.43.16,8.87.08,13.3.09L277,111c0,9.15-2.09,8.34,8.09,7.94l7.84,0h8.18l8,.17-.13-.13c0,4.46.25,8.93,0,13.37-.19,3.37,1.92,2.83,3.8,2.69s4.52,1.24,4.32-2.66c-.23-4.45,0-8.92,0-13.38l-.07.07c9,0,8.4,2.25,7.94-8.08,0-9.47.15-18.94,0-28.41,0-2.72.58-3.71,3.5-3.66,2.72,0,3.76.6,3.63,3.53-.24,5.64.15,11.31-.15,16.94-.18,3.27,1,3.8,3.92,3.74,8.3-.16,16.6,0,24.9,0,1.6,0,3.72-.44,3.19,2.28-1,5.24,1.65,6.23,6,5.54a8.91,8.91,0,0,1,2,.13,25.4,25.4,0,0,1,.15,3.48c-.27,2.9.23,4.48,3.88,4.47s4.21-1.49,3.92-4.44a22.68,22.68,0,0,1,.18-3.48c3,0,6,.09,9-.13,4.44-.33,8.35-.33,7,6-.31,1.44.45,2.13,2,2a17.25,17.25,0,0,1,2.49,0c3.75.25,9.59-1.62,10.78.74,1.87,3.72.66,9,.74,13.6.05,2.59-2,1.89-3.19,1.7-4.09-.64-5,1.17-4.74,4.9a94,94,0,0,1-.19,9.92c-8.15.17-8.15.17-7.75,8.21a17.94,17.94,0,0,0-.08,3.43c.61,3.64-.68,5.07-4.44,4.56-1.24-.17-4-1.12-3.5,1.73,1.33,7.79-3.76,6.37-8.2,6l.14.14c0-6.65.13-13.3-.09-19.94-.09-3.05.48-4.76,3.95-4.12,3.12.57,4.67-.54,4.09-3.92a17.54,17.54,0,0,1,0-3c.07-7.9.07-7.9-7.86-8.13-.47-7.81-.47-7.81-8.21-7.74-9.47,0-18.94,0-28.41-.19-2.93-.07-3.94.92-3.41,3.63.76,3.91-1.06,5-4.59,4.4-2.88-.51-3.91.79-3.45,3.54s-.58,4-3.45,3.53-3.57.72-3.55,3.51c.1,12.13,0,24.26-.09,36.39Zm-39.93-8c8.08.25,8.08.25,7.89-8,2,0,4-.07,6,.08s2.4-.89,2.06-2.4c-.42-1.89,1.5-4.51-1.23-5.65-4.13-1.71-6.71.2-6.71,4.63,0,1.16,0,2.32.06,3.48-8.22-.22-8.22-.22-8,7.88-1.82,0-3.64,0-5.46.1-.94,0-2.25-.2-2.4,1.09-.25,2.09-1,4.61.43,6.2s3.8.75,5.68.47c2.81-.43,1.25-2.9,1.57-4.46A19.85,19.85,0,0,0,285,173.91Zm20.54-31.84c-2.71-.23-5.08-.64-4.7,3.44.27,2.82-.1,5,4,4.64,2.79-.25,4.64-.23,4.21-3.87C308.77,143.78,309.44,141,305.57,142.07Z"/><path class="cls-2" d="M308.92,206.05c4.13,0,8.29.2,12.4-.13,3.23-.27,4.11,1,3.67,3.88s.08,4.92,3.74,4.2c3.06-.61,3.76,1.05,3.31,3.63-.59,3.4.63,5,4.19,4.28,3-.58,3.93.62,3.82,3.72-.24,6.44,0,12.9,0,19.36-2.71.06-6.08-1.42-7.88.83-1.09,1.36-.9,4.92.16,6.54,1.25,1.89,4.32,1,6.48.61,2.35-.39,1.08-2.69,1.27-4.14a23.71,23.71,0,0,0-.13-3.94c8,.21,8,.21,8,8.24,0,2.61.06,5.22.09,7.83l-8.19.12c-4.82,0-9.65-.1-14.47-.11-8.31,0-8.31,0-8.49-8.06a22.92,22.92,0,0,1,3.42.08c3.85.66,5.09-.88,4.72-4.7s-.14-7.5-.17-11.25c1.47-.13,2.94-.38,4.41-.38,3.5,0,2.06-2.62,2.33-4.29.4-2.38-.68-3.19-3.05-3.12-2.11.07-3.53.28-3.32,2.92a32.58,32.58,0,0,1-.33,4.91A23.76,23.76,0,0,1,322,237c-3.9-.68-5.61.53-5.1,4.83.44,3.71.13,7.51.16,11.27-7.95-.2-7.95-.2-8.14,7.86l-8.07.23L284.93,261a21.91,21.91,0,0,1,.09-3.44c.72-4-1-5-4.77-4.69s-7.54,0-11.32,0l.14.14a13.09,13.09,0,0,1,0-2.5c.71-4.36-.73-6-5.45-5.69a217.36,217.36,0,0,1-22,.12c-3.58-.13-5.34.62-4.61,4.52.45,2.37-.22,3.65-3.09,3.47-4-.26-8-.06-12-.06l.12.12c0-4.45-.05-8.9,0-13.34,0-1.24-.37-3.09,1.74-2.65,7.82,1.63,6.19-3.89,6.31-8.13l-.14.15c3.81,0,7.62-.22,11.42-.05,2.62.12,4.19-.4,3.61-3.4-.64-3.27,1-4.15,3.83-3.62,3.57.65,4.84-.9,4.17-4.29-.71-3.67,1.36-3.84,4.22-3.82,14.57.1,29.14,0,43.71,0,8.3.54,8.3.54,8.14-7.45a4,4,0,0,0,0-.49Z"/><path class="cls-2" d="M230,292.88c-9.31,0-18.62.19-27.92,0-3.23-.07-4.43.76-4.09,4.07.16,1.61,1.18,4.59-2.38,4-5.2-.93-6.29,1.57-5.56,6a9.41,9.41,0,0,1-.06,2c-7.64.7-7.64.7-7.75,7.2-.08,2.6-.17,5.2-.25,7.8l-8,.23-7.87-.17,0,.05c-.08-2.74-.17-5.47-.25-8.2l0-6.69c.33-8,.33-8-7.77-8.14,0-2.83,0-5.65,0-8.47,0-7.71,0-7.71,7.89-7.4,0,.83.08,1.66.11,2.49.13,2.61-1,5.45,3.82,5.56,5.11.11,4.12-2.87,4.16-5.72,0-.83,0-1.66,0-2.5h0c7.46-.36,7.46-.36,8.11-7.87a22.19,22.19,0,0,1,4,0c3.39.54,4.49-1,3.92-4.1-.6-3.37.93-4.5,4.07-3.93,3.37.61,4.5-.92,3.93-4.06-.61-3.37.93-4.5,4.06-3.94,3.38.61,4.5-.92,3.94-4.06-.62-3.38.92-4.22,4.07-4,4,.27,8,.09,12,.11l-.12-.12a13.45,13.45,0,0,1,.12,3c-.71,4.09.76,5.42,5,5.12,5.93-.42,11.91-.11,17.87-.12,2.65,0,5.31.19,7.95,0,7.53-.44,7.53-.49,8.2-7.85h8l-.14-.14c0,2.63.13,5.26,0,7.88-.32,8.38-.35,8.38,8,8.06l0,8.12h0c-8.13-.36-8.13-.36-8.13,7.82l-31.71.35c-5.3-.77-8,1.11-6.91,6.82C230.3,292.24,230.07,292.57,230,292.88Z"/><path class="cls-2" d="M166.17,340a22.24,22.24,0,0,0-.08,4c.56,3.43-1,4.46-4.11,3.9-3.4-.61-4.47,1-3.91,4.09.61,3.4-1,4.47-4.08,3.91-3.41-.61-4.48,1-3.92,4.08.62,3.41-1,4.48-4.08,3.92-3.4-.62-4.47,1-3.91,4.08.61,3.4-1,4.45-4.08,3.92-2.51-.43-3.14.77-3,3.07.17,2.15-.14,4.34,0,6.49.29,4.13.27,7.77-5.66,6.41-2.16-.5-2.39,1-2.33,2.66.09,2.33-.11,4.67,0,7,.3,4.15.26,7.73-5.66,6.41-2.66-.6-2.54,1.43-2.33,3.09.37,2.88-.37,4-3.66,4-19-.18-38-.15-56.95,0-3,0-3.42-1-3.5-3.68-.08-3,1-3.69,3.72-3.43,2,.19,4-.07,6,.06,4.07.27,7.82.38,6.43-5.62-.48-2.06.78-2.5,2.58-2.41,2.33.1,4.67-.11,7,0,4.11.28,7.77.29,6.4-5.65-.48-2.08.81-2.48,2.6-2.4,2.33.11,4.67-.1,7,.06,4.13.28,7.77.27,6.4-5.66-.48-2.09.82-2.45,2.61-2.4,3.16.09,6.34-.18,9.48.06,2.93.22,4.48-.45,3.86-3.72s.46-5.06,4.14-4.37c2.93.55,4.31-.44,3.87-3.68-.26-2,.19-4,0-6-.48-4.42.17-7.53,5.79-6.28,1.73.39,2.31-.53,2.26-2.25-.08-2.65.18-5.33.06-8-.16-3.54-.34-6.83,4.92-5.66,2,.44,2-1.06,2-2.47,0-2.33.21-4.69,0-7-.52-4.57,0-7.87,5.93-6.65,2.41.49,2.1-1.38,2.12-2.86,0-4,.1-8,.15-12l7.86-.13.19,6.83c-.08,7.71-.08,7.71,7.34,8.12a3.7,3.7,0,0,1,.48.09l0-.05.12,7.91Z"/><path class="cls-2" d="M324.91,32c0,11.65,0,23.31.12,35,.05,3-.36,4.86-3.91,4.15-3.73-.75-4.27,1.13-4.18,4.4.21,7.32-.31,14.66.08,22,.24,4.56-1.12,6.31-5.63,5.51a14.77,14.77,0,0,0-2.49,0l.15.17a21,21,0,0,1,0-3.46c.73-4-1.12-5-4.82-4.69s-7.56,0-11.35,0l.14.14c0-2.66-.05-5.32-.11-8-.15-7.79-.16-7.79-8-8.14l.11.12q-.07-8-.16-16c8.61.17,8.61.17,7.92-8.15a29.28,29.28,0,0,1,.09-4c.47-3-.63-4.29-3.74-3.78-2.89.48-4.9-.16-4.19-3.78.62-3.11-1.13-3.71-3.67-3.29-3.38.58-4.46-.58-4.46-4.17s1.31-4.36,4.28-3.83c3.47.61,4.29-1.06,3.91-4.12a26.34,26.34,0,0,1,0-4l-.14.15h32.12l-.14-.13c.17,8,.17,8,8.14,8.13Z"/><path class="cls-2" d="M24.21,245.07c3,0,6-.21,8.94-.06,4.29.21,8.39.54,7.07-5.95-.49-2.42,1.49-2,2.91-2l35.77.2c-.16,2.59-.51,5.2.24,7.77-.1,7.86-.1,7.86-8,8a25.18,25.18,0,0,1-4,0c-3.32-.51-4.56.87-4,4.06.64,3.41-1,4-4.08,4-17.61-.14-35.22-.11-52.83,0-2.75,0-5.6-.3-5.25-3.43.26-2.36,1.2-5.64,5.56-4.74,3,.62,6.28,0,9.44,0,7.74.06,7.74.06,8.11-7.27A4,4,0,0,1,24.21,245.07Z"/><path class="cls-2" d="M277.36,54.68c-4.42.93-8.88.2-13.32.35-1.74.06-3.52-.1-3,2.45,1,5-1.33,6.4-5.86,5.6a7.29,7.29,0,0,0-1.95.19l.15.14c-1-4.75-.05-9.55-.37-14.32-.13-2,1-2,2.49-2,6.29,0,12.58.1,18.87-.05,2.28,0,2.82.81,2.68,2.87a43.12,43.12,0,0,0,.19,4.94Z"/><path class="cls-2" d="M87.24,237.17l31.72,0v7.7l-31.7,0Z"/><path class="cls-3" d="M158.08,308.94l-7.86.13c0-7.69,0-7.69,7.88-8.12,8.1.14,8.1.14,7.77,8.14Z"/><path class="cls-3" d="M363.87,388c8.1-.46,8.1-.46,8.2,7.75C364.37,395.85,364.37,395.85,363.87,388Z"/><path class="cls-3" d="M87,126.9c.06,7.69.06,7.69-7.75,8.21C78.72,127,78.72,127,87,126.9Z"/><path class="cls-3" d="M87.24,237.17v7.61l-8.11.23c-.75-2.57-.4-5.18-.24-7.77Z"/><path class="cls-3" d="M119,244.82v-7.7l8.22-.17-.06-.08a4.53,4.53,0,0,0-.08.49C126.71,244.86,126.71,244.86,119,244.82Z"/><path class="cls-3" d="M24.21,245.07a4,4,0,0,0-.09.48c-.37,7.33-.37,7.33-8.11,7.27,0-.17,0-.33,0-.5C16.09,244.6,16.09,244.6,24.21,245.07Z"/><path class="cls-3" d="M102.94,94.92c-.07,7.57-.07,7.57-7.76,8.19C94.65,95,94.65,95,102.94,94.92Z"/><path class="cls-3" d="M253.06,79.11c-.37,7.57-.37,7.57-7.94,8a8.29,8.29,0,0,1-.15-1C244.72,78,244.72,78,253.06,79.11Z"/><path class="cls-3" d="M119.16,79.15c0,.16-.06.33-.07.49-.32,7.38-.32,7.38-8.12,7.28,0-.17,0-.33,0-.5C111.07,78.71,111.07,78.71,119.16,79.15Z"/><path class="cls-2" d="M276.67,62.73a19.56,19.56,0,0,1,.28,3.94c-.18,1.44,1.2,3.82-1.15,4.15-2.13.31-5.16,1.35-6.47-.68-1-1.52-1-4.81,0-6.2,1.67-2.23,5-.23,7.47-1.07Z"/><path class="cls-2" d="M253.22,63.27a12.17,12.17,0,0,1-.25,2.92c-.54,1.64,1.56,4.32-1.41,4.87-2,.37-5,1.12-6-.47s-.64-4.41-.41-6.64C245.31,62.37,247,63,248,63c1.78,0,3.56.24,5.35.38Z"/><path class="cls-3" d="M292.81,54.92c.69,8.32.69,8.32-7.92,8.15l.1.07-.09-8Z"/><path class="cls-3" d="M309.06,339.87c8.37-.13,8.37-.13,7.83,8.13C309.3,347.39,309.3,347.39,309.06,339.87Z"/><path class="cls-3" d="M182.12,277c-.65,7.51-.65,7.51-8.11,7.87C173.8,276.5,173.8,276.5,182.12,277Z"/><path class="cls-3" d="M268.87,284.78c0-8.18,0-8.18,8.13-7.82l0,8.08.11-.05Z"/><path class="cls-3" d="M174,284.91c0,.84,0,1.67,0,2.5,0,2.85,1,5.83-4.16,5.72-4.85-.11-3.69-2.95-3.82-5.56,0-.83-.07-1.66-.11-2.49Z"/><path class="cls-3" d="M301.14,331.81c8,.06,8,.06,7.91,8.05C301.13,339.66,301.13,339.66,301.14,331.81Z"/><path class="cls-2" d="M284.9,55.18l.09,8-8.31-.4.14.13c.17-2.73.35-5.45.53-8.18l-.12.13Z"/><path class="cls-3" d="M166.17,340v-8.18l7.92.13-.08-.08C174,339.66,174,339.66,166.17,340Z"/><path class="cls-3" d="M173.92,324.1l8-.23c.36,9.87,1.38,8.16-8,8l.08.08Z"/><path class="cls-3" d="M182.21,316.07c.11-6.5.11-6.5,7.75-7.2C190.45,316.05,190.45,316.05,182.21,316.07Z"/><path class="cls-3" d="M230,292.88c.1-.31.33-.64.28-.93-1.08-5.71,1.61-7.59,6.91-6.82,0,.49,0,1,0,1.46C237.18,293.41,237.18,293.41,230,292.88Z"/><path class="cls-2" d="M379.83,173.88l.21,8v8.16c0,4.15-.26,8.33,0,12.47.16,2.94-.92,3.48-3.64,3.51-12.43.13-12.42.22-12.42-12.12,0-1.67.13-3.34,0-5-.45-4.53-.26-8.32,6.08-7,2,.42,2.17-1.15,1.91-2.51-1-5.26,1.77-6.15,6.06-5.47a13.31,13.31,0,0,0,2,0Z"/><path class="cls-2" d="M308.9,103c0,2.72,0,5.44,0,8.15l.14-.13-8,.18H292.9l-7.84,0L277,111l.08.07-.09-8c8.09.08,8.09.08,8-7.92h8.06l-.14-.14A16.46,16.46,0,0,1,293,98.4c-.7,4,1.08,5,4.78,4.68s7.52,0,11.28,0Z"/><path class="cls-2" d="M388,190.13c7,0,14,.2,20.93-.08,3.78-.15,2.83,2.2,2.89,4.18s.48,3.9-2.87,3.72a121.12,121.12,0,0,0-15.94.13c-4.08.32-5.87-.78-5.06-5a19.79,19.79,0,0,0,.11-3Z"/><path class="cls-3" d="M339.87,261.08l8.19-.12-.09-.08q0,4,0,8.08c0,8.2,0,8.2-8.09,7.87q0-3.93.1-7.87C339.94,266.33,339.9,263.71,339.87,261.08Z"/><path class="cls-2" d="M442.84,189.9l-15.81,0v-7.74l15.81,0Z"/><path class="cls-3" d="M396.05,158.11c-.4-8-.4-8,7.75-8.21C404,157.73,404,157.73,396.05,158.11Z"/><path class="cls-3" d="M380,190.08v-8.16c7.46.55,7.46.55,7.93,8.21l.06-.06Z"/><path class="cls-3" d="M379.79,380c-8.05-.07-8.05-.07-7.86-8.1C379.83,372.24,379.83,372.24,379.79,380Z"/><path class="cls-3" d="M442.84,189.9v-7.8l8.12,0-.09-.09C450.91,191.2,452.82,190.23,442.84,189.9Z"/><path class="cls-3" d="M371.83,127.18c7.74-.07,7.74-.07,8.21,7.74C371.93,135.41,371.93,135.41,371.83,127.18Z"/><path class="cls-3" d="M380,111.13a22.68,22.68,0,0,0-.18,3.48c.29,3-.32,4.43-3.92,4.44s-4.15-1.57-3.88-4.47a25.4,25.4,0,0,0-.15-3.48Z"/><path class="cls-2" d="M351.41,205.92c-4.14,1.13-3.17-1.9-3.52-4.32-.61-4.1,2-3.36,4.46-3.69,4.11-.55,3.38,2,3.69,4.48C356.55,206.43,354.21,206.25,351.41,205.92Z"/><path class="cls-3" d="M371.93,371.93c-8.05-.17-8.05-.17-7.84-8.13C372.09,364,372.09,364,371.93,371.93Z"/><path class="cls-3" d="M324.9,111c.46,10.33,1.09,8-7.94,8.08l-.12-7.84Z"/><path class="cls-2" d="M316.84,111.21l.12,7.84L317,119l-8.11,0,.13.13V111l-.14.13Z"/><path class="cls-2" d="M348,269q0-4,0-8.08c1.63,0,3.27.18,4.89.06,2.13-.17,3.05.21,3.22,2.8.28,4.12-.71,6.14-5.19,5.25A15.07,15.07,0,0,0,348,269Z"/><path class="cls-2" d="M340,269q-.06,3.94-.1,7.87l-7.95.07.09.09.06-7.91Z"/><path class="cls-3" d="M427,182.13v7.74c-2.47-.91-6.83,2.92-7.2-3.37C419.43,179.8,424,182.45,427,182.13Z"/><path class="cls-3" d="M324.88,182c3,.53,7.81-2.27,7.24,4.48-.24,2.76-.86,3.64-3.68,3.66s-3.83-1-3.53-3.75a44.37,44.37,0,0,0,0-4.47Z"/><path class="cls-1" d="M340,269l-7.9.12-7.27.11L309,269q0-4-.07-8.07c.19-8.06.19-8.06,8.14-7.86l-.14-.14c.18,8.06.18,8,8.49,8.06,4.82,0,9.65.07,14.47.11C339.9,263.71,339.94,266.33,340,269Z"/><path class="cls-1" d="M284.93,261l15.91.11.07,15.72-16,0,.1.11-.12-8.11c.05-2.66.11-5.32.16-8Z"/><path class="cls-3" d="M300.91,276.86l-.07-15.72,8.07-.23q0,4,.07,8.07C309.92,277.71,309.85,277.78,300.91,276.86Z"/><path class="cls-1" d="M277,285l0-8.08h0l8,0-.1-.11C285.08,284.82,285.08,284.82,277,285Z"/><path class="cls-3" d="M324.8,269.19l7.27-.11L332,277C324.47,276.84,324.47,276.84,324.8,269.19Z"/><path class="cls-1" d="M317.05,24.14H284.93c.13-8.07.13-8.07,8.36-8.07,6.28,0,12.58.19,18.85-.08,3.62-.15,5.64.53,4.87,4.68A18.22,18.22,0,0,0,317.05,24.14Z"/><path class="cls-1" d="M325.05,32.14c-8-.09-8-.09-8.14-8.13C324.86,24.18,324.86,24.18,325.05,32.14Z"/><path class="cls-1" d="M95.2,181.91l0-54.82c7.56-.75,7.56-.75,7.75-8.19a19.4,19.4,0,0,0,.13-3.48c-.47-3.27.4-5.12,4.12-4.39,3.42.67,4.45-1,3.9-4.08-.61-3.4,1-4.47,4.07-3.91,3.4.61,4.48-1,3.92-4.07-.61-3.4,1-4.47,4.07-3.92,3.36.6,4.5-.91,3.94-4-.61-3.35.87-4.39,4.05-4,1.8.22,3.67-.13,5.48.07,3.85.42,6.56-.15,5.49-5.06-.53-2.4.63-3,3-3,19.29.1,38.58.08,57.87.06,1.76,0,3.56-.12,3,2.45-1.05,5.18,1.54,6.29,6,5.56a9.53,9.53,0,0,1,2,.08l.05,7.93.08-.08c-4,0-8-.25-12,0-3.3.25-4.47-.84-4-4.09.31-2.19.45-4-3-4-14,.21-28,.13-41.94.05-2.2,0-3.67.34-3.11,2.91,1.08,4.93-1.67,5.44-5.51,5-1.8-.18-3.69.27-5.47,0-3.43-.48-4.43,1-3.94,4.13.44,2.77-.2,4.59-3.58,3.91-3.74-.75-5.14.8-4.5,4.51.39,2.31-.18,4-3.08,3.4-4.48-.92-5.39,1.36-4.85,5.2.21,1.44.35,3.35-2.05,2.86-5.89-1.2-6.52,2-5.95,6.62.25,2-.15,4,.09,6,.35,3-.94,3.92-3.63,3.4-3.92-.76-4.55,1.05-4.5,4.6.19,14.14.06,28.29,0,42.43l.08-.08Z"/><path class="cls-1" d="M277,103l.09,8c-4.43,0-8.87.07-13.3-.09-2.13-.07-2.86.54-2.79,2.74.14,4.43,0,8.87,0,13.3l.09-.09a22.38,22.38,0,0,0-3.48.1c-3.69.64-5.28-.73-4.51-4.49s-1.69-3.54-4.33-3.76c-3.23-.26-4.07.95-3.73,3.92a31.33,31.33,0,0,1,0,6c-.32,4.14-.23,7.73,5.65,6.37,2.08-.48,2.41.81,2.4,2.6q-.09,16.93,0,33.88c0,1.91-.52,2.7-2.51,2.54-1.82-.15-3.66,0-5.48,0h0c-.68-2.71-.37-5.45-.22-8.19q0-7.86,0-15.73c.25-7.91.25-7.91-7.26-8.15l-.49-.06q0-6-.11-12c0-1.45.36-3.4-2.07-2.88-5.14,1.09-5.22-2-5-5.61.16-2.31-.18-4.67.07-7,.31-2.94-.91-3.94-3.62-3.42-3.9.76-5.05-1-4.41-4.59.52-2.92-.85-3.94-3.56-3.42-3.86.74-5.06-.94-4.47-4.56a22.55,22.55,0,0,0,.07-3.49l-.08.08,8.15-.18a21.16,21.16,0,0,0,4,.1c3.37-.52,4.37.93,4,4.08-.27,2.14-.54,4.59,3,3.93,3.38-.64,4.46.94,3.91,4-.58,3.29.81,4.09,4,4.1s4.57-.87,4-4.12.68-4.2,4-4.08c6.64.24,13.29,0,19.93,0Z"/><path class="cls-1" d="M206,221.92c.06,1.32,0,2.66.2,4,.29,2.29-.35,3.33-2.93,3.14-3.15-.24-6.35.17-9.48-.12s-4.36.72-3.76,3.81c.69,3.59-.88,4.4-4.31,4.29-8-.26-16-.23-24,0-3.2.11-4.25-.92-3.69-3.89.7-3.68-1-4.41-4.37-4.22-5,.28-10-.09-15,.09-2.67.09-4.18-.48-3.59-3.46.67-3.37-1.1-3.91-3.91-3.63-2,.19-4-.15-6,.07-4.15.45-7.25,0-6.12-5.45.37-1.8-.33-3-2.38-2.57-5.09,1-6.41-1.38-5.62-5.91a8.33,8.33,0,0,0-.12-2l.18-8.16-.05.06c4.71-.4,9.32-1.12,8.19,6.45-.42,2.77,2.76,1.29,4.26,1.45,2,.22,4.24-.17,3.54,3-1,4.82,1.5,5.58,5.45,5.11,1.8-.22,3.68.17,5.48-.05,3.2-.4,4.6.67,4.06,4-.42,2.61,0,4.14,3.49,4.09,17.47-.24,35-.16,52.42-.19l8.11.13Z"/><path class="cls-1" d="M300.91,213.9c-14.57,0-29.14.07-43.71,0-2.86,0-4.93.15-4.22,3.82.67,3.39-.6,4.94-4.17,4.29-2.86-.53-4.47.35-3.83,3.62.58,3-1,3.52-3.61,3.4-3.8-.17-7.61,0-11.42.05a33.22,33.22,0,0,0,0-4c-.25-2.28.41-3.55,2.93-3.07,3.72.71,4.7-1.13,4.09-4.39s1.06-4,3.89-3.61c3,.47,4.8-.38,4.12-3.87-.72-3.64,1-4.79,4.33-4.15s3.83-1,3.69-3.88c-.18-4,.07-8,.13-12h7.69c.05,4.15.3,8.3.08,12.44-.16,2.9.87,3.54,3.61,3.51,12.12-.12,24.24,0,36.37,0Q300.91,210,300.91,213.9Z"/><path class="cls-1" d="M237.11,198.07a30.11,30.11,0,0,0-.05,4.45c.36,2.82-.72,4-3.5,3.46-3.39-.65-4,1.2-3.52,3.9.64,3.65-1,4.71-4.34,4.1s-4.22.8-3.67,3.77c.63,3.43-.67,4.62-4.2,4.31-3.93-.35-7.9-.12-11.86-.14l.1.1.09-7.88a8.38,8.38,0,0,1,2-.13c4.53.79,6.92-.54,5.91-5.61-.52-2.61,1.35-2.59,3.06-2.39,3.5.42,5.82-.27,4.95-4.58-.59-2.92.87-3.92,3.56-3.4,3.94.77,5-1.08,4.4-4.6-.51-2.91.8-3.85,3.56-3.46a25.21,25.21,0,0,0,3.48.07L237,190Z"/><path class="cls-1" d="M268.93,135.08c0,11.93-.12,23.87.17,35.79.1,3.9-2.12,3.12-4.34,3.26-2.44.16-3.9,0-3.84-3.26.24-11.93.13-23.86.16-35.79A18.88,18.88,0,0,1,268.93,135.08Z"/><path class="cls-3" d="M277,103l-8-.1a22.72,22.72,0,0,0,.16-3.94c-.37-3,.73-4.19,3.83-3.92,1.52.13,4.4.94,3.87-2.07-1.33-7.7,3.92-6,8.08-6.07.05,2.73.09,5.45.14,8.18C285.05,103.12,285.05,103.12,277,103Z"/><path class="cls-1" d="M308.92,119l8.11,0c0,4.46-.22,8.93,0,13.38.2,3.9-2.5,2.53-4.32,2.66s-4,.68-3.8-2.69C309.17,127.89,308.94,123.42,308.92,119Z"/><path class="cls-1" d="M285,95.12c-.05-2.73-.09-5.45-.14-8.18s.05-5.3.08-8c7.85.35,7.86.35,8,8.14.06,2.66.07,5.32.11,8Z"/><path class="cls-1" d="M103.19,197.91l-.24-7.8.17-8.15L103,182a20.6,20.6,0,0,0,3.43-.07c4-.7,5,1,4.68,4.76s-.08,7.52-.08,11.28l.05-.06Z"/><path class="cls-1" d="M245.06,174.05l-.19,15.82L237,190l.07.07q0-8,0-16a18.21,18.21,0,0,1,8,0Z"/><path class="cls-1" d="M292.92,166c.19,8.21.19,8.21-7.89,8l.06.06c-.25-8.1-.25-8.1,8-7.88Z"/><path class="cls-3" d="M285,173.91a19.85,19.85,0,0,1-.12,3.46c-.32,1.56,1.24,4-1.57,4.46-1.88.28-4.37,1-5.68-.47s-.68-4.11-.43-6.2c.15-1.29,1.46-1.06,2.4-1.09,1.82-.06,3.64-.07,5.46-.1Z"/><path class="cls-1" d="M293.06,166.09c0-1.16-.06-2.32-.06-3.48,0-4.43,2.58-6.34,6.71-4.63,2.73,1.14.81,3.76,1.23,5.65.34,1.51-.15,2.54-2.06,2.4s-4-.07-6-.08Z"/><path class="cls-3" d="M103.12,182l-.17,8.15-.5,0c-7.68-.11-7.68-.11-7.25-8.18Z"/><path class="cls-1" d="M305.57,142.07c3.87-1,3.2,1.71,3.49,4.21.43,3.64-1.42,3.62-4.21,3.87-4.08.36-3.71-1.82-4-4.64C300.49,141.43,302.86,141.84,305.57,142.07Z"/><path class="cls-3" d="M260.86,190.12h-7.69c0-1,.07-2,0-2.94-.14-2.89-.38-5.23,4.06-5.16s3.51,2.68,3.57,5.15C260.84,188.16,260.85,189.14,260.86,190.12Z"/><path class="cls-3" d="M268.93,135.08a18.88,18.88,0,0,0-7.85,0l-.06-8.14-.09.09C270.2,127,269.36,125,268.93,135.08Z"/><path class="cls-3" d="M237,190l7.88-.1c0,7.66,0,7.66-7.76,8.2Z"/><path class="cls-3" d="M102.92,118.9c-.19,7.44-.19,7.44-7.75,8.19C94.6,118.89,94.6,118.89,102.92,118.9Z"/><path class="cls-3" d="M103.19,197.91l7.93,0-.18,8.16-.5,0C102.75,206,102.75,206,103.19,197.91Z"/><path class="cls-3" d="M300.91,213.9q0-3.92,0-7.83L309,206a4,4,0,0,1,0,.49C309.21,214.44,309.21,214.44,300.91,213.9Z"/><path class="cls-1" d="M309.05,111v8.12l-8-.17v-7.77Z"/><path class="cls-3" d="M301.08,111.15v7.77H292.9v-7.77Z"/><path class="cls-1" d="M292.9,111.15v7.77l-7.84,0a22.44,22.44,0,0,1,0-7.84Z"/><path class="cls-3" d="M285.06,111.11a22.44,22.44,0,0,0,0,7.84c-10.18.4-8,1.21-8.09-7.94Z"/><path class="cls-3" d="M222.14,94.9l-8.15.18c0-2.64,0-5.28-.05-7.93C222,86.74,222,86.74,222.14,94.9Z"/><path class="cls-1" d="M269.07,253h-8c-2.62,0-5.24-.22-7.85-.11-7.87.34-7.87.38-8.3,7.92-6,0-11.94-.3-17.87.12-4.22.3-5.69-1-5-5.12a13.45,13.45,0,0,0-.12-3c4,0,8-.2,12,.06,2.87.18,3.54-1.1,3.09-3.47-.73-3.9,1-4.65,4.61-4.52a217.36,217.36,0,0,0,22-.12c4.72-.3,6.16,1.33,5.45,5.69A13.09,13.09,0,0,0,269.07,253Z"/><path class="cls-1" d="M277,268.84c-8.36.32-8.33.32-8-8.06.1-2.62,0-5.25,0-7.88,3.78,0,7.57.31,11.32,0s5.49.72,4.77,4.69a21.91,21.91,0,0,0-.09,3.44l.13-.13c-7.86.25-7.86.25-8.15,8Z"/><path class="cls-1" d="M317.05,253.05c0-3.76.28-7.56-.16-11.27-.51-4.3,1.2-5.51,5.1-4.83a23.76,23.76,0,0,0,2.93.13l0,0c0,3.75-.19,7.53.17,11.25s-.87,5.36-4.72,4.7a22.92,22.92,0,0,0-3.42-.08Z"/><path class="cls-3" d="M340,244.89a23.71,23.71,0,0,1,.13,3.94c-.19,1.45,1.08,3.75-1.27,4.14-2.16.35-5.23,1.28-6.48-.61-1.06-1.62-1.25-5.18-.16-6.54,1.8-2.25,5.17-.77,7.88-.83Z"/><path class="cls-3" d="M324.92,237.08a32.58,32.58,0,0,0,.33-4.91c-.21-2.64,1.21-2.85,3.32-2.92,2.37-.07,3.45.74,3.05,3.12-.27,1.67,1.17,4.29-2.33,4.29-1.47,0-2.94.25-4.41.38Z"/><path class="cls-3" d="M244.93,260.86c.43-7.54.43-7.58,8.3-7.92,2.61-.11,5.23.07,7.85.11-.67,7.36-.67,7.41-8.2,7.85C250.24,261.05,247.58,260.88,244.93,260.86Z"/><path class="cls-3" d="M285,277l-8,0,0-8.12-.06.09,8-.05Z"/><path class="cls-3" d="M166.09,324a3.7,3.7,0,0,0-.48-.09c-7.42-.41-7.42-.41-7.34-8.12h7.57C165.92,318.51,166,321.24,166.09,324Z"/><path class="cls-1" d="M173.92,324.1l.17,7.87-7.92-.13-.12-7.91Z"/><path class="cls-1" d="M165.84,315.78h-7.57l-.19-6.83,7.79.15Z"/><path class="cls-1" d="M309.05,103.12c-3.76,0-7.54-.34-11.28,0s-5.48-.69-4.78-4.68a16.46,16.46,0,0,0-.07-3.43c3.79,0,7.59.3,11.35,0s5.55.65,4.82,4.69A21,21,0,0,0,309.05,103.12Z"/><path class="cls-2" d="M284.9,268.88l-8,.05c.29-7.78.29-7.78,8.15-8C285,263.56,285,266.22,284.9,268.88Z"/><path class="cls-2" d="M237.08,174.06q0,8,0,16a25.21,25.21,0,0,1-3.48-.07c-2.76-.39-4.07.55-3.56,3.46.62,3.52-.46,5.37-4.4,4.6-2.69-.52-4.15.48-3.56,3.4.87,4.31-1.45,5-4.95,4.58-1.71-.2-3.58-.22-3.06,2.39,1,5.07-1.38,6.4-5.91,5.61a8.38,8.38,0,0,0-2,.13c-7.67,0-7.66,0-8.1,7.28a2.63,2.63,0,0,1-.1.47c-17.47,0-35,0-52.42.19-3.53,0-3.91-1.48-3.49-4.09.54-3.34-.86-4.41-4.06-4-1.8.22-3.68-.17-5.48.05-3.95.47-6.5-.29-5.45-5.11.7-3.18-1.49-2.79-3.54-3-1.5-.16-4.68,1.32-4.26-1.45,1.13-7.57-3.48-6.85-8.19-6.45,0-3.76-.24-7.55.08-11.28s-.72-5.46-4.68-4.76A20.6,20.6,0,0,1,103,182c0-14.14.15-28.29,0-42.43,0-3.55.58-5.36,4.5-4.6,2.69.52,4-.43,3.63-3.4-.24-2,.16-4-.09-6-.57-4.6.06-7.82,5.95-6.62,2.4.49,2.26-1.42,2.05-2.86-.54-3.84.37-6.12,4.85-5.2,2.9.6,3.47-1.09,3.08-3.4-.64-3.71.76-5.26,4.5-4.51,3.38.68,4-1.14,3.58-3.91-.49-3.12.51-4.61,3.94-4.13,1.78.25,3.67-.2,5.47,0,3.84.39,6.59-.12,5.51-5-.56-2.57.91-2.93,3.11-2.91,14,.08,28,.16,41.94-.05,3.5,0,3.36,1.8,3,4-.44,3.25.73,4.34,4,4.09,4-.29,8-.05,12,0a22.55,22.55,0,0,1-.07,3.49c-.59,3.62.61,5.3,4.47,4.56,2.71-.52,4.08.5,3.56,3.42-.64,3.56.51,5.35,4.41,4.59,2.71-.52,3.93.48,3.62,3.42-.25,2.31.09,4.67-.07,7-.26,3.65-.18,6.7,5,5.61,2.43-.52,2.05,1.43,2.07,2.88q.06,6,.11,12c-.37,8-.37,8,7.26,8.17a4,4,0,0,1,.49,0q0,7.86,0,15.73C236.48,165.83,236.48,165.83,237.08,174.06Z"/><path class="cls-3" d="M237.08,174.06c-.6-8.23-.6-8.23,7.76-8.2-.15,2.74-.46,5.48.22,8.19A18.21,18.21,0,0,0,237.08,174.06Z"/><path class="cls-3" d="M244.88,150.13a4,4,0,0,0-.49,0c-7.63-.14-7.63-.14-7.26-8.17l.49.06C245.13,142.22,245.13,142.22,244.88,150.13Z"/><path class="cls-3" d="M198,221.89a2.63,2.63,0,0,0,.1-.47c.44-7.26.43-7.26,8.1-7.28l-.09,7.88Z"/></svg>