<svg id="Calque_1" data-name="Calque 1" xmlns="http://www.w3.org/2000/svg" viewBox="0 0 389 416"><defs><style>.cls-1{fill:#020202;}.cls-2{fill:#fdfdfd;}.cls-3{fill:#fafafa;}</style></defs><path class="cls-1" d="M693.48,35.07c6.48.23,13,.63,19.44.7,11.82.11,23.64.17,35.46-.06,3.57-.06,4.61,1.06,4.37,4.5-.28,4,.17,8-.14,12-.27,3.4,1,4.09,4.16,4,11.48-.18,23,.05,34.46-.15,3.35,0,4.77.66,4.51,4.32-.33,4.47.14,9-.15,13.48-.23,3.4.66,4.54,4.28,4.46,11.48-.25,23,0,34.45-.17,3.35-.06,4.79.64,4.53,4.32-.33,4.64.09,9.33-.14,14-.14,2.91.88,3.7,3.68,3.57,4.65-.21,9.33.15,14-.13,3.13-.19,3.91.82,3.87,3.88-.18,12.15,0,24.31-.13,36.46,0,2.79.72,3.84,3.62,3.7,4.49-.23,9,.18,13.48-.14,3.65-.26,4.83.68,4.74,4.58-.29,11.81,0,23.64-.16,35.46,0,2.51.56,3.55,3.28,3.41,4.15-.22,8.34.19,12.47-.13,3.66-.28,4.87.7,4.77,4.59-.28,11.64-.33,23.31,0,34.95.14,4.77-.87,9.79,1.58,14.35v3c-1.79,1-.83,2.69-.84,4Q903,313,903,377.9c0,2-.26,4-.41,5.94-11.48-.06-23-.14-34.45-.17-8,0-8,0-8-7.75q0-48.46.05-96.92c0-3,0-5.16-4.05-4.78a63.93,63.93,0,0,1-12,0c-4.32-.42-5.53.83-5.52,5.36.19,54.29.12,108.59.11,162.88,0,2.13.37,4.33-.89,6.29-1,.06-2,.17-3,.17l-301.75-.07c3.9-.72,4.37-3.23,4.35-6.82-.15-32.47,0-64.95-.18-97.42,0-4,1.08-5.18,5-4.88,4.3.34,8.66-.1,13,.14,3,.17,4.18-.6,4-3.82-.28-4.64.15-9.33-.15-14-.22-3.43,1.09-4.24,4.25-4.06,4.32.24,8.68-.19,13,.13,3.66.29,4.55-1.14,4.32-4.5-.27-4,.29-8-.16-12-.55-4.85,1.47-5.81,5.84-5.59,7,.34,14,.14,21,.08,5.3,0,12.48,1.81,15.42-.89,3.37-3.09.53-10.37,1.1-15.79.43-4.11-.9-5.31-5.13-5.27-25.64.21-51.29.09-76.93.11-2.39,0-4.45.39-4.43-3.37q.21-40.22,0-80.43c0-2.68.91-3.44,3.47-3.36,5,.17,10-.06,15,.1,2.49.08,3.47-.49,3.44-3.25q-.22-18.48,0-37c0-2.85-1.11-3.25-3.51-3.18-5,.14-10-.09-15,.09-2.65.1-3.48-.83-3.39-3.43.17-4.82-.22-9.67.13-14.48.26-3.68-1.11-4.5-4.48-4.26-4.14.29-8.33-.08-12.48.12-2.63.12-3.49-.74-3.4-3.38.18-5.24.15-10.5,0-15.74,0-2.22.75-2.88,2.88-2.82,4.66.12,9.33-.09,14,.09,2.55.09,3.57-.62,3.46-3.32-.2-4.49.25-9-.14-13.48s1.31-5.19,5.31-5.09c11.15.27,22.31-.1,33.46.2,3.94.11,4.84-1.18,4.57-4.78-.31-4,.2-8-.15-12-.36-4.17.63-5.74,5.3-5.57,11.14.42,22.31-.05,33.46.24,3.9.11,4.85-1.13,4.56-4.76-.31-4,.16-8-.14-12-.25-3.24,1-3.83,4-3.79,10.82.17,21.65.28,32.46,0M581,209.05c-.13,6-.13,12-.44,17.93-.15,3,.74,4,3.89,4,10.82-.2,21.65-.08,32.48-.08,22.32,0,44.64.09,67-.09,3.54,0,4.39.92,4.36,4.4q-.27,28.48,0,57c0,3.3-.88,4.29-4.14,4.1-4.64-.27-9.32.07-14-.12-2.66-.12-3.46.82-3.38,3.4.16,5.16-.06,10.33.09,15.49.07,2.44-.8,3.18-3.17,3.11-5.16-.14-10.33.07-15.49-.09-2.37-.07-3.2.64-3.12,3.07.16,5-.16,10,.12,15,.19,3.21-.94,3.86-3.94,3.81-11.82-.17-23.65,0-35.47-.13-2.81,0-3.77.72-3.63,3.59.23,4.66-.14,9.34.13,14,.2,3.37-.64,4.76-4.3,4.49-4.47-.33-9,.11-13.48-.14-3.07-.18-4,.74-3.92,3.86.19,11.49.27,23,0,34.47-.11,4.1.85,5.22,5.11,5.21q102.42-.23,204.86,0c4.68,0,5.32-1.43,5.31-5.58q-.19-92.46-.09-184.91a14.68,14.68,0,0,1,0-2c.37-2.79-.67-3.89-3.59-3.7-3.65.23-7.32.05-11,.05-7,0-7,0-7-6.7,0-3.5-.32-7,.08-10.49.48-4.19-1.3-5-5-4.78-4.47.29-9-.06-13.48.12-2.42.09-3.15-.72-3.07-3.1.16-5-.14-10,.11-15,.16-3.18-1-4-4-3.89-4.49.23-9-.19-13.48.14-3.68.28-4.49-1.12-4.29-4.49.28-4.65,0-9.33.12-14,.09-2.35-.59-3.11-3-3.1q-40,.12-80,0c-2.93,0-3.19,1.21-3.13,3.52.12,4.66-.17,9.34.11,14,.2,3.26-.8,4.16-4.08,4.1-11.66-.2-23.32,0-35-.14-2.95,0-4.13.59-4,3.82.25,6,0,12,0,18-6.11,0-12.22.21-18.32.11-2.35,0-3.24.67-3.16,3.07C580.81,196.53,580.84,202.79,581,209.05ZM688,78.24c-20,0-40,.09-60-.09-3.56,0-4.61,1-4.35,4.44.29,4-.2,8,.14,12,.36,4.15-.58,5.71-5.24,5.55-11.48-.42-23-.09-34.48-.18-2.37,0-3.73.26-3.6,3.19.23,5.15.13,10.33,0,15.49,0,2.21.47,3.29,3,3.27,12.32-.11,24.65-.13,37,0,2.81,0,3.33-1.13,3.27-3.56-.13-5,.09-10-.09-15-.09-2.55.58-3.42,3.28-3.41q50.47.14,100.94,0c2.86,0,3.25,1.11,3.17,3.5-.15,4.5.2,9-.11,13.49-.27,3.8.72,5.14,4.82,5,11.66-.31,23.32,0,35-.16,2.54,0,3.52.55,3.4,3.28-.21,5.15.07,10.33-.11,15.49-.09,2.64.79,3.49,3.41,3.39,4.66-.18,9.33.13,14-.12,3.17-.16,4.5.61,4.26,4.08-.32,4.47.16,9-.16,13.48-.24,3.45,1.1,4.21,4.22,4,4.15-.24,8.35.18,12.49-.12,3.77-.28,5.18.69,5.07,4.83-.32,11.48.07,23-.21,34.48-.1,3.89,1.13,4.85,4.78,4.59,4.47-.31,9,.06,13.48-.12,2.6-.1,3.52.71,3.42,3.38-.19,5,0,10-.1,15-.07,2.47.49,3.6,3.27,3.48,5-.22,10-.16,15,0,2.3.06,3.25-.53,3.23-3-.1-12.49-.12-25,0-37.48,0-2.79-1.06-3.33-3.53-3.24-4.49.16-9-.27-13.48.14-4,.37-4.59-1.2-4.51-4.73.22-11-.11-22,.18-33,.11-4.32-.7-6.35-5.56-5.8-4.11.47-8.33-.07-12.48.16-2.9.16-3.77-.9-3.63-3.7.2-4.16-.27-8.36.13-12.48.46-4.62-.67-6.67-5.76-6-3.93.49-8-.08-12,.15-3,.18-4.18-.64-4-3.83.26-4.65-.13-9.33.13-14,.19-3.3-.87-4.23-4.18-4.17-11.65.21-23.32,0-35,.15-3,0-4.15-.69-4-3.85.26-4.15-.21-8.35.14-12.48s-.64-5.69-5.33-5.61C727.63,78.42,707.8,78.24,688,78.24Z" transform="translate(-515 -34)"/><path class="cls-2" d="M675,34.1c-4.8,2.06-9.95,1.46-14.93,1.6-10.81.31-21.64.2-32.46,0-3,0-4.2.55-4,3.79.3,4-.17,8,.14,12,.29,3.63-.66,4.87-4.56,4.76-11.15-.29-22.32.18-33.46-.24-4.67-.17-5.66,1.4-5.3,5.57.35,4-.16,8,.15,12,.27,3.6-.63,4.89-4.57,4.78-11.15-.3-22.31.07-33.46-.2-4-.1-5.7.75-5.31,5.09s-.06,9,.14,13.48c.11,2.7-.91,3.41-3.46,3.32-4.65-.18-9.32,0-14-.09-2.13-.06-2.93.6-2.88,2.82.14,5.24.17,10.5,0,15.74-.09,2.64.77,3.5,3.4,3.38,4.15-.2,8.34.17,12.48-.12,3.37-.24,4.74.58,4.48,4.26-.35,4.81,0,9.66-.13,14.48-.09,2.6.74,3.53,3.39,3.43,5-.18,10,.05,15-.09,2.4-.07,3.55.33,3.51,3.18q-.24,18.48,0,37c0,2.76-1,3.33-3.44,3.25-5-.16-10,.07-15-.1-2.56-.08-3.47.68-3.47,3.36q.13,40.22,0,80.43c0,3.76,2,3.38,4.43,3.37,25.64,0,51.29.1,76.93-.11,4.23,0,5.56,1.16,5.13,5.27-.57,5.42,2.27,12.7-1.1,15.79-2.94,2.7-10.12.84-15.42.89-7,.06-14,.26-21-.08-4.37-.22-6.39.74-5.84,5.59.45,3.95-.11,8,.16,12,.23,3.36-.66,4.79-4.32,4.5-4.3-.32-8.66.11-13-.13-3.16-.18-4.47.63-4.25,4.06.3,4.65-.13,9.34.15,14,.19,3.22-1,4-4,3.82-4.32-.24-8.68.2-13-.14-3.89-.3-5,.88-5,4.88.17,32.47,0,64.95.18,97.42,0,3.59-.45,6.1-4.35,6.82l0,1.08c-5.33,0-10.67-.09-16,.06-1.74.05-2.35-.31-2-2.06a13.79,13.79,0,0,0,0-2.49q0-203.43-.1-406.84c0-3.75.84-4.61,4.59-4.6Q597.31,34.21,675,34.1Z" transform="translate(-515 -34)"/><path class="cls-2" d="M903.9,241c-2.45-4.56-1.44-9.58-1.58-14.35-.35-11.64-.3-23.31,0-34.95.1-3.89-1.11-4.87-4.77-4.59-4.13.32-8.32-.09-12.47.13-2.72.14-3.3-.9-3.28-3.41.12-11.82-.13-23.65.16-35.46.09-3.9-1.09-4.84-4.74-4.58-4.47.32-9-.09-13.48.14-2.9.14-3.65-.91-3.62-3.7.13-12.15-.05-24.31.13-36.46,0-3.06-.74-4.07-3.87-3.88-4.64.28-9.32-.08-14,.13-2.8.13-3.82-.66-3.68-3.57.23-4.65-.19-9.34.14-14,.26-3.68-1.18-4.38-4.53-4.32-11.48.19-23-.08-34.45.17-3.62.08-4.51-1.06-4.28-4.46.29-4.48-.18-9,.15-13.48.26-3.66-1.16-4.37-4.51-4.32-11.49.2-23,0-34.46.15-3.15.05-4.43-.64-4.16-4,.31-4-.14-8,.14-12,.24-3.44-.8-4.56-4.37-4.5-11.82.23-23.64.17-35.46.06-6.48-.07-13-.47-19.44-.7-.71,0-1.29-.18-1.47-1q103.95,0,207.9-.1c3.42,0,4.1.67,4.09,4.1Q903.81,139.56,903.9,241Z" transform="translate(-515 -34)"/><path class="cls-2" d="M837.87,448.75c1.26-2,.89-4.16.89-6.29,0-54.29.08-108.59-.11-162.88,0-4.53,1.2-5.78,5.52-5.36a63.93,63.93,0,0,0,12,0c4.07-.38,4.05,1.8,4.05,4.78q-.11,48.45-.05,96.92c0,7.74,0,7.72,8,7.75,11.48,0,23,.11,34.45.17l1.31.12c0,21,0,42,.07,63,0,2.51-.57,3.08-3.07,3.07-21-.12-42-.07-63-.07C837.91,449.54,837.89,449.14,837.87,448.75Z" transform="translate(-515 -34)"/><path class="cls-3" d="M837.87,448.75c0,.39,0,.79.07,1.18H533.1l0-1.08,301.75.07C835.87,448.92,836.87,448.81,837.87,448.75Z" transform="translate(-515 -34)"/><path class="cls-3" d="M903.9,384l-1.31-.12c.15-2,.41-4,.41-5.94q0-64.93.06-129.87c0-1.33-.95-3,.84-4Z" transform="translate(-515 -34)"/><path class="cls-2" d="M602.08,187.09c0-6,.23-12,0-18-.14-3.23,1-3.86,4-3.82,11.66.16,23.32-.06,35,.14,3.28.06,4.28-.84,4.08-4.1-.28-4.65,0-9.33-.11-14-.06-2.31.2-3.53,3.13-3.52q40,.19,80,0c2.44,0,3.12.75,3,3.1-.16,4.66.16,9.34-.12,14-.2,3.37.61,4.77,4.29,4.49,4.47-.33,9,.09,13.48-.14,3-.15,4.15.71,4,3.89-.25,5,0,10-.11,15-.08,2.38.65,3.19,3.07,3.1,4.49-.18,9,.17,13.48-.12,3.73-.25,5.51.59,5,4.78-.4,3.46-.08,7-.08,10.49,0,6.7,0,6.7,7,6.7,3.67,0,7.34.18,11-.05,2.92-.19,4,.91,3.59,3.7a14.68,14.68,0,0,0,0,2q0,92.46.09,184.91c0,4.15-.63,5.6-5.31,5.58q-102.44-.27-204.86,0c-4.26,0-5.22-1.11-5.11-5.21.3-11.48.22-23,0-34.47,0-3.12.85-4,3.92-3.86,4.48.25,9-.19,13.48.14,3.66.27,4.5-1.12,4.3-4.49-.27-4.65.1-9.33-.13-14-.14-2.87.82-3.63,3.63-3.59,11.82.15,23.65,0,35.47.13,3,.05,4.13-.6,3.94-3.81-.28-5,0-10-.12-15-.08-2.43.75-3.14,3.12-3.07,5.16.16,10.33,0,15.49.09,2.37.07,3.24-.67,3.17-3.11-.15-5.16.07-10.33-.09-15.49-.08-2.58.72-3.52,3.38-3.4,4.66.19,9.34-.15,14,.12,3.26.19,4.17-.8,4.14-4.1q-.24-28.49,0-57c0-3.48-.82-4.42-4.36-4.4-22.31.18-44.63.09-67,.09-10.83,0-21.66-.12-32.48.08-3.15,0-4-.92-3.89-4,.31-6,.31-11.95.44-17.93" transform="translate(-515 -34)"/><path class="cls-3" d="M688,78.24c19.82,0,39.65.18,59.46-.13,4.69-.08,5.68,1.4,5.33,5.61s.12,8.33-.14,12.48c-.2,3.16.92,3.9,4,3.85,11.65-.17,23.32.06,35-.15,3.31-.06,4.37.87,4.18,4.17-.26,4.65.13,9.33-.13,14-.17,3.19,1,4,4,3.83,4-.23,8,.34,12-.15,5.09-.64,6.22,1.41,5.76,6-.4,4.12.07,8.32-.13,12.48-.14,2.8.73,3.86,3.63,3.7,4.15-.23,8.37.31,12.48-.16,4.86-.55,5.67,1.48,5.56,5.8-.29,11,0,22-.18,33-.08,3.53.52,5.1,4.51,4.73,4.46-.41,9,0,13.48-.14,2.47-.09,3.56.45,3.53,3.24-.13,12.49-.11,25,0,37.48,0,2.5-.93,3.09-3.23,3-5-.14-10-.2-15,0-2.78.12-3.34-1-3.27-3.48.15-5-.09-10,.1-15,.1-2.67-.82-3.48-3.42-3.38-4.49.18-9-.19-13.48.12-3.65.26-4.88-.7-4.78-4.59.28-11.49-.11-23,.21-34.48.11-4.14-1.3-5.11-5.07-4.83-4.14.3-8.34-.12-12.49.12-3.12.19-4.46-.57-4.22-4,.32-4.48-.16-9,.16-13.48.24-3.47-1.09-4.24-4.26-4.08-4.65.25-9.32-.06-14,.12-2.62.1-3.5-.75-3.41-3.39.18-5.16-.1-10.34.11-15.49.12-2.73-.86-3.31-3.4-3.28-11.66.12-23.32-.15-35,.16-4.1.11-5.09-1.23-4.82-5,.31-4.48,0-9,.11-13.49.08-2.39-.31-3.51-3.17-3.5q-50.46.15-100.94,0c-2.7,0-3.37.86-3.28,3.41.18,5,0,10,.09,15,.06,2.43-.46,3.59-3.27,3.56-12.32-.14-24.65-.12-37,0-2.56,0-3.07-1.06-3-3.27.09-5.16.19-10.34,0-15.49-.13-2.93,1.23-3.21,3.6-3.19,11.49.09,23-.24,34.48.18,4.66.16,5.6-1.4,5.24-5.55-.34-4,.15-8-.14-12-.26-3.45.79-4.47,4.35-4.44C648,78.33,668,78.24,688,78.24Z" transform="translate(-515 -34)"/></svg>