<svg id="Calque_1" data-name="Calque 1" xmlns="http://www.w3.org/2000/svg" viewBox="0 0 314 314"><defs><style>.cls-1{fill:#fe4800;}.cls-2{fill:#0076d0;}.cls-3{fill:#fe0026;}.cls-4{fill:#00c205;}.cls-5{fill:#fefefe;}.cls-6{fill:#feeee9;}.cls-7{fill:#fec500;}.cls-8{fill:#ed1238;}.cls-9{fill:#01bf21;}</style></defs><path class="cls-1" d="M.07,281V216a6.6,6.6,0,0,1,2.43-1.6c6.29-2,6.29-2,6.8-9A27.84,27.84,0,0,1,9,199.89c0-4.12,1.93-6.57,6.18-6.91,2.26-.18,4.07-.63,4.72-3.4,1.69-7.21,2.72-7.88,10.08-7.63.83,0,1.65.15,2.47.26,1.15.1,2.28-.3,3.42-.23,3.41.2,5.27-1.08,5.2-4.77A5.89,5.89,0,0,1,43.38,172c5.44-2.15,11.12-1,16.68-1,5.22,0,10.58-1.1,15.67,1A5.6,5.6,0,0,1,78,176.76c0,3.39,1.27,5.21,5,5.28,4.31.09,6,2.82,6.12,6.88.06,3.31.09,6.63,0,9.94,0,3.14,1,5.06,4.48,5.12,3.92.07,6.14,2.2,6.47,6.11.23,2.66,1.71,3.71,4.21,3.91,3,.24,5.36,1.76,5.46,4.79.16,4.62,2.22,6.56,6.71,6.38a4.57,4.57,0,0,1,2.71,1.12,6.14,6.14,0,0,1,1.34,2c1.18,2.27-.62,5.74,2.35,7.09,2.37,1.08,5.18.53,7.8.78,3.67-.21,7.42-1.13,10.76,1.31a4.94,4.94,0,0,1,1.47,3.11c.43,9,.45,18,0,26.93-.15,3.24-2.37,5.2-5.58,5.34-4.23.18-5.35,2.52-5.19,6.24.11,2.49,0,5,0,7.48,0,4.3-1.78,7-6.33,7.37-2.33.19-4,.92-4.6,3.62-1.54,6.8-2.59,7.52-9.33,7.41a18.32,18.32,0,0,1-3-.27c-1.33-.17-2.63.31-4,.23-3.27-.2-5,1.08-4.91,4.56a5.7,5.7,0,0,1-2,4.41h-65c-.33-.37-.89-.71-.94-1.13-.64-5.29-3-8.39-8.87-8.76-2.51-.16-3.13-3.19-3.16-5.58,0-3.1-1.44-4.49-4.54-4.53-3.89-.05-6.35-2-6.4-6-.05-3.61-1.7-5.07-5.17-5A5.39,5.39,0,0,1,.07,281Z" transform="translate(0 0)"/><path class="cls-2" d="M43.05.06H98a4.16,4.16,0,0,1,.64.76c1.53,2.85,7.26,8.64,9.78,9.84,2.3,4.84,5.74,8.29,11.14,11.14a3.73,3.73,0,0,1,1.08,2.2c0,4.69,1.63,7.38,6.88,7.47,2.8.05,4.1,2.55,4.4,5.27a21.21,21.21,0,0,1-.2,5.95c0,1.65.41,3.29.33,5-.14,2.85,1.11,4.33,4.07,4.38,2.17,0,4.33.33,5.81,2.27a41.88,41.88,0,0,1-.07,21.58c-.2.25-.39.65-.66.71-5.58,1.07-9.94,3.09-10.47,9.87-.17,2.11-3.24,2.5-5.47,2.58-3.49.12-7,.09-10.47.07-3,0-4.73,1.08-4.77,4.31-.06,3.9-2,6.27-6,6.6-2.59.21-3.85,1.48-4,4.08-.32,4-2.73,5.89-6.62,6-3.24,0-4.31,1.79-4.3,4.78,0,3.65.09,7.31-.09,11-.16,3.43-1.8,5.89-5.34,6.06-3.89.18-5.84,1.68-5.71,5.71a5.44,5.44,0,0,1-1.7,4c-1.67,1.31-3.65,1.46-5.66,1.47-10.45.05-20.9.1-31.35,0-6-.07-7.06-1-8.27-6.92-.51-2.5-1.68-3.88-4.21-4-4.42-.23-6.58-2.61-6.83-7a3.88,3.88,0,0,0-3.09-3.94C9.07,119,8.67,118.34,9.08,110.3a14.05,14.05,0,0,1,.19-1.47c.17-1.32-.31-2.63-.23-4,.2-3.26-1.08-5-4.56-4.9A5.74,5.74,0,0,1,.07,98v-55c1-1,2-1.91,3.41-1.87,4.9.17,5.81-2.73,5.53-6.76-.12-1.65,0-3.32,0-5,.08-7.45.3-7.82,7.72-9.5,2.19-.49,2.91-1.69,3.28-3.72C21.18,9.86,22.09,9.15,28.44,9c1,0,2,0,3,0C39,9,39,9,41.58,2.05A6.94,6.94,0,0,1,43.05.06Z" transform="translate(0 0)"/><path class="cls-3" d="M281,313.93H216a6.75,6.75,0,0,1-1.61-2.45c-2-6.31-2-6.31-9.09-6.77a26.35,26.35,0,0,1-6,.24c-3.68-.15-6-2-6.26-5.69-.21-3.35-1.43-5.18-5-5.36C183.8,293.69,182,291,182,287c0-5.12-.35-10.25.24-15.36,0-.82-.17-1.64-.13-2.44.23-4.44-.54-7.86-6.24-7.42a4.41,4.41,0,0,1-3.78-2,41.74,41.74,0,0,1,.06-21.6c1.65-2,4-2.15,6.33-2.2,3.15-.06,6.31-.09,9.46,0s5-1.08,5.09-4.54c.1-4.25,2.59-6.27,6.69-6.41,2.85-.11,4.21-1.5,4.27-4.34.07-3.89,2-6.27,6-6.61,2.56-.22,3.88-1.44,4.08-4.05.28-3.7,2.34-5.83,6.07-5.92,3.24-.09,4.85-1.4,4.95-4.77.11-3.93,2.3-6.19,6.27-6.25s4.48-2.26,4.68-5.51c.31-5-1.47-10.32,1.71-15,1.65-1.35,3.62-1.51,5.64-1.53,7.31,0,14.62-.12,21.92,0,5.4.12,6.95,1.27,7.7,6.4.49,3.36,2.12,4.56,5.27,4.53,3,0,6,0,9,.07,3.86.13,6.45,1.86,6.72,5.86.23,3.47,1.77,5,5.24,5.22,4.06.23,5.71,2.88,5.84,6.71.09,2.65.14,5.31.06,8-.12,3.58.63,6.3,5,6.29a5.49,5.49,0,0,1,3.9,2v55c-.72.65-1.45,1.61-2.4,1.54-6.75-.46-6.86,4.14-6.87,8.85a27.28,27.28,0,0,1,.29,5.92c-.12,3.86-1.91,6.44-5.88,6.58s-5.11,2-5.24,5.57a5.23,5.23,0,0,1-5.4,5.38c-4,.11-5.65,1.9-5.62,5.75A5,5,0,0,1,281,313.93Z" transform="translate(0 0)"/><path class="cls-4" d="M216,.06h55c1,1,1.91,2.05,1.87,3.42-.17,4.9,2.73,5.81,6.76,5.52,1.65-.11,3.32,0,5,0,7.45.08,7.81.29,9.5,7.72.49,2.19,1.69,2.91,3.72,3.28,6.36,1.17,7.07,2.09,7.21,8.44,0,1,0,2,0,3,0,7.53,0,7.53,6.93,10.14a6.71,6.71,0,0,1,2,1.48V98a6.75,6.75,0,0,1-2.43,1.61c-6.29,2-6.29,2-6.8,9a27.84,27.84,0,0,1,.27,5.47c0,4.12-1.93,6.57-6.18,6.91-2.26.18-4.07.63-4.72,3.4-1.69,7.21-2.72,7.88-10.08,7.63a22.74,22.74,0,0,1-2.47-.27c-1.15-.09-2.28.31-3.43.24-3.41-.2-5.26,1.09-5.19,4.78a5.87,5.87,0,0,1-2.29,5.21c-2.6,1.54-5.47,1.05-8.24,1.08q-9.42.1-18.83,0c-2,0-4-.12-5.66-1.4-2.94-3.26-1.88-7.14-1.71-10.88,0-.66.09.17,0-.48-.34-2.59.39-5.43-.89-7.75-1.42-2.57-4.57-1-6.76-2a7.09,7.09,0,0,1-2.1-1.25,3.72,3.72,0,0,1-1.09-2.21c0-4.66-1.54-7.46-6.88-7.48-2.81,0-4.23-2.49-4.42-5.24s-1.51-4.15-4.33-4.41c-3.74-.34-5.65-2.66-5.7-6.33-.05-3.51-1.89-4.6-5.09-4.54-3.5.06-7,.07-10.49-.07-3.65-.15-6.21-1.85-6.32-5.66s-1.7-5.45-5.46-5.39a5.54,5.54,0,0,1-4.44-2c-2.18-7.15-1.83-14.33-.27-21.52a4.17,4.17,0,0,1,3.64-2.15c5.76.38,6.83-3,6.54-7.66,0-.64.16-1.3.14-2-.3-3.19-.87-6.39.8-9.4a4.9,4.9,0,0,1,4.32-2.08c4.33.2,6-1.82,5.77-6a5.49,5.49,0,0,1,.82-2.85A3.87,3.87,0,0,1,195,21.23c7.24.17,9.47-4.66,10.58-10.62C212.31,10.3,214.11,5.15,216,.06Z" transform="translate(0 0)"/><path class="cls-5" d="M184,33.17,183.83,43c-6,1.34-9.64,5-10.74,11.15Q173,65,173,75.87c-1.22,2-3.21,2.18-5.25,2.21q-10.74.18-21.48,0c-2,0-4-.22-5.25-2.21L141,54.16c-1.18-6-4.67-9.85-10.77-11.13-.06-.82-.15-1.64-.16-2.46-.09-7.3-.09-7.44-7.43-7.45-2.72,0-3.9-.62-3.63-3.53a70.46,70.46,0,0,0,0-7.41q-1.71-9.33-11-11C98,10.9,98,10.9,98,.06H216v.5c0,10.23,0,10.23-9.92,10.63-6.22,1.07-9.85,4.75-11,11l-.13-.09C188.82,23.3,185.21,27,184,33.17Z" transform="translate(0 0)"/><path class="cls-5" d="M281.06,130.07c1,0,2,0,3-.06,7.68,0,7.84,0,7.82-7.54,0-2.87.88-3.82,3.63-3.49,1.47.18,3-.1,4.47.07,2.42.27,3.16-.71,3-3.07-.16-2.63.06-5.28.11-7.93,3.6-3.06,7.21-2.86,10.83,0V216c-11,0-11,0-11-11v-2c0-7.69,0-8-7.61-7.83-3.73.05-3.41-1.87-3.41-4.29,0-6.82-.05-6.82-6.72-6.82-3.49,0-7-.22-10.47.06-3.14.26-3.91-.8-3.86-3.86.12-7.19-.06-7.2-7.28-7.2H238.13c-2-1.22-2.18-3.22-2.21-5.25q-.18-10.74,0-21.48c0-2,.22-4,2.21-5.25l32.81-.17C277.4,140.15,279,134.9,281.06,130.07Z" transform="translate(0 0)"/><path class="cls-5" d="M173,238.13l.17,21.81c.93,6.29,4.91,9.62,10.77,11.13,0,5.78.19,11.57,0,17.35-.09,2.82.78,3.88,3.59,3.55,1.63-.19,3.31.06,4.95-.06,1.95-.14,2.42.67,2.59,2.55.26,2.8-1.72,6.56,1.09,8.17,2.13,1.22,5.48.28,8.29.32.5,0,1,.09,1.48.14,3.09,3.6,2.9,7.21.06,10.84H108c-2.88-3.66-3-7.29.12-10.89.66,0,1.33-.09,2-.1,8.33-.08,8.53-.07,8.79-8.16.1-3.22,1.82-2.82,3.83-2.85,7.26-.12,7.26-.14,7.26-7.29,0-3.32.24-6.67-.06-10s1-3.84,3.92-3.8c7.13.09,7.14-.06,7.14-7.35q0-12.7,0-25.43c1.24-2,3.23-2.15,5.26-2.18q10.74-.18,21.47,0C169.78,236,171.77,236.14,173,238.13Z" transform="translate(0 0)"/><path class="cls-5" d="M10.9,108.07c0,.49.13,1,.15,1.48.11,3-.79,6.59.61,8.7s5.24.65,8,.71c2.09.05,2.57,1,2.41,2.75a18.82,18.82,0,0,1,0,2c-.92,5.12,1.08,7.3,6.28,6.31,4-.77,5.39,1.07,4.74,4.85-.83,4.78.68,6.49,5.95,6.29,12.27-.47,24.57-.15,36.86-.14,2,1.21,2.18,3.21,2.21,5.24q.18,10.74,0,21.47c0,2-.21,4-2.18,5.26L43.17,173c-1.87,1.16-8.3,8-10.13,10.78-.83.06-1.65.15-2.47.16-8.07.1-8.18.09-8.45,8-.08,2.36-.7,3.29-3.09,3-1.64-.16-3.32.11-5-.06-2.41-.24-3.18.72-3.05,3.08.14,2.63-.07,5.29-.12,7.93-3.61,3-7.22,2.85-10.83,0V108C3.69,105.18,7.31,105,10.9,108.07Z" transform="translate(0 0)"/><path class="cls-5" d="M43.05.06c0,11,0,11-11.09,11h-2.5c-7.25,0-7.43,0-7.32,7.19.05,3.1-.81,3.93-3.89,3.89-7.19-.11-7.19.07-7.19,7.32V32c0,11.09,0,11.09-11,11.09,0-13.5.06-27-.07-40.49C0,.42.42,0,2.57,0,16.06.13,29.55.06,43.05.06Z" transform="translate(0 0)"/><path class="cls-5" d="M313.93,43.05c-11,0-11,0-11-11v-1.5c0-8.1,0-8.21-8-8.45-2.38-.07-3.3-.68-3-3.08.17-1.65-.11-3.34.07-5,.25-2.43-.71-3.13-3.08-3.05-4.64.17-9.31-.16-13.94.12-3.28.21-4.43-.83-4.06-4.1a62.27,62.27,0,0,0,.05-7c13.5,0,27,.07,40.48-.06,2.15,0,2.59.42,2.57,2.56C313.87,16.06,313.93,29.55,313.93,43.05Z" transform="translate(0 0)"/><path class="cls-5" d="M.07,281H2.55c8.08,0,8.18,0,8.45,7.95.08,2.34.66,3.32,3.07,3.07,1.64-.16,3.32.1,5-.06,2.38-.23,3.29.68,3.06,3.06-.16,1.64.1,3.32-.06,5-.25,2.41.73,3,3.07,3.07,8,.27,7.95.37,7.95,8.45v2.48c-10.16,0-20.32-.08-30.48.07C.42,314,0,313.58,0,311.43.15,301.27.07,291.11.07,281Z" transform="translate(0 0)"/><path class="cls-5" d="M281,313.93c0-.82,0-1.65,0-2.48,0-8.09,0-8.2,8-8.45,2.34-.07,3.3-.65,3.07-3.07-.18-1.8.06-3.64-.06-5.46s.64-2.43,2.53-2.61c2.81-.26,6.58,1.74,8.18-1.09,1.22-2.14.28-5.5.32-8.31,0-.5.1-1,.15-1.48,3.6-3.06,7.21-2.87,10.83,0,0,10.16-.08,20.32.07,30.48,0,2.15-.42,2.6-2.57,2.57C301.27,313.85,291.11,313.93,281,313.93Z" transform="translate(0 0)"/><path class="cls-5" d="M10.9,108.07.07,108V98H1.55C11.41,98,11.41,98,10.9,108.07Z" transform="translate(0 0)"/><path class="cls-5" d="M313.93,108l-10.83,0c-.52-10-.52-10,10.83-10Z" transform="translate(0 0)"/><path class="cls-6" d="M.07,206l10.83,0c.52,10,.52,10-10.83,10Z" transform="translate(0 0)"/><path class="cls-3" d="M313.93,281l-10.83,0c-.52-10-.52-10,10.83-10Z" transform="translate(0 0)"/><path class="cls-5" d="M108.14,303,108,313.93H98v-1C98,302.71,98,302.71,108.14,303Z" transform="translate(0 0)"/><path class="cls-5" d="M206,313.93l-.06-10.84C216,302.6,216,302.6,216,313.93Z" transform="translate(0 0)"/><path class="cls-7" d="M75.9,173l0-32c0-.5.13-1,.15-1.49.1-3-.84-6.61.55-8.73s5.25-.72,8-.71c2.57,0,2.49-1.41,2.47-3.18,0-5,.14-10-.07-15-.12-2.87.42-4.54,3.72-3.92.48.09,1-.07,1.49,0,4.7.88,6.83-.8,5.85-5.73-.69-3.49.77-4.87,4.28-4.29,4.14.69,6.74-.39,5.71-5.33s1.31-6.37,5.91-5.7a42.45,42.45,0,0,0,6.48,0c3,0,6.6.88,8.76-.48s.68-5.22.78-8c.07-1.91.62-2.64,2.58-2.57,2.82.09,5.65-.08,8.48-.13h32c.83,0,1.66.14,2.48.16,7.92.1,8.05.08,8.44,8.1.13,2.58,1.16,3,3.33,2.93,5-.11,10,.16,14.94-.1,3.14-.17,4.25.9,3.82,3.93-.14,1,.09,2,0,3-.43,3.13.63,4.8,4,4.14,5.14-1,6.8,1.23,6.06,6.14-.29,1.88-.56,3.8,2.71,4,8.18.41,8.17.6,8.24,8.79,0,.66.05,1.33.07,2,1.12,6.11,4.72,9.82,10.76,11.18.11,3.65.22,7.29.32,10.94v32c-.06,6-.32,11.95-.11,17.91.11,3.36-1.1,4.18-4.27,4.13-6.7-.1-6.95.08-6.69,6.37.16,3.79-1.06,5.16-4.74,4.6-4.52-.7-7.48.31-6.37,5.87.65,3.22-.84,4.67-4.09,4.1-4.78-.84-6.77,1-5.88,5.85.74,4.09-.89,5.9-5.08,5.15-4.67-.84-6.86.84-6,5.79.74,4-.78,5.54-5,5.28-5.61-.34-11.27,0-16.91.09l-32,0-10.94-.27c-.38-.55-.23.26-.32-.34-.91-6.33-5.21-9.07-10.85-10.44-.67,0-1.33-.06-2-.07-8-.09-8.17-.07-8.83-8-.24-3-1.9-3.24-4-2.94-4.68.65-6.91-.93-6.08-5.9.64-3.86-1.71-4.59-4.76-4.11-5,.79-7-1.16-6.27-6.24a43.62,43.62,0,0,0,0-6.47c0-8.32,0-8.4-8.1-9.27C76.79,183.81,76,183,76,181,76.06,178.29,76,175.64,75.9,173Z" transform="translate(0 0)"/><path class="cls-7" d="M118.91,227.05c10.93-.28,10.93-.28,11.17,10.78C119.29,238.28,119.29,238.28,118.91,227.05Z" transform="translate(0 0)"/><path class="cls-5" d="M33,183.82c0-.33,0-.66,0-1C33.3,172,31.11,173,43.17,173c0,.5-.1,1-.11,1.49C42.91,184.34,42.91,184.34,33,183.82Z" transform="translate(0 0)"/><path class="cls-2" d="M107.89,11.13c13,0,11-2,11,11-3.51-.59-8.2,1.51-10.27-1.06C106.94,19,108.05,14.55,107.89,11.13Z" transform="translate(0 0)"/><path class="cls-5" d="M130.18,43c11,.06,11,.06,10.77,11.13-.33,0-.65-.09-1-.1C129.61,53.84,129.61,53.84,130.18,43Z" transform="translate(0 0)"/><path class="cls-8" d="M183.93,271.07a8.3,8.3,0,0,0-1-.1c-10.35-.2-10.35-.2-9.78-11C184.13,260,184.13,260,183.93,271.07Z" transform="translate(0 0)"/><path class="cls-4" d="M195.09,22.14c-.39-11.41-.39-11.41,11-11C205.8,21.86,205.8,21.86,195.09,22.14Z" transform="translate(0 0)"/><path class="cls-5" d="M184,33.17c-.18-11.1-.18-11.1,10.92-11.12C195,32.76,195,32.76,184,33.17Z" transform="translate(0 0)"/><path class="cls-5" d="M173.09,54.15c-.32-11-.32-11,10.74-11.15C184.37,53.76,184.37,53.76,173.09,54.15Z" transform="translate(0 0)"/><path class="cls-4" d="M237.81,130.07c-11-.21-11-.21-10.76-11.18l.49,0C238.34,119.28,238.34,119.28,237.81,130.07Z" transform="translate(0 0)"/><path class="cls-9" d="M281.06,130.07c0,.49-.1,1-.1,1.48-.14,9.81-.13,9.81-10,9.29,0-.33,0-.66,0-1C271.2,129,269,130,281.06,130.07Z" transform="translate(0 0)"/></svg>