<svg id="Calque_1" data-name="Calque 1" xmlns="http://www.w3.org/2000/svg" viewBox="0 0 259.02 196.11"><defs><style>.cls-1{fill:#553cba;}.cls-2{fill:#321a81;}.cls-3{fill:#7c1986;}.cls-4{fill:#7a1583;}.cls-5{fill:#892f91;}.cls-6{fill:#a35eaa;}.cls-7{fill:#dec4e0;}.cls-8{fill:#dabfdc;}.cls-9{fill:#d1aed4;}.cls-10{fill:#d5b6d7;}.cls-11{fill:#553eaf;}.cls-12{fill:#ae71b4;}.cls-13{fill:#d0add3;}.cls-14{fill:#c295c7;}.cls-15{fill:#923f99;}.cls-16{fill:#994ca1;}.cls-17{fill:#bc89c0;}.cls-18{fill:#e1cae3;}.cls-19{fill:#ecdfee;}.cls-20{fill:#3c1492;}.cls-21{fill:#3b239f;}.cls-22{fill:#190c37;}.cls-23{fill:none;}.cls-24{fill:#442286;}.cls-25{fill:#37207a;}.cls-26{fill:#1c113a;}.cls-27{fill:#090036;}.cls-28{fill:#221855;}.cls-29{fill:#281f56;}.cls-30{fill:#361f7b;}.cls-31{fill:#04020d;}.cls-32{fill:#4f36b1;}.cls-33{fill:#822bf1;}.cls-34{fill:#03010b;}.cls-35{fill:#421788;}.cls-36{fill:#01010c;}.cls-37{fill:#752de4;}.cls-38{fill:#020210;}.cls-39{fill:#742de8;}.cls-40{fill:#312269;}.cls-41{fill:#19063b;}.cls-42{fill:#7d2bfa;}.cls-43{fill:#48228f;}.cls-44{fill:#0c0112;}.cls-45{fill:#6020c2;}.cls-46{fill:#3d1175;}.cls-47{fill:#4d3b9e;}.cls-48{fill:#7420d0;}.cls-49{fill:#150b35;}.cls-50{fill:#1a1238;}.cls-51{fill:#171229;}.cls-52{fill:#7230e2;}.cls-53{fill:#3a21a4;}.cls-54{fill:#6529c7;}.cls-55{fill:#642fd5;}.cls-56{fill:#341d72;}.cls-57{fill:#2e145b;}.cls-58{fill:#5524a3;}.cls-59{fill:#443488;}.cls-60{fill:#2c1a6d;}.cls-61{fill:#432aaa;}.cls-62{fill:#2d1a71;}.cls-63{fill:#6a20d2;}.cls-64{fill:#0a0108;}.cls-65{fill:#3c1494;}.cls-66{fill:#010106;}.cls-67{fill:#511aa9;}.cls-68{fill:#03030a;}.cls-69{fill:#7922e3;}.cls-70{fill:#020204;}.cls-71{fill:#100040;}.cls-72{fill:#5211ae;}.cls-73{fill:#120430;}.cls-74{fill:#09022a;}.cls-75{fill:#8323fe;}.cls-76{fill:#5310ae;}.cls-77{fill:#5629b7;}.cls-78{fill:#14052d;}.cls-79{fill:#70027a;}.cls-80{fill:#82248b;}.cls-81{fill:#8a3292;}.cls-82{fill:#2f1541;}.cls-83{fill:#93419b;}.cls-84{fill:#a25ba9;}.cls-85{fill:#b379b8;}.cls-86{fill:#9b4fa2;}.cls-87{fill:#c9a0cc;}.cls-88{fill:#c89fcc;}.cls-89{fill:#c090c4;}.cls-90{fill:#b781bc;}.cls-91{fill:#372375;}.cls-92{fill:#342472;}.cls-93{fill:#312765;}.cls-94{fill:#241f3c;}.cls-95{fill:#020901;}.cls-96{fill:#040424;}.cls-97{fill:#090215;}.cls-98{fill:#5f29aa;}.cls-99{fill:#2a2664;}.cls-100{fill:#342275;}.cls-101{fill:#2d1c3d;}.cls-102{fill:#ab6ab0;}</style></defs><path class="cls-1" d="M132.81,188.06l-15.91-.27c-.92-3.71-3.44-5.78-7-6.75L94,180.8c-1-4.34-3.66-7-8.14-7.73l-15.77-.2c-1.18-4.21-3.57-7.14-8.17-7.74-3.49,0-7-.32-10.46-.09-3.24.21-5.17-.43-4.5-4.19.53-3-.63-4.07-3.78-3.92-5.3.26-10.63-.09-15.94.1-3,.1-4.86-.41-4.23-4,.56-3.19-.7-4.25-4-4.2-3.89,0-9.1,1.94-11.36-.86-1.88-2.35-.57-7.31-.57-11.11,0-9,.08-17.94.12-26.91,2.51-1.9,5.07-1.76,7.64-.16,1.49,6.57,6.14,7.48,11.87,6.75,2.28-.28,4.63,0,6.94-.1,1.64-.1,3.58-.09,3.48-2.5s-2-2.37-3.65-2.44c-4.14-.18-8.28,0-12.41-.09-2,0-4,.23-5.72-1.12-.24-.23-.63-.45-.65-.72-.38-4.64-3.53-6.5-7.5-7.57V94c1-1,2.33-1.15,3.63-1.33s2.56-.75,2.66-2.4c.12-1.88-1-2.65-2.66-2.88C9.5,87.2,8.16,87.1,7.18,86L6.9,78.13a9.53,9.53,0,0,0-6.75-7.2c0-.33-.1-.65-.11-1-.16-7-.16-7,6.88-7,2.43-1.87,5.27-1.4,8-1.39s5.58-.48,8.08,1.21a7,7,0,0,1,.56,7.48c-1.08,1.74-2.9,1.89-4.67,2.17-1.21.2-2.21.72-2.23,2.14A1.65,1.65,0,0,0,18,76.38c1.4.32,2.65.1,3.27-1.36.68-1.62.71-3.57,2.49-4.61,4.92-1.69,10-.67,15-.83,2.74-.08,5.48-.11,8.23,0s5.53-.45,8.06,1.06c1.28,5.42,5,6.29,10,6,4.19-.23,8.57-.93,12.67.92.36.33.87.67.9,1.14.33,5.18,3.38,6.59,8,5.87,7.58.18,15.21-1,22.73.77A3,3,0,0,1,111,87.72c.15,4.57,3,5.24,6.72,4.85,7.75.31,15.56-1.28,23.21,1,2.08,2.43,1.49,5.35,1.5,8.16,0,2.64.35,5.32-.76,7.85-.8,1.27-2.13,1.46-3.45,1.68-1.63.27-3.54.29-3.6,2.59-.08,2.64,2.07,2.58,3.84,2.89a4.52,4.52,0,0,1,3.09,1.44,9.07,9.07,0,0,1,.19,7.24c-1.1,1.89-3.1,1.63-4.84,2-1.23.26-2.28.8-2.19,2.23s1.29,1.76,2.49,1.91,2.66.09,4,.39c2.76,1.21,6,1.11,8.39,3.31a5.53,5.53,0,0,1-.49,6.05c-4.91,2.2-10.08.85-15.12,1.12a36,36,0,0,0-4.87,0c-1.44.14-2.48.8-2.51,2.43a2.37,2.37,0,0,0,2.38,2.56,34.66,34.66,0,0,0,4.89.08c5,.21,10.17-1,15.09,1,2,2.34,1.44,5.17,1.46,7.88s.25,5.24-.55,7.79a3,3,0,0,1-1,1.27c-3,1.36-6.17.71-9.28.82-2.82.1-5.61.17-8,2.53,1,1.74,2.79,2.11,4.45,2.54,6.62,1.7,7.32,2.92,5.37,9.64-3.3,1.4-7.71,1.47-7.93,6.58Z"/><path class="cls-2" d="M141,102c0-2.61,0-5.22-.07-7.83,1.77-2,4.19-1.49,6.43-1.61a30.54,30.54,0,0,1,5.41,0c5.55.7,10-.32,11.17-6.75,4.92-2.41,10.15-1,15.24-1.23,5.77,1.41,7.59-2.28,8.78-6.8a8.22,8.22,0,0,1,6.15-1.13c5.06.74,8.48-.9,10-6,4.61-2.08,9.45-.91,14.19-1.08,6.14,1.67,7.3-3,9-7.06,5.05-1.89,10.27-.77,15.42-.94,2.76.1,5.66-.64,8.07,1.44v8c-1.45,2.26-6.24-.13-6,3.72.19,3.18,4.48,1.14,6,3.23v8.07c-.24.22-.48.54-.77.56-5,.42-6.4,3.39-5.65,7.91,0,2.62.43,5.3-1.13,7.68-2.37,1.67-5.07,1.23-7.7,1.22-5.76-1.43-7.36,2.26-8.29,6.77-2.16,1.59-4.72,1.39-7.09,1.14-4.63-.49-7.13,1.23-7.35,6a3,3,0,0,1-1,1.23c-2.48,1.21-5.14.79-7.74.83-6,.1-6,.07-7.28,6a3,3,0,0,1-1,1.19c-2.68,1.21-5.56,1-8.31.73-4-.32-6.29,1.13-6.75,5.21a2.78,2.78,0,0,1-1.15,1.18c-2.46,1-5,.67-7.6.71s-5.08.06-7.61,0c-2.24,0-4.5.18-6.67-.57a2.83,2.83,0,0,1-1.23-1c.28-5.73-5.2-5-8.07-7.14a9,9,0,0,1,0-7.3c1.06-1.54,2.77-1.5,4.35-1.75s2.8-.94,2.71-2.8c-.08-1.61-1.2-2.16-2.6-2.38s-2.94-.22-4.12-1.28C148.23,105.4,145.26,103.06,141,102Z"/><path class="cls-2" d="M149,157l0-8c.19-.27.41-.63.69-.64,4.51-.21,6.43-2.82,6.62-7.08a2.66,2.66,0,0,1,1.17-1.08c2.17-.84,4.43-.62,6.67-.66,2.5-.08,5-.07,7.48,0,5.78,1.6,6.87-2.72,8.31-6.59l0,0c1.93-1.75,4.38-1.67,6.63-1.41,4.71.54,8.09-.73,9.42-5.64l-.07.06a6.58,6.58,0,0,1,5.61-1.42c5.4.71,9.31-.66,10.42-6.61l0,0c4.5-2.78,9.46-1.12,14.21-1.45,6.11,0,6.11,0,8.53-6.72,2.33-1.59,4.84-1.33,7.38-.73a3.13,3.13,0,0,1,1.3.92c.2,4.75,3.13,7,7.41,8v15c-4.46.86-6.87,3.72-7.83,8l.11.1c-4.5.7-7.09,3.41-8.17,7.73a22.8,22.8,0,0,1-3.95.12c-3.31-.48-4.54.87-4,4.06s-.86,4.4-4,4c-1.79-.22-3.65.11-5.45-.07-3.81-.4-6.57.1-5.52,5,.5,2.38-.66,3.23-3,3-2-.17-4,.1-5.95-.07-4.44-.38-8.31-.32-7,6,.38,1.9-1,2-2.47,2-1.82,0-3.63.09-5.45.14-4.62.59-7,3.57-8.16,7.76L172,181c-3.64,1.13-7.21,2.32-8.09,6.75-1.66.05-3.31.19-5,.15-1.47,0-2.28.54-2,2,1.33,7.44-3.61,6.24-8,5.85-2.67-4.6-1.68-9.41-.83-14.21.92-1.7,2.66-1.73,4.26-2s2.94-.77,2.9-2.7-1.51-2.32-3.05-2.56-3-.31-4-1.69c-1.06-2.65-1.19-5.23.45-7.71l.31,0c1-1.07,2.33-1.17,3.65-1.35,1.69-.24,2.82-1,2.7-2.9-.11-1.65-1.27-2.19-2.71-2.38A5.94,5.94,0,0,1,149,157Z"/><path class="cls-3" d="M23,54.91l.24-7.83c1.54-1.6,3.57-1.59,5.54-1.6,10.74,0,21.48-.19,32.21.08,15.88-.18,31.76-.24,47.63,0,2.56,0,5.19-.43,7.51,1.15,1.17,4.51.19,6.53-4.26,7.58a70.79,70.79,0,0,1-16.73,2.3c-16.27-.1-32.55.14-48.81-.14-5.28-.09-9.09,1.08-10.76,6.45a3.66,3.66,0,0,1-4.07.74c-.59-.33-1.22-.81-1.21-1.45.05-4.63-3-6-6.8-6.7Z"/><path class="cls-4" d="M235,39.09,235,47l-.69.69c-2,1.11-4.17,1-6.32,1q-29.61,0-59.21,0c-2.15,0-4.33.11-6.33-.94-2.14-3.13-1.19-6.1.48-9,5-2.14,10.16-.85,15.27-1.08,17.09-.31,34.19-.1,51.28-.1C231.44,37.47,233.5,37.44,235,39.09Z"/><path class="cls-5" d="M235,39.09,177.9,39a6.84,6.84,0,0,1-.08-8.32c4.06-2.16,8.45-1,12.7-1.2,3.8-.16,7.62-.16,11.43.06,11.74-.27,23.48-.09,35.22-.08,2,0,4,0,5.56,1.59C243.15,39.09,243.15,39.09,235,39.09Z"/><path class="cls-6" d="M22.92,39.07h-.49c-7.68,0-7.68,0-7.27-8,1.54-1.58,3.56-1.62,5.54-1.62,11.05,0,22.1-.19,33.15.08,6-.22,12-.09,17.94-.06a8.77,8.77,0,0,1,5.26,1.2,7.59,7.59,0,0,1,.21,8.52c-5.3,2.59-10.92,1-16.4,1.3-10.77.28-21.54.09-32.32.1C26.54,40.63,24.55,40.47,22.92,39.07Z"/><path class="cls-7" d="M148,.12l56.95,0a6.67,6.67,0,0,1,0,8.3,8.83,8.83,0,0,1-5.22,1.17c-11.51,0-23,.19-34.55-.09-5.75-.29-11.63,1.21-17.26-1.12A6.65,6.65,0,0,1,148,.12Z"/><path class="cls-8" d="M55,8.14l55,0c1.93,2.66,1.79,5.37.21,8.12-2.28,1.64-4.9,1.21-7.44,1.23-15.5-.06-31,.69-46.51-.4a4.28,4.28,0,0,1-1.61-1C53.29,13.4,53.08,10.72,55,8.14Z"/><path class="cls-9" d="M109.94,16c0-2.62,0-5.25,0-7.87L124.89,8a37,37,0,0,1,23,0l17.05.07a6.9,6.9,0,0,1,.13,8.27c-5.29,2.34-10.85.91-16.3,1.17-11.09.28-22.18.1-33.27.09C113.53,17.62,111.48,17.67,109.94,16Z"/><path class="cls-10" d="M204.87,8q0-3.93,0-7.87c16.41,0,32.83,0,49.24-.16,3.08,0,4.83.3,4.86,4.17,0,4.16-2.23,4.09-5.06,3.93-1,0-2,0-3,0-1.62,1.37-3.59,1.56-5.58,1.56-11.36,0-22.72.21-34.07-.11C209.08,9.46,206.7,9.92,204.87,8Z"/><path class="cls-11" d="M149,180.86,149,195.79c-2.65.06-5.29.15-7.94.16-7.91,0-7.91,0-8.22-7.89l.31-.29c3.79-.87,6.94-2.46,7.79-6.73,0-1.65,0-3.31,0-5,.07-2-.6-3.22-2.81-3.1-.33,0-.67,0-1,0-3.53.18-6-1.92-8.61-3.85,2.38-2.56,5.17-4.2,8.8-4.17,3.81,0,7.61,0,11.42,0q.13,4.06.29,8.13A6.41,6.41,0,0,1,149,180.86Z"/><path class="cls-12" d="M250.75,16.11c.36,8,.36,8-7.76,8a7.07,7.07,0,0,1-4.6,1.52q-15.07.18-30.14,0A7.67,7.67,0,0,1,204,24.51c-2.11-2.72-1.95-5.57-.48-8.5,2.27-1.88,5-1.39,7.61-1.41,11.36-.29,22.72-.1,34.08-.1C247.19,14.5,249.2,14.56,250.75,16.11Z"/><path class="cls-13" d="M15.16,24.12c-.37-8-.37-8,7.79-8.11a5.84,5.84,0,0,1,3.63-1.41q12.39-.37,24.78,0A5.52,5.52,0,0,1,55,16v.07c1.91,2.65,1.77,5.36.27,8.13a4.52,4.52,0,0,1-1.69.93c-11.58,1-23.19.37-34.79.35A4.87,4.87,0,0,1,15.16,24.12Z"/><path class="cls-14" d="M250.75,16.11,210.88,16a6.23,6.23,0,0,1,0-7.93l40.07,0C250.9,10.76,250.83,13.43,250.75,16.11Z"/><path class="cls-15" d="M22.92,39.07H61A6.26,6.26,0,0,1,61,47l-37.78.06Z"/><path class="cls-16" d="M203.88,24l39.11,0c-.09,2.33-.17,4.67-.26,7l-40.85,0a5.89,5.89,0,0,1-.41-6.8A1.68,1.68,0,0,1,203.88,24Z"/><path class="cls-17" d="M15.16,24.12l38.84,0A5.23,5.23,0,0,1,54,31l-38.81.09Z"/><path class="cls-18" d="M55,16H23c.18-7.93.18-7.95,8.36-7.94,7.9,0,15.8,0,23.7.06Z"/><path class="cls-19" d="M147.89,8l-23,0c.33-8.57-1.56-7.87,7.84-7.9,5.08,0,10.16,0,15.24,0C147.94,2.76,147.92,5.39,147.89,8Z"/><path class="cls-20" d="M242.87,102V94c2.62-1.77,5.23-1.91,7.83,0q0,8,0,16c-2.59,1.91-5.19,1.78-7.8,0l-.06-.16A6.24,6.24,0,0,1,242.87,102Z"/><path class="cls-21" d="M7.18,86a37.34,37.34,0,0,0,4-.05c3.1-.34,4,1.08,3.95,4s-.85,4.37-3.95,4c-1.3-.14-2.64,0-4,0Z"/><path class="cls-22" d="M250.71,94l-7.83,0c.15-8.94-1.37-7.89,7.82-7.92Z"/><path class="cls-23" d="M179.79,180.89a3.87,3.87,0,0,0,.05-.49c.24-7.67.24-7.67,8.11-7.27C187.84,181.08,187.84,181.08,179.79,180.89Z"/><path class="cls-24" d="M15,110H7.18V102a12,12,0,0,0,2,0c4.95-.87,6.62,1.37,5.85,6a12,12,0,0,0,0,2Z"/><path class="cls-1" d="M85.86,173.07c8-.25,8-.25,8.14,7.73C86.14,181.21,86.14,181.21,85.86,173.07Z"/><path class="cls-25" d="M235,47l7.91.24c1.8,2.33,1.45,4.85.66,7.41a2.8,2.8,0,0,1-1.28,1.2c-2.69.76-5.34,1.08-7.79-.73-1.31-2.67-1.58-5.29.34-7.83Z"/><path class="cls-1" d="M61.92,165.13c7.87-.38,7.87-.38,8.17,7.74C62.08,173.12,62.08,173.12,61.92,165.13Z"/><path class="cls-26" d="M242.82,55c0-2.6.05-5.21.08-7.81,8.23-.41,8.23-.41,7.8,7.83C248.07,56.93,245.44,57,242.82,55Z"/><path class="cls-27" d="M242.9,110.08l7.8,0q0,4,0,8C241.92,117.91,242.9,119.2,242.9,110.08Z"/><path class="cls-28" d="M242.82,55l7.88,0q0,4,0,8L242.8,63a6.38,6.38,0,0,1,.08-8Z"/><path class="cls-2" d="M234.82,148.83c.15-8,.15-8,8.17-7.73a3.87,3.87,0,0,0-.05.49C242.72,149.22,242.72,149.22,234.82,148.83Z"/><path class="cls-29" d="M15,63l-8,0c0-.16,0-.33,0-.5.11-7.7.11-7.7,8.05-7.28C16.94,57.79,16.85,60.38,15,63Z"/><path class="cls-30" d="M15,63l0-7.75,8-.3.17.41c1.68,2.29,1.39,4.69.41,7.12l-.62.56Z"/><path class="cls-2" d="M242.88,141c.12-9-1.22-7.93,7.83-8C251.11,141,251.11,141,242.88,141Z"/><path class="cls-2" d="M250.7,78c-1.48,0-3-.08-4.45,0-2.64.22-3.42-1-3.42-3.51s.78-3.73,3.42-3.51c1.48.12,3,0,4.46,0Q250.7,74.52,250.7,78Z"/><path class="cls-2" d="M163.93,187.79c.19-7.09-1.63-7,8.09-6.75a8.2,8.2,0,0,0-.08,2c.78,4.2-1,5.68-5.06,5A24.22,24.22,0,0,0,163.93,187.79Z"/><path class="cls-1" d="M.15,70.93c7,.23,7,.23,6.75,7.2C-.14,77.88-.14,77.88.15,70.93Z"/><path class="cls-1" d="M109.89,181c8.15-.18,7-.51,7,6.75C110,188.16,110,188.16,109.89,181Z"/><path class="cls-31" d="M163.89,86c.05,9.77.77,7.8-7.66,8-5.11.13-10.23.1-15.35.14l-23.8-.22c-2.1-2.6-1.94-5.28-.28-8,2.53-1.89,5.47-1.29,8.3-1.34,7.76-.16,15.53-.2,23.29,0,2.67,0,5.34-.1,8,0,2.3.08,4.66-.26,6.85.78Z"/><path class="cls-32" d="M149,117.9v8.2c1.63,2,1.3,4.36,1.09,6.69a3.27,3.27,0,0,1-1.28,2.22,12.38,12.38,0,0,1-8-2,5.3,5.3,0,0,1,0-6.88v-8.19a6.2,6.2,0,0,1,0-7.81q0-4,0-8.1c7.8.14,7.8.14,8.06,8.11A6.39,6.39,0,0,1,149,117.9Z"/><path class="cls-33" d="M157,141c0,7.87,0,7.87-8,8.1l-16-.11a6.14,6.14,0,0,1,0-7.9l16-.14C151.67,139.12,154.32,139,157,141Z"/><path class="cls-34" d="M110,86.09,86.08,86c-2.08-2.61-1.94-5.32-.41-8.11C88.22,76,91.14,76.6,94,76.57c5.25.21,10.58-.94,15.73.9,2.24,2.42,1.86,5.14.91,7.92Z"/><path class="cls-35" d="M15,110c6.79,0,13.59.11,20.38,0,2.91-.07,3.66,1.14,3.66,3.84s-.51,4.34-3.8,4.2a119.45,119.45,0,0,0-14.9.08c-4.59.39-6-1.41-5.36-5.63A18.75,18.75,0,0,0,15,110Z"/><path class="cls-36" d="M78,78.06c-5.46,0-10.91,0-16.37,0C55,78,55,78,55,71c2.08-1.93,4.66-1.37,7.11-1.44,5.2.19,10.47-.91,15.58.85,2.08,2.07,1.86,4.45,1,6.93Z"/><path class="cls-37" d="M85.9,149a24.54,24.54,0,0,0,.09,3c.56,3.9-1,5.59-5,5a31,31,0,0,0-3.48,0c-7.65-.22-7.81,1.91-7.5-7.77l.51-.67c2.33-1.29,4.88-.81,7.36-.91,2.49.09,5-.35,7.4.8Z"/><path class="cls-38" d="M31.12,62.91l3.85,0a3.4,3.4,0,0,1,4.35.09c1.45,2.72,1.62,5.38-.36,7.94l-15.91,0,.05,0c-.06-2.66-.13-5.32-.19-8l.28.16C25.77,61,28.43,61.27,31.12,62.91Z"/><path class="cls-39" d="M62.09,101.77c0-1.32,0-2.65-.11-4-.24-2.66.67-4.07,3.59-3.8,1.63.15,3.29,0,4.94,0,7.43.2,7.77-1.93,7.37,7.77l-.51.67c-4.64,1.57-9.35,1.08-14.06.42A2.36,2.36,0,0,1,62.09,101.77Z"/><path class="cls-40" d="M62,70.91,55,71l-8.06-.1A6.74,6.74,0,0,1,47,62.62c3.06-1.75,6.42-1.2,9.66-1.11C63.23,61.71,64.87,64.69,62,70.91Z"/><path class="cls-41" d="M93.92,118.12q0,7.42,0,14.85l-.6.59a8.79,8.79,0,0,1-7.37-.19,3.56,3.56,0,0,1-1-1.46c-.47-4.8-1.51-9.64.88-14.27C88.65,116.19,91.35,116,93.92,118.12Z"/><path class="cls-42" d="M102,133c3.46,0,6.93.05,10.39-.06,2.73-.09,4.67,0,4.71,3.79s-1.55,4.45-4.75,4.27c-3.45-.2-6.92-.05-10.38-.05A6.17,6.17,0,0,1,102,133Z"/><path class="cls-43" d="M55.06,118.09c0-2.8-.07-5.6-.06-8.4,0-7.33,0-7.33,7.09-7.92l-.08.36c2,2.37,1.32,5.22,1.4,7.93s.5,5.64-1.2,8.17C59.8,119.69,57.41,119.87,55.06,118.09Z"/><path class="cls-44" d="M55.06,118.09l6.85-.23c2.67,5,2.1,10,.46,15.15a5.48,5.48,0,0,1-7.32-.14L54.82,126a6.57,6.57,0,0,1,.17-8Z"/><path class="cls-45" d="M55,118c-.06,2.67-.12,5.33-.17,8H49.88c-2.72,0-4.66-1.59-4.6-4.07S47.35,118,50.05,118C51.69,118,53.34,118,55,118Z"/><path class="cls-46" d="M77.88,101.79c7.66.56,7.66.56,8.34,8.29-.24.19-.47.39-.7.59-2.73,1-5.41,1.19-7.93-.61-1.37-2.71-1.56-5.37.38-7.92Z"/><path class="cls-47" d="M86,78c0,2.64,0,5.29.08,7.94-9.57.11-8,.75-8.09-7.91l-.13-.17C80.6,76.22,83.32,76,86,78Z"/><path class="cls-48" d="M93.92,118.12l-7.87-.23c-2.11-2.57-1.88-5.19-.23-7.87l.4.06a18.94,18.94,0,0,0,2-.1c4.47-.71,6.57,1,5.77,5.65A17.19,17.19,0,0,0,93.92,118.12Z"/><path class="cls-49" d="M140.91,110.08c0,2.6,0,5.21,0,7.81-1,0-2,.08-3,.09-2.6,0-5.08.62-5.13-3.73s2-4.51,5.15-4.24C138.92,110.09,139.92,110.06,140.91,110.08Z"/><path class="cls-50" d="M149,157l2.93-.08c2.66-.08,5.07-.44,5.13,3.75s-1.91,4.6-5.09,4.29c-1-.09-1.95,0-2.93,0C149,162.33,149,159.68,149,157Z"/><path class="cls-51" d="M46.93,63.13c0,2.6,0,5.2,0,7.8l-8,0q0-3.86,0-7.71C41.6,61,44.26,61.05,46.93,63.13Z"/><path class="cls-52" d="M133,141v7.9A34.28,34.28,0,0,0,129,149c-3.34.41-4.14-1.16-4.16-4.27s1.35-4,4.16-3.77C130.33,141.09,131.65,141,133,141Z"/><path class="cls-53" d="M23,136.9c.47,2.94-.61,4.14-3.74,4.18s-4.3-1-4.28-4.27,1.25-3.9,4.14-3.9S23.49,133.8,23,136.9Z"/><path class="cls-54" d="M94,141c-.07,9.65.78,7.72-8.07,8.05l0-.12c-1.84-2.53-1.66-5.15-.4-7.84,2.43-2,5.07-1.69,7.78-.71C93.53,140.56,93.75,140.77,94,141Z"/><path class="cls-55" d="M102,133l0,7.95H94a6.44,6.44,0,0,1,0-8l0,0Z"/><path class="cls-56" d="M157,141l-8,0q-.08-3-.16-5.89l.21-2.12a6.33,6.33,0,0,1,7.73,0l.28.2a6.39,6.39,0,0,1-.15,7.9Z"/><path class="cls-57" d="M70.05,149.2c-7.7-.57-7.7-.57-8.34-8.21l.72-.65c2.73-1.05,5.68-1.55,7.71.84s1.78,5.13-.17,7.64Z"/><path class="cls-58" d="M55.05,132.87l6.88.24c2.06,2.56,1.85,5.19.23,7.86l-.45,0C54.55,140.86,54.88,142.34,55.05,132.87Z"/><path class="cls-59" d="M116.92,86q.09,4,.16,7.92c-8.45.2-7,.56-7.1-7.84l-.14-.29a6.58,6.58,0,0,1,6.47-.38Z"/><path class="cls-60" d="M140.91,126.08l0,6.88c-1.48,0-3-.09-4.43.06-2.92.29-3.56-1.15-3.57-3.78s1.24-3.41,3.61-3.24C138,126.11,139.44,126.06,140.91,126.08Z"/><path class="cls-61" d="M23.05,70.94c-.66,2.84,2,7.62-4.34,7.15-2.3-.18-3.74-.46-3.75-3.27s.77-4.08,3.67-3.82a44.44,44.44,0,0,0,4.47,0Z"/><path class="cls-62" d="M140.91,181c0,7.29,0,7.29-7.79,6.73C132.69,180.87,132.69,180.87,140.91,181Z"/><path class="cls-63" d="M211.9,118c0,8,0,8-8.16,8l-7.87,0c.25-9-1.56-8,8.15-8Z"/><path class="cls-64" d="M242.88,55c0,2.65-.06,5.31-.08,8l-15.93,0c-.2-.22-.4-.45-.61-.67-1-2.68-1.25-5.31.7-7.74,2.68-1.29,5.32-1.43,7.89.3Z"/><path class="cls-65" d="M234.88,110c-.18,8.92,1.36,8-8,8a6.37,6.37,0,0,1,0-8c.16-8.85-1.36-7.95,8-8A6.31,6.31,0,0,1,234.88,110Z"/><path class="cls-66" d="M179.84,85.92l-16,.07.07.06c-1.94-2.62-1.88-5.34-.39-8.12,2.51-1.89,5.42-1.32,8.24-1.35s5.7-.52,8.22,1.31C181.75,80.61,181.87,83.29,179.84,85.92Z"/><path class="cls-67" d="M226.88,110c0,2.67,0,5.33,0,8l-15,0c.23-9.13-1.31-7.83,8.15-8C222.31,110,224.6,110,226.88,110Z"/><path class="cls-68" d="M218.84,70.9l-15,.1-.61-.69c-.94-2.74-1.31-5.42.87-7.82,5-1.39,9.89-1.74,14.77.31C220.75,65.51,220.87,68.21,218.84,70.9Z"/><path class="cls-69" d="M195.94,126c-.35,7.58,1.48,7-7.18,7l-8.87,0c.09-7.91-1.06-7,7.15-7C190,126,193,126,195.94,126Z"/><path class="cls-70" d="M203.87,71c0,8.35.69,6.86-7.09,7-3,.06-5.92,0-8.87,0l-.61-.66c-.92-2.38-1.11-4.68.69-6.79,2.53-1.42,5.3-.94,8-1s5.56-.51,7.93,1.46Z"/><path class="cls-71" d="M179.84,85.92c0-2.63,0-5.26.08-7.88l.62-.6c2.57-1,5.06-1.14,7.43.54l-.06,0C187.91,86.2,187.91,86.2,179.84,85.92Z"/><path class="cls-72" d="M234.88,110c0-2.65,0-5.31,0-8h8l0,7.9Z"/><path class="cls-73" d="M149,117.9q0-3.91,0-7.81c1,0,2,0,2.93-.09,3.13-.29,5.17,0,5.12,4.24s-2.43,3.84-5.1,3.76Z"/><path class="cls-74" d="M218.84,70.9l0-7.78c.2-.21.41-.42.6-.63,2.58-1.1,5.08-1.21,7.44.55l-.06,0c0,.16,0,.33,0,.49C226.67,71.24,228.82,71.3,218.84,70.9Z"/><path class="cls-75" d="M171.83,140.92H164a5.88,5.88,0,0,1,0-7.83l7.81,0A5.85,5.85,0,0,1,171.83,140.92Z"/><path class="cls-76" d="M171.83,140.92c0-2.62,0-5.23,0-7.85l8.1-.08C179.87,141.12,179.87,141.12,171.83,140.92Z"/><path class="cls-77" d="M164,133.09l0,7.83-7.07.07.15-7.9Z"/><path class="cls-27" d="M156.78,132.89h-7.73c0-2.26,0-4.53,0-6.79.33,0,.66-.06,1-.07C157.08,125.89,157.08,125.89,156.78,132.89Z"/><path class="cls-78" d="M149,180.86v-7.8c1,0,2,0,2.93-.11,3.14-.3,5.16.09,5.11,4.26s-2.44,3.84-5.1,3.75Z"/><path class="cls-79" d="M195.87,70.88l-7.89.27c-2.28,1.69-4.91,1.31-7.47,1.29-4.62-1-7.31,1.12-8.6,5.43l-7.9.25c-2,1.52-4.3,1.37-6.58,1.31-5.55-1.45-7.2,2.24-8.47,6.43l-24,0c-.34-.35-.83-.72-.84-1.16-.13-5.28-3.59-5.71-7.65-5.29-2.31.08-4.62.23-6.63-1.25L94,77.9c-1.46-4.77-4.83-6-9.47-5.48-2.25.26-4.66.29-6.65-1.28L62,70.91C61.89,63,61.89,63,53.77,63c-2.28,0-4.56.06-6.84.09l-8,0-4-.32c.63-6.82,1.64-7.81,8-7.81,17.63,0,35.27-.17,52.91.07,5.74.08,11.09-1.77,16.69-2.29,3.09-.28,3.52-3.08,3.39-5.76,1.54-1.63,3.59-1.59,5.56-1.6q17.4-.12,34.81,0c2,0,4-.06,5.57,1.56l72.91.22q0,3.82,0,7.64l-7.89.28c-4.55.66-7,3.48-8.15,7.75l.08.2H204A9.34,9.34,0,0,0,195.87,70.88Z"/><path class="cls-80" d="M161.92,47l-45.94,0-7-.06a7,7,0,0,1-.17-8.24c3.64-2.08,7.6-1.05,11.44-1.19,12.39-.3,24.79-.11,37.19-.1,2,0,4,0,5.54,1.59C162.75,41.75,163.48,44.54,161.92,47Z"/><path class="cls-81" d="M109,39.08c0,2.64,0,5.29,0,7.93H61l0-7.94L77,39a5.62,5.62,0,0,1,3.63-1.43q12.4-.37,24.82,0A4.66,4.66,0,0,1,109,39.08Z"/><path class="cls-82" d="M31.12,62.91l-7.93.24q0-3.91-.07-7.83c.66-.08,1.32-.14,2-.26,4.79-.88,6.78,1,6,5.87A9.42,9.42,0,0,0,31.12,62.91Z"/><path class="cls-83" d="M162.93,39.07l-43,0a6.79,6.79,0,0,1,0-8.33c1.73-1.21,3.74-1.21,5.72-1.2,8.43,0,16.86-.18,25.29.08,7.15-.25,14.3-.11,21.46-.07,2,0,4-.06,5.57,1.59l0,7.94Z"/><path class="cls-84" d="M177.93,31.09l-27-.07c-1.78-2.49-1.83-4.95.09-7.39,1.91-1.24,4.09-1.16,6.23-1.17q19.08-.06,38.15,0c2.28,0,4.68-.25,6.53,1.61l0,7Z"/><path class="cls-85" d="M54,31l0-6.94,1,0a5.43,5.43,0,0,1,3.64-1.42c14.62,0,29.24-.66,43.85.31a4.69,4.69,0,0,1,1.76.94,6.43,6.43,0,0,1-.24,7.56c-9,1.77-18,2.39-27-.33Z"/><path class="cls-86" d="M77,31.09l27-.08c5.35-2.24,10.7-2.5,16,.08,0,2.65,0,5.29,0,7.93l-11,.06L77,39Z"/><path class="cls-87" d="M210.91,8.11l0,7.93-7,.05a7.31,7.31,0,0,1-5.11,1.54q-14.42.14-28.83,0c-1.82,0-3.68-.09-5.06-1.59l0-7.93L204.87,8Z"/><path class="cls-88" d="M102.93,24,55,24c0-2.64,0-5.29,0-7.93l48,0A6.22,6.22,0,0,1,102.93,24Z"/><path class="cls-89" d="M102.93,24c0-2.64,0-5.29,0-7.93l7,0,39,.06a6.72,6.72,0,0,1,0,8.36c-1.9,1.26-4.08,1.18-6.22,1.19q-16.06.06-32.14,0c-2.29,0-4.66.15-6.58-1.55Z"/><path class="cls-90" d="M148.9,24c0-2.64,0-5.28,0-7.91l16-.07,39,.06,0,7.94-2,0L151,24.1A1.46,1.46,0,0,1,148.9,24Z"/><path class="cls-79" d="M149,85.86c0-8.85-1.22-7.8,8-7.79,1.85,2.62,1.93,5.22-.08,7.81Z"/><path class="cls-91" d="M116.9,78.11c8-.21,8-.21,8.09,7.77l-8.07.13,0,0A6.35,6.35,0,0,1,116.9,78.11Z"/><path class="cls-92" d="M156.85,85.88c0-2.61.06-5.21.08-7.82l7.08.06c0,2.64,0,5.29,0,7.93Z"/><path class="cls-93" d="M77.9,71.14c3.1,0,6.2-.1,9.3-.1,6.68,0,6.68,0,6.82,6.86L86,78l-8.14-.14C77.87,75.64,77.89,73.39,77.9,71.14Z"/><path class="cls-94" d="M116.9,78.11q0,4,0,8l-7.1-.25,0-7.63Z"/><path class="cls-95" d="M62.16,141q-.12-3.93-.23-7.86,0-7.64,0-15.25c.08-2.61.15-5.22.23-7.83,5.3-2.53,10.61-2.28,15.94-.08l7.74.07c.08,2.63.15,5.25.23,7.87q-.14,7.52-.26,15a3.4,3.4,0,0,1-2.54,1.31c-3.24.28-3.77,2.36-3.87,5.11-.13,3.18.91,6.58-1.44,9.43l-8,0C70,139.15,70.6,141.28,62.16,141Z"/><path class="cls-96" d="M77.94,148.78a101.67,101.67,0,0,0,0-10.33c-.43-4.3,1-6.19,5.42-5.47a12.68,12.68,0,0,0,2.46,0l.34.16a6.8,6.8,0,0,1,0,7.93l-.21,7.89Z"/><path class="cls-97" d="M78.08,110,62.14,110c0-2.63-.09-5.27-.13-7.9H78C78,104.75,78,107.35,78.08,110Z"/><path class="cls-98" d="M86.13,141v-7.93l7.79-.14c0,2.68,0,5.36,0,8Z"/><path class="cls-99" d="M218.81,62.92c0-.16,0-.32,0-.48.16-7.6.16-7.6,8.12-7.27l0,7.87Z"/><path class="cls-79" d="M171.91,77.87c.22-7.09-1.67-7,8-6.77a5.07,5.07,0,0,1-.13,6.83l.1.11Z"/><path class="cls-100" d="M195.87,70.88c.09-8,.09-8,8.1-7.75,0,2.64,0,5.29,0,7.93Z"/><path class="cls-101" d="M179.82,77.93l.12-6.83,8,.05q0,3.41,0,6.83Z"/><path class="cls-102" d="M148.9,24l2.06.09c0,2.31,0,4.61-.05,6.92L120,31.09l-16-.07c0-2.31,0-4.61,0-6.92Z"/></svg>