<svg id="Calque_1" data-name="Calque 1" xmlns="http://www.w3.org/2000/svg" viewBox="0 0 80 50"><defs><style>.cls-1{fill:#fefefe;}.cls-2{fill:#070707;}</style></defs><path class="cls-1" d="M80,29V50H32c-1-4-3.41-6.35-7.72-6.41a2.7,2.7,0,0,1-1.06-1.21c-.82-2.25-.58-4.58-.62-6.89,0-2.49-.44-5.08,1.68-7.07,1.81-1,3.83-1,5.81-1q21.66-.06,43.31,0C75.71,27.41,78.08,27.29,80,29Z"/><path class="cls-1" d="M32,0H72c1.9,2.2,1.43,4.87,1.46,7.44a67,67,0,0,1,0,9.92c-.16,2.54-1.15,4.84-4,4.89-15,.26-30.07,1.34-45.07-.58-2.3-1.88-1.79-4.5-1.84-7,.05-2.31-.17-4.65.55-6.91a2.93,2.93,0,0,1,.94-1.26C28.25,6.21,31,4.19,32,0Z"/><path d="M24.06,20.85c15,0,29.91,0,44.86.2,2.29,0,3.29-.42,3.14-3-.21-3.64,0-7.3,0-11,2.62-2.09,5.27-2,8-.12V29l-55.94.15C20,30,16.88,32,15.85,36.38c-5.79,1.79-7,1.51-9.31-3.52C5.15,29.75,1.72,31,0,29V21c3.37-1.37,6.53-2.46,8-6.72.85-2.49,4.53-1.75,7.12-1.18a3.34,3.34,0,0,1,1.28.88C16.59,18.89,20.44,19.75,24.06,20.85Z"/><path class="cls-1" d="M16.05,14.05c-1,0-2-.05-2.94-.05-4.75,0-4.91,0-5,4.7C8,20.86,7.09,21.1,5.39,21S1.8,21,0,21V0H24a5.29,5.29,0,0,1-.07,7.07l.14-.14C20.45,8.24,16.83,9.55,16.05,14.05Z"/><path class="cls-1" d="M0,29H3.43C7.79,29,7.92,29,8,33.25c0,2,.46,3,2.69,2.79a50.83,50.83,0,0,1,5.38,0c.17.17.34.34.52.5,0,5,4.56,4.87,7.53,6.5l-.14-.14A5.29,5.29,0,0,1,24,50H0Z"/><path class="cls-2" d="M23.93,7.07,24,0h8c0,7,0,7-7.1,7C24.58,7,24.25,7.05,23.93,7.07Z"/><path class="cls-1" d="M80,7l-8,.12L72,0h8Z"/><path class="cls-2" d="M24,50l-.07-7.07c.32,0,.65,0,1,0,7.1.07,7.1.07,7.1,7Z"/><path class="cls-1" d="M16,36.07c0-7.24,0-7.24,7.08-7,.32,0,.64.09,1,.13l-.14,7a6.48,6.48,0,0,1-8-.14Z"/><path d="M15.91,36l8,.14.15,7-1-.06C16.11,42.94,16.11,42.94,15.91,36Z"/><path d="M16.05,14.05c-.11-7-.11-7,7.05-7.06l1-.06-.15,7c-2.64,2.11-5.3,2-8,.06Z"/><path class="cls-1" d="M15.94,13.94l8-.06.14,7c-.16,0-.32.06-.48.07C16.08,21.19,16.08,21.19,15.94,13.94Z"/></svg>