<svg id="Calque_1" data-name="Calque 1" xmlns="http://www.w3.org/2000/svg" viewBox="0 0 44.08 41.82"><defs><style>.cls-1{fill:#fea300;}.cls-2{fill:#fe7ffe;}.cls-3{fill:#fefe66;}.cls-4{fill:#fecb00;}.cls-5{fill:#feae00;}.cls-6{fill:#fecbcb;}.cls-7{fill:#983300;}</style></defs><path class="cls-1" d="M6,14V12.53c.37-.73,1.19-.36,1.87-.85v-3c.81-.93,2.58-.53,2.22-2.26,1.1-1,2.59.14,3.71-.68.11-.46.23-.91.39-1.53h7.62c.38.18,0,1,.48,1.68h3c1,.77.52,2.61,2.28,2.22,1,1.09-.12,2.58.69,3.7l1.54.4v5.54c2.38.54,4.66.21,6.92.27s4.61,0,6.73,0c.84.66.4,1.39.53,2l-.54.55c-5.08,1.38-10.14,1-15.41.06C25.56,15.64,25.17,9,17.83,8.17a8.52,8.52,0,0,0-7.43,6.39c-2,7.08-2.18,17.82,4.33,23.29,4.31,3.62,9.38,4.73,14.81,4.81a8.41,8.41,0,0,1,3.89.76L34,44v2H18.23l-.34-1.64c-.95-.82-2.17-.15-3.27-.37-1.59-2.5-4.07-4.12-6.12-6.18-1-1-.17-2.45-.57-3.55L6,33.76V18A2.91,2.91,0,0,1,6,14Z" transform="translate(-1.95 -4.18)"/><path class="cls-1" d="M44,20h1.77c.48,2.18.16,4.45.22,6.69s0,4.59,0,6.75c-.39.64-.9.55-1.45.56-1.14,1-.2,2.43-.49,3.17A40.2,40.2,0,0,0,37.42,44H34a1.77,1.77,0,0,1-.43-1.91c2.35-3.5,6.66-5.48,7.73-10A8.17,8.17,0,0,1,42,30.84C43.75,27.43,41.34,23.24,44,20Z" transform="translate(-1.95 -4.18)"/><path class="cls-2" d="M6,14v4H2.46c-.83-1.15-.41-2.42-.34-3.73C3.4,13.67,4.73,14.17,6,14Z" transform="translate(-1.95 -4.18)"/><path class="cls-3" d="M41.77,31.74A22,22,0,0,1,42,35.49,42.12,42.12,0,0,0,35.5,42H34c-1,1.35-3,.61-4,2H22.53c-.72-.37-.38-1.18-.81-1.87H16.84a34.33,34.33,0,0,0-6.75-6.61l-.17-3.19-1.81-.65V14.41c.33-.59.88-.35,1.42-.44,1.11-1,0-2.5.65-3.65,1-.32,2-.73,2.05-2.22l3.34-.18c.54-.32.41-.85.43-1.41,1.11-.94,2.4-.41,3.56-.41.65.37.38.92.45,1.43,1,1.1,2.54,0,3.69.66a2.3,2.3,0,0,0,2.2,2.07l.19,3.43,1.89.68V20H44V31.48c-.69.81-1.39.4-2.23.26-1.14-1.14-.66-2.63-1.24-3.88a16.59,16.59,0,0,1-9.29,6.61c-3.68-.35-6.33-2.89-9.27-4.9,1.86,4,5.56,5.11,9.43,5.29S38.08,31.6,41.77,31.74Z" transform="translate(-1.95 -4.18)"/><path class="cls-4" d="M30,44V42h4v2Z" transform="translate(-1.95 -4.18)"/><path class="cls-5" d="M41.84,32h-1.3c-.74.37-.38,1.18-.85,1.86H36.41l-.69,2H26.31L25.7,34.1l-3.28-.18c-.61-.78-.47-2.28-2.24-2V25.56A33,33,0,0,1,26.63,32h2.75c1,.37.25,1.63,1.13,2h1c.73-.38.36-1.19.85-1.87h3.14c1-2,2.51-3.2,4.54-4.74.45-.65-.32-2.07.12-3.3h1.72Z" transform="translate(-1.95 -4.18)"/><path class="cls-6" d="M18,18h3.9v3.8H16V18A1.4,1.4,0,0,1,18,18Z" transform="translate(-1.95 -4.18)"/><path class="cls-7" d="M18,18H14.53c-1.23-1.06-.08-2.42-.69-3.59A7,7,0,0,1,18,14.2Z" transform="translate(-1.95 -4.18)"/></svg>