<svg id="Calque_1" data-name="Calque 1"
  xmlns="http://www.w3.org/2000/svg" viewBox="0 0 509 505.25">
  <defs>
    <style>.cls-1{fill:#fefefe;}.cls-2{fill:#422896;}.cls-3{fill:#36208b;}.cls-4{fill:#5e3ec1;}.cls-5{fill:#4f3798;}.cls-6{fill:#6f4fd4;}.cls-7{fill:#bbb3d4;}.cls-8{fill:#7f5cde;}.cls-9{fill:#866bdd;}.cls-10{fill:#4b30a8;}.cls-11{fill:#815ce0;}.cls-12{fill:#5338ae;}.cls-13{fill:#6047b5;}.cls-14{fill:#311974;}.cls-15{fill:#f9f4f2;}.cls-16{fill:#261565;}.cls-17{fill:#1e0e59;}.cls-18{fill:#6751ba;}.cls-19{fill:#291b6c;}.cls-20{fill:#735cbe;}.cls-21{fill:#7b5bd7;}.cls-22{fill:#20125e;}.cls-23{fill:#2c1d79;}.cls-24{fill:#8b6be2;}.cls-25{fill:#301a9d;}.cls-26{fill:#2e1c70;}.cls-27{fill:#3e2d80;}.cls-28{fill:#6449c8;}.cls-29{fill:#816dda;}.cls-30{fill:#6651c7;}.cls-31{fill:#9b80de;}.cls-32{fill:#28186b;}.cls-33{fill:#392983;}.cls-34{fill:#27185f;}.cls-35{fill:#8e6fe3;}.cls-36{fill:#514193;}.cls-37{fill:#423186;}.cls-38{fill:#4228a0;}.cls-39{fill:#7d6ac8;}.cls-40{fill:#291a77;}.cls-41{fill:#48386b;}.cls-42{fill:#473991;}.cls-43{fill:#c3b2e6;}.cls-44{fill:#e9e5ed;}.cls-45{fill:#3a2e74;}.cls-46{fill:#574498;}.cls-47{fill:#c2b9d3;}.cls-48{fill:#1e0d5d;}.cls-49{fill:#40279f;}.cls-50{fill:#cbc0e6;}.cls-51{fill:#ece7f3;}.cls-52{fill:#6d56af;}.cls-53{fill:#f6eaec;}.cls-54{fill:#f2ded4;}.cls-55{fill:#5131a3;}.cls-56{fill:#7e5edd;}.cls-57{fill:#f0dacd;}.cls-58{fill:#efdace;}.cls-59{fill:#44259a;}.cls-60{fill:#eddacd;}.cls-61{fill:#4c2893;}.cls-62{fill:#e9ccbb;}.cls-63{fill:#451b69;}.cls-64{fill:#552994;}.cls-65{fill:#443095;}.cls-66{fill:#d3c4cc;}.cls-67{fill:#8761de;}.cls-68{fill:#6b56c2;}.cls-69{fill:#2f199c;}.cls-70{fill:#573bb7;}.cls-71{fill:#30199f;}.cls-72{fill:#976fe2;}.cls-73{fill:#2c169d;}.cls-74{fill:#5f48ba;}.cls-75{fill:#543cb4;}.cls-76{fill:#3f29a7;}.cls-77{fill:#7150d3;}.cls-78{fill:#674bc8;}.cls-79{fill:#8368dd;}.cls-80{fill:#9a7ed4;}.cls-81{fill:#9e84d9;}.cls-82{fill:#9683d7;}.cls-83{fill:#ba94e1;}.cls-84{fill:#3c2baa;}.cls-85{fill:#3d2cad;}.cls-86{fill:#ae89d9;}.cls-87{fill:#3724aa;}.cls-88{fill:#9170d0;}.cls-89{fill:#f2e6dd;}.cls-90{fill:#e9d5d8;}.cls-91{fill:#fdf2f2;}.cls-92{fill:#311573;}.cls-93{fill:#fcf2f5;}.cls-94{fill:#aa82e2;}.cls-95{fill:#dcccf2;}.cls-96{fill:#927ddf;}.cls-97{fill:#f7ece8;}.cls-98{fill:#eee1de;}.cls-99{fill:#f0e5e1;}.cls-100{fill:#613bb8;}.cls-101{fill:#ead2c4;}.cls-102{fill:#6b51a6;}.cls-103{fill:#351f8b;}.cls-104{fill:#2c0d49;}.cls-105{fill:#f5eaee;}.cls-106{fill:#c199e4;}.cls-107{fill:#d1b0e2;}.cls-108{fill:#f4e3ee;}.cls-109{fill:#331c88;}.cls-110{fill:#291680;}.cls-111{fill:#4830b2;}.cls-112{fill:#22146c;}.cls-113{fill:#7e65c4;}.cls-114{fill:#f6ecf3;}.cls-115{fill:#5035af;}.cls-116{fill:#432aa3;}.cls-117{fill:#3a2395;}.cls-118{fill:#7a5cd6;}.cls-119{fill:#3a2390;}.cls-120{fill:#f5e6dd;}.cls-121{fill:#834ec9;}.cls-122{fill:#f6e5f0;}.cls-123{fill:#5e37b0;}.cls-124{fill:#674bc0;}.cls-125{fill:#7153d3;}.cls-126{fill:#d4aab9;}.cls-127{fill:#51257d;}.cls-128{fill:#d9b5be;}.cls-129{fill:#f6e7db;}.cls-130{fill:#be8a9a;}.cls-131{fill:#885c8b;}.cls-132{fill:#edd7c6;}.cls-133{fill:#dbc5e5;}.cls-134{fill:#cdb4d2;}.cls-135{fill:#cda2a4;}.cls-136{fill:#f4e4da;}.cls-137{fill:#a97ae5;}.cls-138{fill:#9c6adb;}.cls-139{fill:#3925aa;}.cls-140{fill:#eacce5;}.cls-141{fill:#755dcf;}.cls-142{fill:#976ee3;}.cls-143{fill:#f3def0;}.cls-144{fill:#5b48bf;}.cls-145{fill:#b385e4;}.cls-146{fill:#8064de;}.cls-147{fill:#4f32b6;}.cls-148{fill:#351f95;}.cls-149{fill:#6048c1;}.cls-150{fill:#694ec6;}.cls-151{fill:#8471cb;}.cls-152{fill:#5136af;}.cls-153{fill:#35218f;}.cls-154{fill:#6647ce;}.cls-155{fill:#6546cf;}.cls-156{fill:#6045c0;}.cls-157{fill:#8262c4;}.cls-158{fill:#a369d4;}.cls-159{fill:#6958c4;}.cls-160{fill:#f5efee;}.cls-161{fill:#c497e4;}.cls-162{fill:#dbc0c3;}.cls-163{fill:#a865a1;}.cls-164{fill:#956ebc;}.cls-165{fill:#d7b6bc;}.cls-166{fill:#c299af;}.cls-167{fill:#dcbcbc;}.cls-168{fill:#e4cfd2;}.cls-169{fill:#e1c4c9;}.cls-170{fill:#c88abc;}.cls-171{fill:#e7c9de;}.cls-172{fill:#a57fad;}.cls-173{fill:#d69cc3;}.cls-174{fill:#f5eae7;}.cls-175{fill:#f3e1d7;}.cls-176{fill:#ebd3c4;}.cls-177{fill:#e2c6bb;}.cls-178{fill:#c59591;}.cls-179{fill:#1e0d6f;}.cls-180{fill:#492e96;}.cls-181{fill:#4e2a95;}.cls-182{fill:#2c1891;}.cls-183{fill:#593bc0;}.cls-184{fill:#331561;}.cls-185{fill:#2d1156;}.cls-186{fill:#371460;}.cls-187{fill:#b47ad7;}.cls-188{fill:#c191e2;}.cls-189{fill:#6f57bc;}.cls-190{fill:#6448b8;}.cls-191{fill:#3b249e;}.cls-192{fill:#3e2992;}.cls-193{fill:#e5d4e9;}.cls-194{fill:#efdded;}.cls-195{fill:#5a3baf;}.cls-196{fill:#482a95;}.cls-197{fill:#4d3488;}.cls-198{fill:#230c4a;}.cls-199{fill:#311a7e;}.cls-200{fill:#54359f;}.cls-201{fill:#6c46b2;}.cls-202{fill:#7548c2;}.cls-203{fill:#ae79d8;}.cls-204{fill:#8356c6;}.cls-205{fill:#efddd1;}.cls-206{fill:#efe3e1;}.cls-207{fill:#f6eaed;}.cls-208{fill:#efdaec;}.cls-209{fill:#a876d3;}.cls-210{fill:#603396;}.cls-211{fill:#e6c7c5;}.cls-212{fill:#e8cab4;}.cls-213{fill:#381ea3;}.cls-214{fill:#917dd8;}.cls-215{fill:#5c44aa;}.cls-216{fill:#705bc0;}.cls-217{fill:#5535be;}.cls-218{fill:#efe4e0;}.cls-219{fill:#724abc;}.cls-220{fill:#ecded7;}.cls-221{fill:#e1c4ae;}.cls-222{fill:#5f3084;}.cls-223{fill:#7c4eb2;}.cls-224{fill:#6844ac;}.cls-225{fill:#7b4ebb;}.cls-226{fill:#421d8c;}.cls-227{fill:#4f2a9f;}.cls-228{fill:#472063;}.cls-229{fill:#c693a9;}.cls-230{fill:#e2c6bf;}.cls-231{fill:#e5d1c1;}.cls-232{fill:#653ab3;}.cls-233{fill:#ddb6cf;}.cls-234{fill:#43255a;}.cls-235{fill:#a68aa1;}.cls-236{fill:#dec4cc;}.cls-237{fill:#7748b5;}.cls-238{fill:#8e5ec5;}.cls-239{fill:#d4b1c1;}.cls-240{fill:#9c67cd;}.cls-241{fill:#553478;}</style>
  </defs>
  <path class="cls-1" d="M.06,79.51c0-25.6,0-51.2-.06-76.8C0,.52.39,0,2.67,0q251.75.11,503.5,0c2.51,0,2.79.77,2.79,3q-.07,249.69,0,499.38c0,2.88-1,2.89-3.24,2.89q-251.37-.08-502.75,0c-2.67,0-3-.67-3-3.13Q.12,377,.06,251.87a18.49,18.49,0,0,1,13.74-.1c1,1.42,1,3.07,1,4.68q0,63.6,0,127.2a10,10,0,0,1-.1,1.11c.09,3,0,6,0,9,0,2.19,1,3.14,3.17,3.14,3.11,0,6.22-.07,9.34.05,4.44.18,8.95-.87,13.31.76,1.84,2.43,1,5.28,1.13,7.95.17,4.47.27,4.6,4.64,4.75,2.44.08,5-.56,7.25,1,1.46,2.54.78,5.34.9,8,.18,3.88.46,4.3,4.31,4.33,9.81.08,19.62,0,29.44,0,1.84,0,3.74-.21,5.45.79,2,2.39,1.22,5.24,1.18,7.89,0,3.05,1.1,4.29,4.16,4.13,2.72-.14,5.46-.11,8.2,0,4.39.13,8.8-.59,13.15.51a2.34,2.34,0,0,1,1,1c1,2.65.56,5.42.56,8.14s1.21,3.77,3.84,3.76c5.48,0,11-.06,16.42,0,5.14.08,5.9.81,6,5.82.12,7.76-.91,7.66,7.78,7.65s17.42,0,26.13,0c1.84,0,3.75-.2,5.4,1,1.81,2.44,1,5.28,1.15,7.95.18,4.19.37,4.5,4.46,4.55,5.48.06,10.95-.06,16.43.05,4.4.09,5.25.9,5.32,5.29.13,7.52-.84,7.34,7.64,7.45,5.83.07,11.69-.56,17.5.42a2.57,2.57,0,0,1,1.07.8c1.1,2.09.7,4.36.75,6.57.1,4.79.21,4.93,5.12,5,2.48,0,5,0,7.45,0,4.33-.11,8.66-.13,13,0,3-.07,6-.08,9,0,2.76.08,3.78-1.15,3.74-3.82,0-2.48-.37-5,.52-7.43a2.26,2.26,0,0,1,1-1c4.35-1.12,8.77-.41,13.15-.53,2.62-.16,5.23-.1,7.85-.06,2.46,0,3.78-.91,3.66-3.49,0-.38,0-.75,0-1.13.2-8.11.21-8.12,8.19-8.13,4.36,0,8.72,0,13.08,0,5.62,0,5.62-.07,5.73-5.56,0-2.32-.47-4.77,1.06-6.88,4.32-2,8.87-.76,13.32-1q4.47-.15,8.94,0c2.77.09,3.66-1.15,3.71-3.8,0-2.91-.77-6,1-8.71,1.51-1.14,3.28-1,5-1,5.32,0,10.64-.09,16,0,3,.06,4.24-1.06,4.21-4.13,0-2.78-.7-5.72,1-8.32,4.32-2,8.88-.77,13.32-1,2.74-.1,5.48,0,8.22-.05,4.12-.07,4.27-.3,4.42-4.54.09-2.44-.56-5,1.1-7.23,4.28-1.89,8.76-.69,13.14-.92,3.2-.08,6.39,0,9.59,0,2.15,0,3.07-1,3.15-3.15.12-2.93-.42-5.91.54-8.8a2.23,2.23,0,0,1,.94-1c4.31-1.14,8.69-.42,13-.54,2.73-.12,5.48-.1,8.21,0s3.56-1.12,3.5-3.61c-.06-3-.08-6,0-9,.21-4.23-.94-8.56.88-12.68,4.37-1.94,9-.74,13.44-.95,3-.11,6-.12,8.94,0,2.76.08,3.78-1.13,3.7-3.79-.1-3-.08-6,0-8.95q-.27-32.75,0-65.47c-.19-7.65-.06-15.29-.07-22.94a7.69,7.69,0,0,1,.74-3.95c1.93-1.91,4.42-1.34,6.69-1.29,2.91.05,4-1.15,3.88-4s-.09-5.69,0-8.54q-.18-6.67,0-13.35c-.13-4.29-.12-8.57,0-12.86q-.22-13.46,0-26.92-.24-25.77,0-51.55c0-9.94-.41-19.89.23-29.83,1.06-3.88.49-7.83.51-11.76a60.41,60.41,0,0,1,.26-9.22,59.14,59.14,0,0,0-.11-17.37,25.84,25.84,0,0,1-.91-8.11c.08-2.48-.95-3.73-3.5-3.61-8.83.4-7.66-2.11-7.74-8.13-.06-4.38-.26-4.49-4.69-4.66-2.67-.1-5.49.69-8-1.06-1.69-4.35-.61-8.85-.8-13.28-.1-2.74,0-5.49,0-8.23-.07-4-.32-4.29-4.21-4.36-3-.06-6,.05-9-.06-2.86.14-5.71.06-8.57,0s-4.34-1.42-4.42-4.32c-.06-2-.06-4-.09-6,0-2.17-1.06-3.12-3.21-3.14-3.11,0-6.21.07-9.32-.07-20.88.23-41.75.07-62.63.08a7.1,7.1,0,0,1-3.61-.74c-2.09-2.19-1.23-4.95-1.34-7.49-.19-4.26-.31-4.48-4.44-4.55-2.75,0-5.5,0-8.25-.05-20.8.24-41.6.08-62.4.08a7.19,7.19,0,0,1-3.62-.73c-1.57-1.24-1.38-3-1.47-4.75C293.23,5.09,293.16,5,288.9,5c-2.59,0-5.18.07-7.77,0a130.2,130.2,0,0,1-31.28-2.19A10.89,10.89,0,0,0,245,2.62,93.58,93.58,0,0,1,219.78,5c-4.76-.14-4.77,0-5,4.68-.08,1.37,0,2.76-.95,3.93-1.23,1.09-2.76,1.05-4.25,1.07-3.86.06-7.7.17-11.56.55-4.81.48-9.59.31-14.3,2.11a11.45,11.45,0,0,1-9.42-1.06,15,15,0,0,0-8-1.52c-3,.13-4.73,1.65-4.63,4.66.32,9.09-2.09,7.94-9.13,8-2,0-4,0-6,0q-26.24.27-52.45,0c-2.6.09-5.21,0-7.81,0-4.69,0-4.76.2-4.93,4.78-.1,2.66.72,5.5-1.17,7.91a6.3,6.3,0,0,1-3.57.82c-11.9,0-23.79.17-35.68-.07-3.22.1-6.44,0-9.66,0-2.19,0-3.11,1-3.11,3.17,0,3.09.08,6.19,0,9.29q.18,6.68,0,13.36c-.25,4.28,1,8.66-1,12.81-4.39,2.1-9,.79-13.59,1C9.07,80.32,4.42,81.75.06,79.51Z" transform="translate(0)"/>
  <path class="cls-2" d="M.06,199.41V106.49c4.42-2,8.88-1.56,13.37-.29,1.92,2.25,1.1,5,1.25,7.52.22,3.82.54,4.2,4.4,4.35,8.94.37,8.56.42,9.22,9.12a142.92,142.92,0,0,1-.58,24.91c-.66,6.76.88,13.63.42,20.49.18,10.7,0,21.4.08,32.1,0,6.25,0,6.23,6.12,6.3,2.09,0,4.25-.32,6.19.86,1.14,1.21,1.12,2.74,1.13,4.23.05,6.49.12,13,0,19.47-.11,4.92-1.39,6.08-6.35,6.22a20.09,20.09,0,0,1-8.8-1.3c-3.95-1.69-8.15-.59-12.23-.81a1.93,1.93,0,0,1-1.14-.79c-1.31-4.34-.61-8.76-.5-13.15,1.56-7.44-.47-14.83-.34-22.26,0-2.47-1.87-2.8-3.9-2.94C5.59,200.33,2.63,201.28.06,199.41Z" transform="translate(0)"/>
  <path class="cls-3" d="M.06,199.41c3.36,0,6.72.08,10.07,0,2-.06,3.35.78,3.3,2.65-.23,7.2,1.36,14.32.82,21.52a9.26,9.26,0,0,1-.7,2.1,17.35,17.35,0,0,1-13.49,0Z" transform="translate(0)"/>
  <path class="cls-4" d="M.06,79.51l13.48.12a17.91,17.91,0,0,1,.11,13.46A18.25,18.25,0,0,1,.06,93Z" transform="translate(0)"/>
  <path class="cls-5" d="M.06,225.64H13.55l-.06,13.56a17.74,17.74,0,0,1-13.43-.08Z" transform="translate(0)"/>
  <path class="cls-6" d="M.06,93H13.54l.47.48a27.5,27.5,0,0,1,0,12.63l-.46.49-13.51-.1Z" transform="translate(0)"/>
  <path class="cls-7" d="M.06,239.13l13.43.08,0-.06a14.54,14.54,0,0,1-.06,12.77l-13.39,0Z" transform="translate(0)"/>
  <path class="cls-3" d="M13.45,251.92l.06-12.77c5.14-1,10.13-1.55,15.19.94,3,1.48,6.64.73,9.91.33,2.14-.27,1.91-2.58,1.91-4.31,0-8,0-15.9,0-23.85,4.18-2.14,8.42-1.68,12.69-.33,1.91,2.53,1,5.49,1.19,8.27.21,3.88.41,4.21,4.33,4.26,7.18.1,14.36-.08,21.55.08,4.52.21,9.13-.94,13.54.86,1.83,4.41,1.32,8.88.36,13.37-1.27,1.6-3.16,1.66-4.81,1.38-6-1-11.39,2.35-17.23,2.51-1.57,0-1.83,1.35-2,2.66-1.18,7.15-3,8.84-10.26,9.1-2.8.09-4.23,1-4,4,.3,3.66-.73,7.17-1.28,10.74-1,6.45.21,7.74,6.7,7.91,2.2.06,4.59-.29,6.06,2.05,1.12,4.37.43,8.81.52,13.23.15,6.86,0,13.73.08,20.59,0,4.16.35,4.35,4.51,4.53,2.69.12,5.52-.62,8,1a22.61,22.61,0,0,1,.16,13.5C78,334,74.92,333.13,72,333.14s-4.36,1-4.17,4.1c.16,2.59.09,5.2,0,7.81.21,7.64.07,15.28.07,22.92a7,7,0,0,1-.71,3.58c-1.94,1.95-4.44,1.28-6.73,1.32-6.14.12-6.14.06-6.09,6.31,0,.5,0-.13,0,.37.06,4.33.27,4.53,4.76,4.58,2.62,0,5.24,0,7.86,0,3.21-.18,6.42-.16,9.62,0,3.71.15,4.53,1,4.74,4.66.18,3.07-.12,6.16.49,9.21.15,4.58,1.19,9.2-.71,13.68a24,24,0,0,1-14.42.11c-1.8-2.42-1-5.24-1.13-7.9-.17-4.39-.33-4.67-4.62-4.71-5.2-.05-10.39,0-15.59,0-1.73,0-3.49.06-4.95-1.14L27.13,398c-2-2.38-1.15-5.22-1.18-7.87s-1.07-3.68-3.75-3.75c-2.89-.07-6,.91-8.61-1.17l0-128.78C13.56,254.91,13.49,253.41,13.45,251.92Z" transform="translate(0)"/>
  <path class="cls-8" d="M40.57,39.91l39.6-.16c1.58-1.28,3.48-1.08,5.32-1.09,7.53,0,7.08.49,7.13-7,0-1.82-.28-3.75,1.14-5.28l53.11-.09c2.17,4.32,1.45,8.74.49,13.17-2.05,2-4.68,1.33-7.08,1.36-7.66.06-8.31-.53-7.9,8.91.13,2.81,1.64,4.32,4.44,4.56.49,0,1,.06,1.49.08,6.92.31,7,.31,7.47,7.13.19,2.87,1.63,4,4.25,4.06,3.61.1,7.22.11,10.83,0,8.77.2,17.54-.57,26.29.43,3.58,1.89,7.34,1.86,11.29,1.55a234.28,234.28,0,0,1,38.11-.37c3.12.25,4.43,2.08,4.38,5-.1,6.72,1,6.15,6.81,6.19a25.66,25.66,0,0,1,4.11.18c3.53.6,5.21,2.42,5.57,6,.52,5.17.53,5.14,5.53,5.94,1.52.25,3.43.27,3.07,2.73-3.86,1.78-7.93.65-11.91.88q-6.8.18-13.61,0-19.73.24-39.44,0c-4.53-.18-9.13.83-13.58-.75-2-2.64-1.15-5.72-1.15-8.6s-1-4.31-4.1-4.14c-2.83.15-5.68.09-8.53,0q-13.32.23-26.64,0c-4.52-.17-9.1.83-13.53-.74-2-2.52-1.12-5.48-1.17-8.25s-1-3.84-3.76-3.73-5.45.08-8.18,0q-20,.24-39.92,0c-3.49.11-7,.07-10.47,0-2.92,0-4.34-1.51-4.37-4.4,0-.62-.06-1.24-.06-1.87,0-7.65.34-7.14-7.5-7.16-1.62,0-3.24,0-4.86-.07-4.29-.22-8.68,1-12.86-.9C38.87,48.93,38.59,44.41,40.57,39.91Z" transform="translate(0)"/>
  <path class="cls-9" d="M481.27,66.75c3.48,0,7,.11,10.46,0,2.19-.1,3.21.45,3,2.87s.11,4.74-.09,7.09.78,3,3,2.9c2.59-.07,5.84-1.12,7.6.44s.4,4.94.67,7.49c.17,1.6.4,3.19.59,4.79-.71,1.73-2.31,1.71-3.78,1.78-2.73.13-5.47.11-8.21,0-11.1.19-22.21,0-33.31.09-4.79,0-5,.28-5.09,5.12-.06,2.45.52,5-1.05,7.27-4.42,1.84-8.9,1.39-13.4.36-2.1-2.34-1.18-5.21-1.28-7.87-.18-4.69-.28-4.89-4.83-4.94-7.13-.08-7.12-.08-7.21,7.15,0,1.84.26,3.76-.95,5.41-2.54,1.53-5.36.91-8.06.9s-3.74,1.1-3.75,3.8.66,5.52-.94,8.05c-3.86,1.71-7.88.8-11.85.78a4,4,0,0,1-1.89-.73c-1.68-2.64-.81-5.59-1-8.4-.12-2-.48-3.58-2.88-3.45-5.76.32-11.44-.86-17.17-.8s-6.66,1.09-6.23,7c.15,2.07,1.26,3.77,1.8,5.68.15,3.12-.35,6.21-.41,9.32,0,1.88-.79,3.73-2.8,3.91-4.16.37-8.34,1.32-12.54.25-1.65-2.35-1-5.06-1-7.61,0-3-1.16-4.39-4.19-4.22a14.89,14.89,0,0,1-7.87-1.87,12,12,0,0,0-10.47-.1c-4.34,1.79-8.81,1.21-13.26,1-1.89-.09-2.88-1.28-3.08-3.15q-.09-.93-.12-1.86c-.38-9.54-.33-9.59,9.06-9.82,4.08-.1,4.26-.36,4.43-4.56.11-2.68-.67-5.51,1.12-8,4.39-1.61,8.81-1.36,13.25-.19,1.85,1.82,1.29,4.19,1.33,6.37.12,6.25.2,6.37,6.25,6.38,6.64,0,6.71,0,7.31-7,.23-2.7,1.37-4,4.15-4.23,7.31-.47,14.36-2.9,21.79-2.68,2.58.08,5.22-.37,7.84-.36,2.47,0,3.66-1.07,3.66-3.6s-.1-5.24-.23-7.86c.26-4.41.58-8.82-.27-13.21a53.88,53.88,0,0,1-.23-9.16c0-1.73.23-3.45,1.92-4.52,5.51-1.44,11.13-.53,16.7-.63,3.42-.06,7-.8,10.28.87,1.86,4.46,1.38,9,.39,13.54-2.58,2.24-5.71,1-8.59,1.34-1.52.19-3.64-.44-4,1.78-.4,2.66-.95,5.48.57,8,.51.84,1.8.69,2.79.71,10.07.24,20.11.2,30-2.26,1.94-.48,2.24-1.64,2.34-3.23.13-2.08-.33-4.26.91-6.18a4,4,0,0,1,2.56-1c4.25-.24,8.5-.15,12.75-.07C472.29,65.94,476.92,64.54,481.27,66.75Z" transform="translate(0)"/>
  <path class="cls-10" d="M494.55,305.83v65.95c-2.57,1.9-5.54,1.06-8.32,1.07s-4,1.08-4,4,.83,5.75-1.07,8.32l-13.41.15c-2.48,1.76-5.32,1-8,1s-3.78,1.14-3.75,3.82c0,2.47.36,5-.49,7.42a2.13,2.13,0,0,1-.88.95c-1.63.74-3.38.59-5.1.6-7.51,0-6.94-.28-7,7.14,0,1.84.2,3.74-1.06,5.34l0-.08c-4.36,2.19-9,.8-13.52,1.08-4.54-.25-9.19,1-13.61-1-1.8-4.48-1.45-9-.29-13.54,2.4-1.92,5.25-1.08,7.92-1.18,4.6-.17,4.69-.24,4.81-4.94.06-2.32-.48-4.76,1-6.9,2.65-1.56,5.59-.95,8.39-.9,3.1.06,4.14-1.21,4.11-4.2-.06-7.46-.13-14.91,0-22.37.13-3.72-.71-7.51.7-11.15,1.74-1.69,4-1.18,6-1.23,5.3-.15,5.77-.56,6-5.76a13.77,13.77,0,0,1,.57-4.43c1.29-3.39,4.12-3.95,7.29-4.07,4.6-.18,4.75-.39,4.88-5,0-1,0-2,.1-3,.48-4.68,2-6.08,6.66-6.22.87,0,1.74,0,2.62,0,4.05-.15,4.62-.73,4.85-4.91.34-6.41,1-7.08,7.28-7C489.76,304.77,492.36,304.07,494.55,305.83Z" transform="translate(0)"/>
  <path class="cls-11" d="M428.07,53.31l-27.07,0c-2.74,1.77-5.82,1-8.75,1.1-4.22.21-4.86.85-5.13,5.12-.16,2.55.66,5.27-1.11,7.59-3.66,1.54-7.49.63-11.24.78-4.52-.24-9.15,1-13.55-1-2.1-4.36-.79-9-1-13.5-.14-2.73,0-5.46-.08-8.19-.09-3.84-.42-4.19-4.36-4.24-5.46-.06-10.93,0-16.4,0-1.72,0-3.5.15-5.06-.85-1.87-2.68-1.08-5.73-1.06-8.61,0-3-1.13-4.23-4.15-4.07-2.82.15-5.66.09-8.49,0-7.36.2-14.7.15-22.05,0-4.1-.07-5-1-5.09-5.18-.05-2.71-.51-5.49.66-8.12l.52-.53,66.59,0c1.9,2.26,1.2,5,1.15,7.49-.06,3.07,1.18,4.13,4.17,4.1,2.78,0,5.71-.72,8.32,1l61.75.09c1.61,0,3.23.08,4.85.12a4.49,4.49,0,0,1,1.16,3.41q.15,10.18,0,20.36a5.32,5.32,0,0,1-.88,3.16A18.23,18.23,0,0,1,428.07,53.31Z" transform="translate(0)"/>
  <path class="cls-12" d="M494.55,305.83c-3.36,0-6.73.07-10.09,0-2.42-.07-3.23,1-3.32,3.35-.31,8.59-.38,8.78-9.13,8.57-3.79-.1-4.81,1.81-5,4.84a61.14,61.14,0,0,0,0,6.35c.07,2.21-.89,3.05-3.11,3.17-9.19.54-9.21.59-9.63,9.59-.15,3.11-1.29,4.91-4.77,4.65-2.61-.19-5.23,0-7.85,0a2.6,2.6,0,0,1-1.06-1.78,122,122,0,0,1-.17-12.54q-.18-6.71,0-13.41-.19-6.79,0-13.58c-.19-7.45-.07-14.9-.06-22.35A6.93,6.93,0,0,1,441,279c2.47-2.14,5.46-1.16,8.24-1.3,4.19-.2,4.45-.37,4.55-4.45a68.41,68.41,0,0,1,.19-7.84,3.32,3.32,0,0,1,.86-1.83c1.55-1,3.33-.86,5.06-.88,5.1,0,10.21-.06,15.31,0,2.79,0,4.22-1.06,4.05-3.95-.32-5.27,1.93-10.24,1.67-15.53-.14-2.87,1.87-4.2,4.56-4.38a76.7,76.7,0,0,1,8.58-.14,1.55,1.55,0,0,1,1.09.79c1.17,4.11.44,8.31.57,12.47.13,4.47.12,8.93,0,13.4s1,9.1-1,13.47Z" transform="translate(0)"/>
  <path class="cls-13" d="M494.68,239.13c-2.85,1.42-5.9.61-8.85.71-2.78.1-4.22,1.12-3.9,4.08.64,6-2.28,11.67-1.6,17.72.25,2.25-1.86,2.22-3.53,2.22H455.08c-2.24-3.83-1.46-7.81-.57-11.79,2.29-2.1,5.13-1.15,7.75-1.3,3.89-.21,4.19-.44,4.33-4.23.08-2.32-.3-4.68.5-7a2.19,2.19,0,0,1,.87-1c1.89-.85,3.9-.6,5.87-.62,6.23-.05,6.23,0,6.24-6.43,0-2.11,0-4.21,0-6.32-.22-7.07-.07-14.13-.07-21.18a6.71,6.71,0,0,1,.86-3.94c2.44-1.83,5.28-1,8-1.15,4-.24,4.58-.69,4.63-4.64.09-8.86,0-17.71,0-26.56,0-8.12,4.81-11,12.28-7.35v51.71c-1.43,1.34-3.23,1.07-5,1.14-4.7.18-5,.4-5,5.24,0,5.22,0,10.44,0,15.66C495.79,235.9,496.06,237.72,494.68,239.13Z" transform="translate(0)"/>
  <path class="cls-14" d="M81,411.47l0-13.33c1.21-1.45,2.91-1.27,4.5-1.29,5.73-.06,11.47-.09,17.2,0,4.63.08,5.58.95,5.65,5.44.15,8.63-.73,8,8.61,8,1.25,0,2.49,0,3.74.08,4.33.25,8.77-1,13,1a5.18,5.18,0,0,1,.92,3.16q.18,10.07,0,20.11a5.3,5.3,0,0,1-.89,3.18,17,17,0,0,1-13.08,0l.05,0c-1.73-2.46-1-5.28-1-7.95s-.94-4-3.71-3.74a6.12,6.12,0,0,1-.74,0c-6.75-.11-6.73-.11-6.85,6.56,0,1.71.22,3.51-1.1,4.95-3.73,0-7.47,0-11.19.17-2.16.12-2.41-.86-2.35-2.63.1-3.36,0-6.72,0-10.08-1.85-2.71-1-5.79-1.07-8.7,0-2.69-1-3.75-3.75-3.78S83.39,413.4,81,411.47Z" transform="translate(0)"/>
  <path class="cls-15" d="M146.9,39.81l0-13.48c3.25,0,6.5-.17,9.74,0,2.8.17,4.07-.53,3.92-3.68-.14-2.83-1.28-6.57,1.86-8.18A12.8,12.8,0,0,1,174.3,15c4.32,2.27,8.41,2.42,12.66,0a6,6,0,0,1,2.86-.64c8,.1,15.9-1.26,23.88-.82.15.17.3.35.46.52,1.1,3.16.71,6.4.43,9.61-.26,3-2.54,3.7-5.11,3.76-5.35.11-10.7,0-16,.05-5,.05-5.45.61-5.62,5.66-.08,2.32.48,4.76-1,6.88-4.15,1.82-8.5.68-12.76.89-4.48.1-8.95.13-13.42,0s-8.85.67-13.2-.59Z" transform="translate(0)"/>
  <path class="cls-16" d="M120.63,437.77l12.84-.06c1.21-1.09,2.72-1.15,4.21-1.16,6.1,0,12.2-.09,18.29,0,4.6.08,5.52,1,5.62,5.47.19,8.44-1.11,8,8.56,8,4.48,0,9-.12,13.44.06,3.92.15,4.88,1.05,4.95,4.94.05,3.08.6,6.22-.66,9.22l-.51.52c-12.46,0-24.92-.1-37.38,0-2.39,0-3.18-.53-3.13-3,.07-3.43,1.61-8.14-.64-10s-6.65-.53-10.12-.56c-4.23,0-8.47-.1-12.7.05-2.07.07-2.83-.48-2.73-2.65C120.82,445,120.66,441.39,120.63,437.77Z" transform="translate(0)"/>
  <path class="cls-17" d="M267.59,503.54H254.14c-1.58-1.77-1.11-4-1.14-6-.1-5.45-.07-5.4-5.64-5.49-2.3,0-4.72.49-6.79-1.07h0c-2-4-1.12-8.13-.62-12.24a2.33,2.33,0,0,1,.88-1c2.73-1.1,5.6-.62,8.4-.61s3.71-1,3.78-3.72c.08-3-.88-6.19,1.17-8.95,4.87-1.76,9.9-.62,14.86-.84,4.06.21,8.22-.91,12.17.89,2,4.44.71,9.1,1,13.66-.28,4.29,1.09,8.71-1.05,12.85l0-.05c-2.06,1.6-4.48,1.06-6.78,1.1-5.57.09-5.53,0-5.63,5.49C268.68,499.59,269.16,501.77,267.59,503.54Z" transform="translate(0)"/>
  <path class="cls-18" d="M505.79,160.45c-2.24,0-4.48.08-6.72,0-3.21-.14-4.45,1.33-4.42,4.49.08,10.08,0,20.16,0,30.25,0,4.7-.29,5-5.15,5h-8.21c-1.32-1.09-1.29-2.63-1.3-4.1q-.11-15.24,0-30.47a6.37,6.37,0,0,1,.81-3.57c1.88-1.72,4.23-1.16,6.42-1.25,5.16-.22,6.21-1.12,6.23-6.22,0-9.72.07-19.43.75-29.14.4-5.78,5.56-8.82,10.78-6.11a2.28,2.28,0,0,1,1.28,2.44c-.16,3,.33,6-.28,8.94Z" transform="translate(0)"/>
  <path class="cls-19" d="M240.66,478.26,240.6,491c-8.09,0-16.18-.09-24.28,0-2,0-3-.48-2.68-2.65a1.53,1.53,0,0,0,0-.37c-.24-3.19,1.43-7.54-.69-9.23s-6.18-.5-9.39-.53c-4.49,0-9-.11-13.45,0-2.05.06-2.84-.46-2.74-2.65.17-3.6,0-7.21,0-10.82l.08-.1c1.33-1.19,3-1.13,4.59-1.13,10.08,0,20.16-.07,30.24,0,5.13,0,6,.92,6,6.21.08,7.83-.12,7.19,7.46,7.27C237.47,477,239.29,476.8,240.66,478.26Z" transform="translate(0)"/>
  <path class="cls-20" d="M506,130.69c0-1.5,0-3-.12-4.49-.17-1.94,1-4.63-.65-5.67-2.29-1.43-5.33-.62-8-.4-1.81.14-1.69,1.79-1.79,3.19-.72,10.81-.83,21.63-.75,32.46,0,4.78-1.34,6.11-6.24,6.16-2.37,0-4.74,0-7.11,0a3.11,3.11,0,0,1-1.14-2.49c-.25-4.39-.15-8.79-.08-13.19-.11-7.44-.07-14.88,0-22.32,0-5.36,1.45-6.82,6.72-7.29,4.9-.45,4.91-.45,5.31-5.34a8.68,8.68,0,0,1,1.52-4.9,3.54,3.54,0,0,1,1.24-.73c2.91-.67,5.86-.38,8.79-.31s4.09,1.37,3.1,4.27C506.44,116.66,507.2,123.71,506,130.69Z" transform="translate(0)"/>
  <path class="cls-21" d="M213.7,13.52c-.21-9.7-.2-9.89,9.51-9.64a77.71,77.71,0,0,0,20.3-2.35c4.07-1,8,0,11.83.74,8.53,1.7,17.1,1.5,25.69,1.59,1.89,3.24,1.61,6.53.26,9.86-4,1.89-8.15.74-12.24.95q-14.21.21-28.42,0c-7.58.2-15.17.07-22.76.07a5.47,5.47,0,0,1-4.17-1.26Z" transform="translate(0)"/>
  <path class="cls-22" d="M81,411.47c3.34,0,6.69.11,10,0,2.12-.07,2.82.79,2.76,2.84-.12,3.58,0,7.18-.06,10.76-12.47,0-24.94-.12-37.41,0-2.4,0-3.24-.56-3.09-3.05.21-3.48,0-7,0-10.47a17.44,17.44,0,0,1,13.6-.06Z" transform="translate(0)"/>
  <path class="cls-23" d="M334.36,464.75c0,3.61-.16,7.22,0,10.83.09,2.15-.64,2.7-2.72,2.66-7.22-.12-14.45,0-21.67-.11-2.11,0-2.7.58-2.71,2.69,0,3.31,1.48,8.51-.59,9.5-3.34,1.6-8,.47-12.07.49-2-4.11-1.47-8.3-.4-12.51,2.37-2,5.21-1.06,7.86-1.22,4.08-.25,4.64-.81,4.9-4.83.17-2.65-.72-5.48,1.15-7.9a6.59,6.59,0,0,1,3.95-.8c7.25.33,14.56-.86,21.78.68Z" transform="translate(0)"/>
  <path class="cls-24" d="M441.48,53.18l0-26.77c.62,0,1.24-.11,1.85-.1,3.7.06,8.35-1.18,10.82.6s.71,6.68.77,10.21c0,2.12.71,2.79,2.79,2.71,3.08-.11,6.18.05,9.27.09,1.95,3.27,1.3,6.74.57,10.11-.5,2.35-2.59,2.78-4.7,2.84-2.72.07-5.5-.31-8,1.17C450.33,54.29,445.79,55.53,441.48,53.18Z" transform="translate(0)"/>
  <path class="cls-25" d="M40.5,53.17l12.72.18c2,4.51,1.72,9.06.2,13.62a6.15,6.15,0,0,1-3.89,1q-9.11.11-18.21,0c-1.48,0-3,0-4.16-1.21q0-6.69,0-13.38C31.56,51.36,36,51.58,40.5,53.17Z" transform="translate(0)"/>
  <path class="cls-26" d="M66.79,411.46l-13.6.06c-3.48,0-6.95-.12-10.42,0-1.84.07-2.31-.59-2.27-2.34.09-3.71,0-7.44,0-11.16,7.44,0,14.88.16,22.31-.11,3.43-.13,4.32,1.08,4.06,4.25S66.78,408.37,66.79,411.46Z" transform="translate(0)"/>
  <path class="cls-27" d="M387.6,437.77c0,3.61-.18,7.22,0,10.82.09,2.15-.63,2.71-2.72,2.68-7.84-.11-15.68,0-23.52,0l-.5-.51c-.95-4.44-1.41-8.87.34-13.25,4.36-1.78,8.92-.66,13.39-.86,4.18.17,8.42-.68,12.54.64Z" transform="translate(0)"/>
  <path class="cls-28" d="M27.16,66.73l26.11,0c1.91,4.24,1.69,8.5.14,12.79a2.31,2.31,0,0,1-1.27.72c-8.21.48-16.43,1-24.63-.3L27,79.47Z" transform="translate(0)"/>
  <path class="cls-12" d="M494.68,239.13c0-7.67.11-15.34-.06-23-.07-3.12,1.09-4.25,4.13-4,2.33.18,4.69,0,7,0v27a12.12,12.12,0,0,1-11.12,0Z" transform="translate(0)"/>
  <path class="cls-29" d="M454.94,53.33c1.93-2.31,4.58-1.47,7-1.52,4.72-.11,5-.32,5-5.17,0-2.24,0-4.48,0-6.72,4,0,7.95,0,11.92-.16,1.79-.06,2.4.61,2.34,2.37-.13,3.72-.11,7.45-.15,11.17-1.43,1.31-3.22,1-4.92,1.06-2.83.07-5.68-.21-8.41.81-4.15-.23-8.36.52-12.45-.71A.83.83,0,0,1,454.94,53.33Z" transform="translate(0)"/>
  <path class="cls-30" d="M467.66,54.77c.29-1.83,1.72-1.48,2.92-1.48,3.49,0,7,0,10.48,0l.21,13.45H467.7A14.13,14.13,0,0,1,467.66,54.77Z" transform="translate(0)"/>
  <path class="cls-31" d="M40.5,53.17l-13.36.18c0-3.73,0-7.46-.12-11.19-.05-1.76.57-2.45,2.36-2.39,3.73.12,7.46.1,11.19.14Q40.53,46.54,40.5,53.17Z" transform="translate(0)"/>
  <path class="cls-32" d="M361.33,451.25c0,3.73-.13,7.47,0,11.2.05,1.81-.54,2.36-2.32,2.29-3.73-.16-7.46-.12-11.2-.16-2-4.21-1.19-8.56-.62-12.89a2.37,2.37,0,0,1,1-1c4.4-.74,8.8-1.43,13.09.54Z" transform="translate(0)"/>
  <path class="cls-33" d="M347.81,451.24q0,6.67,0,13.34l-13.44.17-.09-.06c-2.1-4-1.17-8.17-.72-12.31a2.19,2.19,0,0,1,2-1.95C339.67,450.07,343.85,449,347.81,451.24Z" transform="translate(0)"/>
  <path class="cls-34" d="M428,411.52h13.52c0,3.73-.14,7.46,0,11.19.05,1.8-.51,2.38-2.31,2.31-3.72-.16-7.46-.12-11.19-.16A16.48,16.48,0,0,1,428,411.52Z" transform="translate(0)"/>
  <path class="cls-35" d="M93.76,26.42c0,3.25-.17,6.5,0,9.74.16,2.69-.58,3.89-3.51,3.68-3.36-.24-6.74-.08-10.11-.09,0-3.59.17-7.19,0-10.78-.08-2.15.7-2.8,2.78-2.7C86.57,26.43,90.17,26.38,93.76,26.42Z" transform="translate(0)"/>
  <path class="cls-36" d="M428,411.52q0,6.66,0,13.34l-13.44.17-.49-.47A26.33,26.33,0,0,1,414,412l.47-.49Z" transform="translate(0)"/>
  <path class="cls-6" d="M13.54,93V79.63L27,79.47l.09,0a19.39,19.39,0,0,1,.16,13.63A18.91,18.91,0,0,1,13.57,93Z" transform="translate(0)"/>
  <path class="cls-37" d="M441.52,411.6c0-3.6,0-7.2-.08-10.8-.07-2.07.68-2.9,2.79-2.82,3.59.13,7.2.07,10.79.08a16.86,16.86,0,0,1-.16,13.36Z" transform="translate(0)"/>
  <path class="cls-38" d="M481.19,385.14c0-3.59.06-7.18,0-10.77-.05-1.92.69-2.66,2.61-2.62,3.59.09,7.18,0,10.77,0,0,3.74,0,7.47.16,11.2.07,1.79-.53,2.39-2.32,2.32C488.66,385.15,484.93,385.18,481.19,385.14Z" transform="translate(0)"/>
  <path class="cls-39" d="M506.74,109.65c.17-2.3-.68-3.38-3.19-3.21-3,.19-5.94,0-8.91,0a17.5,17.5,0,0,1,0-13.46c3.94-.34,8,.74,11.83-.71C508.07,98.05,507.54,103.85,506.74,109.65Z" transform="translate(0)"/>
  <path class="cls-40" d="M267.59,503.54a82,82,0,0,0,0-8.59c-.36-3.46,1.07-4.33,4.25-4.07s6.23.07,9.34.07c0,3.49-.12,7,0,10.47.07,1.83-.56,2.36-2.33,2.28C275.07,503.55,271.33,503.59,267.59,503.54Z" transform="translate(0)"/>
  <path class="cls-41" d="M240.57,491c3.37,0,6.75.15,10.1-.1,2.94-.21,3.67,1,3.49,3.68-.19,3,0,6,0,9-4.34,0-9.87,1.57-12.68-.51S241,495.14,240.57,491Z" transform="translate(0)"/>
  <path class="cls-42" d="M294.56,478.2q0,6.3,0,12.61l-13.45.19q0-6.39,0-12.77A16.76,16.76,0,0,1,294.56,478.2Z" transform="translate(0)"/>
  <path class="cls-43" d="M374.85,26.2c-3.46,0-6.93-.1-10.37.14-2.75.19-3.35-1-3.23-3.45.15-3.08,0-6.17,0-9.26,3.45,0,6.91.11,10.35-.12,2.73-.18,3.38,1,3.25,3.44C374.66,20,374.82,23.11,374.85,26.2Z" transform="translate(0)"/>
  <path class="cls-44" d="M13.59,385.18c3.72,0,7.45.14,11.16.05,1.79,0,2.37.54,2.32,2.32-.1,3.47,0,6.94.06,10.42-3.6,0-7.2-.06-10.8.06-2.09.07-2.88-.71-2.8-2.81C13.65,391.88,13.58,388.53,13.59,385.18Z" transform="translate(0)"/>
  <path class="cls-45" d="M414.57,425c0,3.47-.15,7,0,10.43.05,1.81-.56,2.37-2.33,2.3-3.72-.15-7.45-.12-11.18-.16-2-4.21-1.63-8.47-.24-12.75a18.48,18.48,0,0,1,13.51.11Z" transform="translate(0)"/>
  <path class="cls-46" d="M401,425l0,12.61-13.42.17-.29-.08a17.69,17.69,0,0,1,.11-12.81A18.1,18.1,0,0,1,401,425Z" transform="translate(0)"/>
  <path class="cls-47" d="M454.86,411.42q.09-6.68.16-13.36h0a15.35,15.35,0,0,1,12.64-.15c0,3.73,0,7.46.08,11.19.05,1.76-.65,2.45-2.4,2.4C461.83,411.42,458.35,411.45,454.86,411.42Z" transform="translate(0)"/>
  <path class="cls-48" d="M107.24,437.61c0-3.34.05-6.69,0-10,0-1.9.67-2.78,2.6-2.59h.37c10.73-.45,10.73-.45,10.51,12.81Z" transform="translate(0)"/>
  <path class="cls-49" d="M467.63,397.92l-12.64.15c0-3.34.06-6.69-.06-10-.08-2.1.73-2.88,2.81-2.8,3.34.12,6.69,0,10,.05Z" transform="translate(0)"/>
  <path class="cls-50" d="M494.79,265.39q0-6.72-.07-13.44a12.28,12.28,0,0,1,11.12-.17q0,6.77,0,13.54A12.18,12.18,0,0,1,494.79,265.39Z" transform="translate(0)"/>
  <path class="cls-51" d="M494.79,265.39l11.09-.07c0,3.24-.13,6.49.08,9.72.18,2.82-.56,4.18-3.69,3.86a71.57,71.57,0,0,0-7.47,0Z" transform="translate(0)"/>
  <path class="cls-52" d="M505.84,251.78l-11.12.17q0-6.42-.05-12.82l11.12,0Z" transform="translate(0)"/>
  <path class="cls-53" d="M281,13.52c0-3.22,0-6.44,0-9.66,3.58,0,7.17.05,10.75-.07,2.06-.07,2.93.66,2.83,2.77-.11,2.35,0,4.7,0,7.05h0A17.39,17.39,0,0,1,281,13.52Z" transform="translate(0)"/>
  <path class="cls-54" d="M53.22,212.21l-12.68,0c-3.48,0-7-.25-10.44-.07-2.46.12-3.12-.68-3.09-3.11.12-12.18.06-24.37.07-36.56,2.51-2,5.48-1.18,8.25-1.16,3.06,0,4.2-1.13,4.11-4.17-.07-2.55-.58-5.23.88-7.63,2.61-1.66,5.53-.92,8.32-1,2.53-.05,3.45-1.08,3.53-3.57.09-3-.83-6.21,1.12-9a20.38,20.38,0,0,1,13.42,0c1.15,1.18,1.16,2.71,1.18,4.2.07,6,.1,12,0,17.94-.08,4.41-1,5.34-5.25,5.43-8.09.16-8.4-1.31-8.16,8.89,0,1.12.19,2.24.18,3.36-.46,6.93-.12,13.88-.24,20.82,0,1.72.17,3.48-.69,5.09Z" transform="translate(0)"/>
  <path class="cls-55" d="M40.66,159.68c0,3.48-.16,7-.09,10.43,0,1.75-.51,2.4-2.32,2.36-3.72-.09-7.45,0-11.17.05.76-8.63-2-17.3,0-25.9,1.92-8.31-.56-16.55-.11-24.82.12-2.17-1.74-2.49-3.41-2.55-2.37-.08-4.73-.06-7.1,0-2,0-2.95-.9-2.92-2.93,0-3.24,0-6.47,0-9.71l0-.21c.31-.21.59-.54,1-.57,8.62-.72,17.25-1.14,25.85.24,1.29,1.09,1.23,2.63,1.3,4.11.38,7.47.38,7.47,8.12,8a6,6,0,0,1,3.54.94c1.93,4.27,1.16,8.66.64,13a2.4,2.4,0,0,1-.84,1.05c-2.61,1.14-5.38.6-8.08.66-2.33.06-3.39,1-3.37,3.36,0,3.1.06,6.2,0,9.31C41.36,150.89,42.68,155.41,40.66,159.68Z" transform="translate(0)"/>
  <path class="cls-56" d="M40.48,106.55l-26.94-.17,0-13.37H27c1-1.85,2.84-1.93,4.58-1.86,8.2.3,16.43.16,24.53,1.85,2.34.49,4.72.26,7.08.39,3.9.21,5.05,1.25,5.37,4.76.5,5.36-.69,7.55-4.61,8.39-2.93.63-6-.18-8.91.7a11.52,11.52,0,0,1-2.1.28C48.8,107.34,44.51,108.6,40.48,106.55Z" transform="translate(0)"/>
  <path class="cls-57" d="M120.62,411.44c-3.35,0-6.71-.15-10,.06-2.51.16-3.61-.45-3.35-3.19.25-2.58-.06-5.21.09-7.81.11-1.95-.53-2.55-2.5-2.52-7.93.14-15.87.12-23.81.16-1.64-2-.66-4.27-.71-6.39-.15-6.5-.06-6.5-6.71-6.51l-6.72,0c-2.08-4.45-1.79-9-.22-13.46l.24-26.95c1.42-1.35,3.22-1.12,4.94-1.13,5.33-.05,10.67,0,16,0,4.39,0,4.65-.35,4.76-4.63.06-2.1-.22-4.22.45-6.28a2.54,2.54,0,0,1,.84-1.08c4.27-1.18,8.58-.91,12.89-.2a2.22,2.22,0,0,1,1,.9,10.19,10.19,0,0,1,.59,4.37c0,7.32-.46,6.92,7.2,7,1.94,0,4-.33,5.57,1.37a6.66,6.66,0,0,1,.78,3.6c0,16.39.17,32.78-.06,49.16.15,3.18.08,6.35,0,9.53C121.87,408.84,121.78,410.31,120.62,411.44Z" transform="translate(0)"/>
  <path class="cls-58" d="M80.23,318.68c-3.6-.05-7.2-.17-10.79-.12-1.75,0-2.72-.2-2.68-2.36.14-7.95.1-15.89.12-23.84,4.47-2,9-1.61,13.49-.25,1.56,2.23.95,4.79,1,7.23.16,4.14.41,4.51,4.5,4.54,9.69.06,19.38,0,29.08,0,2,0,4-.26,5.76,1,2.14,4.39.81,9,1.06,13.58-.24,4.55,1,9.21-1,13.63a18.22,18.22,0,0,1-13.58-.07l0,0c-1.87-2.68-1-5.73-1.06-8.62,0-2.65-1-3.81-3.72-3.73-3,.09-5.91.09-8.87,0C89.11,319.42,84.55,320.69,80.23,318.68Z" transform="translate(0)"/>
  <path class="cls-59" d="M66.84,278.88c-2.71-1.42-5.63-.62-8.45-.76-3.92-.19-5-1.23-5.11-5.2-.09-6,2.33-11.69,1.55-17.73-.2-1.51,1-1.82,2.21-1.81,1.49,0,3,0,4.48,0,4.73-.09,7.7-2.73,7.39-7.39-.26-3.95,1.13-5.12,4.82-4.64,2,.25,4,.3,5.52-1.48.81-.94,2.06-.72,3.17-.73l11.21-.07.5.45a25.54,25.54,0,0,1,.18,12,2.17,2.17,0,0,1-.9.95c-2.77,1-5.65.52-8.48.55-2.48,0-3.63,1-3.58,3.52.06,3,.07,5.95,0,8.93-.11,4.31.52,8.66-.46,12.94a2.29,2.29,0,0,1-1,1C75.53,280.15,71.14,280.8,66.84,278.88Z" transform="translate(0)"/>
  <path class="cls-60" d="M80.16,225.61c-8.06,0-16.13-.05-24.19.07-2.08,0-2.83-.51-2.74-2.68.16-3.59,0-7.19,0-10.79l.14-.18c2.47-1.72,5.29-1,8-1,2.9,0,4.41-.87,4.3-4-.31-9.14.72-8.79,9.37-8.75,1.84,0,3.75-.2,5.36,1.05,2,4.14.76,8.54,1,12.82.16,3.23.09,6.46.05,9.69A5.06,5.06,0,0,1,80.16,225.61Z" transform="translate(0)"/>
  <path class="cls-61" d="M93.63,239.06q0-6.72.1-13.42c-2.21-4.35-.8-9-1.09-13.49.26-4.33-1.06-8.78,1-13,3.93-1.69,8-1,12-.62,2.14.22,2.6,2.07,2.69,3.88a93.93,93.93,0,0,1,0,9.64c.19,7.72.08,15.45.06,23.18a6.51,6.51,0,0,1-.91,3.94,18.55,18.55,0,0,1-13.69,0Z" transform="translate(0)"/>
  <path class="cls-62" d="M93.78,332.19c0,3.23-.14,6.46,0,9.68.1,2.33-.84,3-3,3-8-.09-15.9,0-23.84,0,0-4.09-1.45-9.29.51-11.95s7.42-.52,11.34-.83l1.49-.11C84.78,330.4,89.31,330,93.78,332.19Z" transform="translate(0)"/>
  <path class="cls-63" d="M93.71,212.06q0,6.8,0,13.58l-13.57,0,.15-13.37C84.75,210.22,89.22,210.44,93.71,212.06Z" transform="translate(0)"/>
  <path class="cls-64" d="M93.78,332.19l-13.55-.27V318.68H93.75a16.45,16.45,0,0,1,0,13.26Z" transform="translate(0)"/>
  <path class="cls-65" d="M66.65,371.76q.1,6.74.22,13.46c-3.59,0-7.19-.05-10.77.07-2.05.07-2.77-.64-2.87-2.75-.53-10.76-.59-10.76,10.07-10.76Z" transform="translate(0)"/>
  <path class="cls-66" d="M66.84,278.88l13.37-.09a17,17,0,0,1,0,13.54l-13.36,0Z" transform="translate(0)"/>
  <path class="cls-67" d="M266.11,93c-1.41-2.46-3.82-1.51-5.76-1.41-3.05.16-4.43-.73-4-4a13.33,13.33,0,0,0-.1-4.84c-.6-2.38-2.64-3.18-4.91-3.26-2.62-.08-5.25-.11-7.86,0s-3.56-.8-3.62-3.44c-.2-7.83-.36-7.18-8.1-8-9.5-1-18.87.39-28.3.13-3.51-.1-6.87,1.22-10.4.8-2.09-.25-4.25-.24-5.61-2.26a37.53,37.53,0,0,0,1.24-10.55,3.8,3.8,0,0,1,1.17-3.36c3.64-1.34,7.4-.55,11.1-.68q6.42-.18,12.82,0c7.58-.19,15.15-.07,22.73-.06a7,7,0,0,1,4,.83c2.1,2.46,1.18,5.44,1.31,8.21.2,4.17.33,4.4,4.47,4.47,2.73,0,5.46-.05,8.19,0q20-.24,40.07,0c8.66-.12,17.31-.17,26,0,4.39.12,8.8-.46,13.17.41a2.57,2.57,0,0,1,1.09.84,26.2,26.2,0,0,1,.16,12.2,2.2,2.2,0,0,1-1,1c-4.34,1-8.71.53-13.09.35-7.54-1.52-15,.37-22.57.3-2.24,0-2.39,1.62-2.52,3.34-.23,3,.71,6.2-.94,9.1-2.62,1.6-5.53.82-8.32,1-3.88.18-4.05.36-4.23,4.31-.13,2.78.68,5.7-1,8.3a22.59,22.59,0,0,1-13.35.12c-1.46-1.29-1.32-3.07-1.33-4.75A84.1,84.1,0,0,0,266.11,93Z" transform="translate(0)"/>
  <path class="cls-68" d="M240.54,93.06l13.56,0c2.25,4.31.82,8.93,1.11,13.4q.16,6.4,0,12.82c-.26,4.53,1,9.17-1,13.57-4,1.94-8.21,1.09-12.36.68a2.48,2.48,0,0,1-2-2,23.66,23.66,0,0,1-.36-5.94c-.06-5-.21-5.16-5.34-5.18-5.36,0-10.72,0-16.07,0-6.05-.07-7.72-1.74-7.79-7.86,0-2.09-.36-4.26.92-6.17,1.62-1.23,3.53-1,5.36-1,6.2,0,12.4,0,18.59,0,3.86-.05,4.13-.45,4.34-4.29C239.61,98.33,238.78,95.51,240.54,93.06Z" transform="translate(0)"/>
  <path class="cls-69" d="M240.54,93.06c0,3.46-.09,6.94.11,10.4.15,2.56-.94,3.1-3.26,3.07-8.67-.08-17.34,0-26,0a12.51,12.51,0,0,1-10.66.09c-1.44-4.56-1.79-9.1.25-13.6Z" transform="translate(0)"/>
  <path class="cls-70" d="M53.28,79.49q0-6.36,0-12.72,0-6.72-.05-13.42c3.6,0,7.21,0,10.8-.1,2.12-.08,3,.74,2.77,2.82a3.66,3.66,0,0,0,0,.74c.27,3.18-1.4,7.28.77,9.29s6.17.46,9.37.64c1.12.06,2.24.05,3.35.07,1.86,4.25,1.61,8.53.19,12.83-.31.21-.58.53-1,.56-8.57.67-17.14,1.07-25.69-.2Z" transform="translate(0)"/>
  <path class="cls-71" d="M80.29,79.47q0-6.33,0-12.66l40.35,0c2.18,4,1.24,8.16.64,12.31a2.3,2.3,0,0,1-1,1c-4.68,1.13-9.43.42-14.15.54-4.11.1-8.22.12-12.34,0-3.23.16-6.45.1-9.68,0C82.72,80.62,81.32,80.61,80.29,79.47Z" transform="translate(0)"/>
  <path class="cls-67" d="M160.44,66.76H149.58c-3.28,0-5.3-1.19-4.89-4.89.09-.86-.06-1.75,0-2.62.26-2.71-.84-3.74-3.64-3.79-9.89-.17-9.89-.26-9.86-10.13,0-5.13.43-5.54,5.58-5.55l10.11,0,.16-.1c1.73,2.74.94,5.8,1,8.72,0,2.7,1.06,3.75,3.76,3.75s5.48-.61,8,.89C161.52,57.56,161,62.16,160.44,66.76Z" transform="translate(0)"/>
  <path class="cls-72" d="M160.44,66.76c-1.58-4.39-.36-8.94-.77-13.39a2.45,2.45,0,0,1,1.12-.84c4.42-.77,8.87-.28,13.32-.35,3.82-.19,7.64-.09,11.45,0,1.47,0,3-.05,4.12,1.2,0,2.48-.14,5,0,7.45a7,7,0,0,1-2.28,6Z" transform="translate(0)"/>
  <path class="cls-73" d="M147,79.56l26.91,0c2,4.26,1.27,8.65.57,13a2.3,2.3,0,0,1-1,1c-8.89.66-17.78,1.43-26.64-.43C145.28,88.62,145,84.07,147,79.56Z" transform="translate(0)"/>
  <path class="cls-74" d="M201,93.05v13.39a4.22,4.22,0,0,1-3.41,1.19q-10.25.16-20.49,0a5.48,5.48,0,0,1-3.19-.87A17.86,17.86,0,0,1,173.94,93l-.05-.1a17.86,17.86,0,0,1,13.55.06Z" transform="translate(0)"/>
  <path class="cls-75" d="M147,79.56q0,6.69,0,13.39c-3.83,2.3-8,.84-12,1.15-4.81-.26-9.72,1.05-14.42-.93a19.15,19.15,0,0,1,.16-13.7v0a15.81,15.81,0,0,1,12.8,0Z" transform="translate(0)"/>
  <path class="cls-76" d="M187.44,93l-13.55-.06q0-6.66,0-13.33c3.58,0,7.17,0,10.75-.12,2.06-.08,2.89.63,2.82,2.75C187.34,85.81,187.44,89.4,187.44,93Z" transform="translate(0)"/>
  <path class="cls-77" d="M254.14,106.55q0-6.76,0-13.53l12,0c1.8.25,1.47,1.65,1.49,2.82,0,3.54,0,7.08.07,10.62l-.5.5C262.8,107.88,258.44,108.36,254.14,106.55Z" transform="translate(0)"/>
  <path class="cls-78" d="M133.49,79.47l-12.8,0-.06-12.67c3.08,0,6.18.11,9.25-.1,2.69-.19,3.84.61,3.64,3.48C133.29,73.28,133.48,76.38,133.49,79.47Z" transform="translate(0)"/>
  <path class="cls-79" d="M294.58,92.89c0-3.61,0-7.21,0-10.82,0-1.34.11-2.61,1.89-2.53,7.33.32,14.59-1.33,21.91-.75a12.44,12.44,0,0,1,2.47.73c1.17,1.35,1,3,1.06,4.61,0,8.56-.62,7.7,7.93,7.77a7.83,7.83,0,0,1,4,.67l.45.48c0,3.49-.1,7,.06,10.49.1,2.33-.82,3.09-3.06,3-2.62-.14-5.25,0-7.87,0-2-.08-2.52.74-2.64,2.64-.6,10.14-.65,10.12,9.38,10.13a13.36,13.36,0,0,0,6.06-1.4c3.33-1.58,7.27-1.82,10.36,0a13.45,13.45,0,0,0,8.83,2c3.54-.37,4.71,1.12,4.43,4.52-.23,2.73-.05,5.5-.05,8.24-1.53,1.49-3.49,1.16-5.32,1.17-8.75,0-17.49,0-26.23,0-4.26,0-4.58.49-4.76,4.79-.11,2.58.56,5.27-1,7.68-4.91,2-10,.68-15,.93-4.27.1-8.55.12-12.83,0-4.49.12-9,.13-13.49,0s-9.05.9-13.43-.83c-2.22-4.27-1.18-8.73-.77-13.15a2.36,2.36,0,0,1,.86-1c2.73-1.16,5.62-.65,8.44-.65s3.76-1,3.79-3.75c0-2.92-.68-6,.83-8.76,2.22-1.54,4.76-.91,7.17-1,4.76-.17,5.29-.67,5.45-5.33.08-2.18-.41-4.46.92-6.47,2.63-1.6,5.54-.86,8.33-.93,2.53,0,3.66-1.08,3.47-3.58a6.06,6.06,0,0,1,0-.74c.13-6.83.13-6.81-6.77-7C297.75,94.06,295.92,94.4,294.58,92.89Z" transform="translate(0)"/>
  <path class="cls-80" d="M322.32,146.2c0-3.23.13-6.47-.05-9.69-.17-3,1.12-3.85,4-3.83,11.18.1,22.37,0,33.55,0A49.94,49.94,0,0,1,370.9,132c2.22.11,3.21-.9,3.13-3.12a33.1,33.1,0,0,1,.74-9.62c4.26-1.94,8.56-1.64,12.88-.22a20.74,20.74,0,0,1,.09,13.65c-2.39,1.88-5.22,1.18-7.87,1.18-2.86,0-4,1.13-3.95,4,.07,5.56.05,11.13,0,16.7,0,1.83.2,3.74-1.1,5.33a21.23,21.23,0,0,1-13.55.18c-1.86-2.56-1-5.51-1.14-8.3-.19-4-.38-4.27-4.26-4.32-6.71-.1-13.41.08-20.12-.08-3.22.16-6.43.09-9.64,0C324.75,147.32,323.36,147.31,322.32,146.2Z" transform="translate(0)"/>
  <path class="cls-79" d="M400.26,79.63c1.49,3.48.6,7.12.61,10.68,0,1.8-1.6,2-3,1.92-6.22-.39-12.36.8-18.56.92-4.85.09-9.44,2.73-14.54,2.29-1.48-.13-1.14,1.63-1.19,2.69-.41,8.36-.4,8.36-8.63,8.36-1.12,0-2.25-.09-3.36,0-2.85.27-3.76-1.28-3.76-3.79,0-3.24,0-6.48,0-9.71l.46-.45c2.62-1.12,5.4-.66,8.1-.59,2.95.07,4-1.14,3.89-4s-.45-5.47.51-8.14a2.23,2.23,0,0,1,1-.92c4.4-1.06,8.86-.38,13.3-.5,7.05-.22,14.09-.09,21.14-.06C397.63,78.35,399.18,78.31,400.26,79.63Z" transform="translate(0)"/>
  <path class="cls-81" d="M414.46,119.19c0-3.37.09-6.74,0-10.11,0-2,.74-2.66,2.66-2.61,3.37.08,6.74,0,10.11,0a19,19,0,0,1,14.23,0l13.5,0,.49.54c1.45,5.76.46,11.62.63,17.43.08,2.79.7,5.74-1,8.35a20.81,20.81,0,0,1-13.63.2c-1.55-2-1.07-4.29-1.11-6.49-.09-6.11-.05-6.11-6.3-6.12-5,0-10,0-15,0C417.42,120.35,415.73,120.53,414.46,119.19Z" transform="translate(0)"/>
  <path class="cls-82" d="M494.67,93l0,13.46-.71,0a5.84,5.84,0,0,1-4.19,1.16c-7.31,0-14.61.14-21.92-.07-4.29-.29-8.74,1.12-12.87-1.1h0c0-3.23.2-6.47-.06-9.67s1.06-3.92,4-3.88C470.85,93.09,482.76,93,494.67,93Z" transform="translate(0)"/>
  <path class="cls-83" d="M414.46,119.19c7.86,0,15.72.1,23.58,0,2.52,0,3.64.62,3.48,3.34-.2,3.36,0,6.74,0,10.1-1.11,1.31-2.66,1.27-4.14,1.28q-15.9.11-31.79,0a6.69,6.69,0,0,1-3.61-.79,22.16,22.16,0,0,1,.54-13.87Z" transform="translate(0)"/>
  <path class="cls-79" d="M452.71,66.87c0,2.61,0,5.23,0,7.84,0,1.34-.16,2.28-1.89,2.57a165.77,165.77,0,0,1-32.47,2.32c-3.14-.1-4-1-3.93-4,.13-8.79,0-8.79,8.78-8.79,1.62,0,3.23,0,4.85,0,.29-.22.54-.57.91-.62a102.6,102.6,0,0,1,22.57-.1A1.92,1.92,0,0,1,452.71,66.87Z" transform="translate(0)"/>
  <path class="cls-79" d="M387.53,119.26l-12.76,0c-3.57-3.18-2.16-7.36-2-11.17.06-1.61,2-2.28,3.47-2.25,7.66.15,15.32.46,23,.7,1.83.06,1.8,1.34,1.8,2.62,0,3.35,0,6.7,0,10.05A17.1,17.1,0,0,1,387.53,119.26Z" transform="translate(0)"/>
  <path class="cls-84" d="M452.71,66.87l-24.66-.13q0-6.72,0-13.43l13.41-.13,13.46.15a5.4,5.4,0,0,0,.13.7,15.86,15.86,0,0,1-.15,12.72Z" transform="translate(0)"/>
  <path class="cls-85" d="M400.26,79.63l-25.44-.13a14.63,14.63,0,0,1,0-12.72L386,66.7a20.18,20.18,0,0,1,14.24,0A23.44,23.44,0,0,1,400.26,79.63Z" transform="translate(0)"/>
  <path class="cls-86" d="M387.53,119.26l13.46-.08,1.51.06c-.29,4.46.68,9-.77,13.36a2.31,2.31,0,0,1-1.05.83c-4.25.48-8.49.87-12.7-.25l-.48-.48Z" transform="translate(0)"/>
  <path class="cls-79" d="M441.46,106.46l-14.23,0c0-3.35.09-6.71,0-10-.1-2.62,1-3.57,3.55-3.46a72.85,72.85,0,0,0,7.82,0c2.35-.14,3,.89,2.93,3.08C441.37,99.51,441.46,103,441.46,106.46Z" transform="translate(0)"/>
  <path class="cls-79" d="M400.25,66.66,386,66.7c0-3-.05-6,0-9s1.18-4.68,4.52-4.5,7,0,10.45,0C399.43,57.67,400.62,62.2,400.25,66.66Z" transform="translate(0)"/>
  <path class="cls-87" d="M347.79,93l-13.51,0,.07-.11a16.5,16.5,0,0,1,0-13.38l-.06-.1a19.61,19.61,0,0,1,13.65-.16c1.54,4.57,1.81,9.12-.19,13.64Z" transform="translate(0)"/>
  <path class="cls-88" d="M454.92,66.75,455.07,54c4.19.37,8.47-.83,12.59.74q0,6,0,12Z" transform="translate(0)"/>
  <path class="cls-89" d="M441.35,357.55c0,8.33,0,16.67.16,25,0,2.06-.48,2.86-2.67,2.77-3.6-.16-7.22,0-10.82,0-1.89-2.28-1-5-1.14-7.53-.23-4.36-.66-4.86-5.05-4.93-5.79-.08-6.66.51-6.94,4.78-.09,1.36,0,2.73-.2,4.09-.23,1.73-1,3.25-2.66,3.75-3.83,1.14-7.71,1.74-11.46-.42-.89-1.61-.75-3.37-.76-5.1,0-5.84,0-11.67,0-17.51a7.82,7.82,0,0,1,.73-4c2.33-2.12,5.2-1.25,7.86-1.31,6.42-.16,7-.64,7.2-7.07.16-4.84.88-5.61,5.3-5.69,5.13-.09,6.42,1,6.68,5.74.33,6.06.48,6.14,6.56,6.26C436.58,356.48,439.17,355.77,441.35,357.55Z" transform="translate(0)"/>
  <path class="cls-90" d="M441.35,357.55c-3.61,0-7.22-.05-10.84,0-2.82,0-4.14-1.29-4-4.09,0-1,0-2,0-3,0-4.92,0-4.68-5-5-3.72-.24-5,.78-4.8,4.69.32,7.85-.19,8.13-8.17,8.13H401c-4.51,1.91-9.05,1.62-13.62.22a20.39,20.39,0,0,1-.06-13.7c4.32-2.23,8.94-.84,13.42-1.11,3.46-.11,6.92-.1,10.38,0,2.67.06,3.78-1,3.77-3.7s-.6-5.47.86-8c3.8-1.78,7.71-1.13,11.63-.59a2.37,2.37,0,0,1,1,.85,8.92,8.92,0,0,1,.67,4.33c0,7.73-.4,7.07,7.35,7.13,1.7,0,3.5-.22,4.91,1.11.09.5.17,1,.26,1.49C441.52,350.05,441.43,353.8,441.35,357.55Z" transform="translate(0)"/>
  <path class="cls-91" d="M401,385.28c2.75,0,5.49,0,8.23,0,2.9-.06,4.53-1.17,4.54-4.51,0-9,.14-9,9-9,5,0,5.18.22,5.21,5.34,0,2.74,0,5.49,0,8.23,0,3.35-.17,6.71,0,10,.12,2.21-.72,2.71-2.76,2.64-3.59-.11-7.19,0-10.79.09a19.38,19.38,0,0,1-13.55,0A15.9,15.9,0,0,1,401,385.28Z" transform="translate(0)"/>
  <path class="cls-92" d="M401,398l13.46.12,0,13.37,0,0c-4.43,2-8.93,1.48-13.44.34-2.06-4.35-1.34-8.81-.52-13.28Z" transform="translate(0)"/>
  <path class="cls-93" d="M281,13.52l13.63.08c0,3.35.06,6.7-.12,10-.11,2.16.72,2.72,2.78,2.71,7.82-.07,15.64,0,23.46.06,1.6,1.76,1.13,3.95,1.16,6,.09,6.19.06,6.17,6.39,6.23,2.07,0,4.23-.34,6.06,1.08,8,0,16,.13,23.94,0,2.25,0,3.11.55,3,2.91-.2,3.48-.07,7-.09,10.47-1.13,1.2-2.63,1.29-4.12,1.29-7.54,0-15.07.14-22.61-.07-4.53.11-9.06.13-13.59,0-8.51-.1-17,.56-25.52-.37a2.77,2.77,0,0,1-1.13-.81c-1.32-2.92-.57-6-.75-9a31.58,31.58,0,0,0-.45-4.36,46.72,46.72,0,0,1-.29-8.19c0-2.29-.85-3.59-3.27-3.45a19.26,19.26,0,0,1-10.39-2.37c-1.94-1-4.16-.42-6.26-.54-3.65-.23-4.67-1.15-4.75-4.77-.05-2.3-.65-4.75,1-6.82Z" transform="translate(0)"/>
  <path class="cls-94" d="M334.42,53.34l26.78-.18q0,6.81.07,13.61l-.54.49c-3.49,1.28-7.11.55-10.67.66-4,.12-7.93.06-11.89,0a5.94,5.94,0,0,1-3.88-1V66.7A16.37,16.37,0,0,1,334.42,53.34Z" transform="translate(0)"/>
  <path class="cls-95" d="M334.38,39.74c-3.37,0-6.76-.15-10.11.1-2.94.22-3.66-1-3.5-3.68.19-3.24,0-6.49,0-9.74,3.46,0,6.93,0,10.38-.15,2.38-.13,3.32.58,3.19,3.08C334.17,32.81,334.35,36.27,334.38,39.74Z" transform="translate(0)"/>
  <path class="cls-96" d="M374.85,66.78q0,6.36,0,12.72H361.3a15.24,15.24,0,0,1,0-12.74v0Z" transform="translate(0)"/>
  <path class="cls-97" d="M455,252l.09,11.92-.24,1.48c-1.3,1.24-2.95,1.12-4.54,1.13-8.49.07-7.63-.67-7.7,7.89,0,1.61,0,3.23-1.09,4.59q-.08,13.05-.17,26.11c-1.07,1.07-2.47,1.11-3.84,1.12-6.36.05-12.73.12-19.1,0-4-.09-4.93-1-5-4.89-.16-10.34-.52-20.69,1.56-30.92.63-3.11,2.46-4.36,5.44-4.62,5.44-.47,5.57-.67,5.67-6,0-.75,0-1.5,0-2.25.3-6.07,2.11-7.89,8.23-8.23,4-.23,4.5-.8,4.49-4.64,0-2.54-1-3.6-3.58-3.6-2.85,0-5.84.17-7.79-2.63-.9-4.29-1.33-8.56.37-12.78,4.36-2.11,9-.8,13.49-1.05,2.86-.15,5.72,0,8.58-.08,2.64,0,3.87-1.27,3.86-3.89,0-1.62,0-3.24.11-4.86.18-3,1.77-4.51,4.75-4.64l.37,0c8.55-.67,9.83.51,9.85,9.08,0,1.86,0,3.73-.05,5.6-.25,4.49,1,9.1-1,13.45l-.23-.09c-1.54,1.47-3.49,1.12-5.33,1.16-6.1.1-6.09.08-6.18,6.33C456,248.42,456.29,250.35,455,252Z" transform="translate(0)"/>
  <path class="cls-98" d="M428,238.37c2.64,1.93,5.7,1.66,8.66,1.46,2.68-.17,3.38.88,3.37,3.44,0,7,.09,7-6.77,7.1-4.31.09-5.77,1.45-6,5.85-.11,2.24-.05,4.49,0,6.73,0,2.62-1.19,3.94-3.84,3.91-1.38,0-2.75,0-4.12,0-2.08.1-2.94,1.29-3.31,3.32-1.9,10.3-1.35,20.7-1.53,31.09-.05,2.84.63,3.95,3.72,3.86,7.72-.22,15.46-.08,23.19-.08q0,6.69.08,13.4c-2.61,2.1-5.69,1-8.57,1.25a30.9,30.9,0,0,1-4.81-.05c-4.52.11-9,.12-13.56,0s-9.17.95-13.61-.88c-2-4.42-.75-9.07-1-13.62q-.18-6.45,0-12.91c-.19-7.46-.07-14.92-.06-22.38a7.54,7.54,0,0,1,.69-3.62c1.7-2.17,4.16-2,6.51-2,6.29-.17,6.29-.15,6.31-6.59,0-4.62,0-9.23,0-13.84,0-1.61-.08-3.26.95-4.67C418.77,237.06,423.4,238.05,428,238.37Z" transform="translate(0)"/>
  <path class="cls-99" d="M441.51,279c0-3.45.12-6.91-.09-10.35-.16-2.7.95-3.42,3.44-3.29,3.32.16,6.66,0,10,0,0,4.42,2,10.32-.75,12.82C451.66,280.37,445.84,278.84,441.51,279Z" transform="translate(0)"/>
  <path class="cls-100" d="M428,318.67l13.39-.2v13.68a18.33,18.33,0,0,1-13.47,0L428,332A16.14,16.14,0,0,1,428,318.67Z" transform="translate(0)"/>
  <path class="cls-101" d="M428,332.11l13.47,0q0,6.33-.08,12.66c-3.47,0-6.95-.12-10.42,0-2.32.09-3.07-.81-3-3C428.07,338.57,428,335.34,428,332.11Z" transform="translate(0)"/>
  <path class="cls-99" d="M467.73,225.73c0-3.36,0-6.71-.05-10.06,0-2.37-1-3.6-3.63-3.55-10.72.19-8.95-1.17-9.09,8.7-.06,4.43-.37,4.79-4.95,4.82-2.86,0-5.72,0-8.57,0-2.17-4.32-.79-8.93-1.07-13.4-.11-4.26-.12-8.52,0-12.78-.12-4.49-.13-9,0-13.48s-.91-9.06.85-13.45c4.31-2.18,8.79-1.21,13.24-.7a2.33,2.33,0,0,1,1,.92c1.29,5.27.35,10.62.62,15.93.07,1.49,0,3,0,4.47.05,4.93.28,5.15,5.36,5.13,4.75,0,5-.28,5.07-5.07.06-6.95-.08-13.91.06-20.86.21-4.27-1-8.64.9-12.79,4.53-1.51,9.05-1.76,13.55.14.09.76.17,1.52.26,2.27v38.22q-.09,12.69-.17,25.37C476.7,227.58,472.23,227.35,467.73,225.73Z" transform="translate(0)"/>
  <path class="cls-102" d="M467.73,225.73l13.41-.19c0,3.33-.17,6.67.1,10,.26,3.09-1,3.82-3.83,3.66-3.19-.19-6.4,0-9.6,0Z" transform="translate(0)"/>
  <path class="cls-99" d="M455,252c0-2.84.17-5.69-.08-8.51-.32-3.55,1.2-4.61,4.52-4.35,2.7.21,5.43,0,8.15,0,0,4.17,1.86,9.73-.75,12.1C464.55,253.26,459.06,251.83,455,252Z" transform="translate(0)"/>
  <path class="cls-103" d="M240.66,478.26c-3.23,0-6.47-.2-9.69,0-2.78.15-4-.52-3.92-3.66s1.5-7.2-.74-9.28c-2-1.88-5.95-.54-9-.57-9.95-.08-19.89-.06-29.83-.07,0-3.36-.15-6.73,0-10.08.13-2.57-.7-3.49-3.36-3.43-6.72.16-13.44-.07-20.15.12-2.82.08-3.94-.84-3.53-3.61a4.56,4.56,0,0,0,0-.74c0-9.2,0-9.2-9.07-9.2H133.47q0-13.12,0-26.25c-1.92-4.28-1.23-8.67-.54-13.06a2.21,2.21,0,0,1,1-1c2.53-.94,5.19-.62,7.78-.55,3.09.09,4.17-1.25,4.15-4.24-.06-10.71,0-21.43,0-32.15,0-7.73,0-15.46,0-23.18,0-4.17-.6-4.61-4.81-4.83-2.57-.13-5.26.55-7.66-1-1.92-4.17-.71-8.56-.93-12.84.2-4.49-.89-9.06.82-13.46,2.61-2.05,5.69-1.2,8.57-1.19s4.2-1.1,4.11-4.14c-.07-2.53-.59-5.2.94-7.57,2.6-1.78,5.56-1.07,8.36-1,3,0,4.26-1,4.2-4.12-.06-2.8-.72-5.75,1-8.38,2.08-1.51,4.49-1,6.78-1.05a38.72,38.72,0,0,0,7-.48c6.71-.64,13.45-.17,20.18-.3,4.92-.1,5.24-.38,5.47-5.31.11-2.51,0-5.2,2.81-6.41a11.11,11.11,0,0,1,10.1.31c2.18,1.2,2,3.51,2.19,5.63.14,1.8-.7,4.24,1.27,5.12a13.05,13.05,0,0,0,8.43.36c1-.24,1.17-1.2,1.29-2.09a31.94,31.94,0,0,0,.14-4.48q0-51.81,0-103.61c0-2.32-.47-4.77,1.09-6.88a18.81,18.81,0,0,1,13.73.11c1.13,1.51,1,3.3,1,5q0,96.75,0,193.5c0,.25,0,.5-.07.75.06,26.2.18,52.41,0,78.61.13,9,.16,18,0,27,.15,3.24.09,6.48,0,9.73a5.21,5.21,0,0,1-1.15,3.84Z" transform="translate(0)"/>
  <path class="cls-104" d="M133.43,398v13.48l-12.81,0q.07-6.68.14-13.36A14.94,14.94,0,0,1,133.43,398Z" transform="translate(0)"/>
  <path class="cls-105" d="M213.7,13.48l26.93.2c1.91,4.21,1.6,8.46.23,12.74-4.33,2-8.88.75-13.33,1-3.08.07-6.15.06-9.23,0-2.49,0-3.54,1-3.56,3.53,0,2.81.41,5.67-.52,8.43a2.15,2.15,0,0,1-.94,1c-4.14,1.12-8.36.43-12.55.55-3.32.18-6.65.1-10,0-1.46,0-3,.06-4.1-1.22,0-3.12-.06-6.25,0-9.36.09-2.7,1.08-4.26,4.33-4.13,6.35.26,12.73,0,19.09.11,2.55,0,3.66-.88,3.56-3.49C213.56,19.72,213.68,16.6,213.7,13.48Z" transform="translate(0)"/>
  <path class="cls-106" d="M186.66,39.71l14.27.16a17.14,17.14,0,0,1,0,13.37l-11.21.08-15.83-.11A17.15,17.15,0,0,1,174,39.82Z" transform="translate(0)"/>
  <path class="cls-107" d="M160.5,53.18l-.83.19c-3.22,0-6.45-.2-9.66,0-2.51.13-3.24-.86-3.11-3.23.19-3.46.12-6.93.16-10.4l13.33.11A17.16,17.16,0,0,1,160.5,53.18Z" transform="translate(0)"/>
  <path class="cls-108" d="M160.5,53.18q-.06-6.69-.11-13.36H174l-.15,13.39Z" transform="translate(0)"/>
  <path class="cls-109" d="M294.56,478.2l-13.39,0q-.06-6.76-.1-13.51c-2.21-4.12-.78-8.54-1.08-12.82-.26-8.5,0-17,0-25.5-.27-15.18-.1-30.36-.1-45.54,0-16.43-.17-32.86.09-49.28-.1-4.33-.13-8.66,0-13q-.19-7.57,0-15.14-.24-25.77,0-51.53c-.21-11.39-.07-22.79-.07-34.18a7.25,7.25,0,0,1,.79-4c1.49-1.52,3.44-1.23,5.28-1.27,6.49-.17,6.22-.22,6.77-6.45,1.19-13.71.4-27.43.67-41.14a14.52,14.52,0,0,1,.43-4.45,2.89,2.89,0,0,1,.82-1.13,24,24,0,0,1,12.42-.11,2.56,2.56,0,0,1,.92,1.09,8.7,8.7,0,0,1,.48,3.31c0,13,.13,25.9-.06,38.85q.26,31.82,0,63.62c.24,17.47.06,34.95.1,52.42q0,24,0,47.93c0,2,.23,4-.77,5.87-1.81,1.86-4.19,1.29-6.36,1.37-2.76.1-3.86,1.33-4.17,4.1-3,27.19-.8,54.46-1.5,81.69-.08,3,1.09,4.3,4.17,4.11a21.83,21.83,0,0,1,7.07.34,2.56,2.56,0,0,1,1.12.83c0,3.09-.08,6.17,0,9.26s-1.33,4.26-4.27,4.19S297.65,478.19,294.56,478.2Z" transform="translate(0)"/>
  <path class="cls-110" d="M281.09,426.48q0,12.75,0,25.5c-2.08,1.64-4.55,1.08-6.86,1.07-2.86,0-4,1.18-4,4,0,2.55.71,5.28-1.1,7.6l-15,0-.46-.48c-1.22-6-.78-12.11-1.29-18.17-.59-7-.24-7.05-7.13-7.22-1.62,0-3.27.08-4.6-1.11V359c3.57-.82,7.17-.31,10.76-.17,2.34.09,3.52,1.61,3.68,3.92.13,1.74.05,3.48.1,5.22,0,1.44.24,2.77,2,3.15.74.09,1.49.18,2.23.22,6.58.35,6.8.87,7.18,7.59.4,7.06.39,14.16,1.79,21.18,1.05,5.26.7,10.73.28,16.05-.47,5.92,2.74,11.08,2.64,16.87,0,2,1.94,1.94,3.45,2s2.71-.4,2.91-2.19a17.63,17.63,0,0,1,.39-3.71C278.47,427.66,278.64,425.69,281.09,426.48Z" transform="translate(0)"/>
  <path class="cls-111" d="M240.62,478.14q0-6.7,0-13.41a16.69,16.69,0,0,1,13.43,0l.05,0c0,3.71-.06,7.41,0,11.11,0,1.75-.63,2.43-2.38,2.39C248,478.11,244.33,478.15,240.62,478.14Z" transform="translate(0)"/>
  <path class="cls-112" d="M269.08,464.68c0-3.21.07-6.42,0-9.63,0-2.2.91-3.15,3.1-3.1,3,.07,5.93,0,8.89,0q0,6.36,0,12.74Z" transform="translate(0)"/>
  <path class="cls-113" d="M467.71,106.51h26.22l0,.74c-.23,6.38-.51,12.54-9.83,11-2.12-.35-2.95,1.56-2.93,3.81.1,8.07,0,16.15,0,24.23-4.25,1.79-8.61,1.14-13,.51a2.19,2.19,0,0,1-1-1c-1.18-4.42-.41-8.92-.56-13.38-.22-7.27-.08-14.54-.08-21.81A5.66,5.66,0,0,1,467.71,106.51Z" transform="translate(0)"/>
  <path class="cls-114" d="M467.73,146.16l13.41.14-.09,13.38H467.7A17,17,0,0,1,467.73,146.16Z" transform="translate(0)"/>
  <path class="cls-15" d="M240.58,26.39q0-6.36,0-12.71H269.1a43.5,43.5,0,0,1-.05,6.36c-.59,3.87,1.68,4.64,4.56,4.21A11.12,11.12,0,0,1,282.08,26c2.68,1.84,5.84,1,8.78,1,2.29,0,3.11.78,3,3.06-.14,3.24,0,6.49,0,9.74C292.68,41,291.14,41,289.67,41c-7.3,0-14.59.15-21.89-.07-8.82-.12-17.65.61-26.46-.4a2.58,2.58,0,0,1-1.12-.89C239.3,35.17,238.65,30.74,240.58,26.39Z" transform="translate(0)"/>
  <path class="cls-115" d="M308.09,464.76a6.43,6.43,0,0,0-.74-.08c-1.32-1.43-1.23-3.22-1.24-4.95q0-41.13,0-82.25c0-1.74-.07-3.52,1.19-5q0-53.22.07-106.42c1.55-1.37,3.47-1.09,5.31-1.15,7.17-.22,14.36.49,21.5-.58,4.52-.3,9.05-.19,13.57-.1,4,.16,8.06-.77,12,.74,2.11,4.27,1.39,8.75.61,13.12-.39,2.17-2.6,2.34-4.52,2.58-1.75.22-4.22-.72-4.95,1.55a12.73,12.73,0,0,0,.15,8.46c.58,1.48,2.35,1.1,3.68,1.24,1.94.22,4.39-.22,5,2.28.75,3,1.17,6.27-.47,9.12-1,1.67-3.11,1.28-4.84,1.35-5.31.21-5.44.32-5.46,5.59s-.07,10.48,0,15.73c.09,5,1.13,6.06,6.13,6.42,4.29.31,4.91.88,5.05,5.21a13.2,13.2,0,0,0,1.7,6.8c1.31,2.12,1.3,4.51,1.34,6.9.09,4.75.35,4.92,5.2,5.08,2.31.07,4.79-.59,6.8,1.23a6.76,6.76,0,0,1,.78,3.6c0,12.18.15,24.36-.07,36.53.1,4.55.13,9.09,0,13.64.11,4.51.12,9,0,13.55-.32,4.24,1.18,8.65-1.13,12.72l-13.44,0c-2.68,1.88-5.75,1-8.65,1.08-2.67,0-3.72,1-3.77,3.73-.05,2.9.84,6-1.1,8.64l0,.05c-3.58,0-7.16.06-10.74-.05-2.06-.07-2.88.66-2.82,2.77.11,3.57,0,7.15,0,10.73Z" transform="translate(0)"/>
  <path class="cls-116" d="M347.78,451.19c0-3.57.09-7.15,0-10.72-.06-2.1.76-2.84,2.82-2.78,3.57.11,7.15,0,10.72.05q0,6.74-.07,13.47Z" transform="translate(0)"/>
  <path class="cls-117" d="M374.74,437.7q0-6.36,0-12.73c4-1.93,8.12-1.28,12.24-.46l.51.49q-.12,6.35-.22,12.69Z" transform="translate(0)"/>
  <path class="cls-118" d="M120.73,93l14.2,0c1.77,2.17,1.13,4.76,1.15,7.19s1.11,3.22,3.53,3.68c9.86,1.89,19.8,1.31,29.73,1.44,1.61,0,3.26,0,4.59,1.13l27,0,10.42.11c0,2.74-.08,5.48.05,8.21s1.41,4.54,4.64,4.49c7-.12,13.94.12,20.9-.11,3.09-.1,3.92,1,3.7,3.87s0,5.47-.06,8.2a4.36,4.36,0,0,1-3.1,1.1c-4.62-.1-9.2.84-13.78.74-14.2-.31-28.35,1.18-42.54.86-5.09-.11-5.23.21-5.35,5.2-.06,2.44.51,5-1,7.27a24,24,0,0,1-14.39.15c-1.47-1.67-1.14-3.73-1.16-5.68-.08-7.32.52-7-7.21-7-6.2,0-12.4.1-18.6-.07q-6.39.18-12.77,0c-5-.22-10,.89-14.93-.76-1.79-2.15-1.06-4.74-1.19-7.17-.21-4-.55-4.32-4.46-4.82-9-1.14-18.12-.52-27.18-.7-1.86,0-3.74.16-5.54-.46a2.64,2.64,0,0,1-1-.82c-1.12-2.36-.75-4.9-.67-7.35.1-3-1-4.28-4.12-4.2-2.28.07-4.76.68-6.8-1.06,2.29-1.49,4.84-.43,7.26-.74,2-.25,4.52-.07,5.15-2.17a13.9,13.9,0,0,0-.11-8.1c-.24-.74-1.13-.93-1.91-1C53.5,94.27,42,91.84,30.27,92.23A7.05,7.05,0,0,0,27,93q0-6.75,0-13.48l26.2,0v0c1.66,2.08,1,4.54,1,6.85,0,2.79,1,4,4,4.09,6.44.19,12.75,1.79,19.27,1.68,4-.07,6.17,2.46,6.7,6.63.26,2.06.64,3.6,3.2,3.63,2.72,0,2.94-1.71,3-3.71.12-3.09,1.94-5,4.51-6.37,7.79-1,15.6-.44,23.4-.34A3.71,3.71,0,0,1,120.73,93Z" transform="translate(0)"/>
  <path class="cls-119" d="M400.93,411.47h13.54L414.29,425,401,425H387.53l0,0c-1.95-4.24-1.18-8.61-.6-13a2.31,2.31,0,0,1,.95-1C392.23,410.2,396.63,409.55,400.93,411.47Z" transform="translate(0)"/>
  <path class="cls-60" d="M54,185.92c-1.48-3.74-.59-7.62-.65-11.44,0-1.79,1.47-2,3-2,2.49,0,5-.11,7.47,0,2.3.13,3-.77,3-3-.09-7.72,0-15.44,0-23.16l.47-.49c4.23-1.31,8.56-.57,12.85-.55a4.07,4.07,0,0,1,1.91.68c1.72,1.51,1.49,3.58,1.58,5.55.2,4.53.43,4.61,5,4.89,6.2.37,12.43.49,18.61,1.25,2.58,1.24,5.35.88,8.07,1,2,.07,4-.33,5.71,1.11,1.48,3.73.84,7.56.54,11.37-.59,2.14-2.34,2.41-4.13,2.48q-5.06.21-10.11,0c-4.49.16-9,.08-13.46.06-7.09-.13-14.18,0-21.27,0-3.9,0-4.46.75-4.7,4.6-.17,2.67.65,5.5-1.09,8C62.52,187.49,58.25,187.89,54,185.92Z" transform="translate(0)"/>
  <path class="cls-120" d="M54,185.92H66.76c3.88-2.06,7.95-1.25,11.95-.66,1.64.24,2.42,1.74,2.51,3.32.19,3.44.7,6.92-.45,10.31-.16.18-.33.36-.49.55-3.59,0-7.18.06-10.76-.06-2.11-.07-2.88.76-2.78,2.83.11,2.34-.09,4.7.06,7s-.87,3-3.06,2.93c-3.45-.15-6.92-.11-10.38-.15q0-11.68-.08-23.38C53.27,187.68,53.09,186.64,54,185.92Z" transform="translate(0)"/>
  <path class="cls-121" d="M66.8,146.28l-13.58.08-.46-.54c-.81-4.4-1.45-8.81.51-13.11h0c4.24-2,8.62-1.18,13-.62a2.36,2.36,0,0,1,1,.95c.73,4.39,1.52,8.79-.58,13.06Z" transform="translate(0)"/>
  <path class="cls-122" d="M40.66,159.68l-.08-13.38c4.2-2.08,8.45-1.78,12.72-.21l-.08.27c0,3.58,0,7.17.07,10.75.06,1.93-.71,2.65-2.61,2.6C47.34,159.62,44,159.69,40.66,159.68Z" transform="translate(0)"/>
  <path class="cls-123" d="M66.72,132.64l-13.45.07q0-6.72,0-13.43c.17-.17.34-.33.5-.5,4.37-.92,8.73-1.49,13,.45h0A16.75,16.75,0,0,1,66.72,132.64Z" transform="translate(0)"/>
  <path class="cls-123" d="M53.3,146.09l-12.72.21c0-3.46.08-6.93-.08-10.38-.11-2.37.62-3.38,3.13-3.25,3.2.17,6.42,0,9.64,0Z" transform="translate(0)"/>
  <path class="cls-124" d="M40.48,106.55l12.78,0a15.3,15.3,0,0,1,0,12.7v.08c-3.24,0-6.49-.14-9.72,0-2.25.09-3.15-.66-3-3C40.63,113,40.49,109.79,40.48,106.55Z" transform="translate(0)"/>
  <path class="cls-125" d="M53.27,119.2q0-6.35,0-12.7l1.51,0c3.2,0,6.4,0,9.6,0,1.73,0,2.43.69,2.4,2.41-.06,3.45,0,6.9,0,10.35Z" transform="translate(0)"/>
  <path class="cls-126" d="M133.43,398l-12.67.1q-.09-26.58-.19-53.17l.5-.54c4.28-1,8.56-1.55,12.73.48a6.25,6.25,0,0,1,.84,3.6q.09,22.65,0,45.29c0,1.51-.09,3-1.27,4.18Z" transform="translate(0)"/>
  <path class="cls-127" d="M93.7,331.94q0-6.63,0-13.26c3.72,0,7.45,0,11.17-.15,1.77-.07,2.41.52,2.35,2.32-.12,3.72,0,7.45-.07,11.18Z" transform="translate(0)"/>
  <path class="cls-128" d="M107.25,332.07h13.29c.18.15.36.3.55.44,1,4.1,1.47,8.17-.27,12.21l-.25.19c-3.36,0-6.72-.23-10.06-.05-2.72.15-3.46-.94-3.32-3.46C107.36,338.3,107.24,335.18,107.25,332.07Z" transform="translate(0)"/>
  <path class="cls-129" d="M80.24,292.33l0-13.54v0c3.88-1.93,7.86-1.35,11.85-.47,2.59,2.14,1.93,5.14,2,7.91.16,4.54.42,4.87,4.83,4.94,2.84.05,5.67,0,8.51,0,4.41.23,8.91-.93,13.22.85,2,4.07,1.38,8.26.56,12.46-.16.17-.32.35-.49.52-12.16,0-24.32-.09-36.48.06-3,0-4.33-.64-4-3.88C80.46,298.3,80.24,295.31,80.24,292.33Z" transform="translate(0)"/>
  <path class="cls-130" d="M133.64,305q-.13,6.74-.26,13.48a15.11,15.11,0,0,1-12.57.11l-.09-13.54,0,0c3.8-2.05,7.81-1,11.77-.81A2.54,2.54,0,0,1,133.64,305Z" transform="translate(0)"/>
  <path class="cls-131" d="M120.81,318.62l12.57-.11q.09,6.39.16,12.77a1,1,0,0,1-.41,1.21c-4.12.88-8.24,1.56-12.26-.45l-.33,0Z" transform="translate(0)"/>
  <path class="cls-132" d="M92.24,278.85l-12,0q.07-6.74.16-13.46c1.9-1.64,4.21-1.09,6.38-1.13,5.82-.09,5.78-.05,5.86-6,0-2.18-.43-4.47,1.1-6.41h0c4.24-1.91,8.61-1.14,13-.62a2.34,2.34,0,0,1,1,.85c1.11,2.61.7,5.37.63,8.05-.08,3,1,4.31,4.06,4.18,2.16-.09,4.48-.5,6.43,1,1.36,2.86.79,5.88.6,8.83a3.26,3.26,0,0,1-3.07,3.27c-6.56.42-12.73,3.64-19.48,2.6C95.25,279.79,93.57,280,92.24,278.85Z" transform="translate(0)"/>
  <path class="cls-133" d="M93.72,251.83c0,3.12-.18,6.25.07,9.34s-.61,4.59-4.07,4.26c-3.09-.3-6.22-.06-9.34-.06,0-4.42-2-10.32.76-12.81C83.56,250.37,89.39,251.93,93.72,251.83Z" transform="translate(0)"/>
  <path class="cls-134" d="M107.22,251.86l-13.54,0,.12-12.64,13.37-.17A15,15,0,0,1,107.22,251.86Z" transform="translate(0)"/>
  <path class="cls-135" d="M93.71,212.06l-13.4.18,0-12.8h0c4-2.12,8.25-1.06,12.42-.79a2.51,2.51,0,0,1,1.14.84Q93.76,205.77,93.71,212.06Z" transform="translate(0)"/>
  <path class="cls-136" d="M93.82,199.48l-.82-.14c-1.84-2.46-1-5.3-1.06-8-.2-5.51-.79-6.22-6.18-6.53-3.29-.18-4.16-1.14-4.31-4.74-.19-4.37.77-5.92,3.94-6.4,2.78-.42,5.78.58,8.35-1.26h13.49c2.48,2.11,1.76,5,1.87,7.69.17,4.12.5,4.5,4.52,4.65,8,.3,8,.3,8.24,8.11.12,4.58.59,5.08,5.18,5.39a8,8,0,0,1,6,12.3,3.89,3.89,0,0,1-3.5,1.83c-3.5,0-6.94.79-10.44.82-3.93-.27-8,1.09-11.76-1.09,0-3.47-.15-6.95-.08-10.42,0-1.74-.47-2.41-2.29-2.35C101.26,199.51,97.54,199.45,93.82,199.48Z" transform="translate(0)"/>
  <path class="cls-132" d="M107.35,212.14l11.87,0c2.48,2.1,1.78,5,1.9,7.69.19,4.06.55,4.47,4.57,4.62,8.92.35,8.92.35,8.93,9.35,0,3.37-.35,6.78.07,10.1.79,6.18-2.46,11.65-2.66,17.63a2.49,2.49,0,0,1-2.46,2.43c-2.95.17-5.91,1.12-8.88.14-1.62-2-1-4.46-1.1-6.74-.16-4.08-.33-4.22-4.49-4.39-2.65-.11-5.45.69-7.86-1.11l0,0q0-6.42,0-12.84Z" transform="translate(0)"/>
  <path class="cls-137" d="M294.66,66.72l-40.53,0c-1.94-4.5-1.63-9-.24-13.6,4.46-2,9.17-.72,13.76-1,7.57-.2,15.15-.07,22.73-.07a5.85,5.85,0,0,1,4.21,1.17l0,0A17.42,17.42,0,0,1,294.66,66.72Z" transform="translate(0)"/>
  <path class="cls-138" d="M240.55,53.34l-26.92-.08a17.41,17.41,0,0,1,0-13.48l0,0c4.35-2.17,9-.8,13.48-1.07,3.22-.15,6.44-.09,9.65,0a5,5,0,0,1,3.79,1.18l.18-.09c1.77,4.33,1.33,8.71.35,13.11C240.9,53,240.72,53.18,240.55,53.34Z" transform="translate(0)"/>
  <path class="cls-139" d="M294.58,92.89c3.23,0,6.47.22,9.69.06,2.54-.14,3.26.88,3.09,3.24a45.23,45.23,0,0,0,0,7.08c.25,2.74-1,3.4-3.45,3.27-3.1-.16-6.21,0-9.31,0a17.75,17.75,0,0,1-13.47-.11c0-3.71,0-7.41-.07-11.12,0-1.75.66-2.41,2.39-2.38C287.17,93,290.88,92.92,294.58,92.89Z" transform="translate(0)"/>
  <path class="cls-140" d="M294.66,66.72l-.12-13.41h26.25a17,17,0,0,1,0,13.34Z" transform="translate(0)"/>
  <path class="cls-79" d="M361.28,66.75q0,6.38,0,12.74l0,0a17.74,17.74,0,0,1-13.54,0l-13.45-.09q0-6.27,0-12.55Z" transform="translate(0)"/>
  <path class="cls-141" d="M281.14,106.47l13.47.11c0,2.83-.08,5.66,0,8.49.07,3-1.35,4.25-4.28,4.17s-6.16,0-9.23,0c-4.24,2-8.61,1.19-13,.62a2.29,2.29,0,0,1-1-.94c-.75-4.15-1.43-8.31.45-12.37l.13-.11Z" transform="translate(0)"/>
  <path class="cls-142" d="M254.1,53.38l0,13.37c-3.5,0-7-.09-10.48,0-2.24.09-3.16-.64-3.07-3,.14-3.49,0-7,0-10.48l.14-.13C245.18,51.56,249.65,51.32,254.1,53.38Z" transform="translate(0)"/>
  <path class="cls-143" d="M320.83,66.65q0-6.66,0-13.34l13.63,0q-.07,6.67-.14,13.36Z" transform="translate(0)"/>
  <path class="cls-144" d="M334.34,79.56q0,6.69,0,13.38c-3.58,0-7.17,0-10.74.1-2.07.07-2.89-.67-2.81-2.77.12-3.58,0-7.17.05-10.75Z" transform="translate(0)"/>
  <path class="cls-145" d="M213.64,39.78q0,6.74,0,13.48l-12.74,0q0-6.68,0-13.37Z" transform="translate(0)"/>
  <path class="cls-146" d="M174.69,146.14c0-3.61.06-7.22,0-10.83-.05-1.94.72-2.78,2.64-2.59h.37c12.81.55,25.59-1.05,38.39-.71,8.21.22,16.35-1.33,24.56-.79.26,1.8,1.65,1.49,2.83,1.49,3.55,0,7.09,0,10.64,0l.49.51c.89,4.42,1.49,8.82-.46,13.15-4.37,1.87-9,.69-13.44.91s-9,.13-13.49,0c-4.5.12-9,.13-13.48,0-4.26.11-8.51.12-12.77,0q-6.77.18-13.53,0c-3,.15-6,.09-8.94,0C177.11,147.31,175.7,147.31,174.69,146.14Z" transform="translate(0)"/>
  <path class="cls-147" d="M254.08,132.73q0-6.78.08-13.54a17.44,17.44,0,0,1,13.4,0l.12,0a18,18,0,0,1-.06,13.54h0a17.56,17.56,0,0,1-13.52,0Z" transform="translate(0)"/>
  <path class="cls-148" d="M267.56,119.22l-13.4,0q0-6.33,0-12.64h13.4Q267.54,112.89,267.56,119.22Z" transform="translate(0)"/>
  <path class="cls-125" d="M94.49,93a11.32,11.32,0,0,0-3.15,8.57c.07,3.27-3,1.61-4.65,1.85-1.48.21-3.2.55-3.49-2.06-.87-7.93-1.48-8.67-9.31-8.26-6.18.31-12-2.35-18.13-1.66-1.94.21-2.51-1.21-2.49-2.94,0-3,0-6,0-9l27,0,13.42.12C95.82,84,94.81,88.49,94.49,93Z" transform="translate(0)"/>
  <path class="cls-149" d="M94.49,93c-1.7-4.39-.27-9-.78-13.42l27-.11,0,13.51Z" transform="translate(0)"/>
  <path class="cls-150" d="M173.93,106.47c-8.23,0-16.47.15-24.71,0-4.27-.1-8.35-2.09-12.77-1.56-1.56.19-1.47-1.36-1.48-2.48,0-3.12,0-6.24,0-9.36L147,93l26.94.08Q173.94,99.75,173.93,106.47Z" transform="translate(0)"/>
  <path class="cls-151" d="M322.32,146.2l13.49,0c2,3.77,1.36,7.66.31,11.48-.59,2.18-2.4,3-4.58,3-2.84.07-5.68-.06-8.52.12-3.84.12-7.68,0-11.52,0a6,6,0,0,1-4.2-1.15l0,0a17.85,17.85,0,0,1,0-13.51Z" transform="translate(0)"/>
  <path class="cls-152" d="M281.05,146.27l13.51,0a17,17,0,0,1,0,13.41l0,.09c-4.26,1.87-8.63,1.16-13,.57a2.36,2.36,0,0,1-1-.95C279.79,155,279.16,150.58,281.05,146.27Z" transform="translate(0)"/>
  <path class="cls-153" d="M281.05,146.27l0,13.43c-4.44,2-8.94,1.49-13.45.31-2.05-4.36-1.33-8.84-.53-13.32l.49-.54Z" transform="translate(0)"/>
  <path class="cls-154" d="M254.1,132.73h13.52l0,13.42.07.12c-4.3,1.81-8.66,1.33-13,.38l-.5-.5Z" transform="translate(0)"/>
  <path class="cls-155" d="M267.62,132.73l.06-13.54,13.41,0c0,3.57-.08,7.15,0,10.72.07,2.07-.68,2.87-2.78,2.81C274.77,132.65,271.2,132.73,267.62,132.73Z" transform="translate(0)"/>
  <path class="cls-156" d="M294.58,159.66q0-6.71,0-13.41l12.73,0q0,6.76,0,13.51Z" transform="translate(0)"/>
  <path class="cls-157" d="M323.06,159.7a59.69,59.69,0,0,1,7.45.05c3.95.48,5.09-1.73,5.25-4.95.14-2.86,0-5.72.05-8.58,7.5,0,15,.07,22.48,0,2.3,0,3.1.75,3,3-.14,3.49,0,7,0,10.49,2.26,4.07.8,8.46,1.11,12.71-.19,4.5.86,9.07-.78,13.49-1.51,1.39-3.41,1.1-5.21,1.16-2.8.09-5.62-.17-8.39.47a21.12,21.12,0,0,1-9.6.78c-3.65-.58-5.31-2-5.09-5.67.38-6.06-1.65-11.82-1.67-17.79,0-2.38-1.29-3.18-3.54-3.32C326.31,161.41,324,162.31,323.06,159.7Z" transform="translate(0)"/>
  <path class="cls-86" d="M374.67,159.7c0-7.8.17-15.6.05-23.39-.05-2.68.61-3.86,3.5-3.65,3.07.23,6.18.05,9.28,0l0,0c2.2,4.32.8,8.94,1.09,13.42-.22,4.49.92,9.08-.86,13.48-4.1,2-8.32,1.39-12.55.56Z" transform="translate(0)"/>
  <path class="cls-158" d="M361.32,172.52q0-6.42-.05-12.82h13.41l.15,0a17.5,17.5,0,0,1,.14,12.87A19.44,19.44,0,0,1,361.32,172.52Z" transform="translate(0)"/>
  <path class="cls-159" d="M347.73,79.55l13.54,0c0,3.58-.07,7.17,0,10.74.07,2.12-.78,2.83-2.83,2.77-3.58-.12-7.16-.07-10.74-.09Q347.74,86.25,347.73,79.55Z" transform="translate(0)"/>
  <path class="cls-160" d="M387.46,159.64q0-6.69.08-13.37c2.52-2,5.48-1.16,8.24-1.14,3,0,4.16-1.1,4.14-4.14,0-2.76-.83-5.72,1.13-8.24a5.15,5.15,0,0,0,.68-.15l39.77,0H455l.47.54c.83,4.46,1.39,8.91-.42,13.28-4.41,1.77-9,.65-13.52.86s-9,.12-13.47,0c-3.12.17-6.24,0-9.36.09-2,0-3,1-3,3,0,1.62,0,3.25-.06,4.87-.15,4.65-.94,5.49-5.49,5.6-3,.07-6,.11-9,0-4.4-.2-8.85.72-13.2-.65Z" transform="translate(0)"/>
  <path class="cls-88" d="M467.71,106.51l-.06,26.29a16.55,16.55,0,0,1-12.74,0l.09-.18q0-13.08-.05-26.14Z" transform="translate(0)"/>
  <path class="cls-161" d="M401.05,132.75c0,3.69-.1,7.39,0,11.08,0,1.74-.65,2.41-2.38,2.38-3.7-.05-7.39,0-11.09.06q0-6.78,0-13.54Z" transform="translate(0)"/>
  <path class="cls-162" d="M401,385.28q0,6.38,0,12.73l.1.11a19,19,0,0,1-13.74-.07,5.88,5.88,0,0,1-1-3.89q-.1-15.89,0-31.78c0-1.47,0-3,1.3-4.12l13.37,0Z" transform="translate(0)"/>
  <path class="cls-163" d="M387.63,358.26l.09,39.69-.51.5c-4.18.91-8.35,1.5-12.41-.48l-.08-40.42c-2-3.65-1.11-7.51-.77-11.29.18-2,1.92-2.46,3.63-2.52a35.91,35.91,0,0,1,8.91.25,2.79,2.79,0,0,1,1.2.8Z" transform="translate(0)"/>
  <path class="cls-89" d="M416,332.17c0,3.12-.14,6.24.06,9.34.18,2.71-.94,3.44-3.46,3.33-3.86-.16-7.72,0-11.58,0-2-4-1.12-8.09-.63-12.19a2.25,2.25,0,0,1,.9-1c4.28-1.17,8.63-.59,13-.45A2.51,2.51,0,0,1,416,332.17Z" transform="translate(0)"/>
  <path class="cls-164" d="M416,332.17,414.5,332a16.48,16.48,0,0,1,0-13.27H428q0,6.65,0,13.28Z" transform="translate(0)"/>
  <path class="cls-165" d="M401.06,332.14q0,6.33-.07,12.66H387.36a17.28,17.28,0,0,1,.07-12.86C392,330.38,396.55,330,401.06,332.14Z" transform="translate(0)"/>
  <path class="cls-166" d="M387.72,398l13.39.17-.18,13.35H387.58c-2-4.44-1.75-8.92-.19-13.41Z" transform="translate(0)"/>
  <path class="cls-53" d="M294.59,53.27l-27-.1a17,17,0,0,1,0-13.37h26.23C295.5,44.2,294.15,48.79,294.59,53.27Z" transform="translate(0)"/>
  <path class="cls-167" d="M441.4,212.09q0,6.76,0,13.54l-13.37.2-.52-.5c-1-4.47-1.49-8.94.4-13.33A18.89,18.89,0,0,1,441.4,212.09Z" transform="translate(0)"/>
  <path class="cls-168" d="M428,238.37c-4.38,1.76-9,.2-13.41.84l-.5-.46a28.79,28.79,0,0,1-.15-12.73,2.22,2.22,0,0,1,1-1c4.37-.68,8.73-1.32,13,.49l.15.28Q428,232.1,428,238.37Z" transform="translate(0)"/>
  <path class="cls-169" d="M401,266.11q0,13.13,0,26.25a18.74,18.74,0,0,1-13.49.14c-2.12-3.89-.82-8.08-1.07-12.13.23-5-.93-10.1.81-15,4.4-1.95,8.89-1.37,13.4-.45A.91.91,0,0,1,401,266.11Z" transform="translate(0)"/>
  <path class="cls-170" d="M401.06,332.14l-13.4-.09c-.18-.16-.36-.33-.55-.48-.94-1.6-.76-3.38-.77-5.11,0-5.6,0-11.2,0-16.8,0-1.61-.06-3.26,1-4.65a17.74,17.74,0,0,1,13.54.09l.09,13.42A17.38,17.38,0,0,1,401,332Z" transform="translate(0)"/>
  <path class="cls-171" d="M401,266.11c0-.28,0-.57-.07-.85a3,3,0,0,1-.93-2c-.15-7.83-.66-15.66.29-23.47a2.57,2.57,0,0,1,.9-1.11c4.43-.89,8.85-1.51,13.21.37l.15.15c0,7.45-.16,14.9,0,22.34.05,3-1.07,4-3.94,3.86C407.39,265.29,404.14,265,401,266.11Z" transform="translate(0)"/>
  <path class="cls-172" d="M401,332q0-6.77,0-13.52l13.5.16V332Z" transform="translate(0)"/>
  <path class="cls-173" d="M400.92,305.1,387.61,305l-.48-.42c-1.17-3.74-.75-7.52-.29-11.31a1.91,1.91,0,0,1,.82-.95H401Q400.94,298.74,400.92,305.1Z" transform="translate(0)"/>
  <path class="cls-174" d="M441.46,172.44v13.5c-2.45,1.78-5.27.95-7.94,1.07-4.08.19-4.32.38-4.44,4.55-.07,2.46.32,5-.5,7.38a2.17,2.17,0,0,1-.86,1c-2.75,1.07-5.63.61-8.45.59s-3.77,1.14-3.69,3.79.07,5.44,0,8.17c-.29,4.41,1.17,9-1.13,13.21l.05,0c-2.9,2.07-6.22.92-9.34,1.19a24.06,24.06,0,0,1-4.07-.06c-7.21.15-14.43.1-21.64,0-4.87,0-5.73-.88-5.81-5.62-.11-5.73-.1-11.45,0-17.18.08-4.84,1.33-6.06,6.24-6.42.62-.05,1.24,0,1.86-.07,4-.23,4.51-.72,4.59-4.61.09-4.37-.36-4.85-4.83-5a22.29,22.29,0,0,1-4.08-.39c-2.18-.5-3.62-1.71-3.69-4-.08-3.22-.54-6.46.45-9.63,2.36-1.84,3.22.09,4.07,1.71.64,1.22.51,2.64.64,4s.8,2.31,2.35,2.25c1.36-.06,1.95-.87,2.13-2.12s0-2.51.59-3.63c.78-1.58,1.66-3.21,3.9-1.9,1.26,2.34.72,4.9.75,7.36s1,3.5,3.36,3.37c.49,0-.13,0,.37,0,7.48.34,7.46.34,7.57-7.08,0-2-.38-4,1.22-5.68a7.47,7.47,0,0,1,4-.77q16.09-.06,32.18,0a7.39,7.39,0,0,1,3.64.67Z" transform="translate(0)"/>
  <path class="cls-175" d="M441.44,146.22l13.51,0a15.93,15.93,0,0,1,12.82,0h0l0,13.53v12.74a15.38,15.38,0,0,1-12.75,0h0c-1.45-1.7-1.07-3.77-1.1-5.73-.08-5.89-.05-5.87-6.08-5.92-2,0-4,.23-5.92-.54a2.26,2.26,0,0,1-1-.95C440.21,154.9,439.5,150.51,441.44,146.22Z" transform="translate(0)"/>
  <path class="cls-176" d="M455,172.43H467.7c0,7.83-.11,15.67.06,23.5.07,2.84-.9,3.56-3.63,3.55-9.17,0-9.17.08-9.17-9.14Q455,181.39,455,172.43Z" transform="translate(0)"/>
  <path class="cls-177" d="M427.91,199.2c0-3.23.2-6.46,0-9.68-.15-2.69.59-3.85,3.5-3.65,3.33.24,6.69.07,10,.07l-.06,13.54C436.87,201.1,432.36,201.51,427.91,199.2Z" transform="translate(0)"/>
  <path class="cls-176" d="M441.47,159.69c3.57,0,7.15.08,10.72,0,2.08-.06,2.87.72,2.8,2.8-.11,3.32,0,6.65,0,10h-13.5v0A15.29,15.29,0,0,1,441.47,159.69Z" transform="translate(0)"/>
  <path class="cls-178" d="M427.91,199.2l13.49.28v12.61l-13.27.06-.54-.46c-1-4.1-1.52-8.19.37-12.2Z" transform="translate(0)"/>
  <path class="cls-179" d="M256.36,372.52c-3.16-1.49-2.18-4.38-2.22-6.84-.09-5.89,0-5.83-5.87-5.93-2.55,0-5.2.63-7.64-.72V159.7l.5-.47c4.27-1.21,8.61-.58,12.93-.46a3.24,3.24,0,0,1,1.84.9c1.71,3.38.18,7.14,1.25,10.59,1.41,1.9,3.46,1,5.21,1.1,5,.27,7.36,2.08,7,7.12-.72,11.43-.4,22.89-1.12,34.33s-.21,22.67-.22,34c0,2.9,1.63,3.8,4.3,3.92,2.92.14,6-.81,8.71,1.14q0,25.86,0,51.71c-1.69,1.45-3.76,1-5.7,1.07-5.34.12-5.89.66-5.94,6.1v.74c0,5.44.48,5.89,5.94,6,1.95,0,4-.38,5.7,1.07v12.74c-1.81,1.51-4,1.07-6.08,1.11-5.88.1-6.17.45-6.29,6.45-.1,5,1,9.86.79,14.86-.25,5.3-1.07,6.27-6.36,6.42-.87,0-1.74.05-2.61,0-2.69,0-3.6,1.39-3.82,3.93C256.46,366.92,257.86,369.78,256.36,372.52Z" transform="translate(0)"/>
  <path class="cls-180" d="M227.16,159.84l0,113c0,5.56,0,5.56-5.5,5.23-7.75-.47-7.86-.46-7.92-8.37,0-2.53-1.05-3.62-3.3-4.1a16.26,16.26,0,0,0-5.94-.09c-2.59.41-3.73,1.74-3.63,4.6.34,9.78-.49,7.83-8.15,7.93-6.24.08-12.48,0-18.72,0-2.06-2.64-.94-5.74-1.2-8.63a26.6,26.6,0,0,1,0-4.09c.25-4.54-1-9.2,1-13.6,2.61-1.74,5.57-1,8.39-1.05s4-1.2,4-4c0-24,.08-48-.1-71.93,0-3.36-.85-6.69-.63-10.08.12-1.88.21-3.76,1.67-5.21,4.43-1.79,9.05-.69,13.58-.88,4.19-.08,8.39-.12,12.58,0s8.55-.42,12.8.37A2.12,2.12,0,0,1,227.16,159.84Z" transform="translate(0)"/>
  <path class="cls-181" d="M133.42,332a3.61,3.61,0,0,1,.12-.72c3.25,0,6.49,0,9.74,0,2.61,0,3.73,1.12,3.71,3.89q-.12,29.78,0,59.55c0,2.35-.56,3.44-3.13,3.3-3.48-.2-7-.1-10.48-.13q0-26.52,0-53.05A16.14,16.14,0,0,1,133.42,332Z" transform="translate(0)"/>
  <path class="cls-182" d="M254.06,464.74H240.63v-27h9c2.41,0,3.8,1.13,3.76,3.59C253.22,449.14,254.72,456.91,254.06,464.74Z" transform="translate(0)"/>
  <path class="cls-183" d="M227.17,146.21l13.5,0a17.37,17.37,0,0,1-.06,13.41l0,0-13.47.14-.06-.25A17.08,17.08,0,0,1,227.17,146.21Z" transform="translate(0)"/>
  <path class="cls-184" d="M173.9,265.3q0,6.39.07,12.79c-4.42,1.74-9,.29-13.54.8l-.46-.5a29.79,29.79,0,0,1-.07-12.68,2.22,2.22,0,0,1,1-.95C165.26,264.12,169.63,263.43,173.9,265.3Z" transform="translate(0)"/>
  <path class="cls-185" d="M160.43,278.89c0,3.62-.05,7.24,0,10.85.05,1.93-.68,2.69-2.62,2.63-3.62-.09-7.24,0-10.86,0-.16-.16-.31-.32-.48-.47a29,29,0,0,1-.1-12.67,2.2,2.2,0,0,1,1-.94c4.37-.63,8.74-1.35,13,.55Z" transform="translate(0)"/>
  <path class="cls-186" d="M147,292.33c0,3.11-.15,6.22,0,9.32.13,2.5-.56,3.66-3.3,3.48-3.34-.22-6.71-.08-10.06-.1l-.29.07a17.25,17.25,0,0,1,0-12.83,18.31,18.31,0,0,1,13.56,0Z" transform="translate(0)"/>
  <path class="cls-187" d="M240.53,39.83l-13.41-.07a17,17,0,0,1,0-13.36h13.42Q240.57,33.11,240.53,39.83Z" transform="translate(0)"/>
  <path class="cls-188" d="M227.16,26.4q0,6.68,0,13.36H213.61c0-3.59.12-7.17,0-10.75-.07-2.13.76-2.82,2.82-2.74C220,26.41,223.58,26.37,227.16,26.4Z" transform="translate(0)"/>
  <path class="cls-189" d="M323.06,159.7c1.76,1.46,3.85.71,5.75.68,2.78,0,4.16.72,4,3.79-.26,6.68,2.43,13.16,1.5,19.92-.23,1.67,1,2.3,2.41,2.77,3.73,1.21,7.37.38,11-.18,2,3.66,1.29,7.47.49,11.24a3.26,3.26,0,0,1-2.7,2.33,13.55,13.55,0,0,1-3,.3c-7.61,0-7.14-.5-7.14,7.51,0,1.37,0,2.74-.06,4.12-.13,4.18.69,8.41-.64,12.52-3.71,3-7.89,2.33-12,1.3a3.82,3.82,0,0,1-2.89-4.3c.89-5.86-2.77-10.68-3.35-16.17-.19-1.79-1.66-1.89-3.07-2-2.06-.16-4.26.43-6-1.14q-.06-21.34-.11-42.68Z" transform="translate(0)"/>
  <path class="cls-112" d="M256.36,372.52a36.18,36.18,0,0,1-.74-10c0-2.42,1.11-3.47,3.71-3.53,9.06-.18,9.23-.27,8.95-9.52-.14-4.58-.76-9.15-.72-13.76,0-3.22,1.38-4.54,4.53-4.42s6,0,9,0q0,47.58,0,95.17c-3,1-2.4,3.59-2.16,5.63.44,3.82-1.44,4.22-4.56,4.2s-5.08-.28-4.58-4.16c.32-2.55.43-5.22-1.52-7.45-.95-1.1-.66-2.61-.66-4,0-2.62-.12-5.25,0-7.86.5-9.72-1.63-19.24-2.2-28.87a56.58,56.58,0,0,1,0-7.48c.24-3.2-1.15-4.29-4.17-4C259.62,372.65,258,372.52,256.36,372.52Z" transform="translate(0)"/>
  <path class="cls-190" d="M307.41,202.39c2.6,0,5.21.09,7.81,0,1.94-.07,2.82.72,2.58,2.62A10.38,10.38,0,0,0,320,212.6c1.71,2.4.63,5.3.75,8,.19,4.09.92,4.9,5.06,5.07a32,32,0,0,0,8.46-.76,2.73,2.73,0,0,1,.81,1.22c.86,6.56.25,13.16.38,19.74.1,4.85,0,9.7,0,14.55,0,1.73.1,3.51-1.17,5-5.84,1.51-11.79.48-17.69.72-3.08.14-6.17,0-9.26,0Q307.39,234.23,307.41,202.39Z" transform="translate(0)"/>
  <path class="cls-112" d="M281.07,251.87c-3.36,0-6.72-.05-10.08,0-2.78.06-4.15-1.14-4.15-4,0-11.33-.52-22.7.2-34,.51-8.08.07-16.15.65-24.19.29-4,.74-7.89.67-11.86S267,172.5,263,172.44c-1.74,0-3.48,0-5.23,0-1.09,0-2-.17-2.15-1.49,1.45-1.29,3.24-1,4.95-1.1,4.05-.17,4.31-.45,4.46-4.59.06-1.84-.27-3.74.78-5.44a1.25,1.25,0,0,1,1.76-.16l13.52,0h0c1.28,1.44,1.19,3.22,1.2,4.95q0,22,0,44c0,1.73.1,3.51-1.18,4.95Z" transform="translate(0)"/>
  <path class="cls-191" d="M307.3,372.51q0,46.08,0,92.17c-3.48,0-7-.1-10.44.18-1.76.14-2.28-.42-2.31-1.94,0-.75,0-1.5,0-2.24,0-23.54-.06-47.07.07-70.61,0-4.9,2-9.64,1.56-14.68-.16-2,1.61-2.88,3.62-2.87C302.32,372.54,304.81,372.51,307.3,372.51Z" transform="translate(0)"/>
  <path class="cls-192" d="M281.12,213.63q0-27,0-53.94l13.51.06c0,10.45-.21,20.9,0,31.35.16,6.35-1.1,12.6-.84,18.94.09,2.46-1.31,3.62-3.73,3.61Z" transform="translate(0)"/>
  <path class="cls-112" d="M281.08,318.57c-3,0-5.94,0-8.91,0-1.66,0-3.29-.48-3.52-2.09a27.71,27.71,0,0,1,.15-10.66c.4-1.64,1.62-2.32,3.36-2.27,3,.08,5.95,0,8.92,0Z" transform="translate(0)"/>
  <path class="cls-193" d="M467.77,146.15l-12.82,0q0-6.7,0-13.39h12.74Z" transform="translate(0)"/>
  <path class="cls-194" d="M267.6,39.8q0,6.68,0,13.37l-13.52.21-13.41-.17q0-6.74,0-13.47Z" transform="translate(0)"/>
  <path class="cls-195" d="M387.4,280.36q.14,6,.26,12l-.31-.06c-2.41,1.92-5.26,1.06-7.92,1.12s-3.61,1-3.55,3.57c.07,2.74.08,5.48,0,8.21.15,6.6,0,13.2.07,19.79,0,5.84,0,5.81,5.73,5.93,1.95,0,4-.38,5.68,1.17l.32,0-.3,12.75a72.31,72.31,0,0,1-8.2-.06c-3.77-.44-4.77,1.11-4.42,4.6a77.55,77.55,0,0,1,0,8.21c-3.13,0-6.25-.09-9.37,0-2.39.07-3.42-.9-3.34-3.32.14-4.1.42-8.23-2.51-11.74-.54-.64-.43-1.91-.45-2.89-.17-5.94-.15-6.09-5.92-6-3.61.06-4.7-2.09-5.32-5a7.5,7.5,0,0,1,0-1.5c0-6.49.12-13-.05-19.48-.08-3.07.93-4.18,4.07-4.15,7.66.06,7.58-.06,7.27-7.69-.09-2.13-.85-2.72-2.89-2.79-6.9-.22-6.9-.3-6.9-7.16v-1.13c0-5.14,0-5.14,5.31-5.15s5.17,0,5.18-5.18q0-4.5,0-9c4.85-2.25,9.81-1.41,14.78-.51,2,2.07,1.25,4.67,1.29,7.08.11,7,.08,7.06,7,7.24C384.44,279.28,386.1,279.12,387.4,280.36Z" transform="translate(0)"/>
  <path class="cls-196" d="M334.32,265.36q0-19.83,0-39.66c4.48-2,9-1.64,13.56-.3,2,4.42.77,9.07,1,13.62.11,4.29.12,8.58,0,12.87-.29,4.49,1.15,9.13-1.11,13.47Z" transform="translate(0)"/>
  <path class="cls-197" d="M347.78,265.36q0-6.76,0-13.51c4.34-2.19,9-.8,13.46-1.08,4.54.25,9.19-1,13.6,1a17.94,17.94,0,0,1-.11,13.58l-15,.07Z" transform="translate(0)"/>
  <path class="cls-198" d="M387.39,398.06q.09,6.7.19,13.41h-.18a14.92,14.92,0,0,1-12.6,0V398Z" transform="translate(0)"/>
  <path class="cls-199" d="M374.8,411.46l12.6,0,.09,13.49H374.78Q374.8,418.22,374.8,411.46Z" transform="translate(0)"/>
  <path class="cls-200" d="M187.42,159.69a28.23,28.23,0,0,0-.33,12.17,22.9,22.9,0,0,1,.31,3.7c0,24-.07,48.07.1,72.11,0,3.59-1.15,4.53-4.46,4.25-3-.25-6-.07-9-.08l-.54-.46c-1.44-4.12-.5-8.37-.71-12.56q-.26-19.53,0-39.07c-.1-7.05,0-14.12,0-21.18,0-4.71-.29-4.91-5.12-5-2.22,0-4.47.26-6.64-.49a2.43,2.43,0,0,1-1-.91c-1.25-4.15-.47-8.4-.62-12.61-.16-3.19-.09-6.38,0-9.57,0-1.34,0-2.73,1.14-3.76l14.25-.08,12.7.12A17,17,0,0,1,187.42,159.69Z" transform="translate(0)"/>
  <path class="cls-201" d="M160.44,146.23q0,6.74,0,13.49c-4.37,2-8.8,1.42-13.25.34-2.09-2.34-1.2-5.22-1.31-7.88-.17-4.59-.3-4.77-4.93-4.87-2.35-.05-4.75.32-7.05-.53a2.27,2.27,0,0,1-1-1c-.69-4.4-1.46-8.81.59-13.09,7.91,0,15.84.08,23.75,0,2.38,0,3.35.66,3.23,3.14C160.3,139.29,160.43,142.76,160.44,146.23Z" transform="translate(0)"/>
  <path class="cls-202" d="M66.72,132.64l0-13.4H93c3.36,0,6.62,1.07,10,.8,2.19-.18,2.66,1.55,2.71,3.26.09,3.12,0,6.24,0,9.36-3.79,2.32-7.94.84-11.93,1.17-4.51.11-9,.12-13.53,0-4.49-.28-9.11,1.08-13.46-1Z" transform="translate(0)"/>
  <path class="cls-203" d="M93.67,132.78l12-.13,15,.08c2,4.49,1.63,9,.27,13.58-4.44,2.05-9.11.74-13.68,1-4.57-.24-9.23,1-13.69-.91A19.19,19.19,0,0,1,93.67,132.78Z" transform="translate(0)"/>
  <path class="cls-204" d="M120.76,146.09q0-6.68-.07-13.36h12.79q0,6.75,0,13.5A14.68,14.68,0,0,1,120.76,146.09Z" transform="translate(0)"/>
  <path class="cls-205" d="M120.73,263.87a9.53,9.53,0,0,1,2.89-.56c5.78.72,6.79-1.63,8.21-7.39,1.88-7.63,1.18-14.95,1.54-22.39.39-7.87.09-7.89-7.69-7.89-5.71,0-5.71,0-5.71-5.74,0-2.61.17-5.23-.75-7.74,3.71-.17,7.37-1.14,11.13-.8a1.43,1.43,0,0,0,1.07-.24c2.54-2.63,1-5.88,1.17-8.84.1-1.85-1.4-2.68-3.27-2.88-8.52-.89-8.67-.92-8.52-9.63,0-3.22-1.06-4-4.07-3.92-8.64.13-8.69,0-8.71-8.65a24.9,24.9,0,0,0-.79-4.76c3.55,0,7.11,0,10.66,0,1.18,0,2.58.3,2.83-1.5,3.57-1.08,7.15-.45,10.69.08,1.94.29,2.86,1.84,3.06,3.78a54,54,0,0,1,.14,6.36c0,2.48,1,3.73,3.54,3.62,1.37-.05,2.75,0,4.12,0,5.06.11,5.72.78,5.82,6,0,.62,0,1.25,0,1.87,0,6.18.18,6.3,6.24,6.42,2.19,0,4.54-.49,6.46,1.17a6.39,6.39,0,0,1,.81,3.6c0,11.7.16,23.4-.06,35.11.1,4.31.12,8.63,0,13-.27,4.53,1.09,9.17-1,13.55l0-.06c-2.69,1.91-5.76,1.05-8.67,1.09-2.7.05-3.69,1.11-3.73,3.78-.05,2.91.78,6-1.06,8.68v0c-1.91,1.5-4.18,1-6.34,1.09a42,42,0,0,0-6.91.39,32.31,32.31,0,0,1-7.08.29c-3.09-.13-4.19,1.29-4.17,4.27,0,2.41.7,5-1.2,7.16l-.57.26h-13.5c-1.91-3.4-1.39-7-.58-10.51.59-2.53,3-3,5.35-3.26,7.61-.75,7.6-.75,7.62-8.44a26.7,26.7,0,0,1,.16-4.47A2.73,2.73,0,0,1,120.73,263.87Z" transform="translate(0)"/>
  <path class="cls-206" d="M160.41,200.15h-9.74c-2.57,0-4-1-3.75-3.84.16-2.24-.17-4.52.08-6.74.34-3.12-1-3.78-3.86-3.73-3.07.05-7,1.42-9-.67s-.75-6-.6-9c.18-3.64-1.48-4.62-4.68-4.49-2.73.11-5.49.25-8.14-.73,0-3.74,0-7.49,0-11.23,4-2,8.06-1.08,12.15-.67a2.4,2.4,0,0,1,1,.84c1,2.22.57,4.6.67,6.92.15,3.88.63,4.4,4.59,4.52,2.71.08,5.42,0,8.14,0,4.37.32,8.91-1.2,13.1,1.14l0-.05a4,4,0,0,1,1.09,2.71c0,7.94.52,15.88-.27,23.81A2.69,2.69,0,0,1,160.41,200.15Z" transform="translate(0)"/>
  <path class="cls-54" d="M93.74,172.44c-1.5,3.16-4.41,2-6.88,2.24-1.53.13-3.64-.58-4.12,1.5a11.85,11.85,0,0,0,.16,6.95c.47,1.22,1.86.71,3,.62,5.59-.45,7.09,1,7.11,6.66q0,4.46,0,8.93l-12.74.09c0-3.47-.06-6.93,0-10.4,0-2.2-.9-3.16-3.11-3.12-3.47.06-6.93,0-10.4,0,0-3.1.06-6.21,0-9.3s1.35-4.24,4.3-4.21C78.61,172.48,86.17,172.44,93.74,172.44Z" transform="translate(0)"/>
  <path class="cls-207" d="M133.51,159.65l-12.8,0c-3.55,0-7.1,0-10.66,0-1.17,0-2.58.33-2.84-1.48a14,14,0,0,1,0-11.9l13.52-.22,12.68.14,0,0A17,17,0,0,1,133.51,159.65Z" transform="translate(0)"/>
  <path class="cls-136" d="M107.24,146.31l0,11.9c-7.23.5-14.39-1-21.61-.76-2.24.08-3.08-.94-3.14-3.14-.08-2.7.67-5.5-.71-8.1a14.19,14.19,0,0,1,12,0Z" transform="translate(0)"/>
  <path class="cls-208" d="M93.8,146.17l-12,0-1.57,0a17,17,0,0,1,.16-13.38H93.67Q93.73,139.47,93.8,146.17Z" transform="translate(0)"/>
  <path class="cls-209" d="M80.34,132.79q-.09,6.69-.16,13.38L66.7,146.1l.09-13.33Z" transform="translate(0)"/>
  <path class="cls-210" d="M133.42,332v12.87l-12.6-.15q0-6.35.05-12.68Z" transform="translate(0)"/>
  <path class="cls-58" d="M120.72,265.35c0,3.37-.14,6.74,0,10.09.16,2.86-1,4-3.81,4.19-9.71.5-9.71.56-9.72,12.7-3.61,0-7.21-.09-10.81,0-2.62.1-3.5-1-3.47-3.55,0-3.33.47-6.71-.71-10h8.59c3,0,6,.36,8.54-1.74,1.12-.91,2.65-.49,4-.5,5.08-.05,5.08,0,5.09-5.26v-6A1.59,1.59,0,0,1,120.72,265.35Z" transform="translate(0)"/>
  <path class="cls-211" d="M133.53,292.41l-.18,12.69h-12.6q0-6.37,0-12.77h0c4-1.83,8.17-1.45,12.32-.45Z" transform="translate(0)"/>
  <path class="cls-212" d="M120.72,265.35l-2.25,0c-3.54-.24-8.09,1.48-10.36-.66-2.48-2.33-.56-7-.87-10.62-.07-.73,0-1.48,0-2.21,3.58,0,7.15.08,10.72,0,2.07-.07,2.87.7,2.79,2.78-.11,3.08,0,6.16,0,9.24C120.73,264.36,120.72,264.86,120.72,265.35Z" transform="translate(0)"/>
  <path class="cls-213" d="M240.61,159.67l.06-13.41,13.46-.11-.06.11a17.06,17.06,0,0,1,.08,13.39Z" transform="translate(0)"/>
  <path class="cls-214" d="M227.17,146.21q0,6.69-.07,13.38l-13.41,0a16.9,16.9,0,0,1-.05-13.43Z" transform="translate(0)"/>
  <path class="cls-215" d="M187.42,159.69l0-13.42,13.49,0a17.11,17.11,0,0,1,.05,13.43Z" transform="translate(0)"/>
  <path class="cls-216" d="M200.93,159.67q0-6.72-.05-13.43l12.76,0q0,6.72,0,13.43Z" transform="translate(0)"/>
  <path class="cls-217" d="M254.15,159.65q0-6.71-.08-13.39h13.59q-.06,6.69-.1,13.38l-1.43.12a11.87,11.87,0,0,1-10.54,0Z" transform="translate(0)"/>
  <path class="cls-218" d="M374.77,173.18c0,3.11.2,6.24-.06,9.33-.24,2.82,1.19,3.77,3.55,4.1a16.44,16.44,0,0,0,1.86.06c7.23.13,9.17,2.83,7.34,10-.45,1.77-1.66,1.88-3.1,2-9.59.59-9.59.6-9.59,10.37,0,4.48.11,9,0,13.44-.08,2.44.76,3.25,3.21,3.21,7.71-.12,15.43,0,23.15,0a17.59,17.59,0,0,1-.11,13.48l0-.05c-4.31,2.29-8.93.83-13.4,1.13-4.22.09-8.45.12-12.68,0-4.44-.16-8.91.62-13.31-.55a2.3,2.3,0,0,1-1-1,8,8,0,0,1-.53-3.29c0-11.94-.14-23.88.05-35.83.26-4.52-1-9.17,1-13.57q.07-6.7.16-13.42l13.41-.16a.52.52,0,0,1,.2.54C374.88,173.09,374.83,173.18,374.77,173.18Z" transform="translate(0)"/>
  <path class="cls-219" d="M361.16,185.94l.06,13.37c-2.48,2.06-5.45,1.19-8.19,1.18-3,0-4.21,1-4.16,4.1.05,2.64.72,5.45-1.07,7.88-4.53,1.22-9,1.63-13.5-.32,0-3.36.07-6.73,0-10.1,0-1.9.63-2.74,2.6-2.66,2.36.1,4.74-.11,7.1.05,2.84.2,3.81-1.23,3.81-3.78,0-3,0-6,0-9C352.16,185,356.71,186.32,361.16,185.94Z" transform="translate(0)"/>
  <path class="cls-160" d="M374.77,173.18c0-.27,0-.55,0-.82q.06-6.31.1-12.64l12.63-.08.07.08c2.09,4,.87,8.22.93,12.36a2.84,2.84,0,0,1-1,1.85c-3.29.53-3.16,3-2.95,5.4.23,2.67-.59,3.68-3.46,3.7s-3.57-1.27-3.34-3.8S377.74,174.22,374.77,173.18Z" transform="translate(0)"/>
  <path class="cls-220" d="M441.47,159.69v12.73l-40.47,0a2.74,2.74,0,0,1-.78-1.15c-.29-3.9-1.2-7.85.78-11.59,3.35,0,6.7-.13,10,0,2.47.11,3.54-.54,3.53-3.28,0-3.28-1.59-7.54.74-9.61s6.42-.44,9.74-.62c1-.05,2,0,3,0,1.81,2.56,1.06,5.5,1,8.27,0,3.06,1.16,4.12,4.15,4.09,2.77,0,5.71-.78,8.26,1.09Z" transform="translate(0)"/>
  <path class="cls-221" d="M441.47,159.7c-3.62,0-7.25-.08-10.86,0-1.91,0-2.71-.63-2.66-2.6.11-3.62.06-7.24.08-10.86l13.41,0Z" transform="translate(0)"/>
  <path class="cls-174" d="M401,159.7c0,4,0,8,0,12-4.35,2.85-8.88,2.5-13.48.75q0-6.36,0-12.71Z" transform="translate(0)"/>
  <path class="cls-222" d="M414.45,225.66l.15-13.52a16.58,16.58,0,0,1,13.21,0l.32,0-.21,13.4Z" transform="translate(0)"/>
  <path class="cls-223" d="M401,239.15l.11-13.48,13.42-.06q0,6.72-.08,13.45Z" transform="translate(0)"/>
  <path class="cls-224" d="M374.75,265.35V251.83l.54-.47c4.22-.8,8.43-1.41,12.54.52,1.24,4.55,1.58,9.08-.28,13.57l-.15,14.91c-2.71,0-5.42-.11-8.13,0-3.38.16-4.66-1.4-4.53-4.67C374.87,272.25,374.76,268.8,374.75,265.35Z" transform="translate(0)"/>
  <path class="cls-225" d="M387.55,265.45l-.07-13.61a15.71,15.71,0,0,1,0-12.59L401,239.1q0,13.08-.07,26.16Z" transform="translate(0)"/>
  <path class="cls-226" d="M387.34,332.09c-2.86,0-5.74-.2-8.58,0-3,.24-4.16-.64-4.06-3.87.23-7.71.08-15.43.09-23.14a14.86,14.86,0,0,1,12.62,0l.2-.08Z" transform="translate(0)"/>
  <path class="cls-227" d="M387.41,305.12l-12.62,0c0-2.86.18-5.74-.07-8.58-.28-3.17.61-4.6,4.06-4.24a81.64,81.64,0,0,0,8.57,0Z" transform="translate(0)"/>
  <path class="cls-218" d="M387.51,172.43c4.5-.07,9,.36,13.48-.75,0,.25,0,.51,0,.76,0,3.47-.08,6.94,0,10.4.07,2.12-.47,3.26-2.88,3.12a63.27,63.27,0,0,0-7.79,0c-2.41.14-3-1-2.88-3.12.11-3,0-5.94,0-8.91C387.5,173.43,387.51,172.93,387.51,172.43Z" transform="translate(0)"/>
  <path class="cls-228" d="M427.81,212.17l-13.21,0c0-4.09-1.49-9.43.52-11.92s7.67-.52,11.72-.8a7.09,7.09,0,0,1,1.12.07Z" transform="translate(0)"/>
  <path class="cls-110" d="M255.59,159.78h10.54c0,2.71-.07,5.41,0,8.12.05,2.21-1,3.11-3.13,3.06-2.46-.07-4.92,0-7.38,0C255.6,167.22,255.6,163.5,255.59,159.78Z" transform="translate(0)"/>
  <path class="cls-229" d="M160.49,265.42q0-6.76,0-13.52a16.61,16.61,0,0,1,13.31,0l.29-.06-.18,13.46Z" transform="translate(0)"/>
  <path class="cls-230" d="M147,278.91c0-3.58,0-7.17-.07-10.75-.07-2.06.66-2.9,2.77-2.83,3.58.11,7.17,0,10.76,0l-.06,13.44Z" transform="translate(0)"/>
  <path class="cls-231" d="M133.45,279.61c4.44-1.63,9-.38,13.55-.73q0,6.71-.1,13.41l-13.37.12-.21-.24A16.28,16.28,0,0,1,133.45,279.61Z" transform="translate(0)"/>
  <path class="cls-232" d="M334.3,212.15l13.37,0a15.65,15.65,0,0,1,0,13.5l-13.34,0c0-.27,0-.54,0-.81Q334.31,218.52,334.3,212.15Z" transform="translate(0)"/>
  <path class="cls-233" d="M347.67,225.67v-13.5c0-3.34.17-6.68.07-10-.06-2.05.55-2.88,2.71-2.81,3.59.13,7.18,0,10.77,0q0,19.91.08,39.8a16.6,16.6,0,0,1-13.46,0Q347.75,232.37,347.67,225.67Z" transform="translate(0)"/>
  <path class="cls-234" d="M347.84,239.07l13.46,0-.06.07a15.31,15.31,0,0,1,.08,12.67H347.8Q347.83,245.46,347.84,239.07Z" transform="translate(0)"/>
  <path class="cls-235" d="M361.32,251.85q0-6.34-.08-12.67l13.6,0a15.39,15.39,0,0,1-.12,12.64l0,0Z" transform="translate(0)"/>
  <path class="cls-236" d="M160.41,200.15l.09-.85a17.41,17.41,0,0,1,13.39.18l-.09,39.63a16.94,16.94,0,0,1-13.36,0Z" transform="translate(0)"/>
  <path class="cls-237" d="M173.89,199.48l-13.39-.18q0-13.43-.08-26.86c3.35,0,6.71.1,10.05-.06,2.46-.11,3.57.52,3.51,3.27C173.81,183.59,173.9,191.54,173.89,199.48Z" transform="translate(0)"/>
  <path class="cls-238" d="M160.39,172.49,147,172.41c-2.07-3.8-1.1-7.81-.77-11.78a2.14,2.14,0,0,1,.86-1l13.32.1Z" transform="translate(0)"/>
  <path class="cls-239" d="M160.44,239.13l13.36,0q0,6.39,0,12.79H160.48Q160.47,245.51,160.44,239.13Z" transform="translate(0)"/>
  <path class="cls-240" d="M133.51,159.65q0-6.69-.11-13.4c3.46,0,6.91.08,10.36-.09,2.35-.11,3.34.61,3.23,3.11-.14,3.44.06,6.89.11,10.34l-.26.16a17.18,17.18,0,0,1-13.35-.13Z" transform="translate(0)"/>
  <path class="cls-129" d="M133.45,279.61q-.07,6.28-.13,12.57l-12.6.17c1.39-2.72.76-5.64.68-8.44-.1-3.17.84-4.64,4.22-4.36C128.21,279.78,130.84,279.6,133.45,279.61Z" transform="translate(0)"/>
  <path class="cls-207" d="M133.49,159.64l13.35.13q.09,6.31.17,12.64c-3.21,0-6.41,0-9.62,0-2.68,0-4.15-.94-4-3.93S133.48,162.6,133.49,159.64Z" transform="translate(0)"/>
  <path class="cls-241" d="M374.72,251.86l.12-12.64,12.64,0v12.59Z" transform="translate(0)"/>
</svg>