<svg id="Calque_1" data-name="Calque 1" xmlns="http://www.w3.org/2000/svg" viewBox="0 0 333 314"><defs><style>.cls-1{fill:#fefefe;}.cls-2{fill:#fde52e;}.cls-3{fill:#fef3a3;}.cls-4{fill:#fbd018;}.cls-5{fill:#c28313;}.cls-6{fill:#fcd018;}.cls-7{fill:#f9d836;}.cls-8{fill:#a56b13;}.cls-9{fill:#dd9d1b;}.cls-10{fill:#fbeb9b;}.cls-11{fill:#e0ac15;}.cls-12{fill:#a3650e;}.cls-13{fill:#feed6f;}.cls-14{fill:#f1e9dc;}.cls-15{fill:#c19358;}.cls-16{fill:#a36510;}.cls-17{fill:#fde84c;}.cls-18{fill:#f9f2e5;}.cls-19{fill:#fae26a;}.cls-20{fill:#fef7af;}.cls-21{fill:#eab626;}.cls-22{fill:#f9f4ec;}.cls-23{fill:#ac7726;}.cls-24{fill:#c48415;}.cls-25{fill:#c08212;}.cls-26{fill:#d6921c;}.cls-27{fill:#f4e9d4;}.cls-28{fill:#fdee7d;}.cls-29{fill:#f0cd1f;}.cls-30{fill:#f3ebe0;}.cls-31{fill:#e6a718;}.cls-32{fill:#fdeb1d;}.cls-33{fill:#fdec1b;}.cls-34{fill:#e9b217;}.cls-35{fill:#e7b417;}.cls-36{fill:#ebba19;}.cls-37{fill:#eab315;}.cls-38{fill:#d49414;}.cls-39{fill:#f7d021;}.cls-40{fill:#d99f15;}.cls-41{fill:#f5d71e;}.cls-42{fill:#d89a14;}.cls-43{fill:#eaebea;}.cls-44{fill:#eae9ea;}.cls-45{fill:#a8a9a8;}.cls-46{fill:#fcfcfc;}.cls-47{fill:#c7c6c7;}.cls-48{fill:#cccacc;}.cls-49{fill:#eeb518;}.cls-50{fill:#f6c318;}.cls-51{fill:#fbfbfb;}.cls-52{fill:#e59a38;}.cls-53{fill:#e39437;}.cls-54{fill:#cac8ca;}.cls-55{fill:#995f18;}.cls-56{fill:#fcd744;}.cls-57{fill:#9f6321;}.cls-58{fill:#9b6110;}.cls-59{fill:#ab9c65;}.cls-60{fill:#cc8839;}.cls-61{fill:#f7f7f7;}.cls-62{fill:#f5f3d5;}.cls-63{fill:#bc752e;}.cls-64{fill:#fedd29;}.cls-65{fill:#e1c14d;}.cls-66{fill:#a6936a;}.cls-67{fill:#d4d5d3;}.cls-68{fill:#e5e0d6;}.cls-69{fill:#b7b6b7;}.cls-70{fill:#7e7f7d;}.cls-71{fill:#fdd73b;}.cls-72{fill:#8b818b;}.cls-73{fill:#d2d0d2;}.cls-74{fill:#b9ae94;}.cls-75{fill:#e59439;}.cls-76{fill:#bc7539;}.cls-77{fill:#f5efbc;}.cls-78{fill:#a8a07e;}.cls-79{fill:#a7a6a7;}.cls-80{fill:#e5e5e5;}.cls-81{fill:#dde1dd;}.cls-82{fill:#f5f5f1;}.cls-83{fill:#e0e1e0;}.cls-84{fill:#e7ad19;}.cls-85{fill:#d0cfd0;}.cls-86{fill:#f5f1f5;}.cls-87{fill:#d1a54b;}.cls-88{fill:#f5f7f5;}.cls-89{fill:#f0e5d6;}.cls-90{fill:#d4d1d4;}.cls-91{fill:#edede6;}.cls-92{fill:#cccdcc;}.cls-93{fill:#d2d1d2;}.cls-94{fill:#d7a218;}.cls-95{fill:#ebb340;}.cls-96{fill:#bababa;}.cls-97{fill:#c1841a;}.cls-98{fill:#c9cbc9;}.cls-99{fill:#f0f1f0;}.cls-100{fill:#e8e9e8;}.cls-101{fill:#e4ceaa;}</style></defs><path class="cls-1" d="M167,.1q81,0,161.91-.1c3.42,0,4.09.67,4.09,4.1q-.18,152.9,0,305.81c0,3.42-.67,4.09-4.09,4.09Q164.5,313.82.1,313.9.1,159,0,4.1C0,.68.67,0,4.09,0c38,.16,76,.1,113.94.1,3.62,7.65,1.43,11.42-6.77,11.55-5.46.09-10.92,0-16.38,0-3,0-5.18.66-5.43,4.2s-2.65,4.68-5.82,4.73c-4.64.07-9.27.18-13.89-.05-1.15,0-2.3.13-3.45,0-3.72-.38-6.12.65-5.88,5a4.78,4.78,0,0,1-1.49,4.05c-6,2-12.17.74-18.25.92-.65,0-1.31,0-2,0-6.26.05-6.26.05-7.36,6a4.67,4.67,0,0,1-1.44,3c-6.32,2-12.78.7-19.17.91-.82,0-1.64,0-2.46,0-5.55.11-5.65.21-5.71,6,0,1.15-.07,2.3,0,3.46.32,34.45.11,68.89.12,103.33,0,20.13.23,40.26-.12,60.39.15,10,.21,19.9,0,29.85.08,3.37.15,6.75,0,10.12.11,3.79.2,7.6,0,11.39-.22,4.1.76,6.84,5.53,6.67a3.65,3.65,0,0,1,2.26.95,4.18,4.18,0,0,1,1,2.71c-.21,6.3,2,5.92,7,6.07,3.89.11,7.88-.78,11.64,1a3.83,3.83,0,0,1,1.21,2.1c1.63,6.86,1.63,6.87,9.09,7,3-.12,5.89-.1,8.83,0,3.34-.12,6.68-.11,10,0,3.41-.15,6.81-.1,10.22,0,9.41.21,18.87-1.07,28.24.75A4,4,0,0,1,99.33,296c-.32,4.86,2.4,5.86,6.44,5.42.81-.08,1.64,0,2.46,0,3.28-.13,6.55-.1,9.83,0,3.09-.15,6.17-.1,9.25,0,9.74.2,19.51-1,29.2.74a3.19,3.19,0,0,1,1.43,1.88c2,6.3,2,6.3,8.59,6.39,6.51-.19,13-.17,19.52,0,9.5-.17,19-.21,28.51,0,3.31-.06,6.62-.14,9.93,0,1.12,0,2.26-.13,3.38,0,3.72.42,5.94-.81,5.88-4.93a3.93,3.93,0,0,1,1.38-3,5.49,5.49,0,0,1,3.28-1c3.5.07,5.08-1.6,5.18-5.07s2.27-4.9,5.55-5c4.79-.1,9.58-.16,14.37,0a22.83,22.83,0,0,1,2.48,0c4.45.62,7.05-.78,6.68-5.79a4,4,0,0,1,1.25-3.15c3.05-1.63,6.33-1,9.55-1,1.15,0,2.31-.11,3.47,0,3.08.23,4.65-1.05,4.6-4.27a6.24,6.24,0,0,1,1.32-4.66,4.66,4.66,0,0,1,2.78-.92c3.64.12,5.95-1.07,6.11-5.2.1-2.53,2-3.63,4.38-3.83a66,66,0,0,1,8.89-.11c4,.21,6.88-.62,6.55-5.52a4.77,4.77,0,0,1,1.08-3.23c7.76-3,7.76-3,7.75-12,0-2.79,0-5.59,0-8.39-.36-8.32-.15-16.64-.15-25q0-71.61,0-143.23a51.73,51.73,0,0,1,.15-6.47c-.07-3.14-.15-6.29,0-9.43-.1-3.35-.12-6.71,0-10.06-.08-3.24-.12-6.49,0-9.73,0-.66,0,.17,0-.49-.16-8.15,1.28-8.55-8.44-8.4-20.89.29-41.76.09-62.63.11a11.22,11.22,0,0,1-4.86-.81A3.12,3.12,0,0,1,253,18c-2.13-6.37-2.13-6.37-8.86-6.43-24,.32-47.91.1-71.86.11A9.17,9.17,0,0,1,167,10.51,9.05,9.05,0,0,1,167,.1Z" transform="translate(0)"/><path class="cls-2" d="M69.09,19.25c5-.05,10-.33,14.93-.09,3.39.17,4.55-1.1,4-4.24-.67-4,1-5.1,4.88-4.91,6.63.32,13.3-.16,19.93.17,4.05.21,5.89-.81,5.22-5.1a33.08,33.08,0,0,1,0-5h39c.66,6.05,3.87,9.49,10.09,9.84l70.8.16c2.33,0,4.65.09,7,.13,1,5.09,3.91,8.18,9.2,8.76l68.86.26c2.09,2.95,1.49,6.11.73,9.29a2.81,2.81,0,0,1-1.22,1.26c-3.14,1.13-6.4.61-9.62.7s-6.25.09-9.37,0c-8.18,0-8.18,0-9.81,8.13a2.71,2.71,0,0,1-1.11,1.14c-3.38,1.23-6.9.64-10.36.7-6.22.13-6.22.07-7,6.13a7.55,7.55,0,0,1-.5,1.92,2.76,2.76,0,0,1-1.16,1.23c-3.08,1.18-6.29.68-9.45.74s-6.58,0-9.87,0c-7,0-7,0-8.45,6.92a2.84,2.84,0,0,1-1.06,1.24c-3.8,1.47-7.76.7-11.64.81-6.06.16-6.07.08-6.83,6.11a8.17,8.17,0,0,1-.49,1.9,2.86,2.86,0,0,1-1.16,1.25c-3.08,1.2-6.29.69-9.45.75-1.32,0-2.64.06-4,0-2.42,0-3.64,1-3.76,3.53-.09,1.94.08,4-1.59,5.55a11.27,11.27,0,0,1-9.72-.19,3.79,3.79,0,0,1-1-1.63c-2.23-7.21-2.23-7.09-9.94-7.27-3.86-.1-7.92,1-11.52-1.4-2.67-7.1-4.46-8.37-12.91-8.45-17.59-.17-35.17.09-52.76-.12-6.63-.27-13.35,1.2-19.87-1-.29-.59-.24.26-.3-.38-.76-7.39-5.69-7.75-11.65-7.59-15.28.42-30.56-.22-45.84.39-4.91-.44-9.84-.25-14.76-.33-2,0-4,0-5.65-1.29-1.71-3.44-2-6.83.35-10.12L30,39c6.09-.44,9.43-3.75,10.19-9.76L58.93,29A20.27,20.27,0,0,0,69.09,19.25Z" transform="translate(0)"/><path class="cls-3" d="M167.1,9.94C157,10.43,157,10.43,157,.1h10C167,3.38,167.07,6.66,167.1,9.94Z" transform="translate(0)"/><path class="cls-4" d="M88.05,58.05l20,0a5,5,0,0,1,1,1.69c2.07,6.69,2.07,6.71,8.88,6.71,16.14,0,32.27,0,48.41,0,2.62,0,5.37-.38,7.63,1.54l15.37,0c6.2,0,6.53.34,6.62,6.36,0,1.16,0,2.31,0,3.47l-.48.61a2.7,2.7,0,0,1-.86.44c-7.26,1.57-7.26,1.57-7.28,9.25.05,8.4,0,7.35,9.23,7.42,3.36.09,6.89-.91,9.86,1.56,1.12,1.79,1.11,3.81,1.11,5.8q0,64.62,0,129.25c0,.5-.07,1-.11,1.49.17,10,.21,20,0,30.07-.28,6.36,1.18,12.82-1,19.08-3,2.36-6.48,1.41-9.81,1.5h-.49c-9.75,0-8.58-.38-8.73,8.58-.08,3.2.46,6.45-.73,9.58a3,3,0,0,1-1.34,1.22c-6.39,1.34-12.85.47-19.29.62-3.07-.06-6.26.67-9.06-1.29l-30-.32a4.34,4.34,0,0,1-1-1.69c-1.64-6.67-1.64-6.67-8.36-6.72-3.24.14-6.48.1-9.71,0s-6.85.8-9.93-1.32l-29-.29a3.54,3.54,0,0,1-.83-1.21c-2.11-7.14-2.11-7.14-9.47-7.19-3.22.13-6.44.1-9.66,0-3,.11-6,.1-9.08,0-3.36-.1-6.85.79-9.95-1.28-5.12-.06-10.24-.35-15.33-.09-3.58.19-5.26-.67-4.7-4.55A32.89,32.89,0,0,0,10,273a8.79,8.79,0,0,1-.17-9.24c3.19-1.95,6.52-1.61,9.87-.55,1.57,1,1.7,2.74,1.8,4.36.16,2.56,1.23,4,4,3.85,3.07-.13,3.18-2.26,3.22-4.5,0-1,0-2,0-3,0-8.55,0-8.55-8.58-8.63-3.14-.07-6.32.39-9.4-.63a2.88,2.88,0,0,1-1.28-1.21c-1.2-3.18-.65-6.48-.74-9.74-.16-7-.18-13.94,0-20.91.1-4.28-.51-7.62-5.72-7.89a3,3,0,0,1-1.67-1q-.07-50.43-.16-100.85c0-21.3.06-42.6.09-63.9A7.05,7.05,0,0,1,10,49c5.15,0,10.3,0,15.44.09,1.6,0,3.37-.55,4.68,1,1.4,6.18,5.8,6.65,11.17,6.53,13.23-.29,26.46-.12,39.69-.08C83.41,56.52,86,56.25,88.05,58.05Z" transform="translate(0)"/><path class="cls-5" d="M224.84,311.84l-9.85-.1c-2.66-3.53-1.27-7.63-1.55-11.48a53.91,53.91,0,0,1,.06-7.41q-.28-14.44,0-28.91-.28-15,0-30.11c-.33-24.44-.08-48.88-.14-73.31q-.06-27.69,0-55.36c0-2.64-.31-5.35,1-7.82,2.87-2.72,6.42-1.6,9.74-1.75,1.78,0,3.58,0,5.38,0,2.13,0,4-.43,3.93-3.17s-2.09-2.93-4.14-3c-1.63,0-3.27,0-4.91,0-3.27,0-6.63.72-9.66-1.21a11,11,0,0,1-.25-9.88,2.25,2.25,0,0,1,.67-.67A18.79,18.79,0,0,0,225,68.07l-.06-.07c3.27-2.31,7-1.32,10.55-1.4,6.73-.16,6.73-.06,8.33-6.37A5.42,5.42,0,0,1,245,58.09h0c3.85-2.7,8.25-1.22,12.4-1.54a32.9,32.9,0,0,1,5.87.07c1.14,0,2.3-.12,3.44,0,3.68.4,6.16-.58,6.05-4.9A3.86,3.86,0,0,1,274,49.09L273.9,49c3.26-2.34,7-1.46,10.54-1.37,4.38.12,7.51-.62,7.26-5.93A3.87,3.87,0,0,1,293,39.12l-.06-.06c3-2.24,6.49-1.32,9.82-1.43s6.56-.11,9.84,0,6.51-.4,9.69.61a2.92,2.92,0,0,1,1.3,1.16c1.21,3,.69,6.24.75,9.38a29,29,0,0,1,0,2.95c-.29,3.18.82,5.08,4.32,5a4.09,4.09,0,0,1,3.1,1.3c.05,27.14.15,54.28.15,81.42q0,47.2-.16,94.42c-.6.29.25.22-.38.29-7.06.86-7.48,5.64-7,11.28.24,2.87.63,5.95-1.34,8.55-.21,9.89-.21,9.89-10.3,9.88a25.53,25.53,0,0,1-3.5,0c-4.59-.65-7.42.41-6.28,5.9.47,2.27-.49,3.33-3,3.16-2.31-.16-4.65.07-7,.12-.27.2-.54.51-.83.52-4.91.19-7.46,2.56-7.23,7.64,0,.64-.59,1.16-1.07,1.62l-9.85.22c-6.28.25-9.23,4-10.14,9.77-5.28,0-10.55.09-15.83.05-1.88,0-2.92.22-3.09,2.58-.55,7.33-.68,7.32-8,7.43-.66,0-1.32.09-2,.14l-.58-.6c-1.6-4.32-.56-8.81-.85-13.21-.15-2.41-.19-4.77-3.55-4.74s-3.46,2.41-3.5,4.81c-.08,4.61,0,9.22,0,13.84C226.35,306.14,227.14,309.27,224.84,311.84Z" transform="translate(0)"/><path class="cls-6" d="M214.88,292.94q.06,9.39.11,18.8H186a7.26,7.26,0,0,1-.08-8.77l.15-.14c3-2.17,6.33-1.24,9.56-1.36a27,27,0,0,1,3,0c4.14.54,6.36-.93,6.07-5.41a4.41,4.41,0,0,1,1.38-3.62C209.09,291.14,212.05,290.85,214.88,292.94Z" transform="translate(0)"/><path class="cls-7" d="M1.26,213.94c1.32,0,2.65.13,4,0,3.63-.34,5,1.21,4.93,4.86-.18,8.4-.08,16.8-.1,25.19-2.95,1.91-5.88,2-8.79-.11Z" transform="translate(0)"/><path class="cls-8" d="M185.92,303c0,2.92.05,5.84.08,8.77l-19.87.09C164,308.94,164,306,166,303Z" transform="translate(0)"/><path class="cls-9" d="M323,254.05c0-4.91.23-9.84-.16-14.72-.36-4.38,1.14-6.08,5.47-5.41a23.22,23.22,0,0,0,3.44,0c.06,5-.13,9.95.27,14.89.32,4-.78,5.88-5.06,5.17A21.89,21.89,0,0,0,323,254.05Z" transform="translate(0)"/><path class="cls-10" d="M10.26,263.91c-.1,3-.21,6.07-.31,9.11-8.85-.23-8.86-.23-8.85-9.32,0-3.27.08-6.55.13-9.82a7.13,7.13,0,0,1,8.69.08l.28,0A9.3,9.3,0,0,1,10.26,263.91Z" transform="translate(0)"/><path class="cls-11" d="M59,283c10.12-.25,10.12-.25,10.08,9.75H59A8.69,8.69,0,0,1,59,283Z" transform="translate(0)"/><path class="cls-12" d="M59,283c0,3.25,0,6.5.08,9.75H49.09a8.22,8.22,0,0,1,0-9.68Z" transform="translate(0)"/><path class="cls-13" d="M40.14,29.22c-.23,10-.23,10-10.19,9.76,0-.16,0-.32.05-.49C30.32,28.77,30.32,28.77,40.14,29.22Z" transform="translate(0)"/><path class="cls-14" d="M30.05,283.09l10,0a8.74,8.74,0,0,1,.15,9.8C30.15,293.06,30.15,293.06,30.05,283.09Z" transform="translate(0)"/><path class="cls-15" d="M98,293h10.07a8.59,8.59,0,0,1,0,9.71C98.14,303.24,98.14,303.24,98,293Z" transform="translate(0)"/><path class="cls-16" d="M108.1,302.76l0-9.71H118a8.19,8.19,0,0,1,0,9.7Z" transform="translate(0)"/><path class="cls-17" d="M69.09,19.25c-.1,10-.1,10-10.16,9.77a4.28,4.28,0,0,0,0-.49C59.3,18.74,59.3,18.74,69.09,19.25Z" transform="translate(0)"/><path class="cls-18" d="M263.82,292.86a4.07,4.07,0,0,0,.05-.49c.29-9.8.29-9.8,10.09-9.28C273.89,293,273.89,293,263.82,292.86Z" transform="translate(0)"/><path class="cls-19" d="M9.92,254l-8.7-.08,0-10L10,244Z" transform="translate(0)"/><path class="cls-20" d="M10,49l-8.78.19c0-.33-.07-.66-.06-1,.14-10.38-1.77-9.14,9.07-9C10.13,42.45,10.05,45.72,10,49Z" transform="translate(0)"/><path class="cls-21" d="M322.88,29q0-4.91.05-9.79c10.54,0,9-2.39,8.81,9.86C328.77,31.08,325.82,31.17,322.88,29Z" transform="translate(0)"/><path class="cls-22" d="M283.81,282.87c0-.49.1-1,.11-1.48.14-8.77.14-8.77,9-8.3,0,.33,0,.65,0,1C292.66,283.93,294.86,282.93,283.81,282.87Z" transform="translate(0)"/><path class="cls-23" d="M40.2,292.85l-.15-9.8,9,0v9.68Z" transform="translate(0)"/><path class="cls-24" d="M322.88,29l8.86.07v10c-2.94,2.17-5.89,1.87-8.83,0h0a8.61,8.61,0,0,1,0-10Z" transform="translate(0)"/><path class="cls-25" d="M118,302.75q0-4.86,0-9.7c9.09-.38,9.09-.38,9,9.7Z" transform="translate(0)"/><path class="cls-26" d="M322.91,39.07h8.83v10c-2.91,2.06-5.84,2-8.79.08C322.94,45.78,322.92,42.42,322.91,39.07Z" transform="translate(0)"/><path class="cls-27" d="M224.84,311.84l.22-8.84c3.25-2.28,6.58-2.08,10-.29l-.09.35C234.76,313.24,236.87,311.87,224.84,311.84Z" transform="translate(0)"/><path class="cls-28" d="M254.07,19c-9,.29-9,.29-9.2-8.76C253.72,9.83,253.72,9.83,254.07,19Z" transform="translate(0)"/><path class="cls-29" d="M323,49.13l8.79-.08v9C322.82,58,322.82,58,323,49.13Z" transform="translate(0)"/><path class="cls-30" d="M166,303c0,2.94.09,5.88.14,8.81-9.07.19-9.07.19-9.15-8.77Z" transform="translate(0)"/><path class="cls-31" d="M215,97.05q0,68.46-.07,136.92a7.34,7.34,0,0,1-8.92,0L206,97c-.41-6.49-5.32-7.89-10.36-9.15-1.41-3.27-1.81-6.5.31-9.65l.08-.35L206,78c2.71-1.88,5.56-1.65,8.47-.57.22.2.43.41.64.62L215,88A7.5,7.5,0,0,1,215,97.05Z" transform="translate(0)"/><path class="cls-32" d="M174,68H114.9c-6.86,0-6.86,0-6.86-7,0-1,0-2,0-3H162a39.51,39.51,0,0,1,5.85.76C173.51,59.69,175,62.92,174,68Z" transform="translate(0)"/><path class="cls-33" d="M88.05,58.05c-16.71,0-33.42.05-50.13,0-8.81,0-7.77,1.21-7.83-8,1.95-1.22,4.14-1,6.29-1H79.25C88,49.07,88,49.07,88.05,58.05Z" transform="translate(0)"/><path class="cls-34" d="M245,58.09c-.07,10-.07,10-10.21,10-3.28,0-6.57,0-9.85,0,.14-9.94.14-10,10.22-9.94Z" transform="translate(0)"/><path class="cls-35" d="M293,39.12c-.14,10-.14,10-10.21,10l-8.86,0c.12-10,.12-10,10.21-10C287.07,39.08,290,39.11,293,39.12Z" transform="translate(0)"/><path class="cls-36" d="M263.89,58,245,58.08c0-9,0-9,9.17-9,3.28,0,6.56,0,9.84,0A7.26,7.26,0,0,1,263.89,58Z" transform="translate(0)"/><path class="cls-37" d="M312.89,39l-10,0a8.58,8.58,0,0,1,.07-9.88l10,0A8.58,8.58,0,0,1,312.89,39Z" transform="translate(0)"/><path class="cls-38" d="M225,68.07c0,9.93,0,9.93-9.91,10l-.19,0c-2-3.34-2.06-6.65.16-9.92Z" transform="translate(0)"/><path class="cls-39" d="M303,29.11c0,3.29-.05,6.59-.07,9.88l-10,.07C293,29,293,29,303,29.11Z" transform="translate(0)"/><path class="cls-40" d="M312.89,39l.06-9.89,10,0c0,3.33,0,6.65,0,10Z" transform="translate(0)"/><path class="cls-41" d="M215,68.1q-.07,5-.16,9.92H206c0-.33,0-.65,0-1C206,68,206,68,215,68.1Z" transform="translate(0)"/><path class="cls-42" d="M263.89,58l.09-8.89,10,0C273.91,58.18,273.91,58.18,263.89,58Z" transform="translate(0)"/><path class="cls-43" d="M137,195.16l-9.84,0a4.1,4.1,0,0,1-.84.51c-6.75,2.22-6.75,2.21-6.81,10,.24,4.58.11,9.15.08,13.71,0,1.95,0,4-1.55,5.5H88.07c-.28-.6-.25.26-.3-.37-.41-5.39-3-8.72-8.56-9.47,0-11.45,0-22.9-.25-34.34-.09-3.68.85-5.17,4.65-4.67,2.23.29,4.52.66,4.53-3.2,0-6.75.26-6.75,7.29-6.76l2.49,0c3.06-2.18,6.56-1.33,9.92-1.4s6.51-.13,9.75,0c1,0,1.94-.11,2.9,0,3.31.31,5.36-.72,5.16-4.48a5.92,5.92,0,0,1,1.21-4.1c0-8.46,0-16.92.22-25.37.07-2.84-.86-3.66-3.66-3.64-11.78.09-23.55,0-35.32-.09a4.1,4.1,0,0,1-1.18-2.08c-1.42-6.29-1.42-6.29-7.94-6.35l-1,0c-7.44,0-7.44,0-7.48,7.28,0,.67,0,1.33,0,2,.27,7.5.11,15,.09,22.48,0,2,0,4-1.57,5.6l-28.86,0A23.14,23.14,0,0,0,30.23,146q0-19.4-.08-38.8c.12-.12.23-.33.36-.34,6.16-.38,8.83-4.1,9.41-9.83.47-8.91.47-8.94,9.8-8.93,6.45,0,12.9.09,19.35.15,1.14,7.38,6.23,7.65,12.26,7.4,8.9-.36,17.83-.21,26.74,0,3.43,0,7-.78,10.11,1.37,10.89,0,21.79.29,32.67,0,4.75-.15,7.21.78,6.21,6a20.07,20.07,0,0,0,0,4c.56,6.1,3.88,9.47,10,10.07l0,0c2.3,3.18,1.31,6.81,1.43,10.29.92,17.74-.88,35.43-.94,53.15A6.56,6.56,0,0,1,166,185l.1,0c-.39.29-.78.76-1.21.77-4.66.13-7.15,2.21-6.77,7.14A3.09,3.09,0,0,1,157,195l.08,0c-3.06,2.33-6.61,1.35-10,1.47C143.63,196.33,140.11,197.22,137,195.16Z" transform="translate(0)"/><path class="cls-44" d="M108,264.09c-8.45,0-16.9-.2-25.35-.09-2.78,0-3.75-.75-3.68-3.62q.26-11.43,0-22.87c-.07-2.86.89-3.74,3.68-3.61,5.12.24,10.26.17,15.4.24a3.87,3.87,0,0,1,1,1.65c1.81,6.65,1.81,6.55,9,6.71,3.51.08,7.25-1,10.43,1.53,1.57,6.64,2,13.27-.22,19.88A9.38,9.38,0,0,1,108,264.09Z" transform="translate(0)"/><path class="cls-45" d="M166,185c-.2-19.31,1.65-38.58,1.09-57.89a7,7,0,0,1,8.78-.1c0,18.09,0,36.18.19,54.26,0,2.72-.66,4-3.59,3.75C170.3,184.81,168.12,185,166,185Z" transform="translate(0)"/><path class="cls-46" d="M108,97H75.63c-6.58,0-6.58,0-6.57-6.34,0-.83,0-1.66,0-2.49H108C110.12,91.13,110,94.07,108,97Z" transform="translate(0)"/><path class="cls-47" d="M69,155.84,69.12,127c3-2,6.21-1.66,9.43-.56l.63.63c0,7.94-.32,15.89,0,23.82.16,4.12-1,5.81-5.18,5.17A40.73,40.73,0,0,0,69,155.84Z" transform="translate(0)"/><path class="cls-48" d="M118.06,263.79q0-9.93-.07-19.87a8.52,8.52,0,0,1,.06-9.82c9-.46,9-.46,9,8.46,0,7.11-.11,14.22-.16,21.33-2.62,2-5.4,1.68-8.24.56Z" transform="translate(0)"/><path class="cls-49" d="M206,233.94l8.92,0,0,30c-3,2.08-5.94,1.9-8.9,0Q206,248.93,206,233.94Z" transform="translate(0)"/><path class="cls-50" d="M206,263.93l8.9,0q0,14.49,0,29H206c-2.27-3.31-2.14-6.64-.07-10Q206,273.43,206,263.93Z" transform="translate(0)"/><path class="cls-51" d="M118.05,234.1l-.06,9.82c-4.8,0-9.62-.25-14.39.1-4.25.31-6.3-.87-5.58-5.42a30.14,30.14,0,0,0,0-4.46Z" transform="translate(0)"/><path class="cls-52" d="M206,282.94q0,5,.07,10c-.21,10-.21,10-10,10-2.35-3-1.35-6.57-1.48-9.93.15-3.36-.88-6.89,1.37-10Z" transform="translate(0)"/><path class="cls-53" d="M20,254c10.06-.32,10.06-.32,10.06,9.68a27.79,27.79,0,0,0,0,4c.58,4.09-1,5.38-5.19,5.39s-5.33-1.43-4.87-5.2a30.94,30.94,0,0,0,0-4A8.79,8.79,0,0,1,20,254Z" transform="translate(0)"/><path class="cls-54" d="M118,224.8q0-9.93.1-19.87a7.22,7.22,0,0,1,8.77,0c0,4.79-.18,9.61.24,14.37.4,4.52-1.07,6.41-5.65,5.63A28.43,28.43,0,0,0,118,224.8Z" transform="translate(0)"/><path class="cls-55" d="M195.92,78.24,196,88l-.64.61c-3.17,1-6.3,1.49-9.24-.65C186.07,76.35,184,78.05,195.92,78.24Z" transform="translate(0)"/><path class="cls-56" d="M39.92,97c.48,9.76.48,9.76-9.77,10.17C29.92,97.14,29.92,97.14,39.92,97Z" transform="translate(0)"/><path class="cls-57" d="M195.91,283l.06,9.89c-3.34,2.1-6.65,2.17-9.95-.09C185.91,282.72,185.91,282.72,195.91,283Z" transform="translate(0)"/><path class="cls-58" d="M20,254l0,9.88H10.26L10.2,254Z" transform="translate(0)"/><path class="cls-59" d="M30.23,146c9.77.1,9.77.1,9.94,9.91C28.36,155.93,30.07,157.93,30.23,146Z" transform="translate(0)"/><path class="cls-60" d="M20,68c0,2.14,0,4.3.14,6.43.25,2.9-1.09,3.61-3.78,3.65-6.26.09-6.26.21-6.24-6.12,0-1.32.08-2.64.12-4A8.55,8.55,0,0,1,20,68Z" transform="translate(0)"/><path class="cls-61" d="M108,166l-10.12,0c0-.16,0-.32,0-.49.27-9.81.27-9.81,10-9.29A8.41,8.41,0,0,1,108,166Z" transform="translate(0)"/><path class="cls-62" d="M108,166c0-3.27,0-6.55,0-9.82l9.9-.1c2.3,3.23,2.16,6.53.24,9.87Z" transform="translate(0)"/><path class="cls-63" d="M20,68H10.2c0-2,0-4-.14-5.93-.25-2.85.6-4.12,3.79-4.12,6.25,0,6.26-.17,6.23,6.09C20.08,65.39,20,66.71,20,68Z" transform="translate(0)"/><path class="cls-64" d="M186,292.82l9.95.09q0,5,.05,10l-10-.06C186.05,299.5,186,296.16,186,292.82Z" transform="translate(0)"/><path class="cls-65" d="M137,195.16l10.06,0a8.62,8.62,0,0,1,.08,9.74C137.08,205.17,137.08,205.17,137,195.16Z" transform="translate(0)"/><path class="cls-66" d="M147.1,204.88c0-3.25-.06-6.49-.08-9.74l10-.18c0,.16,0,.32,0,.49C157,205.18,157,205.18,147.1,204.88Z" transform="translate(0)"/><path class="cls-67" d="M167.07,117c-10.22.13-10.22.13-10-10.07C166.85,107.26,166.85,107.26,167.07,117Z" transform="translate(0)"/><path class="cls-68" d="M79.21,215c8.8.05,8.8.05,8.86,9.84C77.5,224.9,79,227,79.21,215Z" transform="translate(0)"/><path class="cls-69" d="M126.87,205l-8.77,0c0-.33-.06-.65,0-1,.22-10-2-9.08,9.07-8.84Q127,200,126.87,205Z" transform="translate(0)"/><path class="cls-70" d="M157,195c0-.33,0-.66,0-1,.1-9.06.1-9.06,9.08-9,0,.32,0,.65,0,1C165.9,195,165.9,195,157,195Z" transform="translate(0)"/><path class="cls-71" d="M118.14,165.94l-.24-9.87,9-.1c0,.32.11.64.12,1C127.27,166.11,127.27,166.11,118.14,165.94Z" transform="translate(0)"/><path class="cls-72" d="M108,264.09l10-.3-.11.34a6.79,6.79,0,0,1,0,8.65c-.32,0-.64.1-1,.11C108.05,273.16,108.05,273.16,108,264.09Z" transform="translate(0)"/><path class="cls-73" d="M175.84,127l-8.78.1c0-3.38,0-6.77,0-10.15C176.36,117.17,176.36,117.17,175.84,127Z" transform="translate(0)"/><path class="cls-74" d="M79.1,117.13c8.87-.3,8.87-.3,9,9.74l-8.92.19-.29,0C77,123.68,76.91,120.38,79.1,117.13Z" transform="translate(0)"/><path class="cls-75" d="M196,88h1c9,0,9,0,9,9l-10.05-.1c-2-3-1.86-6,0-8.94Z" transform="translate(0)"/><path class="cls-76" d="M195.88,88c0,3,0,6,0,8.94a7.91,7.91,0,0,1-1,.07c-10-.21-9.07,2-8.82-9Z" transform="translate(0)"/><path class="cls-77" d="M108,97,108,88.21a3.86,3.86,0,0,1,.49-.06c9.37-.39,9.37-.39,9.72,8.8Z" transform="translate(0)"/><path class="cls-78" d="M118,272.78l0-8.65,8.92-.24C127.06,274.42,128.51,273,118,272.78Z" transform="translate(0)"/><path class="cls-79" d="M283.88,78.22l9.06-.23c3.09-2.24,6.63-1.25,10-1.39,3.39.09,6.93-.82,10,1.4,9.95.11,9.94.11,9.94,10.35,0,20.77-.16,41.54.1,62.31.06,4.53-1.29,6.08-5.57,5.33-3.9-.68-5.11,1.2-4.53,4.76.66,4-.74,6-5,5.25-3.77-.64-5.69.72-5,4.8s-.85,5.93-5.08,5.2c-3.92-.68-5.17.94-5,4.89.31,6.8.07,13.63.08,20.44,0,1.87.13,4.14-2.64,3.58-6.87-1.37-6.74,2.87-6.35,7.5.07.82.05,1.66.07,2.49-3.37,2.33-6.75,2.13-10.16.08l.07.07c-1.39-1.63-1.55-3.61-1.55-5.6,0-10.89-.19-21.78.1-32.67.12-3.34-.38-6.71.59-10a3.18,3.18,0,0,1,1.07-1.34c8.36-2.18,8.34-2.18,8.4-11.5,0-2.44-.27-4.92.62-7.3a2.87,2.87,0,0,1,1.13-1.26c2.75-1.16,5.65-.74,8.5-.78.66,0-.18,0,.49,0,8.16,0,8.16,0,8.23-8-.19-6.47-.06-12.93-.08-19.4,0-8.42,0-8.42-8.39-8.67-4.26-.19-8.12,0-7.94,5.94.08,2.54-1.89,3.93-4.31,3.91-4.56,0-5.45,2.48-5.39,6.39q.19,10.71,0,21.43c-.07,3.42.76,6.94-1.24,10.11a10.06,10.06,0,0,1-10.26-.13,30.79,30.79,0,0,1-4-.16c-4.67-.75-6.88.85-6,5.82.56,3.16-.7,4.67-4.06,4.23a48.36,48.36,0,0,0-5-.17c-1.41-1.42-1.49-3.26-1.5-5.08q-.14-19.53,0-39.07a8.82,8.82,0,0,1,.91-4.31,3.55,3.55,0,0,1,2-1.37c6.14-1.9,6.05-1.9,6.19-8.15.07-3.59-.71-7.29,1-10.73.23-.25.48-.63.75-.63,5.73,0,8.92-2.91,9.72-8.54l-.08,0c2.95-2.16,6.32-1.36,9.57-1.41.66,0,1.32,0,2,0,6.07,0,6.07,0,7.35-6.18A4.52,4.52,0,0,1,283.88,78.22Z" transform="translate(0)"/><path class="cls-79" d="M292.78,224.93c.05,8.45,0,16.9.19,25.35.06,2.79-.83,3.82-3.67,3.7-5.13-.21-10.27-.14-15.41-.19a4.48,4.48,0,0,1-1.35-3.1c-.36-7.4-.28-14.8-.05-22.2a5.86,5.86,0,0,1,1.43-3.61l-.07.07c3.06-2.25,6.58-1.34,9.95-1.44C286.84,223.65,290.06,222.74,292.78,224.93Z" transform="translate(0)"/><path class="cls-80" d="M245,117.07q-.06,24.39-.13,48.78c-10,.49-10,.49-9.94-9.5q.06-19.66.17-39.34A8.45,8.45,0,0,1,245,117.07Z" transform="translate(0)"/><path class="cls-81" d="M273.8,175.93l.12,39.12c-10-.25-10-.25-10-10.22,0-9.62.1-19.24.16-28.87A8.54,8.54,0,0,1,273.8,175.93Z" transform="translate(0)"/><path class="cls-82" d="M245,117.07l-9.9-.06c0-1-.14-2-.15-3-.07-6.76-.07-6.94,6.5-6.93,2.91,0,3.68-1,3.52-3.7-.21-3.45.23-7-.14-10.38-.46-4.17,1-5.74,5.12-5a30.32,30.32,0,0,0,3.94.19c2.15,3,1.92,5.94.14,9-.05,4.82-.43,9.66-.05,14.45.36,4.44-1.1,6.15-5.5,5.44A18.42,18.42,0,0,0,245,117.07Z" transform="translate(0)"/><path class="cls-83" d="M273.92,224.88l0,28.91c-9.95.51-9.95.51-9.95-9.41,0-4.95.24-9.92-.09-14.86-.25-3.71.88-5.15,4.63-4.62A36.6,36.6,0,0,0,273.92,224.88Z" transform="translate(0)"/><path class="cls-84" d="M235,302.71l-10,.29c0-5.28.18-10.57-.18-15.82-.29-4.29,2.08-4.24,5.18-4.34,3.4-.1,5.24.51,5,4.54C234.72,292.47,235,297.6,235,302.71Z" transform="translate(0)"/><path class="cls-85" d="M313,78l-10.14-.06a8.66,8.66,0,0,1,0-9.72C312.79,67.7,312.79,67.7,313,78Z" transform="translate(0)"/><path class="cls-86" d="M302.88,68.22q0,4.86,0,9.72l-9.9,0V77.5C292.94,67.7,292.94,67.7,302.88,68.22Z" transform="translate(0)"/><path class="cls-87" d="M263.89,156.13l9.92-.08c2.37,3.3,2.22,6.62.07,10l.07-.08a8.72,8.72,0,0,1-9.92.19Z" transform="translate(0)"/><path class="cls-88" d="M264,166.12l9.92-.19-.15,10-9.69,0Q264.06,171,264,166.12Z" transform="translate(0)"/><path class="cls-89" d="M273.9,87.94l-10,.08c0-.16,0-.33,0-.49.23-9.83.23-9.83,10-9.31A8.25,8.25,0,0,1,273.9,87.94Z" transform="translate(0)"/><path class="cls-90" d="M273.9,87.94l0-9.72h10C284,88.27,284,88.27,273.9,87.94Z" transform="translate(0)"/><path class="cls-91" d="M283.86,224.86l-10,.09V215L284,214.9l-.08.06C286,218.28,286.09,221.58,283.86,224.86Z" transform="translate(0)"/><path class="cls-92" d="M283.86,224.86q0-5,.07-9.9c9.35,0,9.35,0,8.85,10Z" transform="translate(0)"/><path class="cls-93" d="M254.06,97.14c-.05-3-.09-6-.14-9l10-.22C264,96.8,264,96.8,254.06,97.14Z" transform="translate(0)"/><path class="cls-94" d="M224.94,88.08c2,0,4,.12,5.93-.08,3.35-.34,4.1,1.19,4.19,4.3.11,3.62-.92,5.26-4.71,4.77a49.12,49.12,0,0,0-5.43-.08A7.46,7.46,0,0,1,224.94,88.08Z" transform="translate(0)"/><path class="cls-95" d="M224.94,88.08q0,4.45,0,8.91l-9.93.06q0-4.51,0-9Z" transform="translate(0)"/><path class="cls-96" d="M79.1,117.13,78.89,127l-9.77,0C69.21,115.39,67.09,117.06,79.1,117.13Z" transform="translate(0)"/><path class="cls-97" d="M274,146c0-8.32.05-16.65-.12-25-.06-2.89.61-4.57,3.83-4,4.85.8,7.25-.81,6.27-6.07-.56-3,.83-4.27,3.89-3.93a46.09,46.09,0,0,0,5,.06,5.58,5.58,0,0,1,1.52,4c0,8.2.62,16.41-.37,24.59a4.25,4.25,0,0,1-.83,1.5,3,3,0,0,1-1.74.8c-4.34-.09-6.63,1.85-6.55,6.33,0,.64-.57,1.15-1,1.62h.1A8.53,8.53,0,0,1,274,146Z" transform="translate(0)"/><path class="cls-98" d="M292.91,137l-.06-29.9c10.07-.14,10.08-.14,10.07,9.67,0,6.77-.06,13.55-.09,20.33C299.51,139.08,296.2,139.18,292.91,137Z" transform="translate(0)"/><path class="cls-99" d="M274,146l10,0c0,5.11-.25,10.24,0,15.33.21,3.66-.88,5.21-4.67,4.71a39.37,39.37,0,0,0-5.43,0c0-3.32-.05-6.64-.07-10Z" transform="translate(0)"/><path class="cls-100" d="M292.91,137l9.93.1c0,10.43,1.89,8.89-9.85,8.82-2.15-3-2-5.93-.12-8.94Z" transform="translate(0)"/><path class="cls-101" d="M292.87,137q.06,4.47.11,8.94l-9.13.07C284.12,137.12,284.12,137.12,292.87,137Z" transform="translate(0)"/></svg>