<svg id="Calque_1" data-name="Calque 1" xmlns="http://www.w3.org/2000/svg" viewBox="0 0 43.93 43.92"><defs><style>.cls-1{fill:#130e06;}.cls-2{fill:#2b1d00;}.cls-3{fill:#eb0903;}.cls-4{fill:#008700;}.cls-5{fill:#669732;}.cls-6{fill:#003297;}.cls-7{fill:#3200fe;}.cls-8{fill:#fecb97;}.cls-9{fill:#fe9766;}.cls-10{fill:#fee532;}.cls-11{fill:#f6bc88;}.cls-12{fill:#ee1f0f;}.cls-13{fill:#feee37;}.cls-14{fill:#fecbcb;}.cls-15{fill:#97cbfe;}.cls-16{fill:#fec066;}</style></defs><path d="M44,34h1.51c.11.11.32.23.33.35,0,3.78,0,7.55,0,11.49H2.23c-.68-1.66.11-3.61-.31-5.21.74-.94,1.47-.5,2.08-.63l.52.4c.43.5.77,1.07,1.15,1.6,4.92,1,9.82,1.41,14.68-.24a7,7,0,0,0,.4-1.87l.06-2a7.12,7.12,0,0,1,.67-3.4L22,34h2l.56.57c.92,1.68.68,3.54.85,5.34,2.54,4,14.67,4,17.18,0,.16-1.79-.07-3.65.84-5.32Z" transform="translate(-1.92 -1.92)"/><path class="cls-1" d="M36,6c2.22-.35,3,1.78,3.82,2.91.65.88,1.42.93,2.1,1.32v5.38c-1.12.57-2.66.59-2.05,2.39H38a1.42,1.42,0,0,1-1.91.13c-1.44-1.54.64-3.12-.06-4.68a2.91,2.91,0,0,0-3.48-2c-2.37,1.45-.66,4.28-2,6.06L30,18H28.53a2.87,2.87,0,0,0-2.45-2.36V10.38C28,9.79,29,8.17,29.94,6.71c.64-1,1.35-.57,2.06-.71l.58.13a3.19,3.19,0,0,0,2.84,0Z" transform="translate(-1.92 -1.92)"/><path d="M10,10V6.56c.36-.72,1.12-.46,1.61-.67.86-1.09,0-2.29.68-3.64.86-.62,2.13-.19,3.37-.13.66,1.09.2,2.26.34,3.34.37.71,1.15.42,2,.85V10a3.31,3.31,0,0,1-2,1.1,13.69,13.69,0,0,1-3.94,0A3.13,3.13,0,0,1,10,10Z" transform="translate(-1.92 -1.92)"/><path d="M20,22h1.75c.5,2,.18,4.08.24,6.13S22,32,22,34a1.62,1.62,0,0,1-2.34-.22,15.78,15.78,0,0,1-.27-11.14C19.59,22.42,19.79,22.21,20,22Z" transform="translate(-1.92 -1.92)"/><path class="cls-2" d="M10,10h2a1.64,1.64,0,0,1,.39,1.79c-.26.78-.87,1.42-.88,2.3a13.83,13.83,0,0,0,1,2.29A2,2,0,0,1,12,18.29,1.64,1.64,0,0,1,10,18H8.2c-.47-2.52,0-5.1-.24-7.42C8.67,9.69,9.39,10.13,10,10Z" transform="translate(-1.92 -1.92)"/><path class="cls-2" d="M16,10h3.88c.27,2.53.05,5.1.13,7.46-.68.85-1.4.41-2,.54a1.65,1.65,0,0,1-2,.28A52,52,0,0,1,16,10Z" transform="translate(-1.92 -1.92)"/><path d="M6,34V22.52c.69-.81,1.39-.4,2-.52l.58.6a18.55,18.55,0,0,1,.15,10.62,2.06,2.06,0,0,1-2,1.17Z" transform="translate(-1.92 -1.92)"/><path d="M42,26h1.9c.2,2.64.05,5.32.1,8-2.3,1-2.76-.66-3.12-2.22a7.39,7.39,0,0,1,.49-5.12Z" transform="translate(-1.92 -1.92)"/><path d="M24,34V26.51c.71-.79,1.4-.4,2-.51l.62.67a7.3,7.3,0,0,1,.5,5.11C26.76,33.34,26.3,35.05,24,34Z" transform="translate(-1.92 -1.92)"/><path d="M4,40V34.51c.72-.78,1.4-.4,2-.51a4.78,4.78,0,0,1,1.16,3.83,4.15,4.15,0,0,1-.9,2.28A1.79,1.79,0,0,1,4,40Z" transform="translate(-1.92 -1.92)"/><path d="M26,26V22h2l.55.64C28.84,24.62,29.5,26.89,26,26Z" transform="translate(-1.92 -1.92)"/><path d="M40,22h2v4c-3.5.89-2.84-1.38-2.56-3.36Z" transform="translate(-1.92 -1.92)"/><path d="M32,6V4.45c1.15-.82,2.42-.39,3.61-.34.69.57.27,1.28.39,1.89A2.89,2.89,0,0,1,32,6Z" transform="translate(-1.92 -1.92)"/><path d="M28,22V20h2l.4.53a1.71,1.71,0,0,1-.62,1.76A1.41,1.41,0,0,1,28,22Z" transform="translate(-1.92 -1.92)"/><path d="M18,20h2v2c-1.6,1-2.27.28-2.39-1.36Z" transform="translate(-1.92 -1.92)"/><path d="M8,22V20h2l.39.64C10.27,22.28,9.6,23,8,22Z" transform="translate(-1.92 -1.92)"/><path d="M36,18h2v2l-.63.39c-1.24.07-1.81-.54-1.76-1.76Z" transform="translate(-1.92 -1.92)"/><path d="M38,20h2v2a1.41,1.41,0,1,1-2-2Z" transform="translate(-1.92 -1.92)"/><path d="M30,20V18a1.55,1.55,0,0,1,1.9-.32,1.87,1.87,0,0,1,.61,1.22C32.13,20.32,31.43,21,30,20Z" transform="translate(-1.92 -1.92)"/><path d="M16,18h2v2a1.68,1.68,0,0,1-2.13.15A1.73,1.73,0,0,1,16,18Z" transform="translate(-1.92 -1.92)"/><path d="M10,18h2a1.73,1.73,0,0,1,.13,2.15A1.68,1.68,0,0,1,10,20Z" transform="translate(-1.92 -1.92)"/><path class="cls-3" d="M38,22h2v4h2v7.49c.71.79,1.4.4,2,.51v6a27.71,27.71,0,0,1-20,0V34h1.9c.2-2.64.05-5.32.1-8h2V22h2l.52.44c.57,1.82,2.72,3.21,1.52,5.51-1.82,1.47-.45,3.85-1.56,5.51a7.79,7.79,0,0,1-1.31,1.27c0-.07.12.08.16.05a12.76,12.76,0,0,1,1.17-1.34c1.08-1.76-.23-4.25,1.78-5.71a2.67,2.67,0,0,1,3.39-.05c2.12,1.49.66,4.16,1.95,5.92a4.82,4.82,0,0,1,.83,1c-.07,0,.09-.15,0-.2-.46-.18-.65-.59-1-.89-1.12-1.69.24-4-1.56-5.51-1.23-2.32.93-3.71,1.5-5.54Z" transform="translate(-1.92 -1.92)"/><path class="cls-4" d="M24,40H44v3.85c-6.54.33-13.1.06-19.66.17C23.66,42.61,24.18,41.28,24,40Z" transform="translate(-1.92 -1.92)"/><path class="cls-4" d="M22,42v1.52c-.11.1-.23.31-.35.31-5.77,0-11.53,0-17.31,0C3.69,43.33,4.13,42.61,4,42A25.26,25.26,0,0,1,22,42Z" transform="translate(-1.92 -1.92)"/><path class="cls-5" d="M22,42H4V40H6a20.3,20.3,0,0,1,16,0Z" transform="translate(-1.92 -1.92)"/><path class="cls-6" d="M22,40H6V38a4.73,4.73,0,0,1,2.08-1.11,13.39,13.39,0,0,1,2.37-.21q3.54-.06,7.09,0a13.56,13.56,0,0,1,2.38.18A4.78,4.78,0,0,1,22,38Z" transform="translate(-1.92 -1.92)"/><path class="cls-7" d="M22,38H20a2.88,2.88,0,0,1-.53-3.46L20,34h2Z" transform="translate(-1.92 -1.92)"/><path class="cls-8" d="M32,10h3.39c.59,1,.85,2.26,2.49,2.24v3.44l-1.58.51c-.58.52-.19,1.21-.3,1.81a2.91,2.91,0,0,1-4,0A59.33,59.33,0,0,1,32,10Z" transform="translate(-1.92 -1.92)"/><path class="cls-9" d="M32,10v1.45c.36.73,1.14.41,1.67.72.74,1,0,2.22.4,3.15-.43.86-1.21.54-1.75.85-.62.52-.2,1.22-.32,1.83H30V10.51C30.71,9.72,31.4,10.11,32,10Z" transform="translate(-1.92 -1.92)"/><path class="cls-10" d="M32,6h4V7.55c-1.15.82-2.42.39-3.61.34C31.7,7.32,32.12,6.61,32,6Z" transform="translate(-1.92 -1.92)"/><path class="cls-11" d="M12,20V16c.05-.19.09-.39.13-.58a3.19,3.19,0,0,0,0-2.84L12,12V10h4v1.45c.37.72,1.13.44,1.64.67.77,1.09.05,2.27.43,3.2-.43.86-1.21.54-1.75.85-.62.52-.2,1.22-.32,1.83v2A2.72,2.72,0,0,1,12,20Z" transform="translate(-1.92 -1.92)"/><path class="cls-7" d="M12,20h6v2h2V34a1.67,1.67,0,0,1-1.92.36,2.84,2.84,0,0,1-.84-1.07c-.46-1.92-.61-3.95-1.93-5.59-.51-1-.29-2.22-1.17-3.23-1.32.69-.84,2.2-1.43,3.17-1.31,1.64-1.51,3.65-1.91,5.6a2.92,2.92,0,0,1-.84,1.1,2.54,2.54,0,0,1-1.39.09L8,34V22h2V20Z" transform="translate(-1.92 -1.92)"/><path class="cls-8" d="M12,16H10.53c-.69-.43-.52-1.12-.53-1.75s0-1.28,0-1.72c.68-.83,1.39-.41,2-.53A2.89,2.89,0,0,1,12,16Z" transform="translate(-1.92 -1.92)"/><path class="cls-7" d="M8,38H6V34H8A2.89,2.89,0,0,1,8,38Z" transform="translate(-1.92 -1.92)"/><path class="cls-12" d="M32,18h4v2h2v2a6.33,6.33,0,0,1-8,0V20h2Z" transform="translate(-1.92 -1.92)"/><path class="cls-13" d="M30,22h8v3.54l-2,.92V28H32V26.54c-.36-.73-1.16-.39-2-.91Z" transform="translate(-1.92 -1.92)"/><path class="cls-14" d="M32,28v5.49c-.72.78-1.4.4-2,.51V28.51C30.72,27.73,31.4,28.11,32,28Z" transform="translate(-1.92 -1.92)"/><path class="cls-14" d="M38,34H36.28c-.57-1.94-.15-4-.28-6h1.72C38.29,29.94,37.87,32,38,34Z" transform="translate(-1.92 -1.92)"/><circle class="cls-14" cx="27.08" cy="33.08" r="1.41"/><circle class="cls-14" cx="37.08" cy="33.08" r="1.41"/><path class="cls-14" d="M28,36l-.15,1.9L26.48,38c-.61-.55-.61-1.1-.17-1.89Z" transform="translate(-1.92 -1.92)"/><path class="cls-14" d="M40,36l1.9.15L42,37.52c-.55.61-1.1.61-1.89.17Z" transform="translate(-1.92 -1.92)"/><path class="cls-7" d="M18,38H10a2.89,2.89,0,0,1,0-4c1.49-1.13.54-3.43,2.15-4.5a3.82,3.82,0,0,1,3.64,0c1.69,1,.72,3.39,2.21,4.53A2.89,2.89,0,0,1,18,38Z" transform="translate(-1.92 -1.92)"/><ellipse class="cls-15" cx="7.08" cy="34.08" rx="1.41" ry="2.83"/><ellipse class="cls-15" cx="17.08" cy="34.08" rx="1.41" ry="2.83"/><path class="cls-9" d="M12,16V12h1.52c1.11,1.12,0,2.46.53,3.41C13.32,16.3,12.61,15.88,12,16Z" transform="translate(-1.92 -1.92)"/><path class="cls-16" d="M16,30H12a1.4,1.4,0,0,1,0-2V22.46c1.15-.83,2.42-.41,4-.32V28A1.4,1.4,0,0,1,16,30Z" transform="translate(-1.92 -1.92)"/><path class="cls-15" d="M12,28v6H10V28.51C10.72,27.73,11.4,28.11,12,28Z" transform="translate(-1.92 -1.92)"/><path class="cls-15" d="M16,30V28h1.72c.57,1.94.15,4,.28,6H16Z" transform="translate(-1.92 -1.92)"/></svg>