<svg id="Calque_1" data-name="Calque 1" xmlns="http://www.w3.org/2000/svg" viewBox="0 0 35.59 44.02"><defs><style>.cls-1{fill:#fec993;}.cls-2{fill:#fd9632;}.cls-3{fill:#cb6632;}.cls-4{fill:#f89132;}.cls-5{fill:#eb8532;}.cls-6{fill:#fe9732;}.cls-7{fill:#39220b;}.cls-8{fill:#e57f32;}.cls-9{fill:#fc9632;}.cls-10{fill:#f08a32;}.cls-11{fill:#fec081;}.cls-12{fill:#fbb36e;}.cls-13{fill:#fecb97;}</style></defs><path class="cls-1" d="M32,46H26c-5.65-4.17-6-5.21-3-9.83.8-.82,1.68-1.57,2.54-2.33a4.38,4.38,0,0,1,1.18-.65c1.05-.54,2.56.11,3.25-1.26-2-1.54-3.36.66-5,.89-3.35.17-4.36-1.44-3.48-4.51A3.17,3.17,0,0,1,23.38,27a11.1,11.1,0,0,0,5-1.74c5.15-1.55,9,.09,11.59,4.77a5,5,0,0,1,0,6,5.51,5.51,0,0,1-1.67,1.2c-2.58,1.78-5.65,3.14-5.73,7A2,2,0,0,1,32,46Z" transform="translate(-6.16 -1.98)"/><path class="cls-2" d="M24,36v1.45c-.36.73-1.13.42-1.7.73-.62,1-.16,2.18-.27,3C23.44,42.54,24.74,43.76,26,45c.16.17,0,.63,0,1H20c-1.15-1.4-2.8-.86-4.26-1.08A2.94,2.94,0,0,1,14,44c-.66-.67-1.33-1.34-2-2a3.36,3.36,0,0,1-.46-3.9c1.4-1.44,3.38-1.9,5-3C19.13,34.58,21.71,34,24,36Z" transform="translate(-6.16 -1.98)"/><path d="M40,30H38.4c.35-2.07-2.74-1.71-2.59-4H28a3.17,3.17,0,0,1-3.76.46,1.79,1.79,0,0,1-.72-1.34c.54-2.42,2.57-2.21,4.32-2.4,2-.21,4,.13,5.85-.39,1.58-1.67.58-4,1.64-5.68a2,2,0,0,1,2-1L38,16v9.73l1.76.46C40.34,27.39,39.83,28.73,40,30Z" transform="translate(-6.16 -1.98)"/><path d="M16,16H14.51c-.17-.26-.49-.52-.49-.78C14,11.6,14,8,14,4.53c.67-.84,1.39-.4,2-.53l.59.61a17.82,17.82,0,0,1,0,10.79Z" transform="translate(-6.16 -1.98)"/><path d="M24,4h1.75c.5,2,.18,4.08.24,6.13S26,14,26,16l-.79.38c-3.4-.92-2.34-3.79-2.51-6-.14-1.91-.28-3.91.69-5.73Z" transform="translate(-6.16 -1.98)"/><path d="M28,16V4.52c.69-.81,1.39-.4,2-.52l.57.59A5.73,5.73,0,0,1,31.24,7c-.64,3.19,2,7.28-2.51,9.43Z" transform="translate(-6.16 -1.98)"/><path d="M38,4h1.49c.17.26.49.52.49.78C40,8.4,40,12,40,15.47c-.67.84-1.39.4-2,.53-2.17-3.67-1.61-7.5-.63-11.34Z" transform="translate(-6.16 -1.98)"/><path d="M8,24V22h4l.59.62a12,12,0,0,1-.16,9.09,2.12,2.12,0,0,1-2.17.68c-2.49-2.06-.89-5.26-2.11-7.67Z" transform="translate(-6.16 -1.98)"/><path d="M12,22V20.51c1.05-1.17,2.52-.09,3.76-.69.57-1.22.07-2.55.24-3.82a1.78,1.78,0,0,1,2.25-.1,6,6,0,0,1,.46,5.6,2.53,2.53,0,0,1-1.16,1.19A5.14,5.14,0,0,1,12,22Z" transform="translate(-6.16 -1.98)"/><path d="M8,34H6.47c-.09-.1-.3-.22-.3-.34,0-3.11,0-6.21,0-9.33.51-.64,1.23-.2,1.84-.33,1.69,2.16.74,4.69,1,7.05a5,5,0,0,1-.41,2.37Z" transform="translate(-6.16 -1.98)"/><path d="M30,4V2.12c2.53-.27,5.1-.05,7.46-.13.85.68.41,1.4.54,2A6.45,6.45,0,0,1,30,4Z" transform="translate(-6.16 -1.98)"/><path d="M16,4V2.12c2.53-.27,5.1-.05,7.46-.13.85.68.41,1.4.54,2A6.43,6.43,0,0,1,16,4Z" transform="translate(-6.16 -1.98)"/><path d="M40,36V30h1.74v5.79C41.33,36.31,40.61,35.87,40,36Z" transform="translate(-6.16 -1.98)"/><path d="M10,38H8.44c-.87-1.22-.25-2.67-.44-4a3,3,0,0,1,3.5-.54c2,1.86.43,3-.83,4.23Z" transform="translate(-6.16 -1.98)"/><path d="M26,16h2c1.06,1.57,1.25,3-.6,4.38C24.54,19.71,24.82,18,26,16Z" transform="translate(-6.16 -1.98)"/><path d="M38,36h2v4H38l-.52-.54A2.85,2.85,0,0,1,38,36Z" transform="translate(-6.16 -1.98)"/><path d="M12,38v4H10.44c-.87-1.22-.25-2.67-.44-4A1.4,1.4,0,0,1,12,38Z" transform="translate(-6.16 -1.98)"/><path class="cls-3" d="M16,44h4v2H16A1.35,1.35,0,0,1,16,44Z" transform="translate(-6.16 -1.98)"/><path d="M38,40v2H36l-.39-.64C35.73,39.72,36.4,39,38,40Z" transform="translate(-6.16 -1.98)"/><circle cx="6.84" cy="41.02" r="1.41"/><path d="M36,42v2H34l-.39-.64C33.73,41.72,34.4,41,36,42Z" transform="translate(-6.16 -1.98)"/><path d="M16,44v2H14V44Z" transform="translate(-6.16 -1.98)"/><path d="M32,46V44a1.4,1.4,0,0,1,2,0v2Z" transform="translate(-6.16 -1.98)"/><path class="cls-4" d="M34,44H32c-.61-.12-1.31.29-1.76-.24-1.26-2.25,1.35-1.44,1.84-2.47,1-2.09,3.32-3.2,4.5-5.26.12-.21.93,0,1.42,0v4H36v2H34Z" transform="translate(-6.16 -1.98)"/><path class="cls-5" d="M22,28v4h4l.41.43A1.3,1.3,0,0,1,26,34c-3.08,1.78-5.77,1.3-8.07-1.41a4.4,4.4,0,0,1-.67-3.92,2.51,2.51,0,0,1,1-1.23A3.11,3.11,0,0,1,22,28Z" transform="translate(-6.16 -1.98)"/><path d="M18,32h1.46c.73.37.39,1.17.92,2H26v2H16c-1.5,1-2.18.28-2.42-1.24.59-1.84,2.46-1.81,3.77-2.6Z" transform="translate(-6.16 -1.98)"/><path d="M22,28H18c-1.75-2-1.48-4,0-6a1.72,1.72,0,0,1,2-.33A19.32,19.32,0,0,0,24,26a1.35,1.35,0,0,1,0,2Z" transform="translate(-6.16 -1.98)"/><path class="cls-6" d="M26,32V30.26h5.79c.52.41.08,1.13.21,1.74A5,5,0,0,1,26,32Z" transform="translate(-6.16 -1.98)"/><path class="cls-7" d="M26,32h6v1.72c-1.94.57-4,.15-6,.28Z" transform="translate(-6.16 -1.98)"/><path class="cls-8" d="M24,28V26h4v2Z" transform="translate(-6.16 -1.98)"/><path class="cls-3" d="M14,34v2h2v2H10V36.46l2-.92V34l.43-.39a1.93,1.93,0,0,1,1.14,0Z" transform="translate(-6.16 -1.98)"/><path class="cls-9" d="M24,26H20V22c.63-1.08,2.2-1.8,1.59-3.36-1.23-3.13-.61-6.5-1.22-10.2C18.42,11,20.23,14.12,18,16H16V4h8V15.48c.69.81,1.39.4,2,.52.17,1.27-.33,2.6.28,3.91h1.44c.61-1.31.11-2.64.28-3.91h1.72c.64-1.63.17-3.41.26-5.12S30,7.63,30,6a1.77,1.77,0,0,1,2-.26c2.33,4.33,1.1,8.79.34,13.45.92-1.49.6-3.71,3-3.57L36,16v7.89c-1.89,0-3.82.09-5.74.11s-3.94,0-5.73,0C23.69,24.67,24.13,25.39,24,26Z" transform="translate(-6.16 -1.98)"/><path class="cls-10" d="M32,6H30V4h8V16H36c-1.39-1.42-1.31-3.26-1.38-5A6.19,6.19,0,0,0,32,6Z" transform="translate(-6.16 -1.98)"/><path class="cls-6" d="M18,22v6a1.66,1.66,0,0,1-1.82.4c-.39-.14-.52-.72-1.09-.67-.11,1.15.19,2.37-.3,3.52A2.79,2.79,0,0,1,14,32.34a2.54,2.54,0,0,1-1.39.09L12,32V22Z" transform="translate(-6.16 -1.98)"/><path class="cls-11" d="M8,32V24H9.9c.2,2.64,0,5.32.1,8A1.4,1.4,0,0,1,8,32Z" transform="translate(-6.16 -1.98)"/><path class="cls-6" d="M8,32h4a1.35,1.35,0,0,1,0,2H8Z" transform="translate(-6.16 -1.98)"/><path class="cls-12" d="M18,16V6.12h3.88V17.75l1.71.34c1.08,1.06,0,2.38.69,3.91H18Z" transform="translate(-6.16 -1.98)"/><path d="M16,28h2v4a1.68,1.68,0,0,1-2.33,0A3.09,3.09,0,0,1,16,28Z" transform="translate(-6.16 -1.98)"/><path class="cls-6" d="M16,32h2v2H14a1.41,1.41,0,0,1,2-2Z" transform="translate(-6.16 -1.98)"/><circle cx="6.84" cy="31.02" r="1.41"/><path class="cls-13" d="M32,6h4V16H34.44c-1.08,1.76.05,3.79-.73,5.82a7.08,7.08,0,0,1-3.6,0V18.31L32,17.64Z" transform="translate(-6.16 -1.98)"/><path class="cls-13" d="M16,32H14V24.36a1.54,1.54,0,0,1,1.81-.08c.52,1.11,0,2.45.19,3.72Z" transform="translate(-6.16 -1.98)"/></svg>