<svg id="Calque_1" data-name="Calque 1"
  xmlns="http://www.w3.org/2000/svg" viewBox="0 0 41.5 41.58">
  <defs>
    <style>.cls-1{fill:#326697;}.cls-2{fill:#0e141b;}.cls-3{fill:#6698fb;}.cls-4{fill:#154880;}.cls-5{fill:#093c6f;}.cls-6{fill:#0f2842;}.cls-7{fill:#3266cb;}.cls-8{fill:#174a95;}.cls-9{fill:#26589e;}.cls-10{fill:#10202f;}.cls-11{fill:#5386e3;}.cls-12{fill:#154789;}.cls-13{fill:#003266;}.cls-14{fill:#1d4f91;}.cls-15{fill:#5c90c2;}.cls-16{fill:#97cbfe;}.cls-17{fill:#101010;}.cls-18{fill:#5286b8;}.cls-19{fill:#006697;}.cls-20{fill:#104275;}.cls-21{fill:#174a89;}.cls-22{fill:#fcfdfe;}.cls-23{fill:#07152a;}.cls-24{fill:#245792;}.cls-25{fill:#001020;}.cls-26{fill:#258;}.cls-27{fill:#0d161e;}.cls-28{fill:#88bbfe;}.cls-29{fill:#cbfefe;}.cls-30{fill:#6697fe;}.cls-31{fill:#022e5d;}.cls-32{fill:#104286;}.cls-33{fill:#082038;}.cls-34{fill:#030303;}.cls-35{fill:#72a5f0;}.cls-36{fill:#0f2332;}.cls-37{fill:#00140e;}.cls-38{fill:#001000;}.cls-39{fill:#4073d0;}</style>
  </defs>
  <path class="cls-1" d="M17,41.53H13.64l-.87-1.89H11.31l-.48-.2a11.1,11.1,0,0,1-1.22-.95,7.19,7.19,0,0,1-.73-.73c-.44-.52-.92-1-1.4-1.47a2.54,2.54,0,0,1-.45-.8,1.58,1.58,0,0,1,0-.78,2.88,2.88,0,0,1-.13-.31,2.33,2.33,0,0,1-.06.35,4.35,4.35,0,0,1-.74,1.18,2.14,2.14,0,0,1-1,.47,2,2,0,0,1-1.59-.64A3.61,3.61,0,0,1,3,32.83a4.21,4.21,0,0,1,.51-1.07,7.84,7.84,0,0,0,1.38-2.58,2.74,2.74,0,0,1,2.49-1.71,3.82,3.82,0,0,1,1.9.44,9.55,9.55,0,0,1,2.39,2.18,4.64,4.64,0,0,1,.62,1.81c.16,1.26.17,2.55,1.12,3.55a22.36,22.36,0,0,0,2.07,2.06,9.46,9.46,0,0,1,1.91,2.32A1.64,1.64,0,0,1,17,41.53Z"/>
  <path class="cls-2" d="M13.2,3.81h7.54l.52.23a7.16,7.16,0,0,1,1.67,1.58,2.4,2.4,0,0,1,.2,1.15c-.36,1.78-2.67,1.61-3.19,3.24a4.47,4.47,0,0,1-1,1.47,1.84,1.84,0,0,1-1.64.19,2.69,2.69,0,0,1-1-1.06A2.26,2.26,0,0,1,16,10.4a2.46,2.46,0,0,0-.28.28,2.44,2.44,0,0,1-1,1A2.28,2.28,0,0,1,13,11.49,5.93,5.93,0,0,1,10.65,9a3.09,3.09,0,0,1,.66-3.33V3.81l.41-.38A1.21,1.21,0,0,1,13.2,3.81Z"/>
  <path class="cls-3" d="M1.89,1.93H3.51c.53,1.83.14,3.77.26,5.66a3,3,0,0,1,.9,1.58c.12.58.21,1.17.29,1.76.1,1,.86,1.72,1.21,2.62A2.79,2.79,0,0,1,6,15.35a6.4,6.4,0,0,0-1.06,4.21A4.24,4.24,0,0,1,3.6,22.88a1.68,1.68,0,0,1-2.16-.47c-.83-1.89-.36-3.88-.49-5.83C1.4,11.7-.06,6.71,1.89,1.93Z"/>
  <path class="cls-4" d="M37.71,18.9H34.48c-.69.33-.46,1-.65,1.55l-1.77.72V24c-.47.81-1,.5-1.5.65-.95.95,0,2.31-.56,3.43-.47.57-1.14.17-1.72.29l-.48-.47a6.87,6.87,0,0,1-.63-3.31,11.76,11.76,0,0,1,.12-2.05A5,5,0,0,1,28,20.56a16,16,0,0,1,4.69-4.27c1.73-.27,3.47-.54,5,.72A1.27,1.27,0,0,1,37.71,18.9Z"/>
  <path class="cls-5" d="M32.06,35.87v1.89c-1.31.91-.57,2.86-1.89,3.77H26.4a1.81,1.81,0,0,1-.46-1.81c1.5-2.54,1.69-5.08-.08-7.6a4.87,4.87,0,0,1-.4-2,3.14,3.14,0,0,1,.8-2,1.66,1.66,0,0,1,2,.21v1.45l1.89.86V32.1C31.45,33,30.75,35,32.06,35.87Z"/>
  <path class="cls-6" d="M35.83,9.47h1.88v3.31c-1,1.05-2.36.05-3.49.64-.57.46-.16,1.13-.28,1.71a1.57,1.57,0,0,1-1.64.35A10.57,10.57,0,0,1,30,13.71c-.65-.69-1.28-1.4-1.87-2.14a2.4,2.4,0,0,1-.39-1.65,3.33,3.33,0,0,1,.5-1.06,7.11,7.11,0,0,0,1-2.15,2.34,2.34,0,0,1,1.2-1.45,2,2,0,0,1,1.86.39c.73.92.59,2,.67,3.08C33.45,10.89,34.52,10.62,35.83,9.47Z"/>
  <path class="cls-7" d="M1.89,1.93V17A1.29,1.29,0,0,1,0,17V.14H1.5C2.18.67,1.77,1.35,1.89,1.93Z"/>
  <path class="cls-8" d="M11.31,39.64v1.62c-1.54.6-3.21.16-4.83.25s-3.06,0-4.59,0a1.55,1.55,0,0,1-.5-1.59,3.08,3.08,0,0,1,.63-1c.55-.57,1.13-1.11,1.72-1.65a10.25,10.25,0,0,0,1.92-1.42,1.26,1.26,0,0,1,1.88,0c.63.63,1.25,1.26,1.89,1.89S10.67,39,11.31,39.64Z"/>
  <path class="cls-9" d="M0,35.87V30.21a1.1,1.1,0,0,0,0-1.88V26.44a3.09,3.09,0,0,1,2-.84,3,3,0,0,1,2,.89c.85,1.09.65,2.37.62,3.61a3.34,3.34,0,0,1-.89,2c-1.35,1-.58,3-2,4A1.43,1.43,0,0,1,0,35.87Z"/>
  <path class="cls-10" d="M11.31,5.7V9.47a3.06,3.06,0,0,1-.56.91,6.13,6.13,0,0,1-1.6,1.53,4.14,4.14,0,0,1-2.94.1,2.15,2.15,0,0,1-.93-.81,2.27,2.27,0,0,1,0-1.24c.13-.16.26-.33.4-.49.31,0,.78.13.9,0,.87-1.1,2.28-1.74,2.84-3.06C9.85,5.34,10.65,5.83,11.31,5.7Z"/>
  <path class="cls-1" d="M0,17H1.89v5.66a1.4,1.4,0,0,1,0,1.92,1.41,1.41,0,0,1-1.92,0Z"/>
  <path class="cls-11" d="M26.4,39.64v1.89H22.63a2.71,2.71,0,0,1-.86-1.74,3.57,3.57,0,0,1,.46-2A2.83,2.83,0,0,1,23.36,37a3.32,3.32,0,0,1,3.3.67A1.62,1.62,0,0,1,26.4,39.64Z"/>
  <path class="cls-12" d="M22.63,37.76v1.88c-.94,1.27-2.86.58-3.77,1.89H17V39.64C17.7,36.21,18.42,36,22.63,37.76Z"/>
  <path class="cls-13" d="M9.43,0H13.2V1.93c-.64.62-1.27,1.25-1.89,1.88H9.43V1.93A1.27,1.27,0,0,1,9.43,0Z"/>
  <path class="cls-14" d="M32.06,15.13h5.65V17H32.06l-.38-.4a1.81,1.81,0,0,1,0-1.08Z"/>
  <path class="cls-13" d="M20.74,1.93V.47C21.83-.29,23,.09,24.26.16c.56,1.2.09,2.46.25,3.65a1.55,1.55,0,0,1-1.7.32C21.82,3.68,21.54,2.56,20.74,1.93Z"/>
  <path class="cls-15" d="M32.06,9.47V5.7a1.58,1.58,0,0,1-.14-2,1.6,1.6,0,0,1,2,.13V9.47A1.3,1.3,0,0,1,32.06,9.47Z"/>
  <path class="cls-16" d="M32.06,39.64c1.19.16,2.45-.31,3.69.27v1.35c-1.24.57-2.5.11-3.69.27A1.31,1.31,0,0,1,32.06,39.64Z"/>
  <path class="cls-17" d="M32.06,3.81V5.7H30.17c-1.73.08-1.53-.81-.94-1.89.88.07.88-.53,1-1.17a.72.72,0,0,1,.92-.71A2.24,2.24,0,0,1,32.06,3.81Z"/>
  <path class="cls-1" d="M32.06,35.87H30.58c-.82-1.15-.23-2.51-.41-3.77h1.89Z"/>
  <path class="cls-13" d="M26.4,5.7h1.88a2.46,2.46,0,0,1,.83,1.88,2.81,2.81,0,0,1-.83,1.89,1.52,1.52,0,0,1-1.8.33,2.49,2.49,0,0,1-.93-1.71,3.42,3.42,0,0,1,.37-1.93Z"/>
  <path class="cls-1" d="M32.06,9.47h3.77v1.46c-1.08.77-2.29.38-3.41.32C31.77,10.72,32.17,10.05,32.06,9.47Z"/>
  <path class="cls-13" d="M0,35.87H1.89l.44.42a3.4,3.4,0,0,1,.39,1.77,2.55,2.55,0,0,1-.83,1.58,1.27,1.27,0,0,1-1.89,0Z"/>
  <path class="cls-17" d="M22.63,3.81H26.4V5.7a2.93,2.93,0,0,1-1.89.85,2.85,2.85,0,0,1-1.88-.85,1.23,1.23,0,0,1-.39-1.48Z"/>
  <path class="cls-1" d="M37.71,18.9V17c1.2.16,2.45-.3,3.69.27v1.35C40.16,19.21,38.91,18.74,37.71,18.9Z"/>
  <path class="cls-1" d="M32.06,39.64v1.89H30.17V37.76h1.89Z"/>
  <path class="cls-18" d="M37.71,9.48V8a4.77,4.77,0,0,1,3.69-.13L41.5,9C40.36,9.91,39,9.27,37.71,9.48Z"/>
  <path class="cls-7" d="M18.86,41.53V39.64h3.77v1.89Z"/>
  <path class="cls-17" d="M32.06,3.81c-1.42-.08-.81-1.17-1-1.88h2.83V3.81Z"/>
  <path class="cls-17" d="M28.28,7.59V5.7c.15-.71-.46-1.8.95-1.89.14.72-.47,1.81.94,1.89V7.59A1.29,1.29,0,0,1,28.28,7.59Z"/>
  <path class="cls-13" d="M0,24.56H1.89l.38.4a1.24,1.24,0,0,1-.38,1.48H0Z"/>
  <path class="cls-19" d="M3.77,9.47V7.59H5.66V9.47A1.29,1.29,0,0,1,3.77,9.47Z"/>
  <path class="cls-13" d="M0,28.33c.57.11,1.24-.28,1.81.4v1.08c-.57.68-1.24.29-1.81.4Z"/>
  <path class="cls-17" d="M20.74,1.93h1.89V3.81a1.27,1.27,0,0,1-1.89,0Z"/>
  <path class="cls-17" d="M11.31,3.81V1.93H13.2V3.81Z"/>
  <path class="cls-1" d="M33.9,2,34,.18,35.38.06c.57.52.57,1,.15,1.78Z"/>
  <path class="cls-13" d="M0,39.64H1.89v1.89H0Z"/>
  <path class="cls-16" d="M9.43,0V1.93c-1,0-2.34.26-1.73-1.58C8.19-.24,8.85.16,9.43,0Z"/>
  <path class="cls-17" d="M22.63,37.76H17.45c-.73.67-.38,1.32-.48,1.88H15.08V37.76a3,3,0,0,1-.9-1.68,7.74,7.74,0,0,1-.09-2,4.57,4.57,0,0,1,.59-1.94,3.18,3.18,0,0,1,1.11-.81,12.44,12.44,0,0,1,3.49-.46c1.21,0,2.42,0,3.64,0A4.84,4.84,0,0,1,26.4,32.1h1.77c.25,2.38,0,4.8.12,7-.64.8-1.31.39-1.89.51V37.76c-.8-.69-1.23-1.79-2.37-2.13C22.77,35.81,23.46,37.3,22.63,37.76Z"/>
  <path class="cls-16" d="M3.77,30.21V26.44l.54-.5a3,3,0,0,1,3.44.38,1.65,1.65,0,0,1-.21,2H5.66v1.88A1.27,1.27,0,0,1,3.77,30.21Z"/>
  <path d="M11.31,32.1V30.21a2.58,2.58,0,0,1,2.16-.82c1.41.38,2.61.89,1.61,2.71a2.84,2.84,0,0,1-1.88.84A2.89,2.89,0,0,1,11.31,32.1Z"/>
  <path d="M13.2,30.21H9.43V28.33l.52-.49A3.31,3.31,0,0,1,12,27.58C13.27,28.08,14.19,28.73,13.2,30.21Z"/>
  <path class="cls-20" d="M1.89,35.87V32.1H3.77v3.77l-.4.38A1.22,1.22,0,0,1,1.89,35.87Z"/>
  <path class="cls-21" d="M11.31,32.1H13.2A2.55,2.55,0,0,1,14,33.68a3.27,3.27,0,0,1-.38,1.78l-.45.41H11.31Z"/>
  <path class="cls-7" d="M7.54,28.33V26.44a1.64,1.64,0,0,1,2-.12,1.57,1.57,0,0,1-.14,2Z"/>
  <path class="cls-13" d="M3.77,30.21H5.66V32.1H3.77Z"/>
  <path class="cls-13" d="M7.5,34l.14-1.79L9,32.12c.57.51.57,1,.15,1.78Z"/>
  <path class="cls-13" d="M7.54,35.87H5.66V34H7.54Z"/>
  <path class="cls-13" d="M5.66,35.87v1.89H3.77l-.38-.41a1.23,1.23,0,0,1,.38-1.48Z"/>
  <circle class="cls-22" cx="8.49" cy="36.81" r="1.33"/>
  <path class="cls-23" d="M15.08,35.87v1.89H13.2V35.87A1.28,1.28,0,0,1,15.08,35.87Z"/>
  <circle class="cls-13" cx="10.37" cy="38.7" r="1.33"/>
  <path class="cls-24" d="M22.63,5.7h1.88q.93,1,1.89,1.89V9.47a1.54,1.54,0,0,1,.3,1.83,1.87,1.87,0,0,1-1.75.58c-1-.27-1.68-1.11-2.73-1.22-.6-.07-1.2-.14-1.79-.26a3.12,3.12,0,0,1-1.57-.93V8c1-1,2.36,0,3.48-.63C22.91,7,22.51,6.28,22.63,5.7Z"/>
  <path d="M10.37,9.47H13.2v1.89l-.5.45a2.46,2.46,0,0,1-2,0A1.47,1.47,0,0,1,10.37,9.47Z"/>
  <path class="cls-13" d="M15.08,9.47c0-1-.25-2.34,1.58-1.73.59.49.2,1.16.31,1.73A1.29,1.29,0,0,1,15.08,9.47Z"/>
  <path class="cls-1" d="M20.74,3.81h1.89V5.7H20.74Z"/>
  <path class="cls-1" d="M17,11.36h1.89l.37.51a1.52,1.52,0,0,1-.67,1.66c-1.39.33-2-.21-2-1.65Z"/>
  <path class="cls-1" d="M13.2,11.36h1.88c.13.2.25.4.37.6-.09,1.64-.87,2-2.3,1.28A1.36,1.36,0,0,1,13.2,11.36Z"/>
  <path class="cls-7" d="M18.86,9.47h1.88A1.45,1.45,0,0,1,21.21,11a1.58,1.58,0,0,1-.79.8,1.46,1.46,0,0,1-1.56-.47Z"/>
  <path class="cls-1" d="M15.08,9.47H17v1.89a1.29,1.29,0,0,1-1.89,0Z"/>
  <path class="cls-25" d="M5.66,11.36H9.43a3.41,3.41,0,0,1,1,1.88,13.12,13.12,0,0,1,0,3.65,4.2,4.2,0,0,1-.84,2,3.36,3.36,0,0,1-3.49.63,2.22,2.22,0,0,1-1.08-1,3.13,3.13,0,0,1,.58-3.43V13.24A1.3,1.3,0,0,1,5.66,11.36Z"/>
  <path class="cls-26" d="M3.77,22.67V18.9a1.27,1.27,0,0,1,1.89,0c1,1.07,2.9,1.54,2.23,3.62a2.31,2.31,0,0,1-1.68,1,3.44,3.44,0,0,1-2-.35Z"/>
  <path class="cls-16" d="M5.66,18.9H3.77V15.13H5.66Z"/>
  <path class="cls-13" d="M1.89,24.56V22.67H3.77a1.45,1.45,0,0,1,.47,1.56,1.58,1.58,0,0,1-.79.8A1.46,1.46,0,0,1,1.89,24.56Z"/>
  <path class="cls-10" d="M5.66,11.36v1.88H3.77V11.36A1.29,1.29,0,0,1,5.66,11.36Z"/>
  <circle class="cls-17" cx="4.71" cy="10.41" r="1.33"/>
  <path class="cls-27" d="M32.06,17c-.11.67.33,1.86-.63,1.81-1.65-.08-1,1.5-1.59,2H28.28c-.16-.17-.32-.33-.49-.49A5.52,5.52,0,0,1,27.31,17a3.48,3.48,0,0,1,.8-1.84,2,2,0,0,1,1.85-.4C31,15.12,31.21,16.38,32.06,17Z"/>
  <path class="cls-28" d="M28.28,28.33H26.4a1.53,1.53,0,0,1-2.08-.06,3.16,3.16,0,0,1-.19-3.66,2.9,2.9,0,0,1,2.07-.93,3.26,3.26,0,0,1,2.08.88Z"/>
  <path class="cls-29" d="M28.28,24.56H26.4a1.33,1.33,0,1,1,1.88-1.89Z"/>
  <path class="cls-1" d="M28.28,22.67H26.4l-.38-.5a1.61,1.61,0,0,1,.58-1.66,1.33,1.33,0,0,1,1.68.28Z"/>
  <path class="cls-30" d="M26.4,32.1H22.63a1.64,1.64,0,0,1-.21-2,2.91,2.91,0,0,1,2-.76,3.3,3.3,0,0,1,2,.88Z"/>
  <path class="cls-16" d="M26.4,30.21H24.51a1.23,1.23,0,0,1-.38-1.48l.38-.4H26.4Z"/>
  <path class="cls-7" d="M30.17,15.13H28.28l-.39-.43a2.2,2.2,0,0,1-.06-1.14,1.62,1.62,0,0,1,.79-.8,1.45,1.45,0,0,1,1.55.48h1.89v1.89A1.28,1.28,0,0,1,30.17,15.13Z"/>
  <path class="cls-30" d="M30.17,13.24H28.28a1.31,1.31,0,0,1-.37-1.48l.37-.4h1.89Z"/>
  <path class="cls-30" d="M26.4,11.36V9.47h1.88v1.89A1.32,1.32,0,0,1,26.4,11.36Z"/>
  <path class="cls-1" d="M28.28,7.59h1.89V9.47H28.28Z"/>
  <path class="cls-13" d="M1.89,39.64V37.76a1.26,1.26,0,0,1,1.88,0v1.88Z"/>
  <path class="cls-30" d="M1.89,24.56H3.77a1.32,1.32,0,0,1,0,1.88H1.89Z"/>
  <path d="M9.43,13.24V11.36c.14-.72-.47-1.81.94-1.89.14.72-.47,1.81.94,1.89a1.47,1.47,0,0,1,.34,1.76,1.78,1.78,0,0,1-1.08.64A1.69,1.69,0,0,1,9.43,13.24Z"/>
  <path class="cls-13" d="M22.63,37.76V36.3l-1.88-.86V34.21H26.4v3.55Z"/>
  <path class="cls-30" d="M30.17,15.13h1.89V17H30.17Z"/>
  <path class="cls-17" d="M26.4,7.59H24.51V5.7H26.4Z"/>
  <circle class="cls-1" cx="2.83" cy="36.81" r="1.33"/>
  <path class="cls-31" d="M13.2,30.21V28.33H11.31c-.92-.92-1-2.14-1.15-3.32a6.92,6.92,0,0,1,2.07-5.81,3.21,3.21,0,0,1,1.17-.78,2.21,2.21,0,0,1,2,.42,4.17,4.17,0,0,1,.73,1.93,15.22,15.22,0,0,1,.13,2c0,.66,0,1.32.06,2-.13,1.7.82,2.89,1.84,4.1.76.92,1.81,1.86.72,3.23H15.08V30.21Z"/>
  <path class="cls-7" d="M18.86,32.1c0-.31.13-.74,0-.91-1-1.13-2.13-2.2-3.75-3.82V24.56a1.51,1.51,0,0,1,1.56-.44,3.46,3.46,0,0,0,2.66,0,2.08,2.08,0,0,1,1.7.36,3.58,3.58,0,0,1,.71,1.69c.1.6.15,1.21.22,1.81a16.11,16.11,0,0,0,.7,2.27V32.1Z"/>
  <path d="M13.2,34V32.1h1.88V34A1.26,1.26,0,0,1,13.2,34Z"/>
  <circle class="cls-1" cx="14.14" cy="34.93" r="1.33"/>
  <path class="cls-9" d="M3.77,26.44V24.56a2.94,2.94,0,0,1,1.81-.88,18,18,0,0,1,2.08,0,2.83,2.83,0,0,1,1.87.85,1.56,1.56,0,0,1-.1,1.93H3.77Z"/>
  <path d="M9.43,26.44V24.56l.4-.39a1.23,1.23,0,0,1,1.48.39v3.77H9.43Z"/>
  <path class="cls-32" d="M26.4,11.36h1.88v1.88a4,4,0,0,1-1.88,1,10.67,10.67,0,0,1-2.19.16,5.24,5.24,0,0,1-3.48-1,1.51,1.51,0,0,1,0-2,2.56,2.56,0,0,1,3.77,0Z"/>
  <path class="cls-30" d="M24.51,11.36H22.63a1.29,1.29,0,0,1,0-1.89h1.88Z"/>
  <circle class="cls-13" cx="21.68" cy="10.41" r="1.33"/>
  <path class="cls-13" d="M11.31,13.24V11.36H13.2v1.88l-.41.37A1.29,1.29,0,0,1,11.31,13.24Z"/>
  <path class="cls-33" d="M15.08,11.36H17v1.88h1.89l.39.52a1.68,1.68,0,0,1-.52,1.79,4.5,4.5,0,0,1-1.92.6,8.36,8.36,0,0,1-2.06,0,3.08,3.08,0,0,1-1.83-.93,1.64,1.64,0,0,1,.28-1.93h1.88Z"/>
  <path class="cls-13" d="M20.74,11.36v1.88l-.4.39a1.23,1.23,0,0,1-1.48-.39V11.36Z"/>
  <path d="M9.43,24.56H7.54a1.28,1.28,0,0,1,0-1.89V21.21l-1.88-.85V18.9H9.43l.53.56A5.08,5.08,0,0,1,9.43,24.56Z"/>
  <path class="cls-34" d="M13.2,15.13h1.88a1.57,1.57,0,0,1,.43,1.72c-.45,1-1.68,1.21-2.31,2a2.71,2.71,0,0,1-3.77,0V17c.84-.63,1-1.86,2-2.31A1.58,1.58,0,0,1,13.2,15.13Z"/>
  <path class="cls-19" d="M11.31,15.13V17H9.43V13.24h.94A2.22,2.22,0,0,1,11.31,15.13Z"/>
  <path class="cls-30" d="M5.66,24.56H3.77V22.67H5.66A1.29,1.29,0,0,1,5.66,24.56Z"/>
  <circle class="cls-7" cx="6.6" cy="23.61" r="1.33"/>
  <path class="cls-35" d="M17,15.13h1.89c.62-.64,1.27-1.24,1.88-1.89h3.77a3.07,3.07,0,0,0,2.39,1,2.78,2.78,0,0,1,1.38.86V17a5.1,5.1,0,0,1-3.6,1.24c-.78,0-1.56,0-2.34,0-1.85,0-3.74.17-5.38-1A1.61,1.61,0,0,1,17,15.13Z"/>
  <path class="cls-13" d="M24.51,17h3.77v3.78H26.4l-.52-.22a8.31,8.31,0,0,1-1.3-1.07,2.66,2.66,0,0,1-.59-1A1.54,1.54,0,0,1,24.51,17Z"/>
  <path class="cls-16" d="M26.4,22.67v1.89H24.51a1.67,1.67,0,0,1-2.1.12,4,4,0,0,1-.88-2.13,5.18,5.18,0,0,1,.84-3.73,1.68,1.68,0,0,1,2.14.08,2.85,2.85,0,0,1,.89,1.59A3,3,0,0,0,26.4,22.67Z"/>
  <path class="cls-36" d="M22.63,24.56h1.88v3.77a2.72,2.72,0,0,1-3.77,0V26.44C21.46,25.9,21.69,24.88,22.63,24.56Z"/>
  <path class="cls-13" d="M26.4,22.67H24.51V20.79a1.27,1.27,0,0,1,1.89,0Z"/>
  <path class="cls-20" d="M20.74,28.33h3.77v1.88H20.74Z"/>
  <path class="cls-13" d="M28.28,15.13H26.4a1.29,1.29,0,0,1,0-1.89h1.88Z"/>
  <path class="cls-19" d="M11.31,15.13c-1.41-.08-.8-1.17-.94-1.89H13.2v1.89Z"/>
  <path class="cls-37" d="M22.63,18.9v3.77a1.54,1.54,0,0,1-1.56.5,3,3,0,0,1-1-.58c-.56-.51-1.1-1.05-1.66-1.57a5.19,5.19,0,0,0-1.92-1.13,3.77,3.77,0,0,1-1.41-1H13.2V17h1.88A1.27,1.27,0,0,1,17,17h5.66A1.28,1.28,0,0,1,22.63,18.9Z"/>
  <path class="cls-17" d="M9.43,18.9H13.2v1.37c-.34.69-1.09.38-1.89.87v3.42H9.43Z"/>
  <path class="cls-7" d="M15.08,22.67V20.79a1.37,1.37,0,0,1,1.9,0,1.54,1.54,0,0,1,0,1.95A1.37,1.37,0,0,1,15.08,22.67Z"/>
  <path class="cls-38" d="M17,20.79H15.08V18.9H17a1.23,1.23,0,0,1,.38,1.48C17.23,20.52,17.1,20.65,17,20.79Z"/>
  <path class="cls-30" d="M15.08,22.67H17l.37.41a1.78,1.78,0,0,1,0,1.07l-.37.41H15.08Z"/>
  <path class="cls-13" d="M20.74,22.67h1.89v3.77H20.74V24.56A1.33,1.33,0,0,1,20.74,22.67Z"/>
  <path class="cls-30" d="M20.74,22.67v1.89H18.86l-.4-.51A1.52,1.52,0,0,1,19,22.33,1.47,1.47,0,0,1,20.74,22.67Z"/>
  <path class="cls-30" d="M18.86,24.56c0,1,.26,2.34-1.58,1.73-.59-.49-.19-1.16-.31-1.73A1.29,1.29,0,0,1,18.86,24.56Z"/>
  <path class="cls-17" d="M26.4,13.24v1.89H24.51V13.24Z"/>
  <circle class="cls-39" cx="16.03" cy="16.07" r="1.33"/>
  <path class="cls-39" d="M20.74,13.24v1.89H18.86V13.24Z"/>
  <circle class="cls-29" cx="23.57" cy="17.96" r="1.33"/>
  <path class="cls-38" d="M26.4,20.79H24.51V18.9H26.4Z"/>
  <path class="cls-13" d="M20.74,22.67H18.86a1.28,1.28,0,0,1-1.89,0V20.79a1.27,1.27,0,0,1,1.89,0h1.88Z"/>
  <path class="cls-1" d="M18.86,20.79H17V18.9h1.89Z"/>
  <circle class="cls-16" cx="17.91" cy="23.61" r="1.33"/>
</svg>