<svg id="Calque_1" data-name="Calque 1" xmlns="http://www.w3.org/2000/svg" viewBox="0 0 42.05 43.83"><defs><style>.cls-1{fill:#b81702;}.cls-2{fill:#9d2c00;}.cls-3{fill:#d83616;}.cls-4{fill:#ba1903;}.cls-5{fill:#fecb66;}.cls-6{fill:#feb14c;}.cls-7{fill:#bfbff2;}.cls-8{fill:#f3f3fb;}.cls-9{fill:#afa5a2;}</style></defs><path class="cls-1" d="M10,32l4-4a3.48,3.48,0,0,1,3.38-.85c3.15,1.51,6.31,2.94,9.66.45,1.72-.76,3.4-.9,5,.4l4,4a2.39,2.39,0,0,1,.6,2.15A2.18,2.18,0,0,1,35,35.6c-2.68-.1-5.36-.56-8,0a28,28,0,0,0-7.91,0,37.44,37.44,0,0,0-8,0A2.18,2.18,0,0,1,9.4,34.14,2.37,2.37,0,0,1,10,32Z" transform="translate(-1.95 -2.17)"/><path d="M40,34c.71.14,2-.44,1.94.75,0,1.59,1.38,1,2,1.67v3.16c-.61.72-1.31.3-1.92.42l-.78-.16c-4.51-1-9.07-.2-13.6-.45-7.6.21-15.21-.52-22.79.46L4,40H2.46c-.84-1.14-.39-2.41-.36-3.64C3.86,36.27,3.89,33.43,6,34l.68.16c1.79.44,3.42,1.68,5.43,1.15,2.38-.65,4.74-.1,7.1,0a17.47,17.47,0,0,1,7.48.08,17,17,0,0,1,7.14-.14c2,.59,3.67-.7,5.49-1.14Z" transform="translate(-1.95 -2.17)"/><path class="cls-2" d="M18,12c-2.36-.95-.1-1.91,0-2.86S17.44,8,17.05,7.55C16.66,6.18,18.51,5.4,18,4c2.36-1.68,4.93-.94,7.47-.69,2,1.21,1.75,3.3,2.06,5.18A2.36,2.36,0,0,1,27,10l-2,3a11.27,11.27,0,0,1-3.13,3.43A1.7,1.7,0,0,1,20,16C18.65,15,19.38,13,18,12Z" transform="translate(-1.95 -2.17)"/><path class="cls-3" d="M22,16c.21-2.24.76-2.79,3-3a.85.85,0,0,1,1,1c1.52,2,1,4.29.69,6.52-.87,1.11-1.61,2.35-3,2.95C21.28,23.52,21,21.9,21,20,21.06,18.61,20.92,17.15,22,16Z" transform="translate(-1.95 -2.17)"/><path d="M28,4H43.57c.71,1.06.31,2.06.43,3a3.16,3.16,0,0,1-1.54.68C39,7.26,35.6,7.46,32.18,7.29c-1.85-.09-4.13.26-4.56-2.53C27.74,4.51,27.87,4.25,28,4Z" transform="translate(-1.95 -2.17)"/><path d="M43,7h1V9.92c-5.65.17-11.33,0-17,.08V9c.88-2.2,2.82-1.94,4.62-2C35.41,6.94,39.21,7.09,43,7Z" transform="translate(-1.95 -2.17)"/><path d="M30,44v1.49c-.26.17-.52.49-.78.49-4.29,0-8.58,0-12.69,0-.84-.67-.4-1.39-.53-2l.63-.6a22.76,22.76,0,0,1,12.75,0Z" transform="translate(-1.95 -2.17)"/><path d="M26,4H16.53c-.61-.44-.67-1-.3-1.83H27.68c.61.53.2,1.22.32,1.83A1.36,1.36,0,0,1,26,4Z" transform="translate(-1.95 -2.17)"/><path d="M26,21V14h1.88c.27,2.53.05,5.1.13,7.46-.68.85-1.4.41-2,.54-.3-.22-.41-.44-.3-.67S25.9,21,26,21Z" transform="translate(-1.95 -2.17)"/><path d="M32,28H28.2c-.69,0-1.26.11-1.2,1-2,.08-1.69-1.2-1.48-2.44L26,26h5.49C32.27,26.72,31.89,27.4,32,28Z" transform="translate(-1.95 -2.17)"/><path d="M18,28H14c0-.47-.15-1.29,0-1.37A4.77,4.77,0,0,0,16.63,24c.08-.17.9,0,1.37,0l.52.54A2.83,2.83,0,0,1,18,28Z" transform="translate(-1.95 -2.17)"/><path d="M10,42H4.51c-.78-.72-.4-1.4-.51-2,1.66-1.37,3.54-1,5.43-.7a1.79,1.79,0,0,1,1,2C10.28,41.54,10.14,41.77,10,42Z" transform="translate(-1.95 -2.17)"/><path d="M42,40v1.72c-1.94.57-4,.15-6,.28l-.38-.78C37.12,37.56,39.59,39,42,40Z" transform="translate(-1.95 -2.17)"/><path d="M16,44H10.51c-.78-.72-.4-1.4-.51-2C14.53,40.14,15.24,40.37,16,44Z" transform="translate(-1.95 -2.17)"/><path d="M36,42v1.72c-1.94.57-4,.15-6,.28C30.77,40.37,31.46,40.14,36,42Z" transform="translate(-1.95 -2.17)"/><path d="M26,21v5c-3.22.7-2.78-1-2-3A2.44,2.44,0,0,1,26,21Z" transform="translate(-1.95 -2.17)"/><path d="M18,12h2v4H18Z" transform="translate(-1.95 -2.17)"/><path d="M22,16v4a1.3,1.3,0,0,1-1.57.41L20,20V16Z" transform="translate(-1.95 -2.17)"/><path d="M18,24V20h2C21,22.14,22,24.34,18,24Z" transform="translate(-1.95 -2.17)"/><path d="M10,32v2a2.86,2.86,0,0,1-4,0V32Z" transform="translate(-1.95 -2.17)"/><path d="M36,34V32h4v2A2.86,2.86,0,0,1,36,34Z" transform="translate(-1.95 -2.17)"/><path class="cls-4" d="M18,24h2V20h2v3h2v3h2c.38,1-.93,2.53,1,3-.38,1.16-1,2.07-2.31,2-.86-.3-.61-1.07-.94-2.05l-2.63,2.28L18,28Z" transform="translate(-1.95 -2.17)"/><path class="cls-5" d="M27,36H19c-.35-.22-.46-.44-.35-.67S18.88,35,19,35c0-.16,0-.45,0-.46A9.66,9.66,0,0,1,27,35c.25.22.34.44.25.67S27.09,36,27,36Z" transform="translate(-1.95 -2.17)"/><path class="cls-5" d="M27,36V35c0-.16,0-.45,0-.46A9.66,9.66,0,0,1,35,35c.34.22.45.44.34.67S35.11,36,35,36Z" transform="translate(-1.95 -2.17)"/><path class="cls-5" d="M19,35v1H11c-.34-.22-.45-.44-.34-.67S10.89,35,11,35A7.59,7.59,0,0,1,19,35Z" transform="translate(-1.95 -2.17)"/><path class="cls-6" d="M11,35v1H6.5c-.76-.73-.39-1.4-.5-2h4A.85.85,0,0,0,11,35Z" transform="translate(-1.95 -2.17)"/><path class="cls-6" d="M35,36V35a.85.85,0,0,0,1-1h4v1.69C38.42,36.4,36.66,35.8,35,36Z" transform="translate(-1.95 -2.17)"/><path class="cls-7" d="M36,42H30.51c-.78.72-.4,1.4-.51,2H16V42.28c-1.94-.57-4-.15-6-.28V40c3-1.91,6.32-.6,9.47-1,2.84-.36,5.87.83,8.53-1H41.48c.81.69.4,1.39.52,2H36.51C35.73,40.72,36.11,41.4,36,42Z" transform="translate(-1.95 -2.17)"/><path class="cls-8" d="M28,38v1.92c-6,.17-12,0-18,.08H4V38.52a2.26,2.26,0,0,1,.34-.35A.75.75,0,0,1,4.76,38Z" transform="translate(-1.95 -2.17)"/><path class="cls-9" d="M26,4h2V5.75c1.82.48,3.75.19,5.63.24s3.59.06,5.38,0a5.7,5.7,0,0,1,4,1c.07.94-.57,1-1.25,1C38,8,34.24,8.12,30.5,7.94A7,7,0,0,0,27,9c-.89.06-1-.51-1-1.2Z" transform="translate(-1.95 -2.17)"/></svg>