<svg id="Calque_1" data-name="Calque 1"
  xmlns="http://www.w3.org/2000/svg" viewBox="0 0 39.92 44.08">
  <defs>
    <style>.cls-1{fill:#783e1e;}.cls-2{fill:#793f1e;}.cls-3{fill:#7f421f;}.cls-4{fill:#bf7e5a;}.cls-5{fill:#904a21;}.cls-6{fill:#7f411f;}.cls-7{fill:#894e46;}.cls-8{fill:#e05;}.cls-9{fill:#eb0;}.cls-10{fill:#10b000;}.cls-11{fill:#e5e;}.cls-12{fill:#fefe98;}.cls-13{fill:#fecbfe;}.cls-14{fill:#66fefe;}.cls-15{fill:#3398fe;}.cls-16{fill:#66fe98;}.cls-17{fill:#fefefe;}.cls-18{fill:#fecb00;}.cls-19{fill:#fe0066;}.cls-20{fill:#00ba00;}.cls-21{fill:#fe66fe;}</style>
  </defs>
  <path class="cls-1" d="M37.69,31c0,1.28,0,2.57,0,3.86-2.76,1.77-4.66,4.41-6.88,6.71-1.12,1.16-2.75,0-4,.85-.12.5-.25,1-.43,1.71H8.9c-.28-.09-.05-.91-.2-1.6-1.12-.9-2.45-.2-3.67-.43-.55-1.2-1.13-2.39-2.87-2.57V35.84L0,35V29.2c.66-.82,1.45-.34,2.13-.47l.65.51C5.4,37,11.2,39.11,18.71,38.39c2.17-.21,4.37,0,6.55,0A4.4,4.4,0,0,0,28.51,37c2.57-1.93,4.38-4.69,7.05-6.51A2,2,0,0,1,37.69,31Z"/>
  <path class="cls-1" d="M6.58,24.28V18.51L0,12.36V7c.63-.8,1.43-.31,2.11-.45l.67.55c1.44,2.61,3.53,4.7,5.39,7,3.13,3.85,2.69,8-.86,10.68Z"/>
  <path class="cls-2" d="M37.69,31H35.47c-.24-5.15,1.19-10.19.88-15.34a3.78,3.78,0,0,1,1.34-2.44h1.66c.19.29.54.57.54.87,0,5.5,0,11,0,16.32C39.18,31.29,38.38,30.81,37.69,31Z"/>
  <path class="cls-1" d="M8.8,2.05V.36C8.92.25,9.05,0,9.19,0q8.51,0,17,0c.72.57.23,1.37.37,2.05l-.71.68a33.55,33.55,0,0,1-16.36,0Z"/>
  <path class="cls-3" d="M37.69,13.17v2.22c-3.63-.34-3.92-1-2.89-6l.67-.72h2.22Z"/>
  <path class="cls-1" d="M26.58,2.05H31V4.28c-.24.2-.48.4-.71.61C28.13,5.18,25.58,6,26.58,2.05Z"/>
  <path class="cls-1" d="M4.35,4.28V2.05H8.8C9.8,6,7.25,5.18,5.06,4.89Z"/>
  <path class="cls-1" d="M33.25,6.5h2.22V8.72C33.69,9.79,33,9,32.82,7.21Z"/>
  <path class="cls-1" d="M4.35,26.5V24.28H6.58c1.06,1.78.3,2.52-1.52,2.65Z"/>
  <path class="cls-1" d="M2.13,28.73V26.5H4.35Q5.63,30,2.13,28.73Z"/>
  <path class="cls-1" d="M31,4.28h2.22V6.5Q29.76,7.76,31,4.28Z"/>
  <path class="cls-1" d="M2.13,6.5V4.28H4.35Q5.63,7.76,2.13,6.5Z"/>
  <path class="cls-4" d="M2.13,6.5H4.35V4.28H8.8V2.05H26.58V4.28H31V6.5h2.22V8.72h2.22v6.1c.8.87,1.56.45,2.22.57V28.06c-.37.86-1.24.53-1.84.84-.72.57-.24,1.37-.38,2.05.81,2.37-2.75,2.12-2.5,4.17-2-.26-1.79,3.3-4.17,2.5-1.24-1-1.36-2.66-2.35-3.8a3.65,3.65,0,0,1-.5-1.43,2.62,2.62,0,0,1,1.1-1.87c1.12-1,2.75-.67,3.93-1.53.55-1-.23-1.67-.49-2.48a2.94,2.94,0,0,1,.13-2.18c.56-1.39,3.64-.95,2.55-3.53a10.65,10.65,0,0,1-.64-1.26,8.22,8.22,0,0,1-.45-2.08,5.87,5.87,0,0,0-.94-3.21c-.3-.32-.58-.65-.88-1A5.21,5.21,0,0,0,28,12.06a4.55,4.55,0,0,1-1.77-.92c-.85-1.06-.91-2.53-1.81-3.56-.3-.31-.58-.64-.87-1a3.39,3.39,0,0,0-2.2-1c-.75.08-1.53.07-1.91.92,0,.9.64,1.4,1.19,2,1.08,1.07,2.66,1.18,3.83,2.05a4.71,4.71,0,0,1,1,1.86,9.16,9.16,0,0,0,1.62,3,6,6,0,0,1,.59,2c.1.67.14,1.35.23,2,.13,1.15,1,2,1.39,3a2.47,2.47,0,0,1-.44,2c-.8.9-2.24,1-2.73,2.21,0,.94.7,1.61,1,2.46A2,2,0,0,1,26.51,31a4.5,4.5,0,0,1-1.88,1.05c-1,.34-2.25,0-2.86,1.24.06,1,.8,1.46,1.43,2,1.2,1.45,4.86,1.06,3.38,4.51H9.05L8.69,38C7.59,37,6,38.11,4.53,37.31V34.09c-.59-1.14-1.48-.74-2.4-1.36v-4H4.35V26.5H6.58V24.28H8.52V15.71c-2.65-.78-3.28-4.14-6.13-5C1.75,9.41,2.33,7.92,2.13,6.5Z"/>
  <path class="cls-5" d="M26.58,39.84V38.15c-1.17-1.21-2.79,0-4.11-.74-.67-.55-.2-1.34-.33-2C23.3,34,25,33.76,26.58,33.17H28.8v6.67Z"/>
  <path class="cls-6" d="M13.25,31H15c.92,1.27.45,2.69.38,4-.63.77-1.42.3-2.09.43a2.83,2.83,0,0,0-4.45,0H7.08c-.91-1.27-.44-2.69-.38-4,.63-.77,1.42-.29,2.1-.43A3.22,3.22,0,0,1,13.25,31Z"/>
  <path class="cls-7" d="M26.58,31V28.73a3.52,3.52,0,0,1,1.77-1.19c.91-.31,1.76-.77,2.68-1h1.72c.89,1.29.46,2.7.33,4.45Z"/>
  <path class="cls-5" d="M33.25,19.83h1.69c1.23,1.26,0,2.74.7,4-1.73.8-3.2.25-4.61.44a1.43,1.43,0,0,1-1.75.45l-.48-.45V22.06C30,20.68,31.69,20.43,33.25,19.83Z"/>
  <path class="cls-5" d="M31,13.17h2.22v4.44a5.05,5.05,0,0,1-2.41,1.23,5,5,0,0,1-4.26-1.23V15.39C27.74,14,29.47,13.76,31,13.17Z"/>
  <path class="cls-5" d="M24.36,6.5h2.22v4.44a1.54,1.54,0,0,1-2.22,0H19.91V8.72C21.07,7.34,22.8,7.09,24.36,6.5Z"/>
  <path class="cls-8" d="M33.25,19.83v2.23H26.58V19.83c1.21-1.15,2.73-1.1,4.24-1A4.08,4.08,0,0,1,33.25,19.83Z"/>
  <path class="cls-9" d="M31,13.17v2.22H24.36V13.17c1.21-1.16,2.72-1.11,4.24-1.05A4,4,0,0,1,31,13.17Z"/>
  <path class="cls-10" d="M24.36,6.5V8.72H17.69V6.5c1.21-1.16,2.72-1.11,4.24-1A4,4,0,0,1,24.36,6.5Z"/>
  <path class="cls-11" d="M26.58,33.17v2.22H19.91V33.17c1.22-1.16,2.73-1.1,4.24-1A3.94,3.94,0,0,1,26.58,33.17Z"/>
  <path class="cls-12" d="M28.8,13.17H24.36V10.94H28.8A1.52,1.52,0,0,1,28.8,13.17Z"/>
  <path class="cls-13" d="M31,19.83H26.58V17.61H31A1.51,1.51,0,0,1,31,19.83Z"/>
  <path class="cls-14" d="M24.36,26.5V24.28H28.8a1.86,1.86,0,0,1,0,2.58A3.53,3.53,0,0,1,24.36,26.5Z"/>
  <path class="cls-15" d="M28.8,26.5V24.28H31v4.45H28.8A1.53,1.53,0,0,1,28.8,26.5Z"/>
  <path class="cls-15" d="M28.8,26.5v2.23H24.36V26.5Z"/>
  <path class="cls-5" d="M13.25,31H8.8V29.23c1.27-.91,2.69-.44,4-.38C13.58,29.48,13.11,30.27,13.25,31Z"/>
  <path class="cls-13" d="M24.36,33.17H19.91V31h4.45A1.51,1.51,0,0,1,24.36,33.17Z"/>
  <path class="cls-16" d="M22.14,6.5H17.69V4.28h4.45A1.51,1.51,0,0,1,22.14,6.5Z"/>
  <path class="cls-17" d="M8.8,35.39V33.67c1.27-.91,2.69-.44,4-.37.77.62.3,1.41.44,2.09Z"/>
  <path class="cls-18" d="M28.8,13.17V10.94H31v2.23Z"/>
  <circle class="cls-19" cx="32.14" cy="18.72" r="1.57"/>
  <path class="cls-20" d="M22.14,6.5V4.28h2.22V6.5Z"/>
  <circle class="cls-21" cx="25.47" cy="32.06" r="1.57"/>
</svg>