<svg id="Calque_1" data-name="Calque 1"
  xmlns="http://www.w3.org/2000/svg" viewBox="0 0 41.87 38.19">
  <defs>
    <style>.cls-1{fill:#fe6900;}.cls-2{fill:#fe6600;}.cls-3{fill:#fe7500;}.cls-4{fill:#fefe00;}.cls-5{fill:#fefe97;}.cls-6{fill:#feca00;}.cls-7{fill:#fe9700;}</style>
  </defs>
  <path class="cls-1" d="M28.59,13.23c3.61,0,7.23,0,10.84.12,1,0,2.33-.42,2.42,1.35.07,1.33.1,2.59-1.8,2.47a2.33,2.33,0,0,1-2.16.4c-2.8-2.06-6.58,0-9.36-2.22A1.66,1.66,0,0,1,28.59,13.23Z"/>
  <path class="cls-1" d="M1.82,17.17C-.1,17.29,0,16,0,14.68c.09-1.78,1.46-1.32,2.44-1.33,3.63,0,7.26,0,10.89,0l.35.64a1.86,1.86,0,0,1-1,1.81c-2.83,1.29-6.2-.17-8.9,1.77A2.17,2.17,0,0,1,1.82,17.17Z"/>
  <path class="cls-2" d="M22.75,32.38H19.11c-1.73.13-1.5-.94-1.23-2a3.32,3.32,0,0,1,1.36-.84,17,17,0,0,1,4.09-.38c2.08.54,5.64-1.2,5.16,3.32A5.08,5.08,0,0,1,22.75,32.38Z"/>
  <path class="cls-2" d="M18.08,30.85a1.65,1.65,0,0,0,1,1.54c-.83,3.82-4,.9-5.74,2a2.81,2.81,0,0,1-.84-2.47C13.89,28.88,15.74,28.57,18.08,30.85Z"/>
  <path class="cls-3" d="M13.36,32.44c0,.64,0,1.27,0,1.91-.06,3-2.44,1.35-3.75,1.84a1.67,1.67,0,0,1-1.8.36,1.74,1.74,0,0,1-.77-1.69,3.13,3.13,0,0,1,.55-1.2,6.6,6.6,0,0,1,2.62-2.06A2.85,2.85,0,0,1,13.36,32.44Z"/>
  <path class="cls-2" d="M36.22,34.19c1.85-.1,1.88,1.09,1.84,2.45,0,1-.58,1.57-1.42,1.34-1.51-.41-4,1.54-4.35-1.77.12-.15.23-.3.34-.46.95-.61,2.08-.83,3-1.41Z"/>
  <path class="cls-2" d="M7.57,36.13l2,.06c-.35,3.25-2.85,1.43-4.38,1.8-.86.21-1.4-.36-1.43-1.36,0-1.37,0-2.57,1.87-2.41l.5.23C6.72,34.94,7,35.64,7.57,36.13Z"/>
  <path class="cls-2" d="M22.75,32.38h5.66l.46.37a1.82,1.82,0,0,1,0,1.13l-.41.42C26.69,33.33,23.6,36.19,22.75,32.38Z"/>
  <path class="cls-3" d="M28.59,13.23l-.1,1.84-.52.48c-1.62.19-2-.92-2.3-2.14a5.38,5.38,0,0,1,.51-3.48l.53-.47C29.73,9.53,28.13,11.89,28.59,13.23Z"/>
  <path class="cls-2" d="M24.8,5.67c3,.06,1.37,2.48,1.91,3.79l-.12.11a1.52,1.52,0,0,1-1.66.36A2.06,2.06,0,0,1,24.12,9a3.61,3.61,0,0,1,.2-3Z"/>
  <path class="cls-2" d="M19.08,2c-.15-1.2.1-1.95,1.58-2S23,.21,22.9,1.86l-.33.44A3.11,3.11,0,0,1,21,2.72a3.18,3.18,0,0,1-1.57-.36C19.32,2.23,19.2,2.1,19.08,2Z"/>
  <path class="cls-2" d="M13.36,13.38c.47-1.35-1.42-3.88,1.91-3.81l.48.54a2.89,2.89,0,0,1-.52,3.35,1.46,1.46,0,0,1-1.94-.16Z"/>
  <path class="cls-2" d="M32.29,36.21c-1.32-.53-3.73,1.13-3.8-1.9l.1-.1c2.15-1.13,3.95-1.57,3.8,1.9Z"/>
  <path class="cls-2" d="M17.17,5.77c.45-1.36-1.41-3.88,1.91-3.81L19,1.89a2.77,2.77,0,0,1,.58,3.3,1.8,1.8,0,0,1-1.78.93Z"/>
  <path class="cls-2" d="M15.27,9.57c.45-1.36-1.42-3.88,1.9-3.8l-.07-.08a2.81,2.81,0,0,1,.26,3.72,1.49,1.49,0,0,1-2.17.09Z"/>
  <path class="cls-2" d="M34.32,30.39c3,.06,1.37,2.48,1.9,3.8l-.11.1c-3.36.71-2.67-1.43-2.35-3.32C33.94,30.77,34.13,30.58,34.32,30.39Z"/>
  <path class="cls-2" d="M22.9,1.86c3,.07,1.38,2.49,1.9,3.81l-.1.1a1.55,1.55,0,0,1-1.79.29,2.47,2.47,0,0,1-.77-1,2.92,2.92,0,0,1,.66-3Z"/>
  <path class="cls-2" d="M1.82,17.17l2-.05A1.63,1.63,0,0,1,5.9,17a1.93,1.93,0,0,1-.06,2.15,1.76,1.76,0,0,1-2.12-.12C2.29,19.24,1.78,18.48,1.82,17.17Z"/>
  <path class="cls-2" d="M38.14,19.08c.06,1.32-.47,2.06-1.9,1.9-1.37.39-1.45-.58-1.59-1.49a4,4,0,0,1,1.15-2.38A1.67,1.67,0,0,1,37,16.85,2.86,2.86,0,0,1,38.14,19.08Z"/>
  <path class="cls-2" d="M3.72,19.07H5.55c1.9-.9,2.54-.15,2.3,1.75A1.56,1.56,0,0,1,5.63,21C4.19,21.14,3.68,20.38,3.72,19.07Z"/>
  <path class="cls-2" d="M35.21,19.43a1.63,1.63,0,0,0,1,1.55c.06,1.32-.48,2.06-1.9,1.9-1.57.28-1.52-.81-1.55-1.83C33.35,20.15,33.4,18.47,35.21,19.43Z"/>
  <path class="cls-2" d="M5.63,21H7.46c1.89-.9,2.53-.15,2.3,1.75a1.57,1.57,0,0,1-2.23.15C6.09,23.05,5.58,22.28,5.63,21Z"/>
  <path class="cls-2" d="M33.31,21.33a1.63,1.63,0,0,0,1,1.55c0,1.32-.48,2.06-1.91,1.9-1.57.3-1.51-.81-1.55-1.82C31.44,22.05,31.49,20.38,33.31,21.33Z"/>
  <path class="cls-2" d="M7.53,22.87H9.36c1.9-.91,2.54-.16,2.3,1.74a1.58,1.58,0,0,1-2.23.16C8,25,7.49,24.19,7.53,22.87Z"/>
  <path class="cls-2" d="M5.68,34.22c.51-1.33-1.22-3.78,1.91-3.8l.51.51a2.72,2.72,0,0,1-.52,3.34l.06-.06a1.28,1.28,0,0,1-1.91.06Z"/>
  <path class="cls-2" d="M32.41,26.58c3,.07,1.38,2.49,1.91,3.81l-.11.1a1.53,1.53,0,0,1-1.66.37,2.07,2.07,0,0,1-.81-.9,3.6,3.6,0,0,1,.19-3Z"/>
  <path class="cls-2" d="M7.59,30.42c.5-1.33-1.22-3.78,1.9-3.81L10,27a3.59,3.59,0,0,1,.17,3,1.94,1.94,0,0,1-.82.88,1.5,1.5,0,0,1-1.66-.41Z"/>
  <path class="cls-2" d="M38.14,19.08a1.64,1.64,0,0,1-1-1.53c.15-.66.5-.78,1-.39h1.89C40.1,18.49,39.58,19.24,38.14,19.08Z"/>
  <path class="cls-2" d="M31.41,23.23a1.62,1.62,0,0,0,1,1.55l0,1.8-.1.11a1.57,1.57,0,0,1-2.21-.17C29.67,25.09,28.59,23.39,31.41,23.23Z"/>
  <path class="cls-2" d="M9.43,24.78l1.76,0a1.42,1.42,0,0,1,.4,2,1.58,1.58,0,0,1-2.05-.05l0-.05Z"/>
  <path class="cls-4" d="M38.16,17.16l-1,.39a1.16,1.16,0,0,0-.74-.23,7.71,7.71,0,0,1-5.42,1c-1.46-.35-3.28-.63-2.34-3l-.12-.26c2.36.06,4.73.15,7.09.17C37,15.25,38.16,15.37,38.16,17.16Z"/>
  <path class="cls-5" d="M5.53,17.32l-1.72-.2c0-2.74,2.05-1.76,3.39-1.84,2-.14,4.09,0,6.14,0l.39.7a1.76,1.76,0,0,1-1.12,1.94A8.49,8.49,0,0,1,5.53,17.32Z"/>
  <path class="cls-5" d="M13.29,13.3l2,0,.38.43a2.14,2.14,0,0,1,.06,1.15,1.6,1.6,0,0,1-.8.8,1.45,1.45,0,0,1-1.56-.5l0,0C13.32,14.6,13.31,14,13.29,13.3Z"/>
  <path class="cls-6" d="M5.53,17.32l7.71-.25a13.11,13.11,0,0,0,2-1.9l0,0a2.52,2.52,0,0,0,1-2.05,4,4,0,0,1,.44-1.67c.47-.78,1.3-1.34,1.44-2.32a4.59,4.59,0,0,1,.55-1.61,18.4,18.4,0,0,1,1.59-1.72,3,3,0,0,1,1-.62,1.57,1.57,0,0,1,1.61.51h0c1.28.94.59,2.87,1.9,3.8h0c1.28,1,.6,2.87,1.88,3.83a2,2,0,0,0,2,2c1.81,3.7,5.29.87,7.76,2l-1.16,2.11-1.9,1.9c-.64.63-1.27,1.26-1.9,1.9-1.46.81-.76,2.19-.89,3.35,1.17,1,.53,2.91,1.83,3.87h0c.34,3.83-1.78,2.78-3.8,1.9l-.14,0c-.86-3.49-3.8-1-5.57-1.94a2.42,2.42,0,0,0-3.81,0l-1,.39c-1.77-.06-4-1.44-4.72,1.6l-3.71,0a1.42,1.42,0,0,1-.15-2.11l-.06.06c1.43-.88.69-2.88,2-3.83-.08-.62-.15-1.24-.23-1.86.18-1.39-.68-1.77-1.83-1.87.09-1.35-.71-1.82-1.9-1.9.08-1.35-.72-1.82-1.91-1.9C5.54,18.49,5.54,17.9,5.53,17.32Z"/>
  <path class="cls-7" d="M19,30.45a1.75,1.75,0,0,1,2.14-1.84c1.18.07,1.57.81,1.67,1.84Z"/>
  <path class="cls-4" d="M9.5,30.37l.15,2.11a1.65,1.65,0,0,1-2.07,1.79l.06-3.81Z"/>
  <path class="cls-4" d="M5.73,34.27l1.91-.06c0,.64,0,1.28-.07,1.92C6.23,36.23,5.64,35.59,5.73,34.27Z"/>
  <path class="cls-7" d="M28.55,32.35c1.48-.2,3.52.69,3.8-1.9l1.86,0c.24,1.46-.6,3.46,1.9,3.8-.26,2.6-2.27,1.65-3.72,1.82-.33-2.5-2.34-1.67-3.8-1.9C28.58,33.59,28.56,33,28.55,32.35Z"/>
  <path class="cls-7" d="M26.62,13.36C24.08,13,24.93,11,24.74,9.53l1.85,0Z"/>
  <path class="cls-7" d="M24.74,9.53c-2.59-.29-1.7-2.32-1.9-3.8l1.86,0C24.71,7,24.73,8.28,24.74,9.53Z"/>
  <path class="cls-5" d="M19,5.73l0-3.84,1.83.1a2.48,2.48,0,0,1,.09,3.68H20.8a1.29,1.29,0,0,1-1.19.44Z"/>
  <path class="cls-7" d="M20.92,5.67,20.83,2l2,0c0,1.26,0,2.51,0,3.77Z"/>
  <path class="cls-5" d="M17.28,11.44l-.21,1.81a1.17,1.17,0,0,1-1.85.07l0,0c0-1.28,0-2.56-.05-3.84l2,0,.38.39A1.42,1.42,0,0,1,17.28,11.44Z"/>
  <path class="cls-5" d="M19.18,7.63,19,9.45a1.18,1.18,0,0,1-1.85.07l0,0c0-1.28,0-2.57,0-3.85l1.94,0h0A1.43,1.43,0,0,1,19.18,7.63Z"/>
  <path class="cls-7" d="M32.35,30.45c-2.63-.34-1.72-2.34-1.83-3.87l1.79.11C32.32,27.94,32.34,29.19,32.35,30.45Z"/>
  <path class="cls-4" d="M11.42,26.6c-.2,1.51.72,3.6-2,3.83,0-1.26.07-2.51.1-3.77Z"/>
  <path class="cls-4" d="M15.21,15.17c0,1.31-.63,2-2,1.9l.08-1.85Z"/>
  <path class="cls-4" d="M15.22,13.32l1.85-.07c.07,1.34-.59,2-1.9,2C15.18,14.58,15.2,14,15.22,13.32Z"/>
  <path class="cls-4" d="M19.18,7.63,19,5.72l1.78,0C21,6.92,20.41,7.54,19.18,7.63Z"/>
  <path class="cls-4" d="M17.12,9.52,19,9.45a1.62,1.62,0,0,1-1.69,2C17.23,10.8,17.17,10.16,17.12,9.52Z"/>
</svg>